G04 #@! TF.GenerationSoftware,KiCad,Pcbnew,7.0.1*
G04 #@! TF.CreationDate,2023-04-06T13:44:27+02:00*
G04 #@! TF.ProjectId,t-rex,742d7265-782e-46b6-9963-61645f706362,rev?*
G04 #@! TF.SameCoordinates,Original*
G04 #@! TF.FileFunction,Legend,Bot*
G04 #@! TF.FilePolarity,Positive*
%FSLAX46Y46*%
G04 Gerber Fmt 4.6, Leading zero omitted, Abs format (unit mm)*
G04 Created by KiCad (PCBNEW 7.0.1) date 2023-04-06 13:44:27*
%MOMM*%
%LPD*%
G01*
G04 APERTURE LIST*
%ADD10C,0.300000*%
%ADD11C,0.150000*%
%ADD12C,0.381000*%
%ADD13R,1.752600X1.752600*%
%ADD14C,1.752600*%
%ADD15R,1.600000X1.600000*%
%ADD16O,1.600000X1.600000*%
%ADD17C,1.700000*%
%ADD18C,3.400000*%
%ADD19C,2.000000*%
%ADD20R,1.700000X1.700000*%
%ADD21O,1.700000X1.700000*%
%ADD22C,4.400000*%
G04 APERTURE END LIST*
D10*
X212121427Y-89990357D02*
X212264285Y-89918928D01*
X212264285Y-89918928D02*
X212478570Y-89918928D01*
X212478570Y-89918928D02*
X212692856Y-89990357D01*
X212692856Y-89990357D02*
X212835713Y-90133214D01*
X212835713Y-90133214D02*
X212907142Y-90276071D01*
X212907142Y-90276071D02*
X212978570Y-90561785D01*
X212978570Y-90561785D02*
X212978570Y-90776071D01*
X212978570Y-90776071D02*
X212907142Y-91061785D01*
X212907142Y-91061785D02*
X212835713Y-91204642D01*
X212835713Y-91204642D02*
X212692856Y-91347500D01*
X212692856Y-91347500D02*
X212478570Y-91418928D01*
X212478570Y-91418928D02*
X212335713Y-91418928D01*
X212335713Y-91418928D02*
X212121427Y-91347500D01*
X212121427Y-91347500D02*
X212049999Y-91276071D01*
X212049999Y-91276071D02*
X212049999Y-90776071D01*
X212049999Y-90776071D02*
X212335713Y-90776071D01*
X211192856Y-89918928D02*
X211192856Y-90276071D01*
X211549999Y-90133214D02*
X211192856Y-90276071D01*
X211192856Y-90276071D02*
X210835713Y-90133214D01*
X211407142Y-90561785D02*
X211192856Y-90276071D01*
X211192856Y-90276071D02*
X210978570Y-90561785D01*
X210049999Y-89918928D02*
X210049999Y-90276071D01*
X210407142Y-90133214D02*
X210049999Y-90276071D01*
X210049999Y-90276071D02*
X209692856Y-90133214D01*
X210264285Y-90561785D02*
X210049999Y-90276071D01*
X210049999Y-90276071D02*
X209835713Y-90561785D01*
X208907142Y-89918928D02*
X208907142Y-90276071D01*
X209264285Y-90133214D02*
X208907142Y-90276071D01*
X208907142Y-90276071D02*
X208549999Y-90133214D01*
X209121428Y-90561785D02*
X208907142Y-90276071D01*
X208907142Y-90276071D02*
X208692856Y-90561785D01*
D11*
X85112054Y-43186845D02*
X85112054Y-42386845D01*
X85112054Y-42386845D02*
X84921578Y-42386845D01*
X84921578Y-42386845D02*
X84807292Y-42424940D01*
X84807292Y-42424940D02*
X84731102Y-42501130D01*
X84731102Y-42501130D02*
X84693007Y-42577321D01*
X84693007Y-42577321D02*
X84654911Y-42729702D01*
X84654911Y-42729702D02*
X84654911Y-42843988D01*
X84654911Y-42843988D02*
X84693007Y-42996369D01*
X84693007Y-42996369D02*
X84731102Y-43072559D01*
X84731102Y-43072559D02*
X84807292Y-43148750D01*
X84807292Y-43148750D02*
X84921578Y-43186845D01*
X84921578Y-43186845D02*
X85112054Y-43186845D01*
X84159673Y-42386845D02*
X84083483Y-42386845D01*
X84083483Y-42386845D02*
X84007292Y-42424940D01*
X84007292Y-42424940D02*
X83969197Y-42463035D01*
X83969197Y-42463035D02*
X83931102Y-42539226D01*
X83931102Y-42539226D02*
X83893007Y-42691607D01*
X83893007Y-42691607D02*
X83893007Y-42882083D01*
X83893007Y-42882083D02*
X83931102Y-43034464D01*
X83931102Y-43034464D02*
X83969197Y-43110654D01*
X83969197Y-43110654D02*
X84007292Y-43148750D01*
X84007292Y-43148750D02*
X84083483Y-43186845D01*
X84083483Y-43186845D02*
X84159673Y-43186845D01*
X84159673Y-43186845D02*
X84235864Y-43148750D01*
X84235864Y-43148750D02*
X84273959Y-43110654D01*
X84273959Y-43110654D02*
X84312054Y-43034464D01*
X84312054Y-43034464D02*
X84350150Y-42882083D01*
X84350150Y-42882083D02*
X84350150Y-42691607D01*
X84350150Y-42691607D02*
X84312054Y-42539226D01*
X84312054Y-42539226D02*
X84273959Y-42463035D01*
X84273959Y-42463035D02*
X84235864Y-42424940D01*
X84235864Y-42424940D02*
X84159673Y-42386845D01*
X74704345Y-38520495D02*
X74437678Y-39320495D01*
X74437678Y-39320495D02*
X74171012Y-38520495D01*
X73447202Y-39244304D02*
X73485298Y-39282400D01*
X73485298Y-39282400D02*
X73599583Y-39320495D01*
X73599583Y-39320495D02*
X73675774Y-39320495D01*
X73675774Y-39320495D02*
X73790060Y-39282400D01*
X73790060Y-39282400D02*
X73866250Y-39206209D01*
X73866250Y-39206209D02*
X73904345Y-39130019D01*
X73904345Y-39130019D02*
X73942441Y-38977638D01*
X73942441Y-38977638D02*
X73942441Y-38863352D01*
X73942441Y-38863352D02*
X73904345Y-38710971D01*
X73904345Y-38710971D02*
X73866250Y-38634780D01*
X73866250Y-38634780D02*
X73790060Y-38558590D01*
X73790060Y-38558590D02*
X73675774Y-38520495D01*
X73675774Y-38520495D02*
X73599583Y-38520495D01*
X73599583Y-38520495D02*
X73485298Y-38558590D01*
X73485298Y-38558590D02*
X73447202Y-38596685D01*
X72647202Y-39244304D02*
X72685298Y-39282400D01*
X72685298Y-39282400D02*
X72799583Y-39320495D01*
X72799583Y-39320495D02*
X72875774Y-39320495D01*
X72875774Y-39320495D02*
X72990060Y-39282400D01*
X72990060Y-39282400D02*
X73066250Y-39206209D01*
X73066250Y-39206209D02*
X73104345Y-39130019D01*
X73104345Y-39130019D02*
X73142441Y-38977638D01*
X73142441Y-38977638D02*
X73142441Y-38863352D01*
X73142441Y-38863352D02*
X73104345Y-38710971D01*
X73104345Y-38710971D02*
X73066250Y-38634780D01*
X73066250Y-38634780D02*
X72990060Y-38558590D01*
X72990060Y-38558590D02*
X72875774Y-38520495D01*
X72875774Y-38520495D02*
X72799583Y-38520495D01*
X72799583Y-38520495D02*
X72685298Y-38558590D01*
X72685298Y-38558590D02*
X72647202Y-38596685D01*
X73923388Y-58007797D02*
X73809102Y-58045892D01*
X73809102Y-58045892D02*
X73771007Y-58083988D01*
X73771007Y-58083988D02*
X73732911Y-58160178D01*
X73732911Y-58160178D02*
X73732911Y-58274464D01*
X73732911Y-58274464D02*
X73771007Y-58350654D01*
X73771007Y-58350654D02*
X73809102Y-58388750D01*
X73809102Y-58388750D02*
X73885292Y-58426845D01*
X73885292Y-58426845D02*
X74190054Y-58426845D01*
X74190054Y-58426845D02*
X74190054Y-57626845D01*
X74190054Y-57626845D02*
X73923388Y-57626845D01*
X73923388Y-57626845D02*
X73847197Y-57664940D01*
X73847197Y-57664940D02*
X73809102Y-57703035D01*
X73809102Y-57703035D02*
X73771007Y-57779226D01*
X73771007Y-57779226D02*
X73771007Y-57855416D01*
X73771007Y-57855416D02*
X73809102Y-57931607D01*
X73809102Y-57931607D02*
X73847197Y-57969702D01*
X73847197Y-57969702D02*
X73923388Y-58007797D01*
X73923388Y-58007797D02*
X74190054Y-58007797D01*
X73047197Y-57626845D02*
X73199578Y-57626845D01*
X73199578Y-57626845D02*
X73275769Y-57664940D01*
X73275769Y-57664940D02*
X73313864Y-57703035D01*
X73313864Y-57703035D02*
X73390054Y-57817321D01*
X73390054Y-57817321D02*
X73428150Y-57969702D01*
X73428150Y-57969702D02*
X73428150Y-58274464D01*
X73428150Y-58274464D02*
X73390054Y-58350654D01*
X73390054Y-58350654D02*
X73351959Y-58388750D01*
X73351959Y-58388750D02*
X73275769Y-58426845D01*
X73275769Y-58426845D02*
X73123388Y-58426845D01*
X73123388Y-58426845D02*
X73047197Y-58388750D01*
X73047197Y-58388750D02*
X73009102Y-58350654D01*
X73009102Y-58350654D02*
X72971007Y-58274464D01*
X72971007Y-58274464D02*
X72971007Y-58083988D01*
X72971007Y-58083988D02*
X73009102Y-58007797D01*
X73009102Y-58007797D02*
X73047197Y-57969702D01*
X73047197Y-57969702D02*
X73123388Y-57931607D01*
X73123388Y-57931607D02*
X73275769Y-57931607D01*
X73275769Y-57931607D02*
X73351959Y-57969702D01*
X73351959Y-57969702D02*
X73390054Y-58007797D01*
X73390054Y-58007797D02*
X73428150Y-58083988D01*
X84883488Y-54903447D02*
X84769202Y-54941542D01*
X84769202Y-54941542D02*
X84731107Y-54979638D01*
X84731107Y-54979638D02*
X84693011Y-55055828D01*
X84693011Y-55055828D02*
X84693011Y-55170114D01*
X84693011Y-55170114D02*
X84731107Y-55246304D01*
X84731107Y-55246304D02*
X84769202Y-55284400D01*
X84769202Y-55284400D02*
X84845392Y-55322495D01*
X84845392Y-55322495D02*
X85150154Y-55322495D01*
X85150154Y-55322495D02*
X85150154Y-54522495D01*
X85150154Y-54522495D02*
X84883488Y-54522495D01*
X84883488Y-54522495D02*
X84807297Y-54560590D01*
X84807297Y-54560590D02*
X84769202Y-54598685D01*
X84769202Y-54598685D02*
X84731107Y-54674876D01*
X84731107Y-54674876D02*
X84731107Y-54751066D01*
X84731107Y-54751066D02*
X84769202Y-54827257D01*
X84769202Y-54827257D02*
X84807297Y-54865352D01*
X84807297Y-54865352D02*
X84883488Y-54903447D01*
X84883488Y-54903447D02*
X85150154Y-54903447D01*
X84007297Y-54789161D02*
X84007297Y-55322495D01*
X84197773Y-54484400D02*
X84388250Y-55055828D01*
X84388250Y-55055828D02*
X83893011Y-55055828D01*
X73860792Y-35498750D02*
X73746506Y-35536845D01*
X73746506Y-35536845D02*
X73556030Y-35536845D01*
X73556030Y-35536845D02*
X73479839Y-35498750D01*
X73479839Y-35498750D02*
X73441744Y-35460654D01*
X73441744Y-35460654D02*
X73403649Y-35384464D01*
X73403649Y-35384464D02*
X73403649Y-35308273D01*
X73403649Y-35308273D02*
X73441744Y-35232083D01*
X73441744Y-35232083D02*
X73479839Y-35193988D01*
X73479839Y-35193988D02*
X73556030Y-35155892D01*
X73556030Y-35155892D02*
X73708411Y-35117797D01*
X73708411Y-35117797D02*
X73784601Y-35079702D01*
X73784601Y-35079702D02*
X73822696Y-35041607D01*
X73822696Y-35041607D02*
X73860792Y-34965416D01*
X73860792Y-34965416D02*
X73860792Y-34889226D01*
X73860792Y-34889226D02*
X73822696Y-34813035D01*
X73822696Y-34813035D02*
X73784601Y-34774940D01*
X73784601Y-34774940D02*
X73708411Y-34736845D01*
X73708411Y-34736845D02*
X73517934Y-34736845D01*
X73517934Y-34736845D02*
X73403649Y-34774940D01*
X73175077Y-34736845D02*
X72717934Y-34736845D01*
X72946506Y-35536845D02*
X72946506Y-34736845D01*
X73866245Y-40227797D02*
X74132911Y-40227797D01*
X74132911Y-40646845D02*
X74132911Y-39846845D01*
X74132911Y-39846845D02*
X73751959Y-39846845D01*
X73104340Y-40113511D02*
X73104340Y-40646845D01*
X73294816Y-39808750D02*
X73485293Y-40380178D01*
X73485293Y-40380178D02*
X72990054Y-40380178D01*
X84845388Y-58007797D02*
X84731102Y-58045892D01*
X84731102Y-58045892D02*
X84693007Y-58083988D01*
X84693007Y-58083988D02*
X84654911Y-58160178D01*
X84654911Y-58160178D02*
X84654911Y-58274464D01*
X84654911Y-58274464D02*
X84693007Y-58350654D01*
X84693007Y-58350654D02*
X84731102Y-58388750D01*
X84731102Y-58388750D02*
X84807292Y-58426845D01*
X84807292Y-58426845D02*
X85112054Y-58426845D01*
X85112054Y-58426845D02*
X85112054Y-57626845D01*
X85112054Y-57626845D02*
X84845388Y-57626845D01*
X84845388Y-57626845D02*
X84769197Y-57664940D01*
X84769197Y-57664940D02*
X84731102Y-57703035D01*
X84731102Y-57703035D02*
X84693007Y-57779226D01*
X84693007Y-57779226D02*
X84693007Y-57855416D01*
X84693007Y-57855416D02*
X84731102Y-57931607D01*
X84731102Y-57931607D02*
X84769197Y-57969702D01*
X84769197Y-57969702D02*
X84845388Y-58007797D01*
X84845388Y-58007797D02*
X85112054Y-58007797D01*
X83931102Y-57626845D02*
X84312054Y-57626845D01*
X84312054Y-57626845D02*
X84350150Y-58007797D01*
X84350150Y-58007797D02*
X84312054Y-57969702D01*
X84312054Y-57969702D02*
X84235864Y-57931607D01*
X84235864Y-57931607D02*
X84045388Y-57931607D01*
X84045388Y-57931607D02*
X83969197Y-57969702D01*
X83969197Y-57969702D02*
X83931102Y-58007797D01*
X83931102Y-58007797D02*
X83893007Y-58083988D01*
X83893007Y-58083988D02*
X83893007Y-58274464D01*
X83893007Y-58274464D02*
X83931102Y-58350654D01*
X83931102Y-58350654D02*
X83969197Y-58388750D01*
X83969197Y-58388750D02*
X84045388Y-58426845D01*
X84045388Y-58426845D02*
X84235864Y-58426845D01*
X84235864Y-58426845D02*
X84312054Y-58388750D01*
X84312054Y-58388750D02*
X84350150Y-58350654D01*
X85131102Y-34804940D02*
X85207292Y-34766845D01*
X85207292Y-34766845D02*
X85321578Y-34766845D01*
X85321578Y-34766845D02*
X85435864Y-34804940D01*
X85435864Y-34804940D02*
X85512054Y-34881130D01*
X85512054Y-34881130D02*
X85550149Y-34957321D01*
X85550149Y-34957321D02*
X85588245Y-35109702D01*
X85588245Y-35109702D02*
X85588245Y-35223988D01*
X85588245Y-35223988D02*
X85550149Y-35376369D01*
X85550149Y-35376369D02*
X85512054Y-35452559D01*
X85512054Y-35452559D02*
X85435864Y-35528750D01*
X85435864Y-35528750D02*
X85321578Y-35566845D01*
X85321578Y-35566845D02*
X85245387Y-35566845D01*
X85245387Y-35566845D02*
X85131102Y-35528750D01*
X85131102Y-35528750D02*
X85093006Y-35490654D01*
X85093006Y-35490654D02*
X85093006Y-35223988D01*
X85093006Y-35223988D02*
X85245387Y-35223988D01*
X84750149Y-35566845D02*
X84750149Y-34766845D01*
X84750149Y-34766845D02*
X84293006Y-35566845D01*
X84293006Y-35566845D02*
X84293006Y-34766845D01*
X83912054Y-35566845D02*
X83912054Y-34766845D01*
X83912054Y-34766845D02*
X83721578Y-34766845D01*
X83721578Y-34766845D02*
X83607292Y-34804940D01*
X83607292Y-34804940D02*
X83531102Y-34881130D01*
X83531102Y-34881130D02*
X83493007Y-34957321D01*
X83493007Y-34957321D02*
X83454911Y-35109702D01*
X83454911Y-35109702D02*
X83454911Y-35223988D01*
X83454911Y-35223988D02*
X83493007Y-35376369D01*
X83493007Y-35376369D02*
X83531102Y-35452559D01*
X83531102Y-35452559D02*
X83607292Y-35528750D01*
X83607292Y-35528750D02*
X83721578Y-35566845D01*
X83721578Y-35566845D02*
X83912054Y-35566845D01*
X85250102Y-38644940D02*
X85326292Y-38606845D01*
X85326292Y-38606845D02*
X85440578Y-38606845D01*
X85440578Y-38606845D02*
X85554864Y-38644940D01*
X85554864Y-38644940D02*
X85631054Y-38721130D01*
X85631054Y-38721130D02*
X85669149Y-38797321D01*
X85669149Y-38797321D02*
X85707245Y-38949702D01*
X85707245Y-38949702D02*
X85707245Y-39063988D01*
X85707245Y-39063988D02*
X85669149Y-39216369D01*
X85669149Y-39216369D02*
X85631054Y-39292559D01*
X85631054Y-39292559D02*
X85554864Y-39368750D01*
X85554864Y-39368750D02*
X85440578Y-39406845D01*
X85440578Y-39406845D02*
X85364387Y-39406845D01*
X85364387Y-39406845D02*
X85250102Y-39368750D01*
X85250102Y-39368750D02*
X85212006Y-39330654D01*
X85212006Y-39330654D02*
X85212006Y-39063988D01*
X85212006Y-39063988D02*
X85364387Y-39063988D01*
X84869149Y-39406845D02*
X84869149Y-38606845D01*
X84869149Y-38606845D02*
X84412006Y-39406845D01*
X84412006Y-39406845D02*
X84412006Y-38606845D01*
X84031054Y-39406845D02*
X84031054Y-38606845D01*
X84031054Y-38606845D02*
X83840578Y-38606845D01*
X83840578Y-38606845D02*
X83726292Y-38644940D01*
X83726292Y-38644940D02*
X83650102Y-38721130D01*
X83650102Y-38721130D02*
X83612007Y-38797321D01*
X83612007Y-38797321D02*
X83573911Y-38949702D01*
X83573911Y-38949702D02*
X83573911Y-39063988D01*
X83573911Y-39063988D02*
X83612007Y-39216369D01*
X83612007Y-39216369D02*
X83650102Y-39292559D01*
X83650102Y-39292559D02*
X83726292Y-39368750D01*
X83726292Y-39368750D02*
X83840578Y-39406845D01*
X83840578Y-39406845D02*
X84031054Y-39406845D01*
X73866245Y-45307797D02*
X74132911Y-45307797D01*
X74132911Y-45726845D02*
X74132911Y-44926845D01*
X74132911Y-44926845D02*
X73751959Y-44926845D01*
X73104340Y-44926845D02*
X73256721Y-44926845D01*
X73256721Y-44926845D02*
X73332912Y-44964940D01*
X73332912Y-44964940D02*
X73371007Y-45003035D01*
X73371007Y-45003035D02*
X73447197Y-45117321D01*
X73447197Y-45117321D02*
X73485293Y-45269702D01*
X73485293Y-45269702D02*
X73485293Y-45574464D01*
X73485293Y-45574464D02*
X73447197Y-45650654D01*
X73447197Y-45650654D02*
X73409102Y-45688750D01*
X73409102Y-45688750D02*
X73332912Y-45726845D01*
X73332912Y-45726845D02*
X73180531Y-45726845D01*
X73180531Y-45726845D02*
X73104340Y-45688750D01*
X73104340Y-45688750D02*
X73066245Y-45650654D01*
X73066245Y-45650654D02*
X73028150Y-45574464D01*
X73028150Y-45574464D02*
X73028150Y-45383988D01*
X73028150Y-45383988D02*
X73066245Y-45307797D01*
X73066245Y-45307797D02*
X73104340Y-45269702D01*
X73104340Y-45269702D02*
X73180531Y-45231607D01*
X73180531Y-45231607D02*
X73332912Y-45231607D01*
X73332912Y-45231607D02*
X73409102Y-45269702D01*
X73409102Y-45269702D02*
X73447197Y-45307797D01*
X73447197Y-45307797D02*
X73485293Y-45383988D01*
X73656688Y-54903447D02*
X73542402Y-54941542D01*
X73542402Y-54941542D02*
X73504307Y-54979638D01*
X73504307Y-54979638D02*
X73466211Y-55055828D01*
X73466211Y-55055828D02*
X73466211Y-55170114D01*
X73466211Y-55170114D02*
X73504307Y-55246304D01*
X73504307Y-55246304D02*
X73542402Y-55284400D01*
X73542402Y-55284400D02*
X73618592Y-55322495D01*
X73618592Y-55322495D02*
X73923354Y-55322495D01*
X73923354Y-55322495D02*
X73923354Y-54522495D01*
X73923354Y-54522495D02*
X73656688Y-54522495D01*
X73656688Y-54522495D02*
X73580497Y-54560590D01*
X73580497Y-54560590D02*
X73542402Y-54598685D01*
X73542402Y-54598685D02*
X73504307Y-54674876D01*
X73504307Y-54674876D02*
X73504307Y-54751066D01*
X73504307Y-54751066D02*
X73542402Y-54827257D01*
X73542402Y-54827257D02*
X73580497Y-54865352D01*
X73580497Y-54865352D02*
X73656688Y-54903447D01*
X73656688Y-54903447D02*
X73923354Y-54903447D01*
X73161450Y-54598685D02*
X73123354Y-54560590D01*
X73123354Y-54560590D02*
X73047164Y-54522495D01*
X73047164Y-54522495D02*
X72856688Y-54522495D01*
X72856688Y-54522495D02*
X72780497Y-54560590D01*
X72780497Y-54560590D02*
X72742402Y-54598685D01*
X72742402Y-54598685D02*
X72704307Y-54674876D01*
X72704307Y-54674876D02*
X72704307Y-54751066D01*
X72704307Y-54751066D02*
X72742402Y-54865352D01*
X72742402Y-54865352D02*
X73199545Y-55322495D01*
X73199545Y-55322495D02*
X72704307Y-55322495D01*
X85112054Y-33026845D02*
X85112054Y-32226845D01*
X85112054Y-32226845D02*
X84921578Y-32226845D01*
X84921578Y-32226845D02*
X84807292Y-32264940D01*
X84807292Y-32264940D02*
X84731102Y-32341130D01*
X84731102Y-32341130D02*
X84693007Y-32417321D01*
X84693007Y-32417321D02*
X84654911Y-32569702D01*
X84654911Y-32569702D02*
X84654911Y-32683988D01*
X84654911Y-32683988D02*
X84693007Y-32836369D01*
X84693007Y-32836369D02*
X84731102Y-32912559D01*
X84731102Y-32912559D02*
X84807292Y-32988750D01*
X84807292Y-32988750D02*
X84921578Y-33026845D01*
X84921578Y-33026845D02*
X85112054Y-33026845D01*
X84350150Y-32303035D02*
X84312054Y-32264940D01*
X84312054Y-32264940D02*
X84235864Y-32226845D01*
X84235864Y-32226845D02*
X84045388Y-32226845D01*
X84045388Y-32226845D02*
X83969197Y-32264940D01*
X83969197Y-32264940D02*
X83931102Y-32303035D01*
X83931102Y-32303035D02*
X83893007Y-32379226D01*
X83893007Y-32379226D02*
X83893007Y-32455416D01*
X83893007Y-32455416D02*
X83931102Y-32569702D01*
X83931102Y-32569702D02*
X84388245Y-33026845D01*
X84388245Y-33026845D02*
X83893007Y-33026845D01*
X74151959Y-30486845D02*
X74418626Y-30105892D01*
X74609102Y-30486845D02*
X74609102Y-29686845D01*
X74609102Y-29686845D02*
X74304340Y-29686845D01*
X74304340Y-29686845D02*
X74228150Y-29724940D01*
X74228150Y-29724940D02*
X74190055Y-29763035D01*
X74190055Y-29763035D02*
X74151959Y-29839226D01*
X74151959Y-29839226D02*
X74151959Y-29953511D01*
X74151959Y-29953511D02*
X74190055Y-30029702D01*
X74190055Y-30029702D02*
X74228150Y-30067797D01*
X74228150Y-30067797D02*
X74304340Y-30105892D01*
X74304340Y-30105892D02*
X74609102Y-30105892D01*
X73847198Y-30258273D02*
X73466245Y-30258273D01*
X73923388Y-30486845D02*
X73656721Y-29686845D01*
X73656721Y-29686845D02*
X73390055Y-30486845D01*
X73199579Y-29686845D02*
X73009103Y-30486845D01*
X73009103Y-30486845D02*
X72856722Y-29915416D01*
X72856722Y-29915416D02*
X72704341Y-30486845D01*
X72704341Y-30486845D02*
X72513865Y-29686845D01*
X73707488Y-52820647D02*
X73593202Y-52858742D01*
X73593202Y-52858742D02*
X73555107Y-52896838D01*
X73555107Y-52896838D02*
X73517011Y-52973028D01*
X73517011Y-52973028D02*
X73517011Y-53087314D01*
X73517011Y-53087314D02*
X73555107Y-53163504D01*
X73555107Y-53163504D02*
X73593202Y-53201600D01*
X73593202Y-53201600D02*
X73669392Y-53239695D01*
X73669392Y-53239695D02*
X73974154Y-53239695D01*
X73974154Y-53239695D02*
X73974154Y-52439695D01*
X73974154Y-52439695D02*
X73707488Y-52439695D01*
X73707488Y-52439695D02*
X73631297Y-52477790D01*
X73631297Y-52477790D02*
X73593202Y-52515885D01*
X73593202Y-52515885D02*
X73555107Y-52592076D01*
X73555107Y-52592076D02*
X73555107Y-52668266D01*
X73555107Y-52668266D02*
X73593202Y-52744457D01*
X73593202Y-52744457D02*
X73631297Y-52782552D01*
X73631297Y-52782552D02*
X73707488Y-52820647D01*
X73707488Y-52820647D02*
X73974154Y-52820647D01*
X73250345Y-52439695D02*
X72755107Y-52439695D01*
X72755107Y-52439695D02*
X73021773Y-52744457D01*
X73021773Y-52744457D02*
X72907488Y-52744457D01*
X72907488Y-52744457D02*
X72831297Y-52782552D01*
X72831297Y-52782552D02*
X72793202Y-52820647D01*
X72793202Y-52820647D02*
X72755107Y-52896838D01*
X72755107Y-52896838D02*
X72755107Y-53087314D01*
X72755107Y-53087314D02*
X72793202Y-53163504D01*
X72793202Y-53163504D02*
X72831297Y-53201600D01*
X72831297Y-53201600D02*
X72907488Y-53239695D01*
X72907488Y-53239695D02*
X73136059Y-53239695D01*
X73136059Y-53239695D02*
X73212250Y-53201600D01*
X73212250Y-53201600D02*
X73250345Y-53163504D01*
X85073959Y-52927797D02*
X84807293Y-52927797D01*
X84693007Y-53346845D02*
X85073959Y-53346845D01*
X85073959Y-53346845D02*
X85073959Y-52546845D01*
X85073959Y-52546845D02*
X84693007Y-52546845D01*
X84007292Y-52546845D02*
X84159673Y-52546845D01*
X84159673Y-52546845D02*
X84235864Y-52584940D01*
X84235864Y-52584940D02*
X84273959Y-52623035D01*
X84273959Y-52623035D02*
X84350149Y-52737321D01*
X84350149Y-52737321D02*
X84388245Y-52889702D01*
X84388245Y-52889702D02*
X84388245Y-53194464D01*
X84388245Y-53194464D02*
X84350149Y-53270654D01*
X84350149Y-53270654D02*
X84312054Y-53308750D01*
X84312054Y-53308750D02*
X84235864Y-53346845D01*
X84235864Y-53346845D02*
X84083483Y-53346845D01*
X84083483Y-53346845D02*
X84007292Y-53308750D01*
X84007292Y-53308750D02*
X83969197Y-53270654D01*
X83969197Y-53270654D02*
X83931102Y-53194464D01*
X83931102Y-53194464D02*
X83931102Y-53003988D01*
X83931102Y-53003988D02*
X83969197Y-52927797D01*
X83969197Y-52927797D02*
X84007292Y-52889702D01*
X84007292Y-52889702D02*
X84083483Y-52851607D01*
X84083483Y-52851607D02*
X84235864Y-52851607D01*
X84235864Y-52851607D02*
X84312054Y-52889702D01*
X84312054Y-52889702D02*
X84350149Y-52927797D01*
X84350149Y-52927797D02*
X84388245Y-53003988D01*
X85112054Y-50806845D02*
X85112054Y-50006845D01*
X85112054Y-50006845D02*
X84921578Y-50006845D01*
X84921578Y-50006845D02*
X84807292Y-50044940D01*
X84807292Y-50044940D02*
X84731102Y-50121130D01*
X84731102Y-50121130D02*
X84693007Y-50197321D01*
X84693007Y-50197321D02*
X84654911Y-50349702D01*
X84654911Y-50349702D02*
X84654911Y-50463988D01*
X84654911Y-50463988D02*
X84693007Y-50616369D01*
X84693007Y-50616369D02*
X84731102Y-50692559D01*
X84731102Y-50692559D02*
X84807292Y-50768750D01*
X84807292Y-50768750D02*
X84921578Y-50806845D01*
X84921578Y-50806845D02*
X85112054Y-50806845D01*
X84388245Y-50006845D02*
X83854911Y-50006845D01*
X83854911Y-50006845D02*
X84197769Y-50806845D01*
X84654911Y-48190654D02*
X84693007Y-48228750D01*
X84693007Y-48228750D02*
X84807292Y-48266845D01*
X84807292Y-48266845D02*
X84883483Y-48266845D01*
X84883483Y-48266845D02*
X84997769Y-48228750D01*
X84997769Y-48228750D02*
X85073959Y-48152559D01*
X85073959Y-48152559D02*
X85112054Y-48076369D01*
X85112054Y-48076369D02*
X85150150Y-47923988D01*
X85150150Y-47923988D02*
X85150150Y-47809702D01*
X85150150Y-47809702D02*
X85112054Y-47657321D01*
X85112054Y-47657321D02*
X85073959Y-47581130D01*
X85073959Y-47581130D02*
X84997769Y-47504940D01*
X84997769Y-47504940D02*
X84883483Y-47466845D01*
X84883483Y-47466845D02*
X84807292Y-47466845D01*
X84807292Y-47466845D02*
X84693007Y-47504940D01*
X84693007Y-47504940D02*
X84654911Y-47543035D01*
X83969197Y-47466845D02*
X84121578Y-47466845D01*
X84121578Y-47466845D02*
X84197769Y-47504940D01*
X84197769Y-47504940D02*
X84235864Y-47543035D01*
X84235864Y-47543035D02*
X84312054Y-47657321D01*
X84312054Y-47657321D02*
X84350150Y-47809702D01*
X84350150Y-47809702D02*
X84350150Y-48114464D01*
X84350150Y-48114464D02*
X84312054Y-48190654D01*
X84312054Y-48190654D02*
X84273959Y-48228750D01*
X84273959Y-48228750D02*
X84197769Y-48266845D01*
X84197769Y-48266845D02*
X84045388Y-48266845D01*
X84045388Y-48266845D02*
X83969197Y-48228750D01*
X83969197Y-48228750D02*
X83931102Y-48190654D01*
X83931102Y-48190654D02*
X83893007Y-48114464D01*
X83893007Y-48114464D02*
X83893007Y-47923988D01*
X83893007Y-47923988D02*
X83931102Y-47847797D01*
X83931102Y-47847797D02*
X83969197Y-47809702D01*
X83969197Y-47809702D02*
X84045388Y-47771607D01*
X84045388Y-47771607D02*
X84197769Y-47771607D01*
X84197769Y-47771607D02*
X84273959Y-47809702D01*
X84273959Y-47809702D02*
X84312054Y-47847797D01*
X84312054Y-47847797D02*
X84350150Y-47923988D01*
X84822927Y-29686845D02*
X84365784Y-29686845D01*
X84594356Y-30486845D02*
X84594356Y-29686845D01*
X84175308Y-29686845D02*
X83641974Y-30486845D01*
X83641974Y-29686845D02*
X84175308Y-30486845D01*
X83184831Y-29686845D02*
X83108641Y-29686845D01*
X83108641Y-29686845D02*
X83032450Y-29724940D01*
X83032450Y-29724940D02*
X82994355Y-29763035D01*
X82994355Y-29763035D02*
X82956260Y-29839226D01*
X82956260Y-29839226D02*
X82918165Y-29991607D01*
X82918165Y-29991607D02*
X82918165Y-30182083D01*
X82918165Y-30182083D02*
X82956260Y-30334464D01*
X82956260Y-30334464D02*
X82994355Y-30410654D01*
X82994355Y-30410654D02*
X83032450Y-30448750D01*
X83032450Y-30448750D02*
X83108641Y-30486845D01*
X83108641Y-30486845D02*
X83184831Y-30486845D01*
X83184831Y-30486845D02*
X83261022Y-30448750D01*
X83261022Y-30448750D02*
X83299117Y-30410654D01*
X83299117Y-30410654D02*
X83337212Y-30334464D01*
X83337212Y-30334464D02*
X83375308Y-30182083D01*
X83375308Y-30182083D02*
X83375308Y-29991607D01*
X83375308Y-29991607D02*
X83337212Y-29839226D01*
X83337212Y-29839226D02*
X83299117Y-29763035D01*
X83299117Y-29763035D02*
X83261022Y-29724940D01*
X83261022Y-29724940D02*
X83184831Y-29686845D01*
X82003879Y-29648750D02*
X82689593Y-30677321D01*
X81737212Y-30486845D02*
X81737212Y-29686845D01*
X81737212Y-29686845D02*
X81546736Y-29686845D01*
X81546736Y-29686845D02*
X81432450Y-29724940D01*
X81432450Y-29724940D02*
X81356260Y-29801130D01*
X81356260Y-29801130D02*
X81318165Y-29877321D01*
X81318165Y-29877321D02*
X81280069Y-30029702D01*
X81280069Y-30029702D02*
X81280069Y-30143988D01*
X81280069Y-30143988D02*
X81318165Y-30296369D01*
X81318165Y-30296369D02*
X81356260Y-30372559D01*
X81356260Y-30372559D02*
X81432450Y-30448750D01*
X81432450Y-30448750D02*
X81546736Y-30486845D01*
X81546736Y-30486845D02*
X81737212Y-30486845D01*
X81013403Y-29686845D02*
X80518165Y-29686845D01*
X80518165Y-29686845D02*
X80784831Y-29991607D01*
X80784831Y-29991607D02*
X80670546Y-29991607D01*
X80670546Y-29991607D02*
X80594355Y-30029702D01*
X80594355Y-30029702D02*
X80556260Y-30067797D01*
X80556260Y-30067797D02*
X80518165Y-30143988D01*
X80518165Y-30143988D02*
X80518165Y-30334464D01*
X80518165Y-30334464D02*
X80556260Y-30410654D01*
X80556260Y-30410654D02*
X80594355Y-30448750D01*
X80594355Y-30448750D02*
X80670546Y-30486845D01*
X80670546Y-30486845D02*
X80899117Y-30486845D01*
X80899117Y-30486845D02*
X80975308Y-30448750D01*
X80975308Y-30448750D02*
X81013403Y-30410654D01*
X73866245Y-42767797D02*
X74132911Y-42767797D01*
X74132911Y-43186845D02*
X74132911Y-42386845D01*
X74132911Y-42386845D02*
X73751959Y-42386845D01*
X73066245Y-42386845D02*
X73447197Y-42386845D01*
X73447197Y-42386845D02*
X73485293Y-42767797D01*
X73485293Y-42767797D02*
X73447197Y-42729702D01*
X73447197Y-42729702D02*
X73371007Y-42691607D01*
X73371007Y-42691607D02*
X73180531Y-42691607D01*
X73180531Y-42691607D02*
X73104340Y-42729702D01*
X73104340Y-42729702D02*
X73066245Y-42767797D01*
X73066245Y-42767797D02*
X73028150Y-42843988D01*
X73028150Y-42843988D02*
X73028150Y-43034464D01*
X73028150Y-43034464D02*
X73066245Y-43110654D01*
X73066245Y-43110654D02*
X73104340Y-43148750D01*
X73104340Y-43148750D02*
X73180531Y-43186845D01*
X73180531Y-43186845D02*
X73371007Y-43186845D01*
X73371007Y-43186845D02*
X73447197Y-43148750D01*
X73447197Y-43148750D02*
X73485293Y-43110654D01*
X85112054Y-40646845D02*
X85112054Y-39846845D01*
X85112054Y-39846845D02*
X84921578Y-39846845D01*
X84921578Y-39846845D02*
X84807292Y-39884940D01*
X84807292Y-39884940D02*
X84731102Y-39961130D01*
X84731102Y-39961130D02*
X84693007Y-40037321D01*
X84693007Y-40037321D02*
X84654911Y-40189702D01*
X84654911Y-40189702D02*
X84654911Y-40303988D01*
X84654911Y-40303988D02*
X84693007Y-40456369D01*
X84693007Y-40456369D02*
X84731102Y-40532559D01*
X84731102Y-40532559D02*
X84807292Y-40608750D01*
X84807292Y-40608750D02*
X84921578Y-40646845D01*
X84921578Y-40646845D02*
X85112054Y-40646845D01*
X83893007Y-40646845D02*
X84350150Y-40646845D01*
X84121578Y-40646845D02*
X84121578Y-39846845D01*
X84121578Y-39846845D02*
X84197769Y-39961130D01*
X84197769Y-39961130D02*
X84273959Y-40037321D01*
X84273959Y-40037321D02*
X84350150Y-40075416D01*
X85112054Y-45726845D02*
X85112054Y-44926845D01*
X85112054Y-44926845D02*
X84921578Y-44926845D01*
X84921578Y-44926845D02*
X84807292Y-44964940D01*
X84807292Y-44964940D02*
X84731102Y-45041130D01*
X84731102Y-45041130D02*
X84693007Y-45117321D01*
X84693007Y-45117321D02*
X84654911Y-45269702D01*
X84654911Y-45269702D02*
X84654911Y-45383988D01*
X84654911Y-45383988D02*
X84693007Y-45536369D01*
X84693007Y-45536369D02*
X84731102Y-45612559D01*
X84731102Y-45612559D02*
X84807292Y-45688750D01*
X84807292Y-45688750D02*
X84921578Y-45726845D01*
X84921578Y-45726845D02*
X85112054Y-45726845D01*
X83969197Y-45193511D02*
X83969197Y-45726845D01*
X84159673Y-44888750D02*
X84350150Y-45460178D01*
X84350150Y-45460178D02*
X83854911Y-45460178D01*
X73866245Y-47847797D02*
X74132911Y-47847797D01*
X74132911Y-48266845D02*
X74132911Y-47466845D01*
X74132911Y-47466845D02*
X73751959Y-47466845D01*
X73523388Y-47466845D02*
X72990054Y-47466845D01*
X72990054Y-47466845D02*
X73332912Y-48266845D01*
X74209102Y-32264940D02*
X74285292Y-32226845D01*
X74285292Y-32226845D02*
X74399578Y-32226845D01*
X74399578Y-32226845D02*
X74513864Y-32264940D01*
X74513864Y-32264940D02*
X74590054Y-32341130D01*
X74590054Y-32341130D02*
X74628149Y-32417321D01*
X74628149Y-32417321D02*
X74666245Y-32569702D01*
X74666245Y-32569702D02*
X74666245Y-32683988D01*
X74666245Y-32683988D02*
X74628149Y-32836369D01*
X74628149Y-32836369D02*
X74590054Y-32912559D01*
X74590054Y-32912559D02*
X74513864Y-32988750D01*
X74513864Y-32988750D02*
X74399578Y-33026845D01*
X74399578Y-33026845D02*
X74323387Y-33026845D01*
X74323387Y-33026845D02*
X74209102Y-32988750D01*
X74209102Y-32988750D02*
X74171006Y-32950654D01*
X74171006Y-32950654D02*
X74171006Y-32683988D01*
X74171006Y-32683988D02*
X74323387Y-32683988D01*
X73828149Y-33026845D02*
X73828149Y-32226845D01*
X73828149Y-32226845D02*
X73371006Y-33026845D01*
X73371006Y-33026845D02*
X73371006Y-32226845D01*
X72990054Y-33026845D02*
X72990054Y-32226845D01*
X72990054Y-32226845D02*
X72799578Y-32226845D01*
X72799578Y-32226845D02*
X72685292Y-32264940D01*
X72685292Y-32264940D02*
X72609102Y-32341130D01*
X72609102Y-32341130D02*
X72571007Y-32417321D01*
X72571007Y-32417321D02*
X72532911Y-32569702D01*
X72532911Y-32569702D02*
X72532911Y-32683988D01*
X72532911Y-32683988D02*
X72571007Y-32836369D01*
X72571007Y-32836369D02*
X72609102Y-32912559D01*
X72609102Y-32912559D02*
X72685292Y-32988750D01*
X72685292Y-32988750D02*
X72799578Y-33026845D01*
X72799578Y-33026845D02*
X72990054Y-33026845D01*
X73923388Y-50387797D02*
X73809102Y-50425892D01*
X73809102Y-50425892D02*
X73771007Y-50463988D01*
X73771007Y-50463988D02*
X73732911Y-50540178D01*
X73732911Y-50540178D02*
X73732911Y-50654464D01*
X73732911Y-50654464D02*
X73771007Y-50730654D01*
X73771007Y-50730654D02*
X73809102Y-50768750D01*
X73809102Y-50768750D02*
X73885292Y-50806845D01*
X73885292Y-50806845D02*
X74190054Y-50806845D01*
X74190054Y-50806845D02*
X74190054Y-50006845D01*
X74190054Y-50006845D02*
X73923388Y-50006845D01*
X73923388Y-50006845D02*
X73847197Y-50044940D01*
X73847197Y-50044940D02*
X73809102Y-50083035D01*
X73809102Y-50083035D02*
X73771007Y-50159226D01*
X73771007Y-50159226D02*
X73771007Y-50235416D01*
X73771007Y-50235416D02*
X73809102Y-50311607D01*
X73809102Y-50311607D02*
X73847197Y-50349702D01*
X73847197Y-50349702D02*
X73923388Y-50387797D01*
X73923388Y-50387797D02*
X74190054Y-50387797D01*
X72971007Y-50806845D02*
X73428150Y-50806845D01*
X73199578Y-50806845D02*
X73199578Y-50006845D01*
X73199578Y-50006845D02*
X73275769Y-50121130D01*
X73275769Y-50121130D02*
X73351959Y-50197321D01*
X73351959Y-50197321D02*
X73428150Y-50235416D01*
G36*
X209530026Y-103889435D02*
G01*
X209446080Y-104436930D01*
X209321458Y-105213331D01*
X209190965Y-105996342D01*
X209059850Y-106756443D01*
X208933362Y-107464116D01*
X208816748Y-108089843D01*
X208715257Y-108604103D01*
X208634138Y-108977379D01*
X208578638Y-109180151D01*
X208529301Y-109273768D01*
X208268430Y-109516433D01*
X207845570Y-109735393D01*
X207289923Y-109923486D01*
X206630691Y-110073548D01*
X205897077Y-110178416D01*
X205118281Y-110230927D01*
X204323506Y-110223918D01*
X203817568Y-110206332D01*
X203343758Y-110222122D01*
X202996463Y-110294055D01*
X202734846Y-110437928D01*
X202518068Y-110669542D01*
X202305293Y-111004694D01*
X202135230Y-111278216D01*
X201948098Y-111530487D01*
X201811156Y-111661704D01*
X201759408Y-111681673D01*
X201518545Y-111739538D01*
X201156909Y-111803765D01*
X200731076Y-111863770D01*
X200558425Y-111885333D01*
X200131808Y-111940150D01*
X199780509Y-111987362D01*
X199567331Y-112018614D01*
X199404527Y-112031910D01*
X199051890Y-112037927D01*
X198579047Y-112033123D01*
X198031789Y-112019022D01*
X197455907Y-111997153D01*
X196897191Y-111969041D01*
X196401432Y-111936211D01*
X196014421Y-111900192D01*
X195878410Y-111882423D01*
X195402126Y-111776274D01*
X195111740Y-111624656D01*
X195013546Y-111430522D01*
X195013646Y-111424153D01*
X195099134Y-111189650D01*
X195318035Y-110887034D01*
X195631654Y-110551336D01*
X196001297Y-110217586D01*
X196388271Y-109920815D01*
X196753882Y-109696054D01*
X197059435Y-109578332D01*
X197170879Y-109543887D01*
X197461036Y-109350969D01*
X197732103Y-109044047D01*
X197964043Y-108666594D01*
X198136823Y-108262081D01*
X198230406Y-107873978D01*
X198224759Y-107545757D01*
X198099846Y-107320888D01*
X197931441Y-107244220D01*
X197597759Y-107217119D01*
X197201494Y-107267733D01*
X196809155Y-107386107D01*
X196487248Y-107562283D01*
X196441300Y-107597082D01*
X196233353Y-107737887D01*
X196122608Y-107759573D01*
X196061864Y-107674604D01*
X196060738Y-107430651D01*
X196202642Y-107108532D01*
X196463417Y-106753013D01*
X196815759Y-106401066D01*
X197232365Y-106089662D01*
X197469828Y-105954549D01*
X197842569Y-105827034D01*
X198225996Y-105824876D01*
X198667168Y-105950885D01*
X199213147Y-106207868D01*
X199689409Y-106442737D01*
X200052606Y-106573927D01*
X200315156Y-106592702D01*
X200510053Y-106501183D01*
X200670289Y-106301490D01*
X200695629Y-106257381D01*
X200856052Y-105855318D01*
X200986230Y-105319425D01*
X201074458Y-104708893D01*
X201109031Y-104082910D01*
X201103817Y-103837350D01*
X201070824Y-103539101D01*
X200997291Y-103243222D01*
X200871380Y-102930598D01*
X200681252Y-102582111D01*
X200415068Y-102178644D01*
X200060988Y-101701082D01*
X199607174Y-101130307D01*
X199041787Y-100447203D01*
X198367279Y-99649553D01*
X203328734Y-99649553D01*
X203341968Y-99879593D01*
X203373507Y-100016774D01*
X203466167Y-100265480D01*
X203624674Y-100587876D01*
X203861575Y-101006995D01*
X204189415Y-101545873D01*
X204620740Y-102227545D01*
X204705595Y-102361075D01*
X204970954Y-102811565D01*
X205133135Y-103186541D01*
X205196083Y-103537983D01*
X205163743Y-103917870D01*
X205040062Y-104378183D01*
X204828986Y-104970901D01*
X204670577Y-105417011D01*
X204546430Y-105814026D01*
X204472604Y-106108880D01*
X204461359Y-106258630D01*
X204496085Y-106310328D01*
X204680261Y-106386534D01*
X205033296Y-106410259D01*
X205073806Y-106409936D01*
X205449025Y-106363029D01*
X205739029Y-106221729D01*
X205956576Y-105964665D01*
X206114429Y-105570463D01*
X206225347Y-105017752D01*
X206302091Y-104285159D01*
X206320870Y-103889435D01*
X206284488Y-103069236D01*
X206150031Y-102328999D01*
X205925197Y-101721109D01*
X205684582Y-101339452D01*
X205264382Y-100841571D01*
X204751066Y-100354955D01*
X204194753Y-99931436D01*
X203854596Y-99713975D01*
X203565609Y-99565563D01*
X203396802Y-99544483D01*
X203328734Y-99649553D01*
X198367279Y-99649553D01*
X198352988Y-99632653D01*
X197990124Y-99204510D01*
X197236454Y-98300053D01*
X196606338Y-97516569D01*
X196088397Y-96836285D01*
X195671249Y-96241429D01*
X195343516Y-95714229D01*
X195093816Y-95236913D01*
X194910768Y-94791708D01*
X194782993Y-94360842D01*
X194699110Y-93926543D01*
X194695380Y-93901811D01*
X194572605Y-93352093D01*
X194387697Y-92971333D01*
X194120488Y-92731410D01*
X193750813Y-92604202D01*
X193572907Y-92584400D01*
X193345132Y-92608971D01*
X193072898Y-92702198D01*
X192715110Y-92878945D01*
X192230677Y-93154077D01*
X192130777Y-93207805D01*
X191744667Y-93373571D01*
X191268629Y-93537266D01*
X190783249Y-93670157D01*
X190537929Y-93730881D01*
X189868188Y-93948328D01*
X189394615Y-94196860D01*
X189114058Y-94478002D01*
X189060067Y-94637140D01*
X189081825Y-94967741D01*
X189219089Y-95345549D01*
X189455513Y-95711515D01*
X189644326Y-95902933D01*
X189994437Y-96081765D01*
X190363163Y-96059420D01*
X190744892Y-95835358D01*
X190956819Y-95672450D01*
X191139852Y-95600566D01*
X191241232Y-95694896D01*
X191288513Y-95961852D01*
X191293469Y-96019054D01*
X191334121Y-96238195D01*
X191440666Y-96325938D01*
X191674103Y-96342502D01*
X191763043Y-96344173D01*
X192074621Y-96395206D01*
X192235529Y-96537005D01*
X192281275Y-96796097D01*
X192265363Y-97020994D01*
X192103799Y-97495778D01*
X191781975Y-97871675D01*
X191317166Y-98137223D01*
X190726647Y-98280960D01*
X190027693Y-98291422D01*
X189766556Y-98261811D01*
X188997083Y-98059437D01*
X188338561Y-97701425D01*
X187807773Y-97198906D01*
X187421503Y-96563010D01*
X187333698Y-96383332D01*
X187180348Y-96138807D01*
X187055655Y-96018348D01*
X186930729Y-96036472D01*
X186714502Y-96168540D01*
X186476535Y-96375778D01*
X186270513Y-96610388D01*
X186150122Y-96824573D01*
X186148660Y-96994002D01*
X186247287Y-97314677D01*
X186437071Y-97712352D01*
X186694568Y-98144545D01*
X186996335Y-98568774D01*
X187318928Y-98942555D01*
X187429470Y-99055362D01*
X187695291Y-99308771D01*
X187896189Y-99451645D01*
X188084309Y-99514782D01*
X188311798Y-99528984D01*
X188462342Y-99527915D01*
X188646519Y-99503930D01*
X188700707Y-99416726D01*
X188673665Y-99225398D01*
X188659422Y-99145057D01*
X188665756Y-98969947D01*
X188770046Y-98921812D01*
X188882349Y-98959767D01*
X189083302Y-99131926D01*
X189275201Y-99387271D01*
X189405010Y-99663823D01*
X189523480Y-99933432D01*
X189711448Y-100147283D01*
X189911567Y-100224937D01*
X190085292Y-100153815D01*
X190194079Y-99921337D01*
X190226994Y-99782840D01*
X190294033Y-99676735D01*
X190399797Y-99723601D01*
X190498715Y-99832126D01*
X190672108Y-100122542D01*
X190808972Y-100458105D01*
X190864542Y-100740834D01*
X190862763Y-100765378D01*
X190764384Y-100988945D01*
X190542572Y-101284074D01*
X190235056Y-101613099D01*
X189879567Y-101938353D01*
X189513837Y-102222171D01*
X189175595Y-102426886D01*
X189131094Y-102448472D01*
X188774285Y-102596371D01*
X188472806Y-102651441D01*
X188125803Y-102633535D01*
X187608930Y-102506691D01*
X187025025Y-102247651D01*
X186468757Y-101897927D01*
X186012703Y-101496570D01*
X185890794Y-101359111D01*
X185726420Y-101150373D01*
X185566256Y-100910228D01*
X185401155Y-100618817D01*
X185221967Y-100256282D01*
X185019544Y-99802766D01*
X184784738Y-99238409D01*
X184508399Y-98543354D01*
X184181379Y-97697742D01*
X183794530Y-96681715D01*
X183781058Y-96641466D01*
X183770529Y-96551481D01*
X183796914Y-96442334D01*
X183873957Y-96294985D01*
X184015400Y-96090392D01*
X184234989Y-95809513D01*
X184546465Y-95433307D01*
X184963573Y-94942734D01*
X185500057Y-94318750D01*
X185917085Y-93834329D01*
X186361693Y-93314227D01*
X186698585Y-92911900D01*
X186941953Y-92607385D01*
X187105986Y-92380719D01*
X187204876Y-92211939D01*
X187252814Y-92081079D01*
X187263989Y-91968178D01*
X187252594Y-91853271D01*
X187087927Y-90784566D01*
X186918316Y-89811438D01*
X186758273Y-89032245D01*
X186608360Y-88449702D01*
X186469139Y-88066522D01*
X186339323Y-87835810D01*
X186058231Y-87455531D01*
X185646561Y-86990357D01*
X185088803Y-86421809D01*
X184699037Y-86036654D01*
X184007622Y-85342693D01*
X183435258Y-84746138D01*
X182962050Y-84220272D01*
X182568102Y-83738379D01*
X182233517Y-83273742D01*
X181938399Y-82799646D01*
X181662853Y-82289373D01*
X181386982Y-81716207D01*
X181090891Y-81053433D01*
X180736158Y-80270991D01*
X180297283Y-79394567D01*
X179891613Y-78693256D01*
X179523467Y-78174374D01*
X179197162Y-77845234D01*
X179020301Y-77716915D01*
X178292832Y-77290078D01*
X177393565Y-76897853D01*
X176315225Y-76537719D01*
X175050536Y-76207157D01*
X173592225Y-75903645D01*
X173019889Y-75794387D01*
X172385573Y-75668052D01*
X171811695Y-75548480D01*
X171344512Y-75445338D01*
X171030279Y-75368292D01*
X170372510Y-75188488D01*
X170372510Y-72963716D01*
X170372510Y-70738944D01*
X170929084Y-70558492D01*
X170970457Y-70545355D01*
X171411314Y-70424343D01*
X172003200Y-70285402D01*
X172702034Y-70137189D01*
X173463737Y-69988356D01*
X174244228Y-69847559D01*
X174999429Y-69723452D01*
X175685259Y-69624689D01*
X175953815Y-69592116D01*
X176757127Y-69516625D01*
X177656269Y-69457665D01*
X178601788Y-69416571D01*
X179544228Y-69394684D01*
X180434136Y-69393341D01*
X181222058Y-69413880D01*
X181858540Y-69457640D01*
X182008177Y-69473198D01*
X182754514Y-69561767D01*
X183340717Y-69660682D01*
X183802632Y-69785141D01*
X184176106Y-69950346D01*
X184496987Y-70171495D01*
X184801122Y-70463791D01*
X185124358Y-70842432D01*
X185417595Y-71225786D01*
X185713111Y-71680507D01*
X185953901Y-72155698D01*
X186149165Y-72681679D01*
X186308104Y-73288769D01*
X186439918Y-74007290D01*
X186553806Y-74867560D01*
X186658968Y-75899900D01*
X186671023Y-76030318D01*
X186758605Y-76935611D01*
X186838471Y-77668464D01*
X186914882Y-78255066D01*
X186992100Y-78721607D01*
X187074385Y-79094278D01*
X187166000Y-79399269D01*
X187271205Y-79662770D01*
X187323095Y-79774812D01*
X187479812Y-80048196D01*
X187652361Y-80204991D01*
X187898760Y-80304524D01*
X188181870Y-80355329D01*
X188731231Y-80335380D01*
X189364707Y-80198421D01*
X190038165Y-79951730D01*
X190229832Y-79869870D01*
X190642595Y-79717826D01*
X191060471Y-79606968D01*
X191532767Y-79528098D01*
X192108790Y-79472020D01*
X192837848Y-79429537D01*
X193453666Y-79411049D01*
X194887732Y-79434261D01*
X196430398Y-79537719D01*
X198032217Y-79714433D01*
X199643743Y-79957409D01*
X201215526Y-80259654D01*
X202698120Y-80614177D01*
X204042077Y-81013984D01*
X204251136Y-81082734D01*
X204828919Y-81262941D01*
X205376574Y-81420945D01*
X205840521Y-81541713D01*
X206167177Y-81610213D01*
X206296281Y-81629420D01*
X206791566Y-81690708D01*
X207399944Y-81748885D01*
X208134169Y-81804693D01*
X209006996Y-81858874D01*
X210031182Y-81912170D01*
X211219481Y-81965324D01*
X212584650Y-82019078D01*
X214139442Y-82074175D01*
X216380931Y-82156100D01*
X218497648Y-82247250D01*
X220453857Y-82347728D01*
X222270716Y-82459557D01*
X223969382Y-82584762D01*
X225571013Y-82725367D01*
X227096766Y-82883396D01*
X228567800Y-83060873D01*
X230005271Y-83259824D01*
X231430338Y-83482271D01*
X232864158Y-83730241D01*
X234327888Y-84005755D01*
X234341694Y-84008451D01*
X236742044Y-84523525D01*
X239247384Y-85147588D01*
X241803853Y-85864717D01*
X244357591Y-86658986D01*
X246854738Y-87514472D01*
X249241434Y-88415248D01*
X249300860Y-88438852D01*
X250007075Y-88723687D01*
X250561588Y-88957579D01*
X250960327Y-89140749D01*
X251199223Y-89273414D01*
X251274203Y-89355794D01*
X251181197Y-89388108D01*
X250916133Y-89370574D01*
X250474940Y-89303410D01*
X249853547Y-89186837D01*
X249047882Y-89021073D01*
X248053876Y-88806336D01*
X246867456Y-88542845D01*
X244332764Y-88003743D01*
X241445724Y-87463671D01*
X238658473Y-87023438D01*
X235982954Y-86684330D01*
X233431109Y-86447633D01*
X231014881Y-86314633D01*
X228746214Y-86286615D01*
X226637052Y-86364864D01*
X225388482Y-86465858D01*
X223844993Y-86639257D01*
X222264436Y-86864939D01*
X220668565Y-87137390D01*
X219079132Y-87451095D01*
X217517890Y-87800539D01*
X216006593Y-88180207D01*
X214566995Y-88584584D01*
X213220847Y-89008156D01*
X211989903Y-89445406D01*
X210895917Y-89890821D01*
X209960642Y-90338886D01*
X209205830Y-90784085D01*
X209059019Y-90879556D01*
X208518845Y-91196606D01*
X207925335Y-91506274D01*
X207382618Y-91753210D01*
X206496464Y-92133806D01*
X205700662Y-92523613D01*
X205092355Y-92884330D01*
X204665423Y-93219625D01*
X204413747Y-93533167D01*
X204361134Y-93654388D01*
X204351080Y-93787774D01*
X204404347Y-93947436D01*
X204536216Y-94157401D01*
X204761972Y-94441696D01*
X205096896Y-94824347D01*
X205556272Y-95329382D01*
X205856481Y-95662667D01*
X206357231Y-96249585D01*
X206773001Y-96779004D01*
X207088685Y-97230106D01*
X207289175Y-97582070D01*
X207359362Y-97814078D01*
X207411872Y-98037605D01*
X207583586Y-98409651D01*
X207861510Y-98890559D01*
X208232058Y-99456991D01*
X208681646Y-100085612D01*
X208973600Y-100490500D01*
X209260249Y-100912322D01*
X209488108Y-101273333D01*
X209624640Y-101523907D01*
X209678032Y-101646425D01*
X209731279Y-101799948D01*
X209758202Y-101965181D01*
X209758120Y-102179822D01*
X209730356Y-102481567D01*
X209674227Y-102908114D01*
X209589055Y-103497160D01*
X209559584Y-103696659D01*
X209530026Y-103889435D01*
G37*
X54979009Y-63293750D02*
X54979009Y-57293750D01*
X54979009Y-57293750D02*
X48979009Y-57293750D01*
X48979009Y-57293750D02*
X48979009Y-63293750D01*
X48979009Y-63293750D02*
X54979009Y-63293750D01*
X53775060Y-60293750D02*
G75*
G03*
X53775060Y-60293750I-1796051J0D01*
G01*
D12*
X83632579Y-59326750D02*
X87950579Y-59326750D01*
X87950579Y-30624750D02*
X87950579Y-26306750D01*
X83632579Y-26306750D02*
X87950579Y-26306750D01*
X70170579Y-30625750D02*
X70170579Y-26307750D01*
X87950579Y-55008750D02*
X87950579Y-59326750D01*
X70170579Y-55008750D02*
X70170579Y-59326750D01*
X74488579Y-59326750D02*
X70170579Y-59326750D01*
X74488579Y-26307750D02*
X70170579Y-26307750D01*
D11*
X74629011Y-34826110D02*
X74129011Y-34826110D01*
X74129011Y-34726110D01*
X74629011Y-34726110D01*
X74629011Y-34826110D01*
G36*
X74629011Y-34826110D02*
G01*
X74129011Y-34826110D01*
X74129011Y-34726110D01*
X74629011Y-34726110D01*
X74629011Y-34826110D01*
G37*
X74229011Y-35526110D02*
X74129011Y-35526110D01*
X74129011Y-35326110D01*
X74229011Y-35326110D01*
X74229011Y-35526110D01*
G36*
X74229011Y-35526110D02*
G01*
X74129011Y-35526110D01*
X74129011Y-35326110D01*
X74229011Y-35326110D01*
X74229011Y-35526110D01*
G37*
X74629011Y-35526110D02*
X74529011Y-35526110D01*
X74529011Y-34726110D01*
X74629011Y-34726110D01*
X74629011Y-35526110D01*
G36*
X74629011Y-35526110D02*
G01*
X74529011Y-35526110D01*
X74529011Y-34726110D01*
X74629011Y-34726110D01*
X74629011Y-35526110D01*
G37*
X74229011Y-35026110D02*
X74129011Y-35026110D01*
X74129011Y-34726110D01*
X74229011Y-34726110D01*
X74229011Y-35026110D01*
G36*
X74229011Y-35026110D02*
G01*
X74129011Y-35026110D01*
X74129011Y-34726110D01*
X74229011Y-34726110D01*
X74229011Y-35026110D01*
G37*
X74429011Y-35226110D02*
X74329011Y-35226110D01*
X74329011Y-35126110D01*
X74429011Y-35126110D01*
X74429011Y-35226110D01*
G36*
X74429011Y-35226110D02*
G01*
X74329011Y-35226110D01*
X74329011Y-35126110D01*
X74429011Y-35126110D01*
X74429011Y-35226110D01*
G37*
D13*
X86680579Y-30116750D03*
D14*
X86680579Y-32656750D03*
X86680579Y-35196750D03*
X86680579Y-37736750D03*
X86680579Y-40276750D03*
X86680579Y-42816750D03*
X86680579Y-45356750D03*
X86680579Y-47896750D03*
X86680579Y-50436750D03*
X86680579Y-52976750D03*
X86680579Y-55516750D03*
X86680579Y-58056750D03*
X71440579Y-58056750D03*
X71440579Y-55516750D03*
X71440579Y-52976750D03*
X71440579Y-50436750D03*
X71440579Y-47896750D03*
X71440579Y-45356750D03*
X71440579Y-42816750D03*
X71440579Y-40276750D03*
X71440579Y-37736750D03*
X71440579Y-35196750D03*
X71440579Y-32656750D03*
X71440579Y-30116750D03*
%LPC*%
D15*
X64816199Y-43230000D03*
D16*
X57196199Y-43230000D03*
D17*
X199941239Y-85887500D03*
D18*
X205441239Y-85887500D03*
D17*
X210941239Y-85887500D03*
D19*
X205441239Y-79987500D03*
X210441239Y-82087500D03*
D15*
X232525000Y-38510000D03*
D16*
X232525000Y-30890000D03*
D18*
X61006199Y-85887500D03*
D17*
X66506199Y-85887500D03*
X55506199Y-85887500D03*
D19*
X61006199Y-79987500D03*
X66006199Y-82087500D03*
D20*
X45476819Y-43250000D03*
D21*
X42936819Y-43250000D03*
X40396819Y-43250000D03*
D15*
X232549999Y-72635000D03*
D16*
X232549999Y-65015000D03*
D17*
X156778099Y-34700000D03*
X145778099Y-34700000D03*
D18*
X151278099Y-34700000D03*
D19*
X151278099Y-28800000D03*
X156278099Y-30900000D03*
D15*
X196400000Y-72635000D03*
D16*
X196400000Y-65015000D03*
D22*
X142250000Y-60325000D03*
D15*
X232549999Y-106760000D03*
D16*
X232549999Y-99140000D03*
D18*
X241549999Y-85887500D03*
D17*
X247049999Y-85887500D03*
X236049999Y-85887500D03*
D19*
X241549999Y-79987500D03*
X246549999Y-82087500D03*
D15*
X106169339Y-55572500D03*
D16*
X106169339Y-47952500D03*
D18*
X151278099Y-51762500D03*
D17*
X156778099Y-51762500D03*
X145778099Y-51762500D03*
D19*
X151278099Y-45862500D03*
X156278099Y-47962500D03*
D15*
X160300000Y-89697500D03*
D16*
X160300000Y-82077500D03*
D15*
X142250000Y-89697500D03*
D16*
X142250000Y-82077500D03*
D17*
X91614959Y-51762500D03*
X102614959Y-51762500D03*
D18*
X97114959Y-51762500D03*
D19*
X97114959Y-45862500D03*
X102114959Y-47962500D03*
D17*
X138723719Y-102950000D03*
X127723719Y-102950000D03*
D18*
X133223719Y-102950000D03*
D19*
X133223719Y-97050000D03*
X138223719Y-99150000D03*
D17*
X138723719Y-85887500D03*
D18*
X133223719Y-85887500D03*
D17*
X127723719Y-85887500D03*
D19*
X133223719Y-79987500D03*
X138223719Y-82087500D03*
D15*
X106125000Y-38510000D03*
D16*
X106125000Y-30890000D03*
D18*
X151278099Y-85887500D03*
D17*
X156778099Y-85887500D03*
X145778099Y-85887500D03*
D19*
X151278099Y-79987500D03*
X156278099Y-82087500D03*
D18*
X169332479Y-51762500D03*
D17*
X174832479Y-51762500D03*
X163832479Y-51762500D03*
D19*
X169332479Y-45862500D03*
X174332479Y-47962500D03*
D17*
X120669339Y-51762500D03*
D18*
X115169339Y-51762500D03*
D17*
X109669339Y-51762500D03*
D19*
X115169339Y-45862500D03*
X120169339Y-47962500D03*
D15*
X124200000Y-89697500D03*
D16*
X124200000Y-82077500D03*
D18*
X169332479Y-85887500D03*
D17*
X163832479Y-85887500D03*
X174832479Y-85887500D03*
D19*
X169332479Y-79987500D03*
X174332479Y-82087500D03*
D22*
X52006199Y-94387500D03*
D15*
X124200000Y-106760000D03*
D16*
X124200000Y-99140000D03*
D15*
X178350000Y-106760000D03*
D16*
X178350000Y-99140000D03*
D18*
X61006199Y-68825000D03*
D17*
X55506199Y-68825000D03*
X66506199Y-68825000D03*
D19*
X61006199Y-62925000D03*
X66006199Y-65025000D03*
D17*
X181886859Y-51762500D03*
D18*
X187386859Y-51762500D03*
D17*
X192886859Y-51762500D03*
D19*
X187386859Y-45862500D03*
X192386859Y-47962500D03*
D15*
X214425000Y-38510000D03*
D16*
X214425000Y-30890000D03*
D15*
X237739999Y-94425000D03*
D16*
X245359999Y-94425000D03*
D15*
X70060579Y-106760000D03*
D16*
X70060579Y-99140000D03*
D17*
X174832479Y-34700000D03*
X163832479Y-34700000D03*
D18*
X169332479Y-34700000D03*
D19*
X169332479Y-28800000D03*
X174332479Y-30900000D03*
D15*
X196400000Y-89697500D03*
D16*
X196400000Y-82077500D03*
D17*
X120669339Y-34700000D03*
D18*
X115169339Y-34700000D03*
D17*
X109669339Y-34700000D03*
D19*
X115169339Y-28800000D03*
X120169339Y-30900000D03*
X192386859Y-82087500D03*
X187386859Y-79987500D03*
D17*
X181886859Y-85887500D03*
X192886859Y-85887500D03*
D18*
X187386859Y-85887500D03*
D15*
X70060579Y-89697500D03*
D16*
X70060579Y-82077500D03*
D15*
X178350000Y-72635000D03*
D16*
X178350000Y-65015000D03*
D15*
X142225000Y-38510000D03*
D16*
X142225000Y-30890000D03*
D15*
X196375000Y-38510000D03*
D16*
X196375000Y-30890000D03*
D15*
X57196199Y-60300000D03*
D16*
X64816199Y-60300000D03*
D17*
X73560579Y-68825000D03*
D18*
X79060579Y-68825000D03*
D17*
X84560579Y-68825000D03*
D19*
X79060579Y-62925000D03*
X84060579Y-65025000D03*
D18*
X223495619Y-68825000D03*
D17*
X217995619Y-68825000D03*
X228995619Y-68825000D03*
D19*
X223495619Y-62925000D03*
X228495619Y-65025000D03*
D15*
X219685619Y-94475000D03*
D16*
X227305619Y-94475000D03*
D17*
X145778099Y-102950000D03*
D18*
X151278099Y-102950000D03*
D17*
X156778099Y-102950000D03*
D19*
X151278099Y-97050000D03*
X156278099Y-99150000D03*
D15*
X52050000Y-72635000D03*
D16*
X52050000Y-65015000D03*
D15*
X214500000Y-89697500D03*
D16*
X214500000Y-82077500D03*
D17*
X217995619Y-102950000D03*
X228995619Y-102950000D03*
D18*
X223495619Y-102950000D03*
D19*
X223495619Y-97050000D03*
X228495619Y-99150000D03*
D15*
X237739999Y-60325000D03*
D16*
X245359999Y-60325000D03*
D18*
X133223719Y-34700000D03*
D17*
X127723719Y-34700000D03*
X138723719Y-34700000D03*
D19*
X133223719Y-28800000D03*
X138223719Y-30900000D03*
D18*
X223495619Y-34700000D03*
D17*
X217995619Y-34700000D03*
X228995619Y-34700000D03*
D19*
X223495619Y-28800000D03*
X228495619Y-30900000D03*
D17*
X199941239Y-34700000D03*
X210941239Y-34700000D03*
D18*
X205441239Y-34700000D03*
D19*
X205441239Y-28800000D03*
X210441239Y-30900000D03*
D18*
X61006199Y-34700000D03*
D17*
X66506199Y-34700000D03*
X55506199Y-34700000D03*
D19*
X61006199Y-28800000D03*
X66006199Y-30900000D03*
D17*
X73560579Y-102950000D03*
X84560579Y-102950000D03*
D18*
X79060579Y-102950000D03*
D19*
X79060579Y-97050000D03*
X84060579Y-99150000D03*
D15*
X124194339Y-38510000D03*
D16*
X124194339Y-30890000D03*
D15*
X106169339Y-106760000D03*
D16*
X106169339Y-99140000D03*
D17*
X84560579Y-85887500D03*
D18*
X79060579Y-85887500D03*
D17*
X73560579Y-85887500D03*
D19*
X79060579Y-79987500D03*
X84060579Y-82087500D03*
D17*
X109669339Y-68825000D03*
X120669339Y-68825000D03*
D18*
X115169339Y-68825000D03*
D19*
X115169339Y-62925000D03*
X120169339Y-65025000D03*
D17*
X55506199Y-51762500D03*
X66506199Y-51762500D03*
D18*
X61006199Y-51762500D03*
D19*
X61006199Y-45862500D03*
X66006199Y-47962500D03*
D18*
X205441239Y-102950000D03*
D17*
X210941239Y-102950000D03*
X199941239Y-102950000D03*
D19*
X205441239Y-97050000D03*
X210441239Y-99150000D03*
D18*
X42951819Y-85887500D03*
D17*
X48451819Y-85887500D03*
X37451819Y-85887500D03*
D19*
X42951819Y-79987500D03*
X47951819Y-82087500D03*
D22*
X232549999Y-94387500D03*
D15*
X214500000Y-55572500D03*
D16*
X214500000Y-47952500D03*
D22*
X142250000Y-94387500D03*
D15*
X52050000Y-55572500D03*
D16*
X52050000Y-47952500D03*
D18*
X241549999Y-34700000D03*
D17*
X247049999Y-34700000D03*
X236049999Y-34700000D03*
D19*
X241549999Y-28800000D03*
X246549999Y-30900000D03*
D18*
X42951819Y-34700000D03*
D17*
X48451819Y-34700000D03*
X37451819Y-34700000D03*
D19*
X42951819Y-28800000D03*
X47951819Y-30900000D03*
D15*
X52050000Y-106760000D03*
D16*
X52050000Y-99140000D03*
D15*
X178350000Y-55572500D03*
D16*
X178350000Y-47952500D03*
D18*
X115169339Y-85887500D03*
D17*
X120669339Y-85887500D03*
X109669339Y-85887500D03*
D19*
X115169339Y-79987500D03*
X120169339Y-82087500D03*
D15*
X160300000Y-72635000D03*
D16*
X160300000Y-65015000D03*
D15*
X93304959Y-60300000D03*
D16*
X100924959Y-60300000D03*
D17*
X228995619Y-85887500D03*
D18*
X223495619Y-85887500D03*
D17*
X217995619Y-85887500D03*
D19*
X223495619Y-79987500D03*
X228495619Y-82087500D03*
D18*
X205441239Y-68825000D03*
D17*
X210941239Y-68825000D03*
X199941239Y-68825000D03*
D19*
X205441239Y-62925000D03*
X210441239Y-65025000D03*
D15*
X142250000Y-72635000D03*
D16*
X142250000Y-65015000D03*
D15*
X70060579Y-72635000D03*
D16*
X70060579Y-65015000D03*
D15*
X88100000Y-106760000D03*
D16*
X88100000Y-99140000D03*
D15*
X196400000Y-55572500D03*
D16*
X196400000Y-47952500D03*
D15*
X142250000Y-106760000D03*
D16*
X142250000Y-99140000D03*
D15*
X75250579Y-60300000D03*
D16*
X82870579Y-60300000D03*
D18*
X241549999Y-68825000D03*
D17*
X236049999Y-68825000D03*
X247049999Y-68825000D03*
D19*
X241549999Y-62925000D03*
X246549999Y-65025000D03*
D17*
X192886859Y-34700000D03*
X181886859Y-34700000D03*
D18*
X187386859Y-34700000D03*
D19*
X187386859Y-28800000D03*
X192386859Y-30900000D03*
D15*
X52050000Y-89697500D03*
D16*
X52050000Y-82077500D03*
D15*
X178325000Y-38510000D03*
D16*
X178325000Y-30890000D03*
D17*
X247049999Y-51762500D03*
D18*
X241549999Y-51762500D03*
D17*
X236049999Y-51762500D03*
D19*
X241549999Y-45862500D03*
X246549999Y-47962500D03*
D18*
X42951819Y-68825000D03*
D17*
X37451819Y-68825000D03*
X48451819Y-68825000D03*
D19*
X42951819Y-62925000D03*
X47951819Y-65025000D03*
D17*
X102614959Y-34700000D03*
D18*
X97114959Y-34700000D03*
D17*
X91614959Y-34700000D03*
D19*
X97114959Y-28800000D03*
X102114959Y-30900000D03*
D17*
X145778099Y-68825000D03*
X156778099Y-68825000D03*
D18*
X151278099Y-68825000D03*
D19*
X151278099Y-62925000D03*
X156278099Y-65025000D03*
D17*
X55506199Y-102950000D03*
D18*
X61006199Y-102950000D03*
D17*
X66506199Y-102950000D03*
D19*
X61006199Y-97050000D03*
X66006199Y-99150000D03*
D17*
X48451819Y-102950000D03*
D18*
X42951819Y-102950000D03*
D17*
X37451819Y-102950000D03*
D19*
X42951819Y-97050000D03*
X47951819Y-99150000D03*
D18*
X133223719Y-68825000D03*
D17*
X127723719Y-68825000D03*
X138723719Y-68825000D03*
D19*
X133223719Y-62925000D03*
X138223719Y-65025000D03*
D15*
X124200000Y-72635000D03*
D16*
X124200000Y-65015000D03*
D17*
X181886859Y-68825000D03*
D18*
X187386859Y-68825000D03*
D17*
X192886859Y-68825000D03*
D19*
X187386859Y-62925000D03*
X192386859Y-65025000D03*
D17*
X127723719Y-51762500D03*
D18*
X133223719Y-51762500D03*
D17*
X138723719Y-51762500D03*
D19*
X133223719Y-45862500D03*
X138223719Y-47962500D03*
D15*
X124200000Y-55572500D03*
D16*
X124200000Y-47952500D03*
D17*
X247049999Y-102950000D03*
X236049999Y-102950000D03*
D18*
X241549999Y-102950000D03*
D19*
X241549999Y-97050000D03*
X246549999Y-99150000D03*
D15*
X160300000Y-55572500D03*
D16*
X160300000Y-47952500D03*
D15*
X214500000Y-106760000D03*
D16*
X214500000Y-99140000D03*
D22*
X52006199Y-43200000D03*
D15*
X214500000Y-72635000D03*
D16*
X214500000Y-65015000D03*
D15*
X106169339Y-89697500D03*
D16*
X106169339Y-82077500D03*
D15*
X88100000Y-72635000D03*
D16*
X88100000Y-65015000D03*
D18*
X97114959Y-85887500D03*
D17*
X102614959Y-85887500D03*
X91614959Y-85887500D03*
D19*
X97114959Y-79987500D03*
X102114959Y-82087500D03*
D15*
X237739999Y-77387500D03*
D16*
X245359999Y-77387500D03*
D18*
X115169339Y-102950000D03*
D17*
X120669339Y-102950000D03*
X109669339Y-102950000D03*
D19*
X115169339Y-97050000D03*
X120169339Y-99150000D03*
D15*
X160275000Y-38510000D03*
D16*
X160275000Y-30890000D03*
D15*
X160300000Y-106760000D03*
D16*
X160300000Y-99140000D03*
D15*
X52050000Y-38510000D03*
D16*
X52050000Y-30890000D03*
D15*
X196400000Y-106760000D03*
D16*
X196400000Y-99140000D03*
D15*
X237739999Y-43225000D03*
D16*
X245359999Y-43225000D03*
D15*
X106169339Y-72635000D03*
D16*
X106169339Y-65015000D03*
D15*
X88100000Y-89697500D03*
D16*
X88100000Y-82077500D03*
D22*
X232549999Y-43200000D03*
D15*
X142250000Y-55572500D03*
D16*
X142250000Y-47952500D03*
D17*
X91614959Y-68825000D03*
D18*
X97114959Y-68825000D03*
D17*
X102614959Y-68825000D03*
D19*
X97114959Y-62925000D03*
X102114959Y-65025000D03*
D17*
X174832479Y-102950000D03*
D18*
X169332479Y-102950000D03*
D17*
X163832479Y-102950000D03*
D19*
X169332479Y-97050000D03*
X174332479Y-99150000D03*
D15*
X232549999Y-55572500D03*
D16*
X232549999Y-47952500D03*
D15*
X178350000Y-89697500D03*
D16*
X178350000Y-82077500D03*
D17*
X217995619Y-51762500D03*
X228995619Y-51762500D03*
D18*
X223495619Y-51762500D03*
D19*
X223495619Y-45862500D03*
X228495619Y-47962500D03*
D15*
X232549999Y-89697500D03*
D16*
X232549999Y-82077500D03*
D17*
X37451819Y-51762500D03*
D18*
X42951819Y-51762500D03*
D17*
X48451819Y-51762500D03*
D19*
X42951819Y-45862500D03*
X47951819Y-47962500D03*
D17*
X181886859Y-102950000D03*
X192886859Y-102950000D03*
D18*
X187386859Y-102950000D03*
D19*
X187386859Y-97050000D03*
X192386859Y-99150000D03*
D18*
X79060579Y-51762500D03*
D17*
X84560579Y-51762500D03*
X73560579Y-51762500D03*
D19*
X79060579Y-45862500D03*
X84060579Y-47962500D03*
D18*
X97114959Y-102950000D03*
D17*
X91614959Y-102950000D03*
X102614959Y-102950000D03*
D19*
X97114959Y-97050000D03*
X102114959Y-99150000D03*
D17*
X84560579Y-34700000D03*
D18*
X79060579Y-34700000D03*
D17*
X73560579Y-34700000D03*
D19*
X79060579Y-28800000D03*
X84060579Y-30900000D03*
D18*
X205441239Y-51762500D03*
D17*
X199941239Y-51762500D03*
X210941239Y-51762500D03*
D19*
X205441239Y-45862500D03*
X210441239Y-47962500D03*
D18*
X169332479Y-68825000D03*
D17*
X163832479Y-68825000D03*
X174832479Y-68825000D03*
D19*
X169332479Y-62925000D03*
X174332479Y-65025000D03*
D13*
X86680579Y-30116750D03*
D14*
X86680579Y-32656750D03*
X86680579Y-35196750D03*
X86680579Y-37736750D03*
X86680579Y-40276750D03*
X86680579Y-42816750D03*
X86680579Y-45356750D03*
X86680579Y-47896750D03*
X86680579Y-50436750D03*
X86680579Y-52976750D03*
X86680579Y-55516750D03*
X86680579Y-58056750D03*
X71440579Y-58056750D03*
X71440579Y-55516750D03*
X71440579Y-52976750D03*
X71440579Y-50436750D03*
X71440579Y-47896750D03*
X71440579Y-45356750D03*
X71440579Y-42816750D03*
X71440579Y-40276750D03*
X71440579Y-37736750D03*
X71440579Y-35196750D03*
X71440579Y-32656750D03*
X71440579Y-30116750D03*
M02*
