M48
; DRILL file {KiCad 7.0.1} date Thu 06 Apr 2023 13:44:40 CEST
; FORMAT={-:-/ absolute / metric / decimal}
; #@! TF.CreationDate,2023-04-06T13:44:40+02:00
; #@! TF.GenerationSoftware,Kicad,Pcbnew,7.0.1
; #@! TF.FileFunction,NonPlated,1,2,NPTH
FMAT,2
METRIC
; #@! TA.AperFunction,NonPlated,NPTH,ComponentDrill
T1C1.700
; #@! TA.AperFunction,NonPlated,NPTH,ComponentDrill
T2C3.400
%
G90
G05
T1
X37.452Y-34.7
X37.452Y-51.762
X37.452Y-68.825
X37.452Y-85.888
X37.452Y-102.95
X48.452Y-34.7
X48.452Y-51.762
X48.452Y-68.825
X48.452Y-85.888
X48.452Y-102.95
X55.506Y-34.7
X55.506Y-51.762
X55.506Y-68.825
X55.506Y-85.888
X55.506Y-102.95
X66.506Y-34.7
X66.506Y-51.762
X66.506Y-68.825
X66.506Y-85.888
X66.506Y-102.95
X73.561Y-34.7
X73.561Y-51.762
X73.561Y-68.825
X73.561Y-85.888
X73.561Y-102.95
X84.561Y-34.7
X84.561Y-51.762
X84.561Y-68.825
X84.561Y-85.888
X84.561Y-102.95
X91.615Y-34.7
X91.615Y-51.762
X91.615Y-68.825
X91.615Y-85.888
X91.615Y-102.95
X102.615Y-34.7
X102.615Y-51.762
X102.615Y-68.825
X102.615Y-85.888
X102.615Y-102.95
X109.669Y-34.7
X109.669Y-51.762
X109.669Y-68.825
X109.669Y-85.888
X109.669Y-102.95
X120.669Y-34.7
X120.669Y-51.762
X120.669Y-68.825
X120.669Y-85.888
X120.669Y-102.95
X127.724Y-34.7
X127.724Y-51.762
X127.724Y-68.825
X127.724Y-85.888
X127.724Y-102.95
X138.724Y-34.7
X138.724Y-51.762
X138.724Y-68.825
X138.724Y-85.888
X138.724Y-102.95
X145.778Y-34.7
X145.778Y-51.762
X145.778Y-68.825
X145.778Y-85.888
X145.778Y-102.95
X156.778Y-34.7
X156.778Y-51.762
X156.778Y-68.825
X156.778Y-85.888
X156.778Y-102.95
X163.832Y-34.7
X163.832Y-51.762
X163.832Y-68.825
X163.832Y-85.888
X163.832Y-102.95
X174.832Y-34.7
X174.832Y-51.762
X174.832Y-68.825
X174.832Y-85.888
X174.832Y-102.95
X181.887Y-34.7
X181.887Y-51.762
X181.887Y-68.825
X181.887Y-85.888
X181.887Y-102.95
X192.887Y-34.7
X192.887Y-51.762
X192.887Y-68.825
X192.887Y-85.888
X192.887Y-102.95
X199.941Y-34.7
X199.941Y-51.762
X199.941Y-68.825
X199.941Y-85.888
X199.941Y-102.95
X210.941Y-34.7
X210.941Y-51.762
X210.941Y-68.825
X210.941Y-85.888
X210.941Y-102.95
X217.996Y-34.7
X217.996Y-51.762
X217.996Y-68.825
X217.996Y-85.888
X217.996Y-102.95
X228.996Y-34.7
X228.996Y-51.762
X228.996Y-68.825
X228.996Y-85.888
X228.996Y-102.95
X236.05Y-34.7
X236.05Y-51.762
X236.05Y-68.825
X236.05Y-85.888
X236.05Y-102.95
X247.05Y-34.7
X247.05Y-51.762
X247.05Y-68.825
X247.05Y-85.888
X247.05Y-102.95
T2
X42.952Y-34.7
X42.952Y-51.762
X42.952Y-68.825
X42.952Y-85.888
X42.952Y-102.95
X61.006Y-34.7
X61.006Y-51.762
X61.006Y-68.825
X61.006Y-85.888
X61.006Y-102.95
X79.061Y-34.7
X79.061Y-51.762
X79.061Y-68.825
X79.061Y-85.888
X79.061Y-102.95
X97.115Y-34.7
X97.115Y-51.762
X97.115Y-68.825
X97.115Y-85.888
X97.115Y-102.95
X115.169Y-34.7
X115.169Y-51.762
X115.169Y-68.825
X115.169Y-85.888
X115.169Y-102.95
X133.224Y-34.7
X133.224Y-51.762
X133.224Y-68.825
X133.224Y-85.888
X133.224Y-102.95
X151.278Y-34.7
X151.278Y-51.762
X151.278Y-68.825
X151.278Y-85.888
X151.278Y-102.95
X169.332Y-34.7
X169.332Y-51.762
X169.332Y-68.825
X169.332Y-85.888
X169.332Y-102.95
X187.387Y-34.7
X187.387Y-51.762
X187.387Y-68.825
X187.387Y-85.888
X187.387Y-102.95
X205.441Y-34.7
X205.441Y-51.762
X205.441Y-68.825
X205.441Y-85.888
X205.441Y-102.95
X223.496Y-34.7
X223.496Y-51.762
X223.496Y-68.825
X223.496Y-85.888
X223.496Y-102.95
X241.55Y-34.7
X241.55Y-51.762
X241.55Y-68.825
X241.55Y-85.888
X241.55Y-102.95
T0
M30
