G04 #@! TF.GenerationSoftware,KiCad,Pcbnew,7.0.1*
G04 #@! TF.CreationDate,2023-04-06T13:44:27+02:00*
G04 #@! TF.ProjectId,t-rex,742d7265-782e-46b6-9963-61645f706362,rev?*
G04 #@! TF.SameCoordinates,Original*
G04 #@! TF.FileFunction,Copper,L1,Top*
G04 #@! TF.FilePolarity,Positive*
%FSLAX46Y46*%
G04 Gerber Fmt 4.6, Leading zero omitted, Abs format (unit mm)*
G04 Created by KiCad (PCBNEW 7.0.1) date 2023-04-06 13:44:27*
%MOMM*%
%LPD*%
G01*
G04 APERTURE LIST*
%ADD10C,0.300000*%
G04 #@! TA.AperFunction,NonConductor*
%ADD11C,0.300000*%
G04 #@! TD*
G04 #@! TA.AperFunction,NonConductor*
%ADD12C,0.200000*%
G04 #@! TD*
G04 #@! TA.AperFunction,ComponentPad*
%ADD13R,1.600000X1.600000*%
G04 #@! TD*
G04 #@! TA.AperFunction,ComponentPad*
%ADD14O,1.600000X1.600000*%
G04 #@! TD*
G04 #@! TA.AperFunction,ComponentPad*
%ADD15C,2.000000*%
G04 #@! TD*
G04 #@! TA.AperFunction,ComponentPad*
%ADD16R,1.700000X1.700000*%
G04 #@! TD*
G04 #@! TA.AperFunction,ComponentPad*
%ADD17O,1.700000X1.700000*%
G04 #@! TD*
G04 #@! TA.AperFunction,ComponentPad*
%ADD18C,4.400000*%
G04 #@! TD*
G04 #@! TA.AperFunction,ComponentPad*
%ADD19C,1.800000*%
G04 #@! TD*
G04 #@! TA.AperFunction,ComponentPad*
%ADD20R,1.752600X1.752600*%
G04 #@! TD*
G04 #@! TA.AperFunction,ComponentPad*
%ADD21C,1.752600*%
G04 #@! TD*
G04 #@! TA.AperFunction,ViaPad*
%ADD22C,0.800000*%
G04 #@! TD*
G04 #@! TA.AperFunction,ViaPad*
%ADD23C,0.600000*%
G04 #@! TD*
G04 #@! TA.AperFunction,Conductor*
%ADD24C,0.250000*%
G04 #@! TD*
G04 #@! TA.AperFunction,Conductor*
%ADD25C,0.508000*%
G04 #@! TD*
G04 APERTURE END LIST*
D10*
D11*
X255811785Y-75467855D02*
X255740357Y-75610712D01*
X255740357Y-75610712D02*
X255668928Y-75682141D01*
X255668928Y-75682141D02*
X255526071Y-75753569D01*
X255526071Y-75753569D02*
X255454642Y-75753569D01*
X255454642Y-75753569D02*
X255311785Y-75682141D01*
X255311785Y-75682141D02*
X255240357Y-75610712D01*
X255240357Y-75610712D02*
X255168928Y-75467855D01*
X255168928Y-75467855D02*
X255168928Y-75182141D01*
X255168928Y-75182141D02*
X255240357Y-75039284D01*
X255240357Y-75039284D02*
X255311785Y-74967855D01*
X255311785Y-74967855D02*
X255454642Y-74896426D01*
X255454642Y-74896426D02*
X255526071Y-74896426D01*
X255526071Y-74896426D02*
X255668928Y-74967855D01*
X255668928Y-74967855D02*
X255740357Y-75039284D01*
X255740357Y-75039284D02*
X255811785Y-75182141D01*
X255811785Y-75182141D02*
X255811785Y-75467855D01*
X255811785Y-75467855D02*
X255883214Y-75610712D01*
X255883214Y-75610712D02*
X255954642Y-75682141D01*
X255954642Y-75682141D02*
X256097500Y-75753569D01*
X256097500Y-75753569D02*
X256383214Y-75753569D01*
X256383214Y-75753569D02*
X256526071Y-75682141D01*
X256526071Y-75682141D02*
X256597500Y-75610712D01*
X256597500Y-75610712D02*
X256668928Y-75467855D01*
X256668928Y-75467855D02*
X256668928Y-75182141D01*
X256668928Y-75182141D02*
X256597500Y-75039284D01*
X256597500Y-75039284D02*
X256526071Y-74967855D01*
X256526071Y-74967855D02*
X256383214Y-74896426D01*
X256383214Y-74896426D02*
X256097500Y-74896426D01*
X256097500Y-74896426D02*
X255954642Y-74967855D01*
X255954642Y-74967855D02*
X255883214Y-75039284D01*
X255883214Y-75039284D02*
X255811785Y-75182141D01*
X255168928Y-73610713D02*
X255168928Y-73896427D01*
X255168928Y-73896427D02*
X255240357Y-74039284D01*
X255240357Y-74039284D02*
X255311785Y-74110713D01*
X255311785Y-74110713D02*
X255526071Y-74253570D01*
X255526071Y-74253570D02*
X255811785Y-74324998D01*
X255811785Y-74324998D02*
X256383214Y-74324998D01*
X256383214Y-74324998D02*
X256526071Y-74253570D01*
X256526071Y-74253570D02*
X256597500Y-74182141D01*
X256597500Y-74182141D02*
X256668928Y-74039284D01*
X256668928Y-74039284D02*
X256668928Y-73753570D01*
X256668928Y-73753570D02*
X256597500Y-73610713D01*
X256597500Y-73610713D02*
X256526071Y-73539284D01*
X256526071Y-73539284D02*
X256383214Y-73467855D01*
X256383214Y-73467855D02*
X256026071Y-73467855D01*
X256026071Y-73467855D02*
X255883214Y-73539284D01*
X255883214Y-73539284D02*
X255811785Y-73610713D01*
X255811785Y-73610713D02*
X255740357Y-73753570D01*
X255740357Y-73753570D02*
X255740357Y-74039284D01*
X255740357Y-74039284D02*
X255811785Y-74182141D01*
X255811785Y-74182141D02*
X255883214Y-74253570D01*
X255883214Y-74253570D02*
X256026071Y-74324998D01*
X256526071Y-72824999D02*
X256597500Y-72753570D01*
X256597500Y-72753570D02*
X256668928Y-72824999D01*
X256668928Y-72824999D02*
X256597500Y-72896427D01*
X256597500Y-72896427D02*
X256526071Y-72824999D01*
X256526071Y-72824999D02*
X256668928Y-72824999D01*
X255168928Y-71467856D02*
X255168928Y-71753570D01*
X255168928Y-71753570D02*
X255240357Y-71896427D01*
X255240357Y-71896427D02*
X255311785Y-71967856D01*
X255311785Y-71967856D02*
X255526071Y-72110713D01*
X255526071Y-72110713D02*
X255811785Y-72182141D01*
X255811785Y-72182141D02*
X256383214Y-72182141D01*
X256383214Y-72182141D02*
X256526071Y-72110713D01*
X256526071Y-72110713D02*
X256597500Y-72039284D01*
X256597500Y-72039284D02*
X256668928Y-71896427D01*
X256668928Y-71896427D02*
X256668928Y-71610713D01*
X256668928Y-71610713D02*
X256597500Y-71467856D01*
X256597500Y-71467856D02*
X256526071Y-71396427D01*
X256526071Y-71396427D02*
X256383214Y-71324998D01*
X256383214Y-71324998D02*
X256026071Y-71324998D01*
X256026071Y-71324998D02*
X255883214Y-71396427D01*
X255883214Y-71396427D02*
X255811785Y-71467856D01*
X255811785Y-71467856D02*
X255740357Y-71610713D01*
X255740357Y-71610713D02*
X255740357Y-71896427D01*
X255740357Y-71896427D02*
X255811785Y-72039284D01*
X255811785Y-72039284D02*
X255883214Y-72110713D01*
X255883214Y-72110713D02*
X256026071Y-72182141D01*
X255668928Y-70039285D02*
X256668928Y-70039285D01*
X255097500Y-70396427D02*
X256168928Y-70753570D01*
X256168928Y-70753570D02*
X256168928Y-69824999D01*
X255668928Y-68610714D02*
X256668928Y-68610714D01*
X255097500Y-68967856D02*
X256168928Y-69324999D01*
X256168928Y-69324999D02*
X256168928Y-68396428D01*
X256668928Y-67753571D02*
X256668928Y-67467857D01*
X256668928Y-67467857D02*
X256597500Y-67325000D01*
X256597500Y-67325000D02*
X256526071Y-67253571D01*
X256526071Y-67253571D02*
X256311785Y-67110714D01*
X256311785Y-67110714D02*
X256026071Y-67039285D01*
X256026071Y-67039285D02*
X255454642Y-67039285D01*
X255454642Y-67039285D02*
X255311785Y-67110714D01*
X255311785Y-67110714D02*
X255240357Y-67182143D01*
X255240357Y-67182143D02*
X255168928Y-67325000D01*
X255168928Y-67325000D02*
X255168928Y-67610714D01*
X255168928Y-67610714D02*
X255240357Y-67753571D01*
X255240357Y-67753571D02*
X255311785Y-67825000D01*
X255311785Y-67825000D02*
X255454642Y-67896428D01*
X255454642Y-67896428D02*
X255811785Y-67896428D01*
X255811785Y-67896428D02*
X255954642Y-67825000D01*
X255954642Y-67825000D02*
X256026071Y-67753571D01*
X256026071Y-67753571D02*
X256097500Y-67610714D01*
X256097500Y-67610714D02*
X256097500Y-67325000D01*
X256097500Y-67325000D02*
X256026071Y-67182143D01*
X256026071Y-67182143D02*
X255954642Y-67110714D01*
X255954642Y-67110714D02*
X255811785Y-67039285D01*
X256668928Y-65253572D02*
X255668928Y-65253572D01*
X255811785Y-65253572D02*
X255740357Y-65182143D01*
X255740357Y-65182143D02*
X255668928Y-65039286D01*
X255668928Y-65039286D02*
X255668928Y-64825000D01*
X255668928Y-64825000D02*
X255740357Y-64682143D01*
X255740357Y-64682143D02*
X255883214Y-64610715D01*
X255883214Y-64610715D02*
X256668928Y-64610715D01*
X255883214Y-64610715D02*
X255740357Y-64539286D01*
X255740357Y-64539286D02*
X255668928Y-64396429D01*
X255668928Y-64396429D02*
X255668928Y-64182143D01*
X255668928Y-64182143D02*
X255740357Y-64039286D01*
X255740357Y-64039286D02*
X255883214Y-63967857D01*
X255883214Y-63967857D02*
X256668928Y-63967857D01*
X256668928Y-63253572D02*
X255668928Y-63253572D01*
X255811785Y-63253572D02*
X255740357Y-63182143D01*
X255740357Y-63182143D02*
X255668928Y-63039286D01*
X255668928Y-63039286D02*
X255668928Y-62825000D01*
X255668928Y-62825000D02*
X255740357Y-62682143D01*
X255740357Y-62682143D02*
X255883214Y-62610715D01*
X255883214Y-62610715D02*
X256668928Y-62610715D01*
X255883214Y-62610715D02*
X255740357Y-62539286D01*
X255740357Y-62539286D02*
X255668928Y-62396429D01*
X255668928Y-62396429D02*
X255668928Y-62182143D01*
X255668928Y-62182143D02*
X255740357Y-62039286D01*
X255740357Y-62039286D02*
X255883214Y-61967857D01*
X255883214Y-61967857D02*
X256668928Y-61967857D01*
D12*
X249366202Y-112147453D02*
X258361420Y-112147453D01*
X249366202Y-25502547D02*
X258361420Y-25502547D01*
X257775000Y-112147453D02*
X257775000Y-25502547D01*
X257775000Y-112147453D02*
X257775000Y-25502547D01*
X257775000Y-112147453D02*
X257188579Y-111020949D01*
X257775000Y-112147453D02*
X258361421Y-111020949D01*
X257775000Y-25502547D02*
X258361421Y-26629051D01*
X257775000Y-25502547D02*
X257188579Y-26629051D01*
D10*
D11*
X134608054Y-121861785D02*
X134679482Y-121790357D01*
X134679482Y-121790357D02*
X134822340Y-121718928D01*
X134822340Y-121718928D02*
X135179482Y-121718928D01*
X135179482Y-121718928D02*
X135322340Y-121790357D01*
X135322340Y-121790357D02*
X135393768Y-121861785D01*
X135393768Y-121861785D02*
X135465197Y-122004642D01*
X135465197Y-122004642D02*
X135465197Y-122147499D01*
X135465197Y-122147499D02*
X135393768Y-122361785D01*
X135393768Y-122361785D02*
X134536625Y-123218928D01*
X134536625Y-123218928D02*
X135465197Y-123218928D01*
X136893768Y-123218928D02*
X136036625Y-123218928D01*
X136465196Y-123218928D02*
X136465196Y-121718928D01*
X136465196Y-121718928D02*
X136322339Y-121933214D01*
X136322339Y-121933214D02*
X136179482Y-122076071D01*
X136179482Y-122076071D02*
X136036625Y-122147499D01*
X137393767Y-121718928D02*
X138393767Y-121718928D01*
X138393767Y-121718928D02*
X137750910Y-123218928D01*
X138965195Y-123076071D02*
X139036624Y-123147499D01*
X139036624Y-123147499D02*
X138965195Y-123218928D01*
X138965195Y-123218928D02*
X138893767Y-123147499D01*
X138893767Y-123147499D02*
X138965195Y-123076071D01*
X138965195Y-123076071D02*
X138965195Y-123218928D01*
X139750910Y-123218928D02*
X140036624Y-123218928D01*
X140036624Y-123218928D02*
X140179481Y-123147499D01*
X140179481Y-123147499D02*
X140250910Y-123076071D01*
X140250910Y-123076071D02*
X140393767Y-122861785D01*
X140393767Y-122861785D02*
X140465196Y-122576071D01*
X140465196Y-122576071D02*
X140465196Y-122004642D01*
X140465196Y-122004642D02*
X140393767Y-121861785D01*
X140393767Y-121861785D02*
X140322339Y-121790357D01*
X140322339Y-121790357D02*
X140179481Y-121718928D01*
X140179481Y-121718928D02*
X139893767Y-121718928D01*
X139893767Y-121718928D02*
X139750910Y-121790357D01*
X139750910Y-121790357D02*
X139679481Y-121861785D01*
X139679481Y-121861785D02*
X139608053Y-122004642D01*
X139608053Y-122004642D02*
X139608053Y-122361785D01*
X139608053Y-122361785D02*
X139679481Y-122504642D01*
X139679481Y-122504642D02*
X139750910Y-122576071D01*
X139750910Y-122576071D02*
X139893767Y-122647499D01*
X139893767Y-122647499D02*
X140179481Y-122647499D01*
X140179481Y-122647499D02*
X140322338Y-122576071D01*
X140322338Y-122576071D02*
X140393767Y-122504642D01*
X140393767Y-122504642D02*
X140465196Y-122361785D01*
X141179481Y-123218928D02*
X141465195Y-123218928D01*
X141465195Y-123218928D02*
X141608052Y-123147499D01*
X141608052Y-123147499D02*
X141679481Y-123076071D01*
X141679481Y-123076071D02*
X141822338Y-122861785D01*
X141822338Y-122861785D02*
X141893767Y-122576071D01*
X141893767Y-122576071D02*
X141893767Y-122004642D01*
X141893767Y-122004642D02*
X141822338Y-121861785D01*
X141822338Y-121861785D02*
X141750910Y-121790357D01*
X141750910Y-121790357D02*
X141608052Y-121718928D01*
X141608052Y-121718928D02*
X141322338Y-121718928D01*
X141322338Y-121718928D02*
X141179481Y-121790357D01*
X141179481Y-121790357D02*
X141108052Y-121861785D01*
X141108052Y-121861785D02*
X141036624Y-122004642D01*
X141036624Y-122004642D02*
X141036624Y-122361785D01*
X141036624Y-122361785D02*
X141108052Y-122504642D01*
X141108052Y-122504642D02*
X141179481Y-122576071D01*
X141179481Y-122576071D02*
X141322338Y-122647499D01*
X141322338Y-122647499D02*
X141608052Y-122647499D01*
X141608052Y-122647499D02*
X141750909Y-122576071D01*
X141750909Y-122576071D02*
X141822338Y-122504642D01*
X141822338Y-122504642D02*
X141893767Y-122361785D01*
X142393766Y-121718928D02*
X143322338Y-121718928D01*
X143322338Y-121718928D02*
X142822338Y-122290357D01*
X142822338Y-122290357D02*
X143036623Y-122290357D01*
X143036623Y-122290357D02*
X143179481Y-122361785D01*
X143179481Y-122361785D02*
X143250909Y-122433214D01*
X143250909Y-122433214D02*
X143322338Y-122576071D01*
X143322338Y-122576071D02*
X143322338Y-122933214D01*
X143322338Y-122933214D02*
X143250909Y-123076071D01*
X143250909Y-123076071D02*
X143179480Y-123147500D01*
X143179480Y-123147500D02*
X143036623Y-123218928D01*
X143036623Y-123218928D02*
X142608052Y-123218928D01*
X142608052Y-123218928D02*
X142465195Y-123147500D01*
X142465195Y-123147500D02*
X142393766Y-123076071D01*
X144750909Y-123218928D02*
X143893766Y-123218928D01*
X144322337Y-123218928D02*
X144322337Y-121718928D01*
X144322337Y-121718928D02*
X144179480Y-121933214D01*
X144179480Y-121933214D02*
X144036623Y-122076071D01*
X144036623Y-122076071D02*
X143893766Y-122147500D01*
X146536622Y-123218928D02*
X146536622Y-122218928D01*
X146536622Y-122361785D02*
X146608051Y-122290357D01*
X146608051Y-122290357D02*
X146750908Y-122218928D01*
X146750908Y-122218928D02*
X146965194Y-122218928D01*
X146965194Y-122218928D02*
X147108051Y-122290357D01*
X147108051Y-122290357D02*
X147179480Y-122433214D01*
X147179480Y-122433214D02*
X147179479Y-123218928D01*
X147179480Y-122433214D02*
X147250908Y-122290357D01*
X147250908Y-122290357D02*
X147393765Y-122218928D01*
X147393765Y-122218928D02*
X147608051Y-122218928D01*
X147608051Y-122218928D02*
X147750908Y-122290357D01*
X147750908Y-122290357D02*
X147822337Y-122433214D01*
X147822337Y-122433214D02*
X147822337Y-123218928D01*
X148536622Y-123218928D02*
X148536622Y-122218928D01*
X148536622Y-122361785D02*
X148608051Y-122290357D01*
X148608051Y-122290357D02*
X148750908Y-122218928D01*
X148750908Y-122218928D02*
X148965194Y-122218928D01*
X148965194Y-122218928D02*
X149108051Y-122290357D01*
X149108051Y-122290357D02*
X149179480Y-122433214D01*
X149179480Y-122433214D02*
X149179479Y-123218928D01*
X149179480Y-122433214D02*
X149250908Y-122290357D01*
X149250908Y-122290357D02*
X149393765Y-122218928D01*
X149393765Y-122218928D02*
X149608051Y-122218928D01*
X149608051Y-122218928D02*
X149750908Y-122290357D01*
X149750908Y-122290357D02*
X149822337Y-122433214D01*
X149822337Y-122433214D02*
X149822337Y-123218928D01*
D12*
X33254367Y-110266202D02*
X33254367Y-124911419D01*
X251247452Y-110266203D02*
X251247452Y-124911420D01*
X33254367Y-124324999D02*
X251247452Y-124325000D01*
X33254367Y-124324999D02*
X251247452Y-124325000D01*
X33254367Y-124324999D02*
X34380871Y-123738578D01*
X33254367Y-124324999D02*
X34380871Y-124911420D01*
X251247452Y-124325000D02*
X250120948Y-124911421D01*
X251247452Y-124325000D02*
X250120948Y-123738579D01*
D13*
X64816199Y-43230000D03*
D14*
X57196199Y-43230000D03*
D15*
X205441239Y-79987500D03*
X210441239Y-82087500D03*
D13*
X232525000Y-38510000D03*
D14*
X232525000Y-30890000D03*
D15*
X61006199Y-79987500D03*
X66006199Y-82087500D03*
D16*
X45476819Y-43250000D03*
D17*
X42936819Y-43250000D03*
X40396819Y-43250000D03*
D13*
X232549999Y-72635000D03*
D14*
X232549999Y-65015000D03*
D15*
X151278099Y-28800000D03*
X156278099Y-30900000D03*
D13*
X196400000Y-72635000D03*
D14*
X196400000Y-65015000D03*
D18*
X142250000Y-60325000D03*
D13*
X232549999Y-106760000D03*
D14*
X232549999Y-99140000D03*
D15*
X241549999Y-79987500D03*
X246549999Y-82087500D03*
D13*
X106169339Y-55572500D03*
D14*
X106169339Y-47952500D03*
D15*
X151278099Y-45862500D03*
X156278099Y-47962500D03*
D13*
X160300000Y-89697500D03*
D14*
X160300000Y-82077500D03*
D13*
X142250000Y-89697500D03*
D14*
X142250000Y-82077500D03*
D15*
X97114959Y-45862500D03*
X102114959Y-47962500D03*
X133223719Y-97050000D03*
X138223719Y-99150000D03*
X133223719Y-79987500D03*
X138223719Y-82087500D03*
D13*
X106125000Y-38510000D03*
D14*
X106125000Y-30890000D03*
D15*
X151278099Y-79987500D03*
X156278099Y-82087500D03*
X169332479Y-45862500D03*
X174332479Y-47962500D03*
X115169339Y-45862500D03*
X120169339Y-47962500D03*
D13*
X124200000Y-89697500D03*
D14*
X124200000Y-82077500D03*
D15*
X169332479Y-79987500D03*
X174332479Y-82087500D03*
D18*
X52006199Y-94387500D03*
D13*
X124200000Y-106760000D03*
D14*
X124200000Y-99140000D03*
D13*
X178350000Y-106760000D03*
D14*
X178350000Y-99140000D03*
D15*
X61006199Y-62925000D03*
X66006199Y-65025000D03*
X187386859Y-45862500D03*
X192386859Y-47962500D03*
D13*
X214425000Y-38510000D03*
D14*
X214425000Y-30890000D03*
D13*
X237739999Y-94425000D03*
D14*
X245359999Y-94425000D03*
D13*
X70060579Y-106760000D03*
D14*
X70060579Y-99140000D03*
D15*
X169332479Y-28800000D03*
X174332479Y-30900000D03*
D13*
X196400000Y-89697500D03*
D14*
X196400000Y-82077500D03*
D15*
X115169339Y-28800000D03*
X120169339Y-30900000D03*
X192386859Y-82087500D03*
X187386859Y-79987500D03*
D13*
X70060579Y-89697500D03*
D14*
X70060579Y-82077500D03*
D13*
X178350000Y-72635000D03*
D14*
X178350000Y-65015000D03*
D13*
X142225000Y-38510000D03*
D14*
X142225000Y-30890000D03*
D13*
X196375000Y-38510000D03*
D14*
X196375000Y-30890000D03*
D13*
X57196199Y-60300000D03*
D14*
X64816199Y-60300000D03*
D15*
X79060579Y-62925000D03*
X84060579Y-65025000D03*
X223495619Y-62925000D03*
X228495619Y-65025000D03*
D13*
X219685619Y-94475000D03*
D14*
X227305619Y-94475000D03*
D15*
X151278099Y-97050000D03*
X156278099Y-99150000D03*
D13*
X52050000Y-72635000D03*
D14*
X52050000Y-65015000D03*
D13*
X214500000Y-89697500D03*
D14*
X214500000Y-82077500D03*
D15*
X223495619Y-97050000D03*
X228495619Y-99150000D03*
D13*
X237739999Y-60325000D03*
D14*
X245359999Y-60325000D03*
D15*
X133223719Y-28800000D03*
X138223719Y-30900000D03*
X223495619Y-28800000D03*
X228495619Y-30900000D03*
X205441239Y-28800000D03*
X210441239Y-30900000D03*
X61006199Y-28800000D03*
X66006199Y-30900000D03*
X79060579Y-97050000D03*
X84060579Y-99150000D03*
D13*
X124194339Y-38510000D03*
D14*
X124194339Y-30890000D03*
D13*
X106169339Y-106760000D03*
D14*
X106169339Y-99140000D03*
D15*
X79060579Y-79987500D03*
X84060579Y-82087500D03*
X115169339Y-62925000D03*
X120169339Y-65025000D03*
X61006199Y-45862500D03*
X66006199Y-47962500D03*
X205441239Y-97050000D03*
X210441239Y-99150000D03*
X42951819Y-79987500D03*
X47951819Y-82087500D03*
D18*
X232549999Y-94387500D03*
D13*
X214500000Y-55572500D03*
D14*
X214500000Y-47952500D03*
D18*
X142250000Y-94387500D03*
D13*
X52050000Y-55572500D03*
D14*
X52050000Y-47952500D03*
D15*
X241549999Y-28800000D03*
X246549999Y-30900000D03*
X42951819Y-28800000D03*
X47951819Y-30900000D03*
D13*
X52050000Y-106760000D03*
D14*
X52050000Y-99140000D03*
D13*
X178350000Y-55572500D03*
D14*
X178350000Y-47952500D03*
D15*
X115169339Y-79987500D03*
X120169339Y-82087500D03*
D13*
X160300000Y-72635000D03*
D14*
X160300000Y-65015000D03*
D13*
X93304959Y-60300000D03*
D14*
X100924959Y-60300000D03*
D15*
X223495619Y-79987500D03*
X228495619Y-82087500D03*
X205441239Y-62925000D03*
X210441239Y-65025000D03*
D13*
X142250000Y-72635000D03*
D14*
X142250000Y-65015000D03*
D13*
X70060579Y-72635000D03*
D14*
X70060579Y-65015000D03*
D13*
X88100000Y-106760000D03*
D14*
X88100000Y-99140000D03*
D13*
X196400000Y-55572500D03*
D14*
X196400000Y-47952500D03*
D13*
X142250000Y-106760000D03*
D14*
X142250000Y-99140000D03*
D13*
X75250579Y-60300000D03*
D14*
X82870579Y-60300000D03*
D15*
X241549999Y-62925000D03*
X246549999Y-65025000D03*
X187386859Y-28800000D03*
X192386859Y-30900000D03*
D13*
X52050000Y-89697500D03*
D14*
X52050000Y-82077500D03*
D13*
X178325000Y-38510000D03*
D14*
X178325000Y-30890000D03*
D15*
X241549999Y-45862500D03*
X246549999Y-47962500D03*
X42951819Y-62925000D03*
X47951819Y-65025000D03*
X97114959Y-28800000D03*
X102114959Y-30900000D03*
X151278099Y-62925000D03*
X156278099Y-65025000D03*
X61006199Y-97050000D03*
X66006199Y-99150000D03*
X42951819Y-97050000D03*
X47951819Y-99150000D03*
X133223719Y-62925000D03*
X138223719Y-65025000D03*
D13*
X124200000Y-72635000D03*
D14*
X124200000Y-65015000D03*
D15*
X187386859Y-62925000D03*
X192386859Y-65025000D03*
X133223719Y-45862500D03*
X138223719Y-47962500D03*
D13*
X124200000Y-55572500D03*
D14*
X124200000Y-47952500D03*
D15*
X241549999Y-97050000D03*
X246549999Y-99150000D03*
D13*
X160300000Y-55572500D03*
D14*
X160300000Y-47952500D03*
D13*
X214500000Y-106760000D03*
D14*
X214500000Y-99140000D03*
D18*
X52006199Y-43200000D03*
D13*
X214500000Y-72635000D03*
D14*
X214500000Y-65015000D03*
D13*
X106169339Y-89697500D03*
D14*
X106169339Y-82077500D03*
D13*
X88100000Y-72635000D03*
D14*
X88100000Y-65015000D03*
D15*
X97114959Y-79987500D03*
X102114959Y-82087500D03*
D13*
X237739999Y-77387500D03*
D14*
X245359999Y-77387500D03*
D15*
X115169339Y-97050000D03*
X120169339Y-99150000D03*
D13*
X160275000Y-38510000D03*
D14*
X160275000Y-30890000D03*
D13*
X160300000Y-106760000D03*
D14*
X160300000Y-99140000D03*
D13*
X52050000Y-38510000D03*
D14*
X52050000Y-30890000D03*
D13*
X196400000Y-106760000D03*
D14*
X196400000Y-99140000D03*
D13*
X237739999Y-43225000D03*
D14*
X245359999Y-43225000D03*
D13*
X106169339Y-72635000D03*
D14*
X106169339Y-65015000D03*
D13*
X88100000Y-89697500D03*
D14*
X88100000Y-82077500D03*
D18*
X232549999Y-43200000D03*
D13*
X142250000Y-55572500D03*
D14*
X142250000Y-47952500D03*
D15*
X97114959Y-62925000D03*
X102114959Y-65025000D03*
X169332479Y-97050000D03*
X174332479Y-99150000D03*
D13*
X232549999Y-55572500D03*
D14*
X232549999Y-47952500D03*
D13*
X178350000Y-89697500D03*
D14*
X178350000Y-82077500D03*
D15*
X223495619Y-45862500D03*
X228495619Y-47962500D03*
D13*
X232549999Y-89697500D03*
D14*
X232549999Y-82077500D03*
D15*
X42951819Y-45862500D03*
X47951819Y-47962500D03*
X187386859Y-97050000D03*
X192386859Y-99150000D03*
X79060579Y-45862500D03*
X84060579Y-47962500D03*
X97114959Y-97050000D03*
X102114959Y-99150000D03*
X79060579Y-28800000D03*
X84060579Y-30900000D03*
X205441239Y-45862500D03*
X210441239Y-47962500D03*
X169332479Y-62925000D03*
X174332479Y-65025000D03*
D19*
X54229009Y-57043750D03*
X49729009Y-63543750D03*
X49729009Y-57043750D03*
X54229009Y-63543750D03*
D20*
X86680579Y-30116750D03*
D21*
X86680579Y-32656750D03*
X86680579Y-35196750D03*
X86680579Y-37736750D03*
X86680579Y-40276750D03*
X86680579Y-42816750D03*
X86680579Y-45356750D03*
X86680579Y-47896750D03*
X86680579Y-50436750D03*
X86680579Y-52976750D03*
X86680579Y-55516750D03*
X86680579Y-58056750D03*
X71440579Y-58056750D03*
X71440579Y-55516750D03*
X71440579Y-52976750D03*
X71440579Y-50436750D03*
X71440579Y-47896750D03*
X71440579Y-45356750D03*
X71440579Y-42816750D03*
X71440579Y-40276750D03*
X71440579Y-37736750D03*
X71440579Y-35196750D03*
X71440579Y-32656750D03*
X71440579Y-30116750D03*
D22*
X68725000Y-46081250D03*
D23*
X75950000Y-33825000D03*
D22*
X88325000Y-54250000D03*
D24*
X39150000Y-32601819D02*
X42951819Y-28800000D01*
X40876818Y-77912499D02*
X40876818Y-65000001D01*
X39150000Y-43664882D02*
X39150000Y-32601819D01*
X42951819Y-97050000D02*
X40876818Y-94974999D01*
X42951819Y-79987500D02*
X40876818Y-77912499D01*
X42951819Y-62925000D02*
X40876818Y-60849999D01*
X40876818Y-94974999D02*
X40876818Y-82062501D01*
X40876818Y-60849999D02*
X40876818Y-47937501D01*
X40876818Y-65000001D02*
X42951819Y-62925000D01*
X42951819Y-45862500D02*
X41347618Y-45862500D01*
X41347618Y-45862500D02*
X39150000Y-43664882D01*
X40876818Y-47937501D02*
X42951819Y-45862500D01*
X40876818Y-82062501D02*
X42951819Y-79987500D01*
X58931198Y-82062501D02*
X61006199Y-79987500D01*
X61006199Y-62925000D02*
X58931198Y-60849999D01*
X61006199Y-45862500D02*
X58931198Y-43787499D01*
X58931198Y-94974999D02*
X58931198Y-82062501D01*
X58931198Y-60849999D02*
X58931198Y-47937501D01*
X58931198Y-77912499D02*
X58931198Y-65000001D01*
X58931198Y-30875001D02*
X61006199Y-28800000D01*
X58931198Y-43787499D02*
X58931198Y-30875001D01*
X61006199Y-97050000D02*
X58931198Y-94974999D01*
X58931198Y-65000001D02*
X61006199Y-62925000D01*
X68725000Y-45532329D02*
X71440579Y-42816750D01*
X58931198Y-47937501D02*
X61006199Y-45862500D01*
X68725000Y-46081250D02*
X68725000Y-45532329D01*
X61006199Y-79987500D02*
X58931198Y-77912499D01*
X76985578Y-60849999D02*
X76985578Y-47937501D01*
X76985578Y-43787499D02*
X76985578Y-30875001D01*
X79060579Y-45862500D02*
X76985578Y-43787499D01*
X79060579Y-62925000D02*
X76985578Y-60849999D01*
X76985578Y-47937501D02*
X79060579Y-45862500D01*
X76985578Y-82062501D02*
X79060579Y-79987500D01*
X79060579Y-97050000D02*
X76985578Y-94974999D01*
X76985578Y-94974999D02*
X76985578Y-82062501D01*
X79060579Y-79987500D02*
X76985578Y-77912499D01*
X76985578Y-77912499D02*
X76985578Y-65000001D01*
X76985578Y-30875001D02*
X79060579Y-28800000D01*
X76985578Y-65000001D02*
X79060579Y-62925000D01*
X95039958Y-94974999D02*
X97114959Y-97050000D01*
X97114959Y-62925000D02*
X95039958Y-65000001D01*
X95039958Y-65000001D02*
X95039958Y-77912499D01*
X97114959Y-79987500D02*
X95039958Y-82062501D01*
X95039958Y-43787499D02*
X97114959Y-45862500D01*
X95039958Y-30875001D02*
X95039958Y-43787499D01*
X95039958Y-47937501D02*
X95039958Y-60849999D01*
X97114959Y-45862500D02*
X95039958Y-47937501D01*
X95039958Y-77912499D02*
X97114959Y-79987500D01*
X95039958Y-82062501D02*
X95039958Y-94974999D01*
X97114959Y-28800000D02*
X95039958Y-30875001D01*
X95039958Y-60849999D02*
X97114959Y-62925000D01*
X115169339Y-62925000D02*
X113094338Y-65000001D01*
X113094338Y-77912499D02*
X115169339Y-79987500D01*
X113094338Y-30875001D02*
X113094338Y-43787499D01*
X113094338Y-60849999D02*
X115169339Y-62925000D01*
X113094338Y-47937501D02*
X113094338Y-60849999D01*
X113094338Y-94974999D02*
X115169339Y-97050000D01*
X115169339Y-79987500D02*
X113094338Y-82062501D01*
X115169339Y-45862500D02*
X113094338Y-47937501D01*
X113094338Y-82062501D02*
X113094338Y-94974999D01*
X113094338Y-43787499D02*
X115169339Y-45862500D01*
X113094338Y-65000001D02*
X113094338Y-77912499D01*
X115169339Y-28800000D02*
X113094338Y-30875001D01*
X133223719Y-45862500D02*
X131148718Y-47937501D01*
X131148718Y-30875001D02*
X131148718Y-43787499D01*
X131148718Y-47937501D02*
X131148718Y-60849999D01*
X131148718Y-82062501D02*
X131148718Y-94974999D01*
X133223719Y-62925000D02*
X131148718Y-65000001D01*
X131148718Y-65000001D02*
X131148718Y-77912499D01*
X131148718Y-60849999D02*
X133223719Y-62925000D01*
X131148718Y-77912499D02*
X133223719Y-79987500D01*
X131148718Y-43787499D02*
X133223719Y-45862500D01*
X133223719Y-79987500D02*
X131148718Y-82062501D01*
X133223719Y-28800000D02*
X131148718Y-30875001D01*
X131148718Y-94974999D02*
X133223719Y-97050000D01*
X151278099Y-79987500D02*
X149203098Y-82062501D01*
X151278099Y-45862500D02*
X149203098Y-47937501D01*
X149203098Y-94974999D02*
X151278099Y-97050000D01*
X151278099Y-28800000D02*
X149203098Y-30875001D01*
X149203098Y-47937501D02*
X149203098Y-60849999D01*
X149203098Y-77912499D02*
X151278099Y-79987500D01*
X149203098Y-65000001D02*
X149203098Y-77912499D01*
X149203098Y-30875001D02*
X149203098Y-43787499D01*
X149203098Y-43787499D02*
X151278099Y-45862500D01*
X151278099Y-62925000D02*
X149203098Y-65000001D01*
X149203098Y-60849999D02*
X151278099Y-62925000D01*
X149203098Y-82062501D02*
X149203098Y-94974999D01*
X167257478Y-30875001D02*
X167257478Y-43787499D01*
X169332479Y-45862500D02*
X167257478Y-47937501D01*
X167257478Y-94974999D02*
X169332479Y-97050000D01*
X167257478Y-47937501D02*
X167257478Y-60849999D01*
X167257478Y-77912499D02*
X169332479Y-79987500D01*
X167257478Y-60849999D02*
X169332479Y-62925000D01*
X169332479Y-62925000D02*
X167257478Y-65000001D01*
X167257478Y-43787499D02*
X169332479Y-45862500D01*
X167257478Y-65000001D02*
X167257478Y-77912499D01*
X167257478Y-82062501D02*
X167257478Y-94974999D01*
X169332479Y-79987500D02*
X167257478Y-82062501D01*
X169332479Y-28800000D02*
X167257478Y-30875001D01*
X185311858Y-65000001D02*
X185311858Y-77912499D01*
X187386859Y-62925000D02*
X185311858Y-65000001D01*
X187386859Y-45862500D02*
X185311858Y-47937501D01*
X185311858Y-30875001D02*
X185311858Y-43787499D01*
X187386859Y-28800000D02*
X185311858Y-30875001D01*
X185311858Y-60849999D02*
X187386859Y-62925000D01*
X185311858Y-82062501D02*
X185311858Y-94974999D01*
X187386859Y-79987500D02*
X185311858Y-82062501D01*
X185311858Y-43787499D02*
X187386859Y-45862500D01*
X185311858Y-77912499D02*
X187386859Y-79987500D01*
X185311858Y-94974999D02*
X187386859Y-97050000D01*
X185311858Y-47937501D02*
X185311858Y-60849999D01*
X203366238Y-43787499D02*
X205441239Y-45862500D01*
X203366238Y-94974999D02*
X205441239Y-97050000D01*
X205441239Y-45862500D02*
X203366238Y-47937501D01*
X203366238Y-47937501D02*
X203366238Y-60849999D01*
X205441239Y-62925000D02*
X203366238Y-65000001D01*
X205441239Y-79987500D02*
X203366238Y-82062501D01*
X205441239Y-28800000D02*
X203366238Y-30875001D01*
X203366238Y-65000001D02*
X203366238Y-77912499D01*
X203366238Y-82062501D02*
X203366238Y-94974999D01*
X203366238Y-30875001D02*
X203366238Y-43787499D01*
X203366238Y-77912499D02*
X205441239Y-79987500D01*
X203366238Y-60849999D02*
X205441239Y-62925000D01*
X223495619Y-45862500D02*
X221420618Y-47937501D01*
X221420618Y-43787499D02*
X223495619Y-45862500D01*
X221420618Y-82062501D02*
X221420618Y-94974999D01*
X223495619Y-79987500D02*
X221420618Y-82062501D01*
X221420618Y-94974999D02*
X223495619Y-97050000D01*
X223495619Y-62925000D02*
X221420618Y-65000001D01*
X221420618Y-65000001D02*
X221420618Y-77912499D01*
X221420618Y-77912499D02*
X223495619Y-79987500D01*
X223495619Y-28800000D02*
X221420618Y-30875001D01*
X221420618Y-47937501D02*
X221420618Y-60849999D01*
X221420618Y-60849999D02*
X223495619Y-62925000D01*
X221420618Y-30875001D02*
X221420618Y-43787499D01*
X241549999Y-62925000D02*
X239474998Y-60849999D01*
X239474998Y-43787499D02*
X239474998Y-30875001D01*
X241549999Y-79987500D02*
X239474998Y-77912499D01*
X239474998Y-82062501D02*
X241549999Y-79987500D01*
X239474998Y-60849999D02*
X239474998Y-47937501D01*
X241549999Y-97050000D02*
X239474998Y-94974999D01*
X239474998Y-77912499D02*
X239474998Y-65000001D01*
X239474998Y-30875001D02*
X241549999Y-28800000D01*
X239474998Y-94974999D02*
X239474998Y-82062501D01*
X239474998Y-65000001D02*
X241549999Y-62925000D01*
X239474998Y-47937501D02*
X241549999Y-45862500D01*
X241549999Y-45862500D02*
X239474998Y-43787499D01*
X68946750Y-47896750D02*
X71440579Y-47896750D01*
X45476819Y-43250000D02*
X45476819Y-42150000D01*
X64681199Y-30581199D02*
X64681199Y-40656199D01*
X45476819Y-42150000D02*
X60151819Y-27475000D01*
X60151819Y-27475000D02*
X61575000Y-27475000D01*
X65950000Y-44900000D02*
X68946750Y-47896750D01*
X65950000Y-41925000D02*
X65950000Y-44900000D01*
X61575000Y-27475000D02*
X64681199Y-30581199D01*
X64681199Y-40656199D02*
X65950000Y-41925000D01*
D25*
X75950000Y-33825000D02*
X74781750Y-32656750D01*
X74781750Y-32656750D02*
X71440579Y-32656750D01*
X54541576Y-26625000D02*
X63787466Y-26625000D01*
X40396819Y-43250000D02*
X40396819Y-40769757D01*
X70110279Y-36406450D02*
X71440579Y-37736750D01*
X70110279Y-32947813D02*
X70110279Y-36406450D01*
X63787466Y-26625000D02*
X70110279Y-32947813D01*
X40396819Y-40769757D02*
X54541576Y-26625000D01*
D24*
X75250579Y-49166750D02*
X71440579Y-45356750D01*
X75250579Y-60300000D02*
X75250579Y-49166750D01*
X68935579Y-71510000D02*
X68935579Y-55481750D01*
X70060579Y-72635000D02*
X68935579Y-71510000D01*
X68935579Y-55481750D02*
X71440579Y-52976750D01*
X70239279Y-58614279D02*
X70239279Y-56718050D01*
X71185579Y-88572500D02*
X71185579Y-59560579D01*
X70060579Y-89697500D02*
X71185579Y-88572500D01*
X70239279Y-56718050D02*
X71440579Y-55516750D01*
X71185579Y-59560579D02*
X70239279Y-58614279D01*
X71635579Y-58251750D02*
X71440579Y-58056750D01*
X70060579Y-106760000D02*
X71635579Y-105185000D01*
X71635579Y-105185000D02*
X71635579Y-58251750D01*
X66006199Y-47962500D02*
X64816199Y-49152500D01*
X64816199Y-49152500D02*
X64816199Y-60300000D01*
X83275000Y-52209335D02*
X83275000Y-48748079D01*
X85315665Y-54250000D02*
X83275000Y-52209335D01*
X88325000Y-54250000D02*
X85315665Y-54250000D01*
X83275000Y-48748079D02*
X84060579Y-47962500D01*
X227305619Y-83277500D02*
X227305619Y-94475000D01*
X228495619Y-82087500D02*
X227305619Y-83277500D01*
X82870579Y-60300000D02*
X82070580Y-59500001D01*
X82070580Y-59500001D02*
X82070580Y-32889999D01*
X82070580Y-32889999D02*
X84060579Y-30900000D01*
M02*
