%TF.GenerationSoftware,KiCad,Pcbnew,7.0.1*%
%TF.CreationDate,2023-04-06T13:44:41+02:00*%
%TF.ProjectId,t-rex,742d7265-782e-46b6-9963-61645f706362,rev?*%
%TF.SameCoordinates,Original*%
%TF.FileFunction,Drillmap*%
%TF.FilePolarity,Positive*%
%FSLAX45Y45*%
G04 Gerber Fmt 4.5, Leading zero omitted, Abs format (unit mm)*
G04 Created by KiCad (PCBNEW 7.0.1) date 2023-04-06 13:44:41*
%MOMM*%
%LPD*%
G01*
G04 APERTURE LIST*
%ADD10C,0.150000*%
%ADD11C,0.200000*%
%ADD12C,0.040000*%
%ADD13C,0.080000*%
%ADD14C,0.100000*%
%ADD15C,0.109220*%
%ADD16C,0.120000*%
%ADD17C,0.220000*%
G04 APERTURE END LIST*
D10*
X3563562Y-2550257D02*
G75*
G03*
X3325437Y-2788380I-2J-238123D01*
G01*
X25124745Y-2788380D02*
G75*
G03*
X24886620Y-2550255I-238125J0D01*
G01*
X3325437Y-10976620D02*
X3325437Y-2788380D01*
X24886620Y-11214745D02*
G75*
G03*
X25124745Y-10976620I0J238125D01*
G01*
X25124745Y-10976620D02*
X25124745Y-2788380D01*
X3563562Y-11214745D02*
X24886620Y-11214745D01*
X3325435Y-10976620D02*
G75*
G03*
X3563562Y-11214745I238125J0D01*
G01*
X3563562Y-2550255D02*
X24886620Y-2550255D01*
D11*
D12*
X6852500Y-4588125D02*
X6892500Y-4628125D01*
X6892500Y-4588125D02*
X6852500Y-4628125D01*
X7575000Y-3362500D02*
X7615000Y-3402500D01*
X7615000Y-3362500D02*
X7575000Y-3402500D01*
X8812500Y-5405000D02*
X8852500Y-5445000D01*
X8852500Y-5405000D02*
X8812500Y-5445000D01*
D13*
X5245000Y-3089000D02*
G75*
G03*
X5245000Y-3089000I-40000J0D01*
G01*
X5245000Y-3851000D02*
G75*
G03*
X5245000Y-3851000I-40000J0D01*
G01*
X5245000Y-4795250D02*
G75*
G03*
X5245000Y-4795250I-40000J0D01*
G01*
X5245000Y-5557250D02*
G75*
G03*
X5245000Y-5557250I-40000J0D01*
G01*
X5245000Y-6501500D02*
G75*
G03*
X5245000Y-6501500I-40000J0D01*
G01*
X5245000Y-7263500D02*
G75*
G03*
X5245000Y-7263500I-40000J0D01*
G01*
X5245000Y-8207750D02*
G75*
G03*
X5245000Y-8207750I-40000J0D01*
G01*
X5245000Y-8969750D02*
G75*
G03*
X5245000Y-8969750I-40000J0D01*
G01*
X5245000Y-9914000D02*
G75*
G03*
X5245000Y-9914000I-40000J0D01*
G01*
X5245000Y-10676000D02*
G75*
G03*
X5245000Y-10676000I-40000J0D01*
G01*
X5759620Y-4323000D02*
G75*
G03*
X5759620Y-4323000I-40000J0D01*
G01*
X5759620Y-6030000D02*
G75*
G03*
X5759620Y-6030000I-40000J0D01*
G01*
X6521620Y-4323000D02*
G75*
G03*
X6521620Y-4323000I-40000J0D01*
G01*
X6521620Y-6030000D02*
G75*
G03*
X6521620Y-6030000I-40000J0D01*
G01*
X7046058Y-6501500D02*
G75*
G03*
X7046058Y-6501500I-40000J0D01*
G01*
X7046058Y-7263500D02*
G75*
G03*
X7046058Y-7263500I-40000J0D01*
G01*
X7046058Y-8207750D02*
G75*
G03*
X7046058Y-8207750I-40000J0D01*
G01*
X7046058Y-8969750D02*
G75*
G03*
X7046058Y-8969750I-40000J0D01*
G01*
X7046058Y-9914000D02*
G75*
G03*
X7046058Y-9914000I-40000J0D01*
G01*
X7046058Y-10676000D02*
G75*
G03*
X7046058Y-10676000I-40000J0D01*
G01*
X7565058Y-6030000D02*
G75*
G03*
X7565058Y-6030000I-40000J0D01*
G01*
X8327058Y-6030000D02*
G75*
G03*
X8327058Y-6030000I-40000J0D01*
G01*
X8850000Y-6501500D02*
G75*
G03*
X8850000Y-6501500I-40000J0D01*
G01*
X8850000Y-7263500D02*
G75*
G03*
X8850000Y-7263500I-40000J0D01*
G01*
X8850000Y-8207750D02*
G75*
G03*
X8850000Y-8207750I-40000J0D01*
G01*
X8850000Y-8969750D02*
G75*
G03*
X8850000Y-8969750I-40000J0D01*
G01*
X8850000Y-9914000D02*
G75*
G03*
X8850000Y-9914000I-40000J0D01*
G01*
X8850000Y-10676000D02*
G75*
G03*
X8850000Y-10676000I-40000J0D01*
G01*
X9370496Y-6030000D02*
G75*
G03*
X9370496Y-6030000I-40000J0D01*
G01*
X10132496Y-6030000D02*
G75*
G03*
X10132496Y-6030000I-40000J0D01*
G01*
X10652500Y-3089000D02*
G75*
G03*
X10652500Y-3089000I-40000J0D01*
G01*
X10652500Y-3851000D02*
G75*
G03*
X10652500Y-3851000I-40000J0D01*
G01*
X10656934Y-4795250D02*
G75*
G03*
X10656934Y-4795250I-40000J0D01*
G01*
X10656934Y-5557250D02*
G75*
G03*
X10656934Y-5557250I-40000J0D01*
G01*
X10656934Y-6501500D02*
G75*
G03*
X10656934Y-6501500I-40000J0D01*
G01*
X10656934Y-7263500D02*
G75*
G03*
X10656934Y-7263500I-40000J0D01*
G01*
X10656934Y-8207750D02*
G75*
G03*
X10656934Y-8207750I-40000J0D01*
G01*
X10656934Y-8969750D02*
G75*
G03*
X10656934Y-8969750I-40000J0D01*
G01*
X10656934Y-9914000D02*
G75*
G03*
X10656934Y-9914000I-40000J0D01*
G01*
X10656934Y-10676000D02*
G75*
G03*
X10656934Y-10676000I-40000J0D01*
G01*
X12459434Y-3089000D02*
G75*
G03*
X12459434Y-3089000I-40000J0D01*
G01*
X12459434Y-3851000D02*
G75*
G03*
X12459434Y-3851000I-40000J0D01*
G01*
X12460000Y-4795250D02*
G75*
G03*
X12460000Y-4795250I-40000J0D01*
G01*
X12460000Y-5557250D02*
G75*
G03*
X12460000Y-5557250I-40000J0D01*
G01*
X12460000Y-6501500D02*
G75*
G03*
X12460000Y-6501500I-40000J0D01*
G01*
X12460000Y-7263500D02*
G75*
G03*
X12460000Y-7263500I-40000J0D01*
G01*
X12460000Y-8207750D02*
G75*
G03*
X12460000Y-8207750I-40000J0D01*
G01*
X12460000Y-8969750D02*
G75*
G03*
X12460000Y-8969750I-40000J0D01*
G01*
X12460000Y-9914000D02*
G75*
G03*
X12460000Y-9914000I-40000J0D01*
G01*
X12460000Y-10676000D02*
G75*
G03*
X12460000Y-10676000I-40000J0D01*
G01*
X14262500Y-3089000D02*
G75*
G03*
X14262500Y-3089000I-40000J0D01*
G01*
X14262500Y-3851000D02*
G75*
G03*
X14262500Y-3851000I-40000J0D01*
G01*
X14265000Y-4795250D02*
G75*
G03*
X14265000Y-4795250I-40000J0D01*
G01*
X14265000Y-5557250D02*
G75*
G03*
X14265000Y-5557250I-40000J0D01*
G01*
X14265000Y-6501500D02*
G75*
G03*
X14265000Y-6501500I-40000J0D01*
G01*
X14265000Y-7263500D02*
G75*
G03*
X14265000Y-7263500I-40000J0D01*
G01*
X14265000Y-8207750D02*
G75*
G03*
X14265000Y-8207750I-40000J0D01*
G01*
X14265000Y-8969750D02*
G75*
G03*
X14265000Y-8969750I-40000J0D01*
G01*
X14265000Y-9914000D02*
G75*
G03*
X14265000Y-9914000I-40000J0D01*
G01*
X14265000Y-10676000D02*
G75*
G03*
X14265000Y-10676000I-40000J0D01*
G01*
X16067500Y-3089000D02*
G75*
G03*
X16067500Y-3089000I-40000J0D01*
G01*
X16067500Y-3851000D02*
G75*
G03*
X16067500Y-3851000I-40000J0D01*
G01*
X16070000Y-4795250D02*
G75*
G03*
X16070000Y-4795250I-40000J0D01*
G01*
X16070000Y-5557250D02*
G75*
G03*
X16070000Y-5557250I-40000J0D01*
G01*
X16070000Y-6501500D02*
G75*
G03*
X16070000Y-6501500I-40000J0D01*
G01*
X16070000Y-7263500D02*
G75*
G03*
X16070000Y-7263500I-40000J0D01*
G01*
X16070000Y-8207750D02*
G75*
G03*
X16070000Y-8207750I-40000J0D01*
G01*
X16070000Y-8969750D02*
G75*
G03*
X16070000Y-8969750I-40000J0D01*
G01*
X16070000Y-9914000D02*
G75*
G03*
X16070000Y-9914000I-40000J0D01*
G01*
X16070000Y-10676000D02*
G75*
G03*
X16070000Y-10676000I-40000J0D01*
G01*
X17872500Y-3089000D02*
G75*
G03*
X17872500Y-3089000I-40000J0D01*
G01*
X17872500Y-3851000D02*
G75*
G03*
X17872500Y-3851000I-40000J0D01*
G01*
X17875000Y-4795250D02*
G75*
G03*
X17875000Y-4795250I-40000J0D01*
G01*
X17875000Y-5557250D02*
G75*
G03*
X17875000Y-5557250I-40000J0D01*
G01*
X17875000Y-6501500D02*
G75*
G03*
X17875000Y-6501500I-40000J0D01*
G01*
X17875000Y-7263500D02*
G75*
G03*
X17875000Y-7263500I-40000J0D01*
G01*
X17875000Y-8207750D02*
G75*
G03*
X17875000Y-8207750I-40000J0D01*
G01*
X17875000Y-8969750D02*
G75*
G03*
X17875000Y-8969750I-40000J0D01*
G01*
X17875000Y-9914000D02*
G75*
G03*
X17875000Y-9914000I-40000J0D01*
G01*
X17875000Y-10676000D02*
G75*
G03*
X17875000Y-10676000I-40000J0D01*
G01*
X19677500Y-3089000D02*
G75*
G03*
X19677500Y-3089000I-40000J0D01*
G01*
X19677500Y-3851000D02*
G75*
G03*
X19677500Y-3851000I-40000J0D01*
G01*
X19680000Y-4795250D02*
G75*
G03*
X19680000Y-4795250I-40000J0D01*
G01*
X19680000Y-5557250D02*
G75*
G03*
X19680000Y-5557250I-40000J0D01*
G01*
X19680000Y-6501500D02*
G75*
G03*
X19680000Y-6501500I-40000J0D01*
G01*
X19680000Y-7263500D02*
G75*
G03*
X19680000Y-7263500I-40000J0D01*
G01*
X19680000Y-8207750D02*
G75*
G03*
X19680000Y-8207750I-40000J0D01*
G01*
X19680000Y-8969750D02*
G75*
G03*
X19680000Y-8969750I-40000J0D01*
G01*
X19680000Y-9914000D02*
G75*
G03*
X19680000Y-9914000I-40000J0D01*
G01*
X19680000Y-10676000D02*
G75*
G03*
X19680000Y-10676000I-40000J0D01*
G01*
X21482500Y-3089000D02*
G75*
G03*
X21482500Y-3089000I-40000J0D01*
G01*
X21482500Y-3851000D02*
G75*
G03*
X21482500Y-3851000I-40000J0D01*
G01*
X21490000Y-4795250D02*
G75*
G03*
X21490000Y-4795250I-40000J0D01*
G01*
X21490000Y-5557250D02*
G75*
G03*
X21490000Y-5557250I-40000J0D01*
G01*
X21490000Y-6501500D02*
G75*
G03*
X21490000Y-6501500I-40000J0D01*
G01*
X21490000Y-7263500D02*
G75*
G03*
X21490000Y-7263500I-40000J0D01*
G01*
X21490000Y-8207750D02*
G75*
G03*
X21490000Y-8207750I-40000J0D01*
G01*
X21490000Y-8969750D02*
G75*
G03*
X21490000Y-8969750I-40000J0D01*
G01*
X21490000Y-9914000D02*
G75*
G03*
X21490000Y-9914000I-40000J0D01*
G01*
X21490000Y-10676000D02*
G75*
G03*
X21490000Y-10676000I-40000J0D01*
G01*
X22008562Y-9447500D02*
G75*
G03*
X22008562Y-9447500I-40000J0D01*
G01*
X22770562Y-9447500D02*
G75*
G03*
X22770562Y-9447500I-40000J0D01*
G01*
X23292500Y-3089000D02*
G75*
G03*
X23292500Y-3089000I-40000J0D01*
G01*
X23292500Y-3851000D02*
G75*
G03*
X23292500Y-3851000I-40000J0D01*
G01*
X23295000Y-4795250D02*
G75*
G03*
X23295000Y-4795250I-40000J0D01*
G01*
X23295000Y-5557250D02*
G75*
G03*
X23295000Y-5557250I-40000J0D01*
G01*
X23295000Y-6501500D02*
G75*
G03*
X23295000Y-6501500I-40000J0D01*
G01*
X23295000Y-7263500D02*
G75*
G03*
X23295000Y-7263500I-40000J0D01*
G01*
X23295000Y-8207750D02*
G75*
G03*
X23295000Y-8207750I-40000J0D01*
G01*
X23295000Y-8969750D02*
G75*
G03*
X23295000Y-8969750I-40000J0D01*
G01*
X23295000Y-9914000D02*
G75*
G03*
X23295000Y-9914000I-40000J0D01*
G01*
X23295000Y-10676000D02*
G75*
G03*
X23295000Y-10676000I-40000J0D01*
G01*
X23814000Y-4322500D02*
G75*
G03*
X23814000Y-4322500I-40000J0D01*
G01*
X23814000Y-6032500D02*
G75*
G03*
X23814000Y-6032500I-40000J0D01*
G01*
X23814000Y-7738750D02*
G75*
G03*
X23814000Y-7738750I-40000J0D01*
G01*
X23814000Y-9442500D02*
G75*
G03*
X23814000Y-9442500I-40000J0D01*
G01*
X24576000Y-4322500D02*
G75*
G03*
X24576000Y-4322500I-40000J0D01*
G01*
X24576000Y-6032500D02*
G75*
G03*
X24576000Y-6032500I-40000J0D01*
G01*
X24576000Y-7738750D02*
G75*
G03*
X24576000Y-7738750I-40000J0D01*
G01*
X24576000Y-9442500D02*
G75*
G03*
X24576000Y-9442500I-40000J0D01*
G01*
D14*
X4039682Y-4275000D02*
X4039682Y-4375000D01*
X3989682Y-4325000D02*
X4089682Y-4325000D01*
X4293682Y-4275000D02*
X4293682Y-4375000D01*
X4243682Y-4325000D02*
X4343682Y-4325000D01*
X4547682Y-4275000D02*
X4547682Y-4375000D01*
X4497682Y-4325000D02*
X4597682Y-4325000D01*
X4972901Y-5654375D02*
X4972901Y-5754375D01*
X4922901Y-5704375D02*
X5022901Y-5704375D01*
X4972901Y-6304375D02*
X4972901Y-6404375D01*
X4922901Y-6354375D02*
X5022901Y-6354375D01*
X5422901Y-5654375D02*
X5422901Y-5754375D01*
X5372901Y-5704375D02*
X5472901Y-5704375D01*
X5422901Y-6304375D02*
X5422901Y-6404375D01*
X5372901Y-6354375D02*
X5472901Y-6354375D01*
D15*
X7182673Y-3050290D02*
X7182673Y-2973059D01*
X7105442Y-2973059D01*
X7105442Y-3050290D01*
X7182673Y-3050290D01*
X7182673Y-3304290D02*
X7182673Y-3227059D01*
X7105442Y-3227059D01*
X7105442Y-3304290D01*
X7182673Y-3304290D01*
X7182673Y-3558290D02*
X7182673Y-3481059D01*
X7105442Y-3481059D01*
X7105442Y-3558290D01*
X7182673Y-3558290D01*
X7182673Y-3812290D02*
X7182673Y-3735059D01*
X7105442Y-3735059D01*
X7105442Y-3812290D01*
X7182673Y-3812290D01*
X7182673Y-4066290D02*
X7182673Y-3989059D01*
X7105442Y-3989059D01*
X7105442Y-4066290D01*
X7182673Y-4066290D01*
X7182673Y-4320291D02*
X7182673Y-4243060D01*
X7105442Y-4243060D01*
X7105442Y-4320291D01*
X7182673Y-4320291D01*
X7182673Y-4574291D02*
X7182673Y-4497060D01*
X7105442Y-4497060D01*
X7105442Y-4574291D01*
X7182673Y-4574291D01*
X7182673Y-4828291D02*
X7182673Y-4751060D01*
X7105442Y-4751060D01*
X7105442Y-4828291D01*
X7182673Y-4828291D01*
X7182673Y-5082291D02*
X7182673Y-5005060D01*
X7105442Y-5005060D01*
X7105442Y-5082291D01*
X7182673Y-5082291D01*
X7182673Y-5336291D02*
X7182673Y-5259060D01*
X7105442Y-5259060D01*
X7105442Y-5336291D01*
X7182673Y-5336291D01*
X7182673Y-5590291D02*
X7182673Y-5513060D01*
X7105442Y-5513060D01*
X7105442Y-5590291D01*
X7182673Y-5590291D01*
X7182673Y-5844290D02*
X7182673Y-5767059D01*
X7105442Y-5767059D01*
X7105442Y-5844290D01*
X7182673Y-5844290D01*
X8706673Y-3050290D02*
X8706673Y-2973059D01*
X8629442Y-2973059D01*
X8629442Y-3050290D01*
X8706673Y-3050290D01*
X8706673Y-3304290D02*
X8706673Y-3227059D01*
X8629442Y-3227059D01*
X8629442Y-3304290D01*
X8706673Y-3304290D01*
X8706673Y-3558290D02*
X8706673Y-3481059D01*
X8629442Y-3481059D01*
X8629442Y-3558290D01*
X8706673Y-3558290D01*
X8706673Y-3812290D02*
X8706673Y-3735059D01*
X8629442Y-3735059D01*
X8629442Y-3812290D01*
X8706673Y-3812290D01*
X8706673Y-4066290D02*
X8706673Y-3989059D01*
X8629442Y-3989059D01*
X8629442Y-4066290D01*
X8706673Y-4066290D01*
X8706673Y-4320291D02*
X8706673Y-4243060D01*
X8629442Y-4243060D01*
X8629442Y-4320291D01*
X8706673Y-4320291D01*
X8706673Y-4574291D02*
X8706673Y-4497060D01*
X8629442Y-4497060D01*
X8629442Y-4574291D01*
X8706673Y-4574291D01*
X8706673Y-4828291D02*
X8706673Y-4751060D01*
X8629442Y-4751060D01*
X8629442Y-4828291D01*
X8706673Y-4828291D01*
X8706673Y-5082291D02*
X8706673Y-5005060D01*
X8629442Y-5005060D01*
X8629442Y-5082291D01*
X8706673Y-5082291D01*
X8706673Y-5336291D02*
X8706673Y-5259060D01*
X8629442Y-5259060D01*
X8629442Y-5336291D01*
X8706673Y-5336291D01*
X8706673Y-5590291D02*
X8706673Y-5513060D01*
X8629442Y-5513060D01*
X8629442Y-5590291D01*
X8706673Y-5590291D01*
X8706673Y-5844290D02*
X8706673Y-5767059D01*
X8629442Y-5767059D01*
X8629442Y-5844290D01*
X8706673Y-5844290D01*
D16*
X4295182Y-2940000D02*
X4355182Y-2880000D01*
X4295182Y-2820000D01*
X4235182Y-2880000D01*
X4295182Y-2940000D01*
X4295182Y-4646250D02*
X4355182Y-4586250D01*
X4295182Y-4526250D01*
X4235182Y-4586250D01*
X4295182Y-4646250D01*
X4295182Y-6352500D02*
X4355182Y-6292500D01*
X4295182Y-6232500D01*
X4235182Y-6292500D01*
X4295182Y-6352500D01*
X4295182Y-8058750D02*
X4355182Y-7998750D01*
X4295182Y-7938750D01*
X4235182Y-7998750D01*
X4295182Y-8058750D01*
X4295182Y-9765000D02*
X4355182Y-9705000D01*
X4295182Y-9645000D01*
X4235182Y-9705000D01*
X4295182Y-9765000D01*
X4795182Y-3150000D02*
X4855182Y-3090000D01*
X4795182Y-3030000D01*
X4735182Y-3090000D01*
X4795182Y-3150000D01*
X4795182Y-4856250D02*
X4855182Y-4796250D01*
X4795182Y-4736250D01*
X4735182Y-4796250D01*
X4795182Y-4856250D01*
X4795182Y-6562500D02*
X4855182Y-6502500D01*
X4795182Y-6442500D01*
X4735182Y-6502500D01*
X4795182Y-6562500D01*
X4795182Y-8268750D02*
X4855182Y-8208750D01*
X4795182Y-8148750D01*
X4735182Y-8208750D01*
X4795182Y-8268750D01*
X4795182Y-9975000D02*
X4855182Y-9915000D01*
X4795182Y-9855000D01*
X4735182Y-9915000D01*
X4795182Y-9975000D01*
X6100620Y-2940000D02*
X6160620Y-2880000D01*
X6100620Y-2820000D01*
X6040620Y-2880000D01*
X6100620Y-2940000D01*
X6100620Y-4646250D02*
X6160620Y-4586250D01*
X6100620Y-4526250D01*
X6040620Y-4586250D01*
X6100620Y-4646250D01*
X6100620Y-6352500D02*
X6160620Y-6292500D01*
X6100620Y-6232500D01*
X6040620Y-6292500D01*
X6100620Y-6352500D01*
X6100620Y-8058750D02*
X6160620Y-7998750D01*
X6100620Y-7938750D01*
X6040620Y-7998750D01*
X6100620Y-8058750D01*
X6100620Y-9765000D02*
X6160620Y-9705000D01*
X6100620Y-9645000D01*
X6040620Y-9705000D01*
X6100620Y-9765000D01*
X6600620Y-3150000D02*
X6660620Y-3090000D01*
X6600620Y-3030000D01*
X6540620Y-3090000D01*
X6600620Y-3150000D01*
X6600620Y-4856250D02*
X6660620Y-4796250D01*
X6600620Y-4736250D01*
X6540620Y-4796250D01*
X6600620Y-4856250D01*
X6600620Y-6562500D02*
X6660620Y-6502500D01*
X6600620Y-6442500D01*
X6540620Y-6502500D01*
X6600620Y-6562500D01*
X6600620Y-8268750D02*
X6660620Y-8208750D01*
X6600620Y-8148750D01*
X6540620Y-8208750D01*
X6600620Y-8268750D01*
X6600620Y-9975000D02*
X6660620Y-9915000D01*
X6600620Y-9855000D01*
X6540620Y-9915000D01*
X6600620Y-9975000D01*
X7906058Y-2940000D02*
X7966058Y-2880000D01*
X7906058Y-2820000D01*
X7846058Y-2880000D01*
X7906058Y-2940000D01*
X7906058Y-4646250D02*
X7966058Y-4586250D01*
X7906058Y-4526250D01*
X7846058Y-4586250D01*
X7906058Y-4646250D01*
X7906058Y-6352500D02*
X7966058Y-6292500D01*
X7906058Y-6232500D01*
X7846058Y-6292500D01*
X7906058Y-6352500D01*
X7906058Y-8058750D02*
X7966058Y-7998750D01*
X7906058Y-7938750D01*
X7846058Y-7998750D01*
X7906058Y-8058750D01*
X7906058Y-9765000D02*
X7966058Y-9705000D01*
X7906058Y-9645000D01*
X7846058Y-9705000D01*
X7906058Y-9765000D01*
X8406058Y-3150000D02*
X8466058Y-3090000D01*
X8406058Y-3030000D01*
X8346058Y-3090000D01*
X8406058Y-3150000D01*
X8406058Y-4856250D02*
X8466058Y-4796250D01*
X8406058Y-4736250D01*
X8346058Y-4796250D01*
X8406058Y-4856250D01*
X8406058Y-6562500D02*
X8466058Y-6502500D01*
X8406058Y-6442500D01*
X8346058Y-6502500D01*
X8406058Y-6562500D01*
X8406058Y-8268750D02*
X8466058Y-8208750D01*
X8406058Y-8148750D01*
X8346058Y-8208750D01*
X8406058Y-8268750D01*
X8406058Y-9975000D02*
X8466058Y-9915000D01*
X8406058Y-9855000D01*
X8346058Y-9915000D01*
X8406058Y-9975000D01*
X9711496Y-2940000D02*
X9771496Y-2880000D01*
X9711496Y-2820000D01*
X9651496Y-2880000D01*
X9711496Y-2940000D01*
X9711496Y-4646250D02*
X9771496Y-4586250D01*
X9711496Y-4526250D01*
X9651496Y-4586250D01*
X9711496Y-4646250D01*
X9711496Y-6352500D02*
X9771496Y-6292500D01*
X9711496Y-6232500D01*
X9651496Y-6292500D01*
X9711496Y-6352500D01*
X9711496Y-8058750D02*
X9771496Y-7998750D01*
X9711496Y-7938750D01*
X9651496Y-7998750D01*
X9711496Y-8058750D01*
X9711496Y-9765000D02*
X9771496Y-9705000D01*
X9711496Y-9645000D01*
X9651496Y-9705000D01*
X9711496Y-9765000D01*
X10211496Y-3150000D02*
X10271496Y-3090000D01*
X10211496Y-3030000D01*
X10151496Y-3090000D01*
X10211496Y-3150000D01*
X10211496Y-4856250D02*
X10271496Y-4796250D01*
X10211496Y-4736250D01*
X10151496Y-4796250D01*
X10211496Y-4856250D01*
X10211496Y-6562500D02*
X10271496Y-6502500D01*
X10211496Y-6442500D01*
X10151496Y-6502500D01*
X10211496Y-6562500D01*
X10211496Y-8268750D02*
X10271496Y-8208750D01*
X10211496Y-8148750D01*
X10151496Y-8208750D01*
X10211496Y-8268750D01*
X10211496Y-9975000D02*
X10271496Y-9915000D01*
X10211496Y-9855000D01*
X10151496Y-9915000D01*
X10211496Y-9975000D01*
X11516934Y-2940000D02*
X11576934Y-2880000D01*
X11516934Y-2820000D01*
X11456934Y-2880000D01*
X11516934Y-2940000D01*
X11516934Y-4646250D02*
X11576934Y-4586250D01*
X11516934Y-4526250D01*
X11456934Y-4586250D01*
X11516934Y-4646250D01*
X11516934Y-6352500D02*
X11576934Y-6292500D01*
X11516934Y-6232500D01*
X11456934Y-6292500D01*
X11516934Y-6352500D01*
X11516934Y-8058750D02*
X11576934Y-7998750D01*
X11516934Y-7938750D01*
X11456934Y-7998750D01*
X11516934Y-8058750D01*
X11516934Y-9765000D02*
X11576934Y-9705000D01*
X11516934Y-9645000D01*
X11456934Y-9705000D01*
X11516934Y-9765000D01*
X12016934Y-3150000D02*
X12076934Y-3090000D01*
X12016934Y-3030000D01*
X11956934Y-3090000D01*
X12016934Y-3150000D01*
X12016934Y-4856250D02*
X12076934Y-4796250D01*
X12016934Y-4736250D01*
X11956934Y-4796250D01*
X12016934Y-4856250D01*
X12016934Y-6562500D02*
X12076934Y-6502500D01*
X12016934Y-6442500D01*
X11956934Y-6502500D01*
X12016934Y-6562500D01*
X12016934Y-8268750D02*
X12076934Y-8208750D01*
X12016934Y-8148750D01*
X11956934Y-8208750D01*
X12016934Y-8268750D01*
X12016934Y-9975000D02*
X12076934Y-9915000D01*
X12016934Y-9855000D01*
X11956934Y-9915000D01*
X12016934Y-9975000D01*
X13322372Y-2940000D02*
X13382372Y-2880000D01*
X13322372Y-2820000D01*
X13262372Y-2880000D01*
X13322372Y-2940000D01*
X13322372Y-4646250D02*
X13382372Y-4586250D01*
X13322372Y-4526250D01*
X13262372Y-4586250D01*
X13322372Y-4646250D01*
X13322372Y-6352500D02*
X13382372Y-6292500D01*
X13322372Y-6232500D01*
X13262372Y-6292500D01*
X13322372Y-6352500D01*
X13322372Y-8058750D02*
X13382372Y-7998750D01*
X13322372Y-7938750D01*
X13262372Y-7998750D01*
X13322372Y-8058750D01*
X13322372Y-9765000D02*
X13382372Y-9705000D01*
X13322372Y-9645000D01*
X13262372Y-9705000D01*
X13322372Y-9765000D01*
X13822372Y-3150000D02*
X13882372Y-3090000D01*
X13822372Y-3030000D01*
X13762372Y-3090000D01*
X13822372Y-3150000D01*
X13822372Y-4856250D02*
X13882372Y-4796250D01*
X13822372Y-4736250D01*
X13762372Y-4796250D01*
X13822372Y-4856250D01*
X13822372Y-6562500D02*
X13882372Y-6502500D01*
X13822372Y-6442500D01*
X13762372Y-6502500D01*
X13822372Y-6562500D01*
X13822372Y-8268750D02*
X13882372Y-8208750D01*
X13822372Y-8148750D01*
X13762372Y-8208750D01*
X13822372Y-8268750D01*
X13822372Y-9975000D02*
X13882372Y-9915000D01*
X13822372Y-9855000D01*
X13762372Y-9915000D01*
X13822372Y-9975000D01*
X15127810Y-2940000D02*
X15187810Y-2880000D01*
X15127810Y-2820000D01*
X15067810Y-2880000D01*
X15127810Y-2940000D01*
X15127810Y-4646250D02*
X15187810Y-4586250D01*
X15127810Y-4526250D01*
X15067810Y-4586250D01*
X15127810Y-4646250D01*
X15127810Y-6352500D02*
X15187810Y-6292500D01*
X15127810Y-6232500D01*
X15067810Y-6292500D01*
X15127810Y-6352500D01*
X15127810Y-8058750D02*
X15187810Y-7998750D01*
X15127810Y-7938750D01*
X15067810Y-7998750D01*
X15127810Y-8058750D01*
X15127810Y-9765000D02*
X15187810Y-9705000D01*
X15127810Y-9645000D01*
X15067810Y-9705000D01*
X15127810Y-9765000D01*
X15627810Y-3150000D02*
X15687810Y-3090000D01*
X15627810Y-3030000D01*
X15567810Y-3090000D01*
X15627810Y-3150000D01*
X15627810Y-4856250D02*
X15687810Y-4796250D01*
X15627810Y-4736250D01*
X15567810Y-4796250D01*
X15627810Y-4856250D01*
X15627810Y-6562500D02*
X15687810Y-6502500D01*
X15627810Y-6442500D01*
X15567810Y-6502500D01*
X15627810Y-6562500D01*
X15627810Y-8268750D02*
X15687810Y-8208750D01*
X15627810Y-8148750D01*
X15567810Y-8208750D01*
X15627810Y-8268750D01*
X15627810Y-9975000D02*
X15687810Y-9915000D01*
X15627810Y-9855000D01*
X15567810Y-9915000D01*
X15627810Y-9975000D01*
X16933248Y-2940000D02*
X16993248Y-2880000D01*
X16933248Y-2820000D01*
X16873248Y-2880000D01*
X16933248Y-2940000D01*
X16933248Y-4646250D02*
X16993248Y-4586250D01*
X16933248Y-4526250D01*
X16873248Y-4586250D01*
X16933248Y-4646250D01*
X16933248Y-6352500D02*
X16993248Y-6292500D01*
X16933248Y-6232500D01*
X16873248Y-6292500D01*
X16933248Y-6352500D01*
X16933248Y-8058750D02*
X16993248Y-7998750D01*
X16933248Y-7938750D01*
X16873248Y-7998750D01*
X16933248Y-8058750D01*
X16933248Y-9765000D02*
X16993248Y-9705000D01*
X16933248Y-9645000D01*
X16873248Y-9705000D01*
X16933248Y-9765000D01*
X17433248Y-3150000D02*
X17493248Y-3090000D01*
X17433248Y-3030000D01*
X17373248Y-3090000D01*
X17433248Y-3150000D01*
X17433248Y-4856250D02*
X17493248Y-4796250D01*
X17433248Y-4736250D01*
X17373248Y-4796250D01*
X17433248Y-4856250D01*
X17433248Y-6562500D02*
X17493248Y-6502500D01*
X17433248Y-6442500D01*
X17373248Y-6502500D01*
X17433248Y-6562500D01*
X17433248Y-8268750D02*
X17493248Y-8208750D01*
X17433248Y-8148750D01*
X17373248Y-8208750D01*
X17433248Y-8268750D01*
X17433248Y-9975000D02*
X17493248Y-9915000D01*
X17433248Y-9855000D01*
X17373248Y-9915000D01*
X17433248Y-9975000D01*
X18738686Y-2940000D02*
X18798686Y-2880000D01*
X18738686Y-2820000D01*
X18678686Y-2880000D01*
X18738686Y-2940000D01*
X18738686Y-4646250D02*
X18798686Y-4586250D01*
X18738686Y-4526250D01*
X18678686Y-4586250D01*
X18738686Y-4646250D01*
X18738686Y-6352500D02*
X18798686Y-6292500D01*
X18738686Y-6232500D01*
X18678686Y-6292500D01*
X18738686Y-6352500D01*
X18738686Y-8058750D02*
X18798686Y-7998750D01*
X18738686Y-7938750D01*
X18678686Y-7998750D01*
X18738686Y-8058750D01*
X18738686Y-9765000D02*
X18798686Y-9705000D01*
X18738686Y-9645000D01*
X18678686Y-9705000D01*
X18738686Y-9765000D01*
X19238686Y-3150000D02*
X19298686Y-3090000D01*
X19238686Y-3030000D01*
X19178686Y-3090000D01*
X19238686Y-3150000D01*
X19238686Y-4856250D02*
X19298686Y-4796250D01*
X19238686Y-4736250D01*
X19178686Y-4796250D01*
X19238686Y-4856250D01*
X19238686Y-6562500D02*
X19298686Y-6502500D01*
X19238686Y-6442500D01*
X19178686Y-6502500D01*
X19238686Y-6562500D01*
X19238686Y-8268750D02*
X19298686Y-8208750D01*
X19238686Y-8148750D01*
X19178686Y-8208750D01*
X19238686Y-8268750D01*
X19238686Y-9975000D02*
X19298686Y-9915000D01*
X19238686Y-9855000D01*
X19178686Y-9915000D01*
X19238686Y-9975000D01*
X20544124Y-2940000D02*
X20604124Y-2880000D01*
X20544124Y-2820000D01*
X20484124Y-2880000D01*
X20544124Y-2940000D01*
X20544124Y-4646250D02*
X20604124Y-4586250D01*
X20544124Y-4526250D01*
X20484124Y-4586250D01*
X20544124Y-4646250D01*
X20544124Y-6352500D02*
X20604124Y-6292500D01*
X20544124Y-6232500D01*
X20484124Y-6292500D01*
X20544124Y-6352500D01*
X20544124Y-8058750D02*
X20604124Y-7998750D01*
X20544124Y-7938750D01*
X20484124Y-7998750D01*
X20544124Y-8058750D01*
X20544124Y-9765000D02*
X20604124Y-9705000D01*
X20544124Y-9645000D01*
X20484124Y-9705000D01*
X20544124Y-9765000D01*
X21044124Y-3150000D02*
X21104124Y-3090000D01*
X21044124Y-3030000D01*
X20984124Y-3090000D01*
X21044124Y-3150000D01*
X21044124Y-4856250D02*
X21104124Y-4796250D01*
X21044124Y-4736250D01*
X20984124Y-4796250D01*
X21044124Y-4856250D01*
X21044124Y-6562500D02*
X21104124Y-6502500D01*
X21044124Y-6442500D01*
X20984124Y-6502500D01*
X21044124Y-6562500D01*
X21044124Y-8268750D02*
X21104124Y-8208750D01*
X21044124Y-8148750D01*
X20984124Y-8208750D01*
X21044124Y-8268750D01*
X21044124Y-9975000D02*
X21104124Y-9915000D01*
X21044124Y-9855000D01*
X20984124Y-9915000D01*
X21044124Y-9975000D01*
X22349562Y-2940000D02*
X22409562Y-2880000D01*
X22349562Y-2820000D01*
X22289562Y-2880000D01*
X22349562Y-2940000D01*
X22349562Y-4646250D02*
X22409562Y-4586250D01*
X22349562Y-4526250D01*
X22289562Y-4586250D01*
X22349562Y-4646250D01*
X22349562Y-6352500D02*
X22409562Y-6292500D01*
X22349562Y-6232500D01*
X22289562Y-6292500D01*
X22349562Y-6352500D01*
X22349562Y-8058750D02*
X22409562Y-7998750D01*
X22349562Y-7938750D01*
X22289562Y-7998750D01*
X22349562Y-8058750D01*
X22349562Y-9765000D02*
X22409562Y-9705000D01*
X22349562Y-9645000D01*
X22289562Y-9705000D01*
X22349562Y-9765000D01*
X22849562Y-3150000D02*
X22909562Y-3090000D01*
X22849562Y-3030000D01*
X22789562Y-3090000D01*
X22849562Y-3150000D01*
X22849562Y-4856250D02*
X22909562Y-4796250D01*
X22849562Y-4736250D01*
X22789562Y-4796250D01*
X22849562Y-4856250D01*
X22849562Y-6562500D02*
X22909562Y-6502500D01*
X22849562Y-6442500D01*
X22789562Y-6502500D01*
X22849562Y-6562500D01*
X22849562Y-8268750D02*
X22909562Y-8208750D01*
X22849562Y-8148750D01*
X22789562Y-8208750D01*
X22849562Y-8268750D01*
X22849562Y-9975000D02*
X22909562Y-9915000D01*
X22849562Y-9855000D01*
X22789562Y-9915000D01*
X22849562Y-9975000D01*
X24155000Y-2940000D02*
X24215000Y-2880000D01*
X24155000Y-2820000D01*
X24095000Y-2880000D01*
X24155000Y-2940000D01*
X24155000Y-4646250D02*
X24215000Y-4586250D01*
X24155000Y-4526250D01*
X24095000Y-4586250D01*
X24155000Y-4646250D01*
X24155000Y-6352500D02*
X24215000Y-6292500D01*
X24155000Y-6232500D01*
X24095000Y-6292500D01*
X24155000Y-6352500D01*
X24155000Y-8058750D02*
X24215000Y-7998750D01*
X24155000Y-7938750D01*
X24095000Y-7998750D01*
X24155000Y-8058750D01*
X24155000Y-9765000D02*
X24215000Y-9705000D01*
X24155000Y-9645000D01*
X24095000Y-9705000D01*
X24155000Y-9765000D01*
X24655000Y-3150000D02*
X24715000Y-3090000D01*
X24655000Y-3030000D01*
X24595000Y-3090000D01*
X24655000Y-3150000D01*
X24655000Y-4856250D02*
X24715000Y-4796250D01*
X24655000Y-4736250D01*
X24595000Y-4796250D01*
X24655000Y-4856250D01*
X24655000Y-6562500D02*
X24715000Y-6502500D01*
X24655000Y-6442500D01*
X24595000Y-6502500D01*
X24655000Y-6562500D01*
X24655000Y-8268750D02*
X24715000Y-8208750D01*
X24655000Y-8148750D01*
X24595000Y-8208750D01*
X24655000Y-8268750D01*
X24655000Y-9975000D02*
X24715000Y-9915000D01*
X24655000Y-9855000D01*
X24595000Y-9915000D01*
X24655000Y-9975000D01*
D17*
X5090620Y-4210000D02*
X5310620Y-4430000D01*
X5310620Y-4210000D02*
X5090620Y-4430000D01*
X5310620Y-4320000D02*
G75*
G03*
X5310620Y-4320000I-110000J0D01*
G01*
X5090620Y-9328750D02*
X5310620Y-9548750D01*
X5310620Y-9328750D02*
X5090620Y-9548750D01*
X5310620Y-9438750D02*
G75*
G03*
X5310620Y-9438750I-110000J0D01*
G01*
X14115000Y-5922500D02*
X14335000Y-6142500D01*
X14335000Y-5922500D02*
X14115000Y-6142500D01*
X14335000Y-6032500D02*
G75*
G03*
X14335000Y-6032500I-110000J0D01*
G01*
X14115000Y-9328750D02*
X14335000Y-9548750D01*
X14335000Y-9328750D02*
X14115000Y-9548750D01*
X14335000Y-9438750D02*
G75*
G03*
X14335000Y-9438750I-110000J0D01*
G01*
X23145000Y-4210000D02*
X23365000Y-4430000D01*
X23365000Y-4210000D02*
X23145000Y-4430000D01*
X23365000Y-4320000D02*
G75*
G03*
X23365000Y-4320000I-110000J0D01*
G01*
X23145000Y-9328750D02*
X23365000Y-9548750D01*
X23365000Y-9328750D02*
X23145000Y-9548750D01*
X23365000Y-9438750D02*
G75*
G03*
X23365000Y-9438750I-110000J0D01*
G01*
D11*
X3565556Y-11534769D02*
X3565556Y-11334769D01*
X3565556Y-11334769D02*
X3613175Y-11334769D01*
X3613175Y-11334769D02*
X3641746Y-11344293D01*
X3641746Y-11344293D02*
X3660794Y-11363340D01*
X3660794Y-11363340D02*
X3670317Y-11382388D01*
X3670317Y-11382388D02*
X3679841Y-11420483D01*
X3679841Y-11420483D02*
X3679841Y-11449055D01*
X3679841Y-11449055D02*
X3670317Y-11487150D01*
X3670317Y-11487150D02*
X3660794Y-11506198D01*
X3660794Y-11506198D02*
X3641746Y-11525245D01*
X3641746Y-11525245D02*
X3613175Y-11534769D01*
X3613175Y-11534769D02*
X3565556Y-11534769D01*
X3765556Y-11534769D02*
X3765556Y-11401436D01*
X3765556Y-11439531D02*
X3775079Y-11420483D01*
X3775079Y-11420483D02*
X3784603Y-11410959D01*
X3784603Y-11410959D02*
X3803651Y-11401436D01*
X3803651Y-11401436D02*
X3822698Y-11401436D01*
X3889365Y-11534769D02*
X3889365Y-11401436D01*
X3889365Y-11334769D02*
X3879841Y-11344293D01*
X3879841Y-11344293D02*
X3889365Y-11353817D01*
X3889365Y-11353817D02*
X3898889Y-11344293D01*
X3898889Y-11344293D02*
X3889365Y-11334769D01*
X3889365Y-11334769D02*
X3889365Y-11353817D01*
X4013175Y-11534769D02*
X3994127Y-11525245D01*
X3994127Y-11525245D02*
X3984603Y-11506198D01*
X3984603Y-11506198D02*
X3984603Y-11334769D01*
X4117936Y-11534769D02*
X4098889Y-11525245D01*
X4098889Y-11525245D02*
X4089365Y-11506198D01*
X4089365Y-11506198D02*
X4089365Y-11334769D01*
X4346508Y-11534769D02*
X4346508Y-11334769D01*
X4346508Y-11334769D02*
X4413175Y-11477626D01*
X4413175Y-11477626D02*
X4479841Y-11334769D01*
X4479841Y-11334769D02*
X4479841Y-11534769D01*
X4660794Y-11534769D02*
X4660794Y-11430007D01*
X4660794Y-11430007D02*
X4651270Y-11410959D01*
X4651270Y-11410959D02*
X4632222Y-11401436D01*
X4632222Y-11401436D02*
X4594127Y-11401436D01*
X4594127Y-11401436D02*
X4575079Y-11410959D01*
X4660794Y-11525245D02*
X4641746Y-11534769D01*
X4641746Y-11534769D02*
X4594127Y-11534769D01*
X4594127Y-11534769D02*
X4575079Y-11525245D01*
X4575079Y-11525245D02*
X4565556Y-11506198D01*
X4565556Y-11506198D02*
X4565556Y-11487150D01*
X4565556Y-11487150D02*
X4575079Y-11468102D01*
X4575079Y-11468102D02*
X4594127Y-11458579D01*
X4594127Y-11458579D02*
X4641746Y-11458579D01*
X4641746Y-11458579D02*
X4660794Y-11449055D01*
X4756032Y-11401436D02*
X4756032Y-11601436D01*
X4756032Y-11410959D02*
X4775079Y-11401436D01*
X4775079Y-11401436D02*
X4813175Y-11401436D01*
X4813175Y-11401436D02*
X4832222Y-11410959D01*
X4832222Y-11410959D02*
X4841746Y-11420483D01*
X4841746Y-11420483D02*
X4851270Y-11439531D01*
X4851270Y-11439531D02*
X4851270Y-11496674D01*
X4851270Y-11496674D02*
X4841746Y-11515721D01*
X4841746Y-11515721D02*
X4832222Y-11525245D01*
X4832222Y-11525245D02*
X4813175Y-11534769D01*
X4813175Y-11534769D02*
X4775079Y-11534769D01*
X4775079Y-11534769D02*
X4756032Y-11525245D01*
X4936984Y-11515721D02*
X4946508Y-11525245D01*
X4946508Y-11525245D02*
X4936984Y-11534769D01*
X4936984Y-11534769D02*
X4927460Y-11525245D01*
X4927460Y-11525245D02*
X4936984Y-11515721D01*
X4936984Y-11515721D02*
X4936984Y-11534769D01*
X4936984Y-11410959D02*
X4946508Y-11420483D01*
X4946508Y-11420483D02*
X4936984Y-11430007D01*
X4936984Y-11430007D02*
X4927460Y-11420483D01*
X4927460Y-11420483D02*
X4936984Y-11410959D01*
X4936984Y-11410959D02*
X4936984Y-11430007D01*
D12*
X3277937Y-11842245D02*
X3317937Y-11882245D01*
X3317937Y-11842245D02*
X3277937Y-11882245D01*
D11*
X3603651Y-11754769D02*
X3622698Y-11754769D01*
X3622698Y-11754769D02*
X3641746Y-11764293D01*
X3641746Y-11764293D02*
X3651270Y-11773817D01*
X3651270Y-11773817D02*
X3660794Y-11792864D01*
X3660794Y-11792864D02*
X3670317Y-11830959D01*
X3670317Y-11830959D02*
X3670317Y-11878579D01*
X3670317Y-11878579D02*
X3660794Y-11916674D01*
X3660794Y-11916674D02*
X3651270Y-11935721D01*
X3651270Y-11935721D02*
X3641746Y-11945245D01*
X3641746Y-11945245D02*
X3622698Y-11954769D01*
X3622698Y-11954769D02*
X3603651Y-11954769D01*
X3603651Y-11954769D02*
X3584603Y-11945245D01*
X3584603Y-11945245D02*
X3575079Y-11935721D01*
X3575079Y-11935721D02*
X3565556Y-11916674D01*
X3565556Y-11916674D02*
X3556032Y-11878579D01*
X3556032Y-11878579D02*
X3556032Y-11830959D01*
X3556032Y-11830959D02*
X3565556Y-11792864D01*
X3565556Y-11792864D02*
X3575079Y-11773817D01*
X3575079Y-11773817D02*
X3584603Y-11764293D01*
X3584603Y-11764293D02*
X3603651Y-11754769D01*
X3756032Y-11935721D02*
X3765556Y-11945245D01*
X3765556Y-11945245D02*
X3756032Y-11954769D01*
X3756032Y-11954769D02*
X3746508Y-11945245D01*
X3746508Y-11945245D02*
X3756032Y-11935721D01*
X3756032Y-11935721D02*
X3756032Y-11954769D01*
X3936984Y-11821436D02*
X3936984Y-11954769D01*
X3889365Y-11745245D02*
X3841746Y-11888102D01*
X3841746Y-11888102D02*
X3965556Y-11888102D01*
X4079841Y-11754769D02*
X4098889Y-11754769D01*
X4098889Y-11754769D02*
X4117937Y-11764293D01*
X4117937Y-11764293D02*
X4127460Y-11773817D01*
X4127460Y-11773817D02*
X4136984Y-11792864D01*
X4136984Y-11792864D02*
X4146508Y-11830959D01*
X4146508Y-11830959D02*
X4146508Y-11878579D01*
X4146508Y-11878579D02*
X4136984Y-11916674D01*
X4136984Y-11916674D02*
X4127460Y-11935721D01*
X4127460Y-11935721D02*
X4117937Y-11945245D01*
X4117937Y-11945245D02*
X4098889Y-11954769D01*
X4098889Y-11954769D02*
X4079841Y-11954769D01*
X4079841Y-11954769D02*
X4060794Y-11945245D01*
X4060794Y-11945245D02*
X4051270Y-11935721D01*
X4051270Y-11935721D02*
X4041746Y-11916674D01*
X4041746Y-11916674D02*
X4032222Y-11878579D01*
X4032222Y-11878579D02*
X4032222Y-11830959D01*
X4032222Y-11830959D02*
X4041746Y-11792864D01*
X4041746Y-11792864D02*
X4051270Y-11773817D01*
X4051270Y-11773817D02*
X4060794Y-11764293D01*
X4060794Y-11764293D02*
X4079841Y-11754769D01*
X4270318Y-11754769D02*
X4289365Y-11754769D01*
X4289365Y-11754769D02*
X4308413Y-11764293D01*
X4308413Y-11764293D02*
X4317937Y-11773817D01*
X4317937Y-11773817D02*
X4327460Y-11792864D01*
X4327460Y-11792864D02*
X4336984Y-11830959D01*
X4336984Y-11830959D02*
X4336984Y-11878579D01*
X4336984Y-11878579D02*
X4327460Y-11916674D01*
X4327460Y-11916674D02*
X4317937Y-11935721D01*
X4317937Y-11935721D02*
X4308413Y-11945245D01*
X4308413Y-11945245D02*
X4289365Y-11954769D01*
X4289365Y-11954769D02*
X4270318Y-11954769D01*
X4270318Y-11954769D02*
X4251270Y-11945245D01*
X4251270Y-11945245D02*
X4241746Y-11935721D01*
X4241746Y-11935721D02*
X4232222Y-11916674D01*
X4232222Y-11916674D02*
X4222699Y-11878579D01*
X4222699Y-11878579D02*
X4222699Y-11830959D01*
X4222699Y-11830959D02*
X4232222Y-11792864D01*
X4232222Y-11792864D02*
X4241746Y-11773817D01*
X4241746Y-11773817D02*
X4251270Y-11764293D01*
X4251270Y-11764293D02*
X4270318Y-11754769D01*
X4422699Y-11954769D02*
X4422699Y-11821436D01*
X4422699Y-11840483D02*
X4432222Y-11830959D01*
X4432222Y-11830959D02*
X4451270Y-11821436D01*
X4451270Y-11821436D02*
X4479841Y-11821436D01*
X4479841Y-11821436D02*
X4498889Y-11830959D01*
X4498889Y-11830959D02*
X4508413Y-11850007D01*
X4508413Y-11850007D02*
X4508413Y-11954769D01*
X4508413Y-11850007D02*
X4517937Y-11830959D01*
X4517937Y-11830959D02*
X4536984Y-11821436D01*
X4536984Y-11821436D02*
X4565556Y-11821436D01*
X4565556Y-11821436D02*
X4584603Y-11830959D01*
X4584603Y-11830959D02*
X4594127Y-11850007D01*
X4594127Y-11850007D02*
X4594127Y-11954769D01*
X4689365Y-11954769D02*
X4689365Y-11821436D01*
X4689365Y-11840483D02*
X4698889Y-11830959D01*
X4698889Y-11830959D02*
X4717937Y-11821436D01*
X4717937Y-11821436D02*
X4746508Y-11821436D01*
X4746508Y-11821436D02*
X4765556Y-11830959D01*
X4765556Y-11830959D02*
X4775080Y-11850007D01*
X4775080Y-11850007D02*
X4775080Y-11954769D01*
X4775080Y-11850007D02*
X4784603Y-11830959D01*
X4784603Y-11830959D02*
X4803651Y-11821436D01*
X4803651Y-11821436D02*
X4832222Y-11821436D01*
X4832222Y-11821436D02*
X4851270Y-11830959D01*
X4851270Y-11830959D02*
X4860794Y-11850007D01*
X4860794Y-11850007D02*
X4860794Y-11954769D01*
X5251270Y-11745245D02*
X5079842Y-12002388D01*
X5508413Y-11754769D02*
X5527461Y-11754769D01*
X5527461Y-11754769D02*
X5546508Y-11764293D01*
X5546508Y-11764293D02*
X5556032Y-11773817D01*
X5556032Y-11773817D02*
X5565556Y-11792864D01*
X5565556Y-11792864D02*
X5575080Y-11830959D01*
X5575080Y-11830959D02*
X5575080Y-11878579D01*
X5575080Y-11878579D02*
X5565556Y-11916674D01*
X5565556Y-11916674D02*
X5556032Y-11935721D01*
X5556032Y-11935721D02*
X5546508Y-11945245D01*
X5546508Y-11945245D02*
X5527461Y-11954769D01*
X5527461Y-11954769D02*
X5508413Y-11954769D01*
X5508413Y-11954769D02*
X5489365Y-11945245D01*
X5489365Y-11945245D02*
X5479842Y-11935721D01*
X5479842Y-11935721D02*
X5470318Y-11916674D01*
X5470318Y-11916674D02*
X5460794Y-11878579D01*
X5460794Y-11878579D02*
X5460794Y-11830959D01*
X5460794Y-11830959D02*
X5470318Y-11792864D01*
X5470318Y-11792864D02*
X5479842Y-11773817D01*
X5479842Y-11773817D02*
X5489365Y-11764293D01*
X5489365Y-11764293D02*
X5508413Y-11754769D01*
X5660794Y-11935721D02*
X5670318Y-11945245D01*
X5670318Y-11945245D02*
X5660794Y-11954769D01*
X5660794Y-11954769D02*
X5651270Y-11945245D01*
X5651270Y-11945245D02*
X5660794Y-11935721D01*
X5660794Y-11935721D02*
X5660794Y-11954769D01*
X5794127Y-11754769D02*
X5813175Y-11754769D01*
X5813175Y-11754769D02*
X5832222Y-11764293D01*
X5832222Y-11764293D02*
X5841746Y-11773817D01*
X5841746Y-11773817D02*
X5851270Y-11792864D01*
X5851270Y-11792864D02*
X5860794Y-11830959D01*
X5860794Y-11830959D02*
X5860794Y-11878579D01*
X5860794Y-11878579D02*
X5851270Y-11916674D01*
X5851270Y-11916674D02*
X5841746Y-11935721D01*
X5841746Y-11935721D02*
X5832222Y-11945245D01*
X5832222Y-11945245D02*
X5813175Y-11954769D01*
X5813175Y-11954769D02*
X5794127Y-11954769D01*
X5794127Y-11954769D02*
X5775080Y-11945245D01*
X5775080Y-11945245D02*
X5765556Y-11935721D01*
X5765556Y-11935721D02*
X5756032Y-11916674D01*
X5756032Y-11916674D02*
X5746508Y-11878579D01*
X5746508Y-11878579D02*
X5746508Y-11830959D01*
X5746508Y-11830959D02*
X5756032Y-11792864D01*
X5756032Y-11792864D02*
X5765556Y-11773817D01*
X5765556Y-11773817D02*
X5775080Y-11764293D01*
X5775080Y-11764293D02*
X5794127Y-11754769D01*
X6051270Y-11954769D02*
X5936984Y-11954769D01*
X5994127Y-11954769D02*
X5994127Y-11754769D01*
X5994127Y-11754769D02*
X5975080Y-11783340D01*
X5975080Y-11783340D02*
X5956032Y-11802388D01*
X5956032Y-11802388D02*
X5936984Y-11811912D01*
X6232222Y-11754769D02*
X6136984Y-11754769D01*
X6136984Y-11754769D02*
X6127461Y-11850007D01*
X6127461Y-11850007D02*
X6136984Y-11840483D01*
X6136984Y-11840483D02*
X6156032Y-11830959D01*
X6156032Y-11830959D02*
X6203651Y-11830959D01*
X6203651Y-11830959D02*
X6222699Y-11840483D01*
X6222699Y-11840483D02*
X6232222Y-11850007D01*
X6232222Y-11850007D02*
X6241746Y-11869055D01*
X6241746Y-11869055D02*
X6241746Y-11916674D01*
X6241746Y-11916674D02*
X6232222Y-11935721D01*
X6232222Y-11935721D02*
X6222699Y-11945245D01*
X6222699Y-11945245D02*
X6203651Y-11954769D01*
X6203651Y-11954769D02*
X6156032Y-11954769D01*
X6156032Y-11954769D02*
X6136984Y-11945245D01*
X6136984Y-11945245D02*
X6127461Y-11935721D01*
X6308413Y-11754769D02*
X6441746Y-11754769D01*
X6441746Y-11754769D02*
X6356032Y-11954769D01*
X6508413Y-11754769D02*
X6508413Y-11792864D01*
X6584603Y-11754769D02*
X6584603Y-11792864D01*
X6879842Y-12030959D02*
X6870318Y-12021436D01*
X6870318Y-12021436D02*
X6851270Y-11992864D01*
X6851270Y-11992864D02*
X6841746Y-11973817D01*
X6841746Y-11973817D02*
X6832223Y-11945245D01*
X6832223Y-11945245D02*
X6822699Y-11897626D01*
X6822699Y-11897626D02*
X6822699Y-11859531D01*
X6822699Y-11859531D02*
X6832223Y-11811912D01*
X6832223Y-11811912D02*
X6841746Y-11783340D01*
X6841746Y-11783340D02*
X6851270Y-11764293D01*
X6851270Y-11764293D02*
X6870318Y-11735721D01*
X6870318Y-11735721D02*
X6879842Y-11726198D01*
X6936984Y-11754769D02*
X7060794Y-11754769D01*
X7060794Y-11754769D02*
X6994127Y-11830959D01*
X6994127Y-11830959D02*
X7022699Y-11830959D01*
X7022699Y-11830959D02*
X7041746Y-11840483D01*
X7041746Y-11840483D02*
X7051270Y-11850007D01*
X7051270Y-11850007D02*
X7060794Y-11869055D01*
X7060794Y-11869055D02*
X7060794Y-11916674D01*
X7060794Y-11916674D02*
X7051270Y-11935721D01*
X7051270Y-11935721D02*
X7041746Y-11945245D01*
X7041746Y-11945245D02*
X7022699Y-11954769D01*
X7022699Y-11954769D02*
X6965556Y-11954769D01*
X6965556Y-11954769D02*
X6946508Y-11945245D01*
X6946508Y-11945245D02*
X6936984Y-11935721D01*
X7298889Y-11954769D02*
X7298889Y-11754769D01*
X7384604Y-11954769D02*
X7384604Y-11850007D01*
X7384604Y-11850007D02*
X7375080Y-11830959D01*
X7375080Y-11830959D02*
X7356032Y-11821436D01*
X7356032Y-11821436D02*
X7327461Y-11821436D01*
X7327461Y-11821436D02*
X7308413Y-11830959D01*
X7308413Y-11830959D02*
X7298889Y-11840483D01*
X7508413Y-11954769D02*
X7489365Y-11945245D01*
X7489365Y-11945245D02*
X7479842Y-11935721D01*
X7479842Y-11935721D02*
X7470318Y-11916674D01*
X7470318Y-11916674D02*
X7470318Y-11859531D01*
X7470318Y-11859531D02*
X7479842Y-11840483D01*
X7479842Y-11840483D02*
X7489365Y-11830959D01*
X7489365Y-11830959D02*
X7508413Y-11821436D01*
X7508413Y-11821436D02*
X7536985Y-11821436D01*
X7536985Y-11821436D02*
X7556032Y-11830959D01*
X7556032Y-11830959D02*
X7565556Y-11840483D01*
X7565556Y-11840483D02*
X7575080Y-11859531D01*
X7575080Y-11859531D02*
X7575080Y-11916674D01*
X7575080Y-11916674D02*
X7565556Y-11935721D01*
X7565556Y-11935721D02*
X7556032Y-11945245D01*
X7556032Y-11945245D02*
X7536985Y-11954769D01*
X7536985Y-11954769D02*
X7508413Y-11954769D01*
X7689365Y-11954769D02*
X7670318Y-11945245D01*
X7670318Y-11945245D02*
X7660794Y-11926198D01*
X7660794Y-11926198D02*
X7660794Y-11754769D01*
X7841746Y-11945245D02*
X7822699Y-11954769D01*
X7822699Y-11954769D02*
X7784604Y-11954769D01*
X7784604Y-11954769D02*
X7765556Y-11945245D01*
X7765556Y-11945245D02*
X7756032Y-11926198D01*
X7756032Y-11926198D02*
X7756032Y-11850007D01*
X7756032Y-11850007D02*
X7765556Y-11830959D01*
X7765556Y-11830959D02*
X7784604Y-11821436D01*
X7784604Y-11821436D02*
X7822699Y-11821436D01*
X7822699Y-11821436D02*
X7841746Y-11830959D01*
X7841746Y-11830959D02*
X7851270Y-11850007D01*
X7851270Y-11850007D02*
X7851270Y-11869055D01*
X7851270Y-11869055D02*
X7756032Y-11888102D01*
X7927461Y-11945245D02*
X7946508Y-11954769D01*
X7946508Y-11954769D02*
X7984604Y-11954769D01*
X7984604Y-11954769D02*
X8003651Y-11945245D01*
X8003651Y-11945245D02*
X8013175Y-11926198D01*
X8013175Y-11926198D02*
X8013175Y-11916674D01*
X8013175Y-11916674D02*
X8003651Y-11897626D01*
X8003651Y-11897626D02*
X7984604Y-11888102D01*
X7984604Y-11888102D02*
X7956032Y-11888102D01*
X7956032Y-11888102D02*
X7936985Y-11878579D01*
X7936985Y-11878579D02*
X7927461Y-11859531D01*
X7927461Y-11859531D02*
X7927461Y-11850007D01*
X7927461Y-11850007D02*
X7936985Y-11830959D01*
X7936985Y-11830959D02*
X7956032Y-11821436D01*
X7956032Y-11821436D02*
X7984604Y-11821436D01*
X7984604Y-11821436D02*
X8003651Y-11830959D01*
X8079842Y-12030959D02*
X8089366Y-12021436D01*
X8089366Y-12021436D02*
X8108413Y-11992864D01*
X8108413Y-11992864D02*
X8117937Y-11973817D01*
X8117937Y-11973817D02*
X8127461Y-11945245D01*
X8127461Y-11945245D02*
X8136985Y-11897626D01*
X8136985Y-11897626D02*
X8136985Y-11859531D01*
X8136985Y-11859531D02*
X8127461Y-11811912D01*
X8127461Y-11811912D02*
X8117937Y-11783340D01*
X8117937Y-11783340D02*
X8108413Y-11764293D01*
X8108413Y-11764293D02*
X8089366Y-11735721D01*
X8089366Y-11735721D02*
X8079842Y-11726198D01*
D13*
X3317937Y-12126245D02*
G75*
G03*
X3317937Y-12126245I-40000J0D01*
G01*
D11*
X3603651Y-12018769D02*
X3622698Y-12018769D01*
X3622698Y-12018769D02*
X3641746Y-12028293D01*
X3641746Y-12028293D02*
X3651270Y-12037817D01*
X3651270Y-12037817D02*
X3660794Y-12056864D01*
X3660794Y-12056864D02*
X3670317Y-12094959D01*
X3670317Y-12094959D02*
X3670317Y-12142579D01*
X3670317Y-12142579D02*
X3660794Y-12180674D01*
X3660794Y-12180674D02*
X3651270Y-12199721D01*
X3651270Y-12199721D02*
X3641746Y-12209245D01*
X3641746Y-12209245D02*
X3622698Y-12218769D01*
X3622698Y-12218769D02*
X3603651Y-12218769D01*
X3603651Y-12218769D02*
X3584603Y-12209245D01*
X3584603Y-12209245D02*
X3575079Y-12199721D01*
X3575079Y-12199721D02*
X3565556Y-12180674D01*
X3565556Y-12180674D02*
X3556032Y-12142579D01*
X3556032Y-12142579D02*
X3556032Y-12094959D01*
X3556032Y-12094959D02*
X3565556Y-12056864D01*
X3565556Y-12056864D02*
X3575079Y-12037817D01*
X3575079Y-12037817D02*
X3584603Y-12028293D01*
X3584603Y-12028293D02*
X3603651Y-12018769D01*
X3756032Y-12199721D02*
X3765556Y-12209245D01*
X3765556Y-12209245D02*
X3756032Y-12218769D01*
X3756032Y-12218769D02*
X3746508Y-12209245D01*
X3746508Y-12209245D02*
X3756032Y-12199721D01*
X3756032Y-12199721D02*
X3756032Y-12218769D01*
X3879841Y-12104483D02*
X3860794Y-12094959D01*
X3860794Y-12094959D02*
X3851270Y-12085436D01*
X3851270Y-12085436D02*
X3841746Y-12066388D01*
X3841746Y-12066388D02*
X3841746Y-12056864D01*
X3841746Y-12056864D02*
X3851270Y-12037817D01*
X3851270Y-12037817D02*
X3860794Y-12028293D01*
X3860794Y-12028293D02*
X3879841Y-12018769D01*
X3879841Y-12018769D02*
X3917937Y-12018769D01*
X3917937Y-12018769D02*
X3936984Y-12028293D01*
X3936984Y-12028293D02*
X3946508Y-12037817D01*
X3946508Y-12037817D02*
X3956032Y-12056864D01*
X3956032Y-12056864D02*
X3956032Y-12066388D01*
X3956032Y-12066388D02*
X3946508Y-12085436D01*
X3946508Y-12085436D02*
X3936984Y-12094959D01*
X3936984Y-12094959D02*
X3917937Y-12104483D01*
X3917937Y-12104483D02*
X3879841Y-12104483D01*
X3879841Y-12104483D02*
X3860794Y-12114007D01*
X3860794Y-12114007D02*
X3851270Y-12123531D01*
X3851270Y-12123531D02*
X3841746Y-12142579D01*
X3841746Y-12142579D02*
X3841746Y-12180674D01*
X3841746Y-12180674D02*
X3851270Y-12199721D01*
X3851270Y-12199721D02*
X3860794Y-12209245D01*
X3860794Y-12209245D02*
X3879841Y-12218769D01*
X3879841Y-12218769D02*
X3917937Y-12218769D01*
X3917937Y-12218769D02*
X3936984Y-12209245D01*
X3936984Y-12209245D02*
X3946508Y-12199721D01*
X3946508Y-12199721D02*
X3956032Y-12180674D01*
X3956032Y-12180674D02*
X3956032Y-12142579D01*
X3956032Y-12142579D02*
X3946508Y-12123531D01*
X3946508Y-12123531D02*
X3936984Y-12114007D01*
X3936984Y-12114007D02*
X3917937Y-12104483D01*
X4079841Y-12018769D02*
X4098889Y-12018769D01*
X4098889Y-12018769D02*
X4117937Y-12028293D01*
X4117937Y-12028293D02*
X4127460Y-12037817D01*
X4127460Y-12037817D02*
X4136984Y-12056864D01*
X4136984Y-12056864D02*
X4146508Y-12094959D01*
X4146508Y-12094959D02*
X4146508Y-12142579D01*
X4146508Y-12142579D02*
X4136984Y-12180674D01*
X4136984Y-12180674D02*
X4127460Y-12199721D01*
X4127460Y-12199721D02*
X4117937Y-12209245D01*
X4117937Y-12209245D02*
X4098889Y-12218769D01*
X4098889Y-12218769D02*
X4079841Y-12218769D01*
X4079841Y-12218769D02*
X4060794Y-12209245D01*
X4060794Y-12209245D02*
X4051270Y-12199721D01*
X4051270Y-12199721D02*
X4041746Y-12180674D01*
X4041746Y-12180674D02*
X4032222Y-12142579D01*
X4032222Y-12142579D02*
X4032222Y-12094959D01*
X4032222Y-12094959D02*
X4041746Y-12056864D01*
X4041746Y-12056864D02*
X4051270Y-12037817D01*
X4051270Y-12037817D02*
X4060794Y-12028293D01*
X4060794Y-12028293D02*
X4079841Y-12018769D01*
X4270318Y-12018769D02*
X4289365Y-12018769D01*
X4289365Y-12018769D02*
X4308413Y-12028293D01*
X4308413Y-12028293D02*
X4317937Y-12037817D01*
X4317937Y-12037817D02*
X4327460Y-12056864D01*
X4327460Y-12056864D02*
X4336984Y-12094959D01*
X4336984Y-12094959D02*
X4336984Y-12142579D01*
X4336984Y-12142579D02*
X4327460Y-12180674D01*
X4327460Y-12180674D02*
X4317937Y-12199721D01*
X4317937Y-12199721D02*
X4308413Y-12209245D01*
X4308413Y-12209245D02*
X4289365Y-12218769D01*
X4289365Y-12218769D02*
X4270318Y-12218769D01*
X4270318Y-12218769D02*
X4251270Y-12209245D01*
X4251270Y-12209245D02*
X4241746Y-12199721D01*
X4241746Y-12199721D02*
X4232222Y-12180674D01*
X4232222Y-12180674D02*
X4222699Y-12142579D01*
X4222699Y-12142579D02*
X4222699Y-12094959D01*
X4222699Y-12094959D02*
X4232222Y-12056864D01*
X4232222Y-12056864D02*
X4241746Y-12037817D01*
X4241746Y-12037817D02*
X4251270Y-12028293D01*
X4251270Y-12028293D02*
X4270318Y-12018769D01*
X4422699Y-12218769D02*
X4422699Y-12085436D01*
X4422699Y-12104483D02*
X4432222Y-12094959D01*
X4432222Y-12094959D02*
X4451270Y-12085436D01*
X4451270Y-12085436D02*
X4479841Y-12085436D01*
X4479841Y-12085436D02*
X4498889Y-12094959D01*
X4498889Y-12094959D02*
X4508413Y-12114007D01*
X4508413Y-12114007D02*
X4508413Y-12218769D01*
X4508413Y-12114007D02*
X4517937Y-12094959D01*
X4517937Y-12094959D02*
X4536984Y-12085436D01*
X4536984Y-12085436D02*
X4565556Y-12085436D01*
X4565556Y-12085436D02*
X4584603Y-12094959D01*
X4584603Y-12094959D02*
X4594127Y-12114007D01*
X4594127Y-12114007D02*
X4594127Y-12218769D01*
X4689365Y-12218769D02*
X4689365Y-12085436D01*
X4689365Y-12104483D02*
X4698889Y-12094959D01*
X4698889Y-12094959D02*
X4717937Y-12085436D01*
X4717937Y-12085436D02*
X4746508Y-12085436D01*
X4746508Y-12085436D02*
X4765556Y-12094959D01*
X4765556Y-12094959D02*
X4775080Y-12114007D01*
X4775080Y-12114007D02*
X4775080Y-12218769D01*
X4775080Y-12114007D02*
X4784603Y-12094959D01*
X4784603Y-12094959D02*
X4803651Y-12085436D01*
X4803651Y-12085436D02*
X4832222Y-12085436D01*
X4832222Y-12085436D02*
X4851270Y-12094959D01*
X4851270Y-12094959D02*
X4860794Y-12114007D01*
X4860794Y-12114007D02*
X4860794Y-12218769D01*
X5251270Y-12009245D02*
X5079842Y-12266388D01*
X5508413Y-12018769D02*
X5527461Y-12018769D01*
X5527461Y-12018769D02*
X5546508Y-12028293D01*
X5546508Y-12028293D02*
X5556032Y-12037817D01*
X5556032Y-12037817D02*
X5565556Y-12056864D01*
X5565556Y-12056864D02*
X5575080Y-12094959D01*
X5575080Y-12094959D02*
X5575080Y-12142579D01*
X5575080Y-12142579D02*
X5565556Y-12180674D01*
X5565556Y-12180674D02*
X5556032Y-12199721D01*
X5556032Y-12199721D02*
X5546508Y-12209245D01*
X5546508Y-12209245D02*
X5527461Y-12218769D01*
X5527461Y-12218769D02*
X5508413Y-12218769D01*
X5508413Y-12218769D02*
X5489365Y-12209245D01*
X5489365Y-12209245D02*
X5479842Y-12199721D01*
X5479842Y-12199721D02*
X5470318Y-12180674D01*
X5470318Y-12180674D02*
X5460794Y-12142579D01*
X5460794Y-12142579D02*
X5460794Y-12094959D01*
X5460794Y-12094959D02*
X5470318Y-12056864D01*
X5470318Y-12056864D02*
X5479842Y-12037817D01*
X5479842Y-12037817D02*
X5489365Y-12028293D01*
X5489365Y-12028293D02*
X5508413Y-12018769D01*
X5660794Y-12199721D02*
X5670318Y-12209245D01*
X5670318Y-12209245D02*
X5660794Y-12218769D01*
X5660794Y-12218769D02*
X5651270Y-12209245D01*
X5651270Y-12209245D02*
X5660794Y-12199721D01*
X5660794Y-12199721D02*
X5660794Y-12218769D01*
X5794127Y-12018769D02*
X5813175Y-12018769D01*
X5813175Y-12018769D02*
X5832222Y-12028293D01*
X5832222Y-12028293D02*
X5841746Y-12037817D01*
X5841746Y-12037817D02*
X5851270Y-12056864D01*
X5851270Y-12056864D02*
X5860794Y-12094959D01*
X5860794Y-12094959D02*
X5860794Y-12142579D01*
X5860794Y-12142579D02*
X5851270Y-12180674D01*
X5851270Y-12180674D02*
X5841746Y-12199721D01*
X5841746Y-12199721D02*
X5832222Y-12209245D01*
X5832222Y-12209245D02*
X5813175Y-12218769D01*
X5813175Y-12218769D02*
X5794127Y-12218769D01*
X5794127Y-12218769D02*
X5775080Y-12209245D01*
X5775080Y-12209245D02*
X5765556Y-12199721D01*
X5765556Y-12199721D02*
X5756032Y-12180674D01*
X5756032Y-12180674D02*
X5746508Y-12142579D01*
X5746508Y-12142579D02*
X5746508Y-12094959D01*
X5746508Y-12094959D02*
X5756032Y-12056864D01*
X5756032Y-12056864D02*
X5765556Y-12037817D01*
X5765556Y-12037817D02*
X5775080Y-12028293D01*
X5775080Y-12028293D02*
X5794127Y-12018769D01*
X5927461Y-12018769D02*
X6051270Y-12018769D01*
X6051270Y-12018769D02*
X5984603Y-12094959D01*
X5984603Y-12094959D02*
X6013175Y-12094959D01*
X6013175Y-12094959D02*
X6032222Y-12104483D01*
X6032222Y-12104483D02*
X6041746Y-12114007D01*
X6041746Y-12114007D02*
X6051270Y-12133055D01*
X6051270Y-12133055D02*
X6051270Y-12180674D01*
X6051270Y-12180674D02*
X6041746Y-12199721D01*
X6041746Y-12199721D02*
X6032222Y-12209245D01*
X6032222Y-12209245D02*
X6013175Y-12218769D01*
X6013175Y-12218769D02*
X5956032Y-12218769D01*
X5956032Y-12218769D02*
X5936984Y-12209245D01*
X5936984Y-12209245D02*
X5927461Y-12199721D01*
X6241746Y-12218769D02*
X6127461Y-12218769D01*
X6184603Y-12218769D02*
X6184603Y-12018769D01*
X6184603Y-12018769D02*
X6165556Y-12047340D01*
X6165556Y-12047340D02*
X6146508Y-12066388D01*
X6146508Y-12066388D02*
X6127461Y-12075912D01*
X6422699Y-12018769D02*
X6327461Y-12018769D01*
X6327461Y-12018769D02*
X6317937Y-12114007D01*
X6317937Y-12114007D02*
X6327461Y-12104483D01*
X6327461Y-12104483D02*
X6346508Y-12094959D01*
X6346508Y-12094959D02*
X6394127Y-12094959D01*
X6394127Y-12094959D02*
X6413175Y-12104483D01*
X6413175Y-12104483D02*
X6422699Y-12114007D01*
X6422699Y-12114007D02*
X6432222Y-12133055D01*
X6432222Y-12133055D02*
X6432222Y-12180674D01*
X6432222Y-12180674D02*
X6422699Y-12199721D01*
X6422699Y-12199721D02*
X6413175Y-12209245D01*
X6413175Y-12209245D02*
X6394127Y-12218769D01*
X6394127Y-12218769D02*
X6346508Y-12218769D01*
X6346508Y-12218769D02*
X6327461Y-12209245D01*
X6327461Y-12209245D02*
X6317937Y-12199721D01*
X6508413Y-12018769D02*
X6508413Y-12056864D01*
X6584603Y-12018769D02*
X6584603Y-12056864D01*
X6879842Y-12294959D02*
X6870318Y-12285436D01*
X6870318Y-12285436D02*
X6851270Y-12256864D01*
X6851270Y-12256864D02*
X6841746Y-12237817D01*
X6841746Y-12237817D02*
X6832223Y-12209245D01*
X6832223Y-12209245D02*
X6822699Y-12161626D01*
X6822699Y-12161626D02*
X6822699Y-12123531D01*
X6822699Y-12123531D02*
X6832223Y-12075912D01*
X6832223Y-12075912D02*
X6841746Y-12047340D01*
X6841746Y-12047340D02*
X6851270Y-12028293D01*
X6851270Y-12028293D02*
X6870318Y-11999721D01*
X6870318Y-11999721D02*
X6879842Y-11990198D01*
X7060794Y-12218769D02*
X6946508Y-12218769D01*
X7003651Y-12218769D02*
X7003651Y-12018769D01*
X7003651Y-12018769D02*
X6984603Y-12047340D01*
X6984603Y-12047340D02*
X6965556Y-12066388D01*
X6965556Y-12066388D02*
X6946508Y-12075912D01*
X7136984Y-12037817D02*
X7146508Y-12028293D01*
X7146508Y-12028293D02*
X7165556Y-12018769D01*
X7165556Y-12018769D02*
X7213175Y-12018769D01*
X7213175Y-12018769D02*
X7232223Y-12028293D01*
X7232223Y-12028293D02*
X7241746Y-12037817D01*
X7241746Y-12037817D02*
X7251270Y-12056864D01*
X7251270Y-12056864D02*
X7251270Y-12075912D01*
X7251270Y-12075912D02*
X7241746Y-12104483D01*
X7241746Y-12104483D02*
X7127461Y-12218769D01*
X7127461Y-12218769D02*
X7251270Y-12218769D01*
X7375080Y-12018769D02*
X7394127Y-12018769D01*
X7394127Y-12018769D02*
X7413175Y-12028293D01*
X7413175Y-12028293D02*
X7422699Y-12037817D01*
X7422699Y-12037817D02*
X7432223Y-12056864D01*
X7432223Y-12056864D02*
X7441746Y-12094959D01*
X7441746Y-12094959D02*
X7441746Y-12142579D01*
X7441746Y-12142579D02*
X7432223Y-12180674D01*
X7432223Y-12180674D02*
X7422699Y-12199721D01*
X7422699Y-12199721D02*
X7413175Y-12209245D01*
X7413175Y-12209245D02*
X7394127Y-12218769D01*
X7394127Y-12218769D02*
X7375080Y-12218769D01*
X7375080Y-12218769D02*
X7356032Y-12209245D01*
X7356032Y-12209245D02*
X7346508Y-12199721D01*
X7346508Y-12199721D02*
X7336984Y-12180674D01*
X7336984Y-12180674D02*
X7327461Y-12142579D01*
X7327461Y-12142579D02*
X7327461Y-12094959D01*
X7327461Y-12094959D02*
X7336984Y-12056864D01*
X7336984Y-12056864D02*
X7346508Y-12037817D01*
X7346508Y-12037817D02*
X7356032Y-12028293D01*
X7356032Y-12028293D02*
X7375080Y-12018769D01*
X7679842Y-12218769D02*
X7679842Y-12018769D01*
X7765556Y-12218769D02*
X7765556Y-12114007D01*
X7765556Y-12114007D02*
X7756032Y-12094959D01*
X7756032Y-12094959D02*
X7736985Y-12085436D01*
X7736985Y-12085436D02*
X7708413Y-12085436D01*
X7708413Y-12085436D02*
X7689365Y-12094959D01*
X7689365Y-12094959D02*
X7679842Y-12104483D01*
X7889365Y-12218769D02*
X7870318Y-12209245D01*
X7870318Y-12209245D02*
X7860794Y-12199721D01*
X7860794Y-12199721D02*
X7851270Y-12180674D01*
X7851270Y-12180674D02*
X7851270Y-12123531D01*
X7851270Y-12123531D02*
X7860794Y-12104483D01*
X7860794Y-12104483D02*
X7870318Y-12094959D01*
X7870318Y-12094959D02*
X7889365Y-12085436D01*
X7889365Y-12085436D02*
X7917937Y-12085436D01*
X7917937Y-12085436D02*
X7936985Y-12094959D01*
X7936985Y-12094959D02*
X7946508Y-12104483D01*
X7946508Y-12104483D02*
X7956032Y-12123531D01*
X7956032Y-12123531D02*
X7956032Y-12180674D01*
X7956032Y-12180674D02*
X7946508Y-12199721D01*
X7946508Y-12199721D02*
X7936985Y-12209245D01*
X7936985Y-12209245D02*
X7917937Y-12218769D01*
X7917937Y-12218769D02*
X7889365Y-12218769D01*
X8070318Y-12218769D02*
X8051270Y-12209245D01*
X8051270Y-12209245D02*
X8041746Y-12190198D01*
X8041746Y-12190198D02*
X8041746Y-12018769D01*
X8222699Y-12209245D02*
X8203651Y-12218769D01*
X8203651Y-12218769D02*
X8165556Y-12218769D01*
X8165556Y-12218769D02*
X8146508Y-12209245D01*
X8146508Y-12209245D02*
X8136985Y-12190198D01*
X8136985Y-12190198D02*
X8136985Y-12114007D01*
X8136985Y-12114007D02*
X8146508Y-12094959D01*
X8146508Y-12094959D02*
X8165556Y-12085436D01*
X8165556Y-12085436D02*
X8203651Y-12085436D01*
X8203651Y-12085436D02*
X8222699Y-12094959D01*
X8222699Y-12094959D02*
X8232223Y-12114007D01*
X8232223Y-12114007D02*
X8232223Y-12133055D01*
X8232223Y-12133055D02*
X8136985Y-12152102D01*
X8308413Y-12209245D02*
X8327461Y-12218769D01*
X8327461Y-12218769D02*
X8365556Y-12218769D01*
X8365556Y-12218769D02*
X8384604Y-12209245D01*
X8384604Y-12209245D02*
X8394128Y-12190198D01*
X8394128Y-12190198D02*
X8394128Y-12180674D01*
X8394128Y-12180674D02*
X8384604Y-12161626D01*
X8384604Y-12161626D02*
X8365556Y-12152102D01*
X8365556Y-12152102D02*
X8336985Y-12152102D01*
X8336985Y-12152102D02*
X8317937Y-12142579D01*
X8317937Y-12142579D02*
X8308413Y-12123531D01*
X8308413Y-12123531D02*
X8308413Y-12114007D01*
X8308413Y-12114007D02*
X8317937Y-12094959D01*
X8317937Y-12094959D02*
X8336985Y-12085436D01*
X8336985Y-12085436D02*
X8365556Y-12085436D01*
X8365556Y-12085436D02*
X8384604Y-12094959D01*
X8460794Y-12294959D02*
X8470318Y-12285436D01*
X8470318Y-12285436D02*
X8489366Y-12256864D01*
X8489366Y-12256864D02*
X8498889Y-12237817D01*
X8498889Y-12237817D02*
X8508413Y-12209245D01*
X8508413Y-12209245D02*
X8517937Y-12161626D01*
X8517937Y-12161626D02*
X8517937Y-12123531D01*
X8517937Y-12123531D02*
X8508413Y-12075912D01*
X8508413Y-12075912D02*
X8498889Y-12047340D01*
X8498889Y-12047340D02*
X8489366Y-12028293D01*
X8489366Y-12028293D02*
X8470318Y-11999721D01*
X8470318Y-11999721D02*
X8460794Y-11990198D01*
D14*
X3267937Y-12340245D02*
X3267937Y-12440245D01*
X3217937Y-12390245D02*
X3317937Y-12390245D01*
D11*
X3670317Y-12482769D02*
X3556032Y-12482769D01*
X3613175Y-12482769D02*
X3613175Y-12282769D01*
X3613175Y-12282769D02*
X3594127Y-12311340D01*
X3594127Y-12311340D02*
X3575079Y-12330388D01*
X3575079Y-12330388D02*
X3556032Y-12339912D01*
X3756032Y-12463721D02*
X3765556Y-12473245D01*
X3765556Y-12473245D02*
X3756032Y-12482769D01*
X3756032Y-12482769D02*
X3746508Y-12473245D01*
X3746508Y-12473245D02*
X3756032Y-12463721D01*
X3756032Y-12463721D02*
X3756032Y-12482769D01*
X3889365Y-12282769D02*
X3908413Y-12282769D01*
X3908413Y-12282769D02*
X3927460Y-12292293D01*
X3927460Y-12292293D02*
X3936984Y-12301817D01*
X3936984Y-12301817D02*
X3946508Y-12320864D01*
X3946508Y-12320864D02*
X3956032Y-12358959D01*
X3956032Y-12358959D02*
X3956032Y-12406579D01*
X3956032Y-12406579D02*
X3946508Y-12444674D01*
X3946508Y-12444674D02*
X3936984Y-12463721D01*
X3936984Y-12463721D02*
X3927460Y-12473245D01*
X3927460Y-12473245D02*
X3908413Y-12482769D01*
X3908413Y-12482769D02*
X3889365Y-12482769D01*
X3889365Y-12482769D02*
X3870317Y-12473245D01*
X3870317Y-12473245D02*
X3860794Y-12463721D01*
X3860794Y-12463721D02*
X3851270Y-12444674D01*
X3851270Y-12444674D02*
X3841746Y-12406579D01*
X3841746Y-12406579D02*
X3841746Y-12358959D01*
X3841746Y-12358959D02*
X3851270Y-12320864D01*
X3851270Y-12320864D02*
X3860794Y-12301817D01*
X3860794Y-12301817D02*
X3870317Y-12292293D01*
X3870317Y-12292293D02*
X3889365Y-12282769D01*
X4079841Y-12282769D02*
X4098889Y-12282769D01*
X4098889Y-12282769D02*
X4117937Y-12292293D01*
X4117937Y-12292293D02*
X4127460Y-12301817D01*
X4127460Y-12301817D02*
X4136984Y-12320864D01*
X4136984Y-12320864D02*
X4146508Y-12358959D01*
X4146508Y-12358959D02*
X4146508Y-12406579D01*
X4146508Y-12406579D02*
X4136984Y-12444674D01*
X4136984Y-12444674D02*
X4127460Y-12463721D01*
X4127460Y-12463721D02*
X4117937Y-12473245D01*
X4117937Y-12473245D02*
X4098889Y-12482769D01*
X4098889Y-12482769D02*
X4079841Y-12482769D01*
X4079841Y-12482769D02*
X4060794Y-12473245D01*
X4060794Y-12473245D02*
X4051270Y-12463721D01*
X4051270Y-12463721D02*
X4041746Y-12444674D01*
X4041746Y-12444674D02*
X4032222Y-12406579D01*
X4032222Y-12406579D02*
X4032222Y-12358959D01*
X4032222Y-12358959D02*
X4041746Y-12320864D01*
X4041746Y-12320864D02*
X4051270Y-12301817D01*
X4051270Y-12301817D02*
X4060794Y-12292293D01*
X4060794Y-12292293D02*
X4079841Y-12282769D01*
X4270318Y-12282769D02*
X4289365Y-12282769D01*
X4289365Y-12282769D02*
X4308413Y-12292293D01*
X4308413Y-12292293D02*
X4317937Y-12301817D01*
X4317937Y-12301817D02*
X4327460Y-12320864D01*
X4327460Y-12320864D02*
X4336984Y-12358959D01*
X4336984Y-12358959D02*
X4336984Y-12406579D01*
X4336984Y-12406579D02*
X4327460Y-12444674D01*
X4327460Y-12444674D02*
X4317937Y-12463721D01*
X4317937Y-12463721D02*
X4308413Y-12473245D01*
X4308413Y-12473245D02*
X4289365Y-12482769D01*
X4289365Y-12482769D02*
X4270318Y-12482769D01*
X4270318Y-12482769D02*
X4251270Y-12473245D01*
X4251270Y-12473245D02*
X4241746Y-12463721D01*
X4241746Y-12463721D02*
X4232222Y-12444674D01*
X4232222Y-12444674D02*
X4222699Y-12406579D01*
X4222699Y-12406579D02*
X4222699Y-12358959D01*
X4222699Y-12358959D02*
X4232222Y-12320864D01*
X4232222Y-12320864D02*
X4241746Y-12301817D01*
X4241746Y-12301817D02*
X4251270Y-12292293D01*
X4251270Y-12292293D02*
X4270318Y-12282769D01*
X4422699Y-12482769D02*
X4422699Y-12349436D01*
X4422699Y-12368483D02*
X4432222Y-12358959D01*
X4432222Y-12358959D02*
X4451270Y-12349436D01*
X4451270Y-12349436D02*
X4479841Y-12349436D01*
X4479841Y-12349436D02*
X4498889Y-12358959D01*
X4498889Y-12358959D02*
X4508413Y-12378007D01*
X4508413Y-12378007D02*
X4508413Y-12482769D01*
X4508413Y-12378007D02*
X4517937Y-12358959D01*
X4517937Y-12358959D02*
X4536984Y-12349436D01*
X4536984Y-12349436D02*
X4565556Y-12349436D01*
X4565556Y-12349436D02*
X4584603Y-12358959D01*
X4584603Y-12358959D02*
X4594127Y-12378007D01*
X4594127Y-12378007D02*
X4594127Y-12482769D01*
X4689365Y-12482769D02*
X4689365Y-12349436D01*
X4689365Y-12368483D02*
X4698889Y-12358959D01*
X4698889Y-12358959D02*
X4717937Y-12349436D01*
X4717937Y-12349436D02*
X4746508Y-12349436D01*
X4746508Y-12349436D02*
X4765556Y-12358959D01*
X4765556Y-12358959D02*
X4775080Y-12378007D01*
X4775080Y-12378007D02*
X4775080Y-12482769D01*
X4775080Y-12378007D02*
X4784603Y-12358959D01*
X4784603Y-12358959D02*
X4803651Y-12349436D01*
X4803651Y-12349436D02*
X4832222Y-12349436D01*
X4832222Y-12349436D02*
X4851270Y-12358959D01*
X4851270Y-12358959D02*
X4860794Y-12378007D01*
X4860794Y-12378007D02*
X4860794Y-12482769D01*
X5251270Y-12273245D02*
X5079842Y-12530388D01*
X5508413Y-12282769D02*
X5527461Y-12282769D01*
X5527461Y-12282769D02*
X5546508Y-12292293D01*
X5546508Y-12292293D02*
X5556032Y-12301817D01*
X5556032Y-12301817D02*
X5565556Y-12320864D01*
X5565556Y-12320864D02*
X5575080Y-12358959D01*
X5575080Y-12358959D02*
X5575080Y-12406579D01*
X5575080Y-12406579D02*
X5565556Y-12444674D01*
X5565556Y-12444674D02*
X5556032Y-12463721D01*
X5556032Y-12463721D02*
X5546508Y-12473245D01*
X5546508Y-12473245D02*
X5527461Y-12482769D01*
X5527461Y-12482769D02*
X5508413Y-12482769D01*
X5508413Y-12482769D02*
X5489365Y-12473245D01*
X5489365Y-12473245D02*
X5479842Y-12463721D01*
X5479842Y-12463721D02*
X5470318Y-12444674D01*
X5470318Y-12444674D02*
X5460794Y-12406579D01*
X5460794Y-12406579D02*
X5460794Y-12358959D01*
X5460794Y-12358959D02*
X5470318Y-12320864D01*
X5470318Y-12320864D02*
X5479842Y-12301817D01*
X5479842Y-12301817D02*
X5489365Y-12292293D01*
X5489365Y-12292293D02*
X5508413Y-12282769D01*
X5660794Y-12463721D02*
X5670318Y-12473245D01*
X5670318Y-12473245D02*
X5660794Y-12482769D01*
X5660794Y-12482769D02*
X5651270Y-12473245D01*
X5651270Y-12473245D02*
X5660794Y-12463721D01*
X5660794Y-12463721D02*
X5660794Y-12482769D01*
X5794127Y-12282769D02*
X5813175Y-12282769D01*
X5813175Y-12282769D02*
X5832222Y-12292293D01*
X5832222Y-12292293D02*
X5841746Y-12301817D01*
X5841746Y-12301817D02*
X5851270Y-12320864D01*
X5851270Y-12320864D02*
X5860794Y-12358959D01*
X5860794Y-12358959D02*
X5860794Y-12406579D01*
X5860794Y-12406579D02*
X5851270Y-12444674D01*
X5851270Y-12444674D02*
X5841746Y-12463721D01*
X5841746Y-12463721D02*
X5832222Y-12473245D01*
X5832222Y-12473245D02*
X5813175Y-12482769D01*
X5813175Y-12482769D02*
X5794127Y-12482769D01*
X5794127Y-12482769D02*
X5775080Y-12473245D01*
X5775080Y-12473245D02*
X5765556Y-12463721D01*
X5765556Y-12463721D02*
X5756032Y-12444674D01*
X5756032Y-12444674D02*
X5746508Y-12406579D01*
X5746508Y-12406579D02*
X5746508Y-12358959D01*
X5746508Y-12358959D02*
X5756032Y-12320864D01*
X5756032Y-12320864D02*
X5765556Y-12301817D01*
X5765556Y-12301817D02*
X5775080Y-12292293D01*
X5775080Y-12292293D02*
X5794127Y-12282769D01*
X5927461Y-12282769D02*
X6051270Y-12282769D01*
X6051270Y-12282769D02*
X5984603Y-12358959D01*
X5984603Y-12358959D02*
X6013175Y-12358959D01*
X6013175Y-12358959D02*
X6032222Y-12368483D01*
X6032222Y-12368483D02*
X6041746Y-12378007D01*
X6041746Y-12378007D02*
X6051270Y-12397055D01*
X6051270Y-12397055D02*
X6051270Y-12444674D01*
X6051270Y-12444674D02*
X6041746Y-12463721D01*
X6041746Y-12463721D02*
X6032222Y-12473245D01*
X6032222Y-12473245D02*
X6013175Y-12482769D01*
X6013175Y-12482769D02*
X5956032Y-12482769D01*
X5956032Y-12482769D02*
X5936984Y-12473245D01*
X5936984Y-12473245D02*
X5927461Y-12463721D01*
X6146508Y-12482769D02*
X6184603Y-12482769D01*
X6184603Y-12482769D02*
X6203651Y-12473245D01*
X6203651Y-12473245D02*
X6213175Y-12463721D01*
X6213175Y-12463721D02*
X6232222Y-12435150D01*
X6232222Y-12435150D02*
X6241746Y-12397055D01*
X6241746Y-12397055D02*
X6241746Y-12320864D01*
X6241746Y-12320864D02*
X6232222Y-12301817D01*
X6232222Y-12301817D02*
X6222699Y-12292293D01*
X6222699Y-12292293D02*
X6203651Y-12282769D01*
X6203651Y-12282769D02*
X6165556Y-12282769D01*
X6165556Y-12282769D02*
X6146508Y-12292293D01*
X6146508Y-12292293D02*
X6136984Y-12301817D01*
X6136984Y-12301817D02*
X6127461Y-12320864D01*
X6127461Y-12320864D02*
X6127461Y-12368483D01*
X6127461Y-12368483D02*
X6136984Y-12387531D01*
X6136984Y-12387531D02*
X6146508Y-12397055D01*
X6146508Y-12397055D02*
X6165556Y-12406579D01*
X6165556Y-12406579D02*
X6203651Y-12406579D01*
X6203651Y-12406579D02*
X6222699Y-12397055D01*
X6222699Y-12397055D02*
X6232222Y-12387531D01*
X6232222Y-12387531D02*
X6241746Y-12368483D01*
X6413175Y-12349436D02*
X6413175Y-12482769D01*
X6365556Y-12273245D02*
X6317937Y-12416102D01*
X6317937Y-12416102D02*
X6441746Y-12416102D01*
X6508413Y-12282769D02*
X6508413Y-12320864D01*
X6584603Y-12282769D02*
X6584603Y-12320864D01*
X6879842Y-12558959D02*
X6870318Y-12549436D01*
X6870318Y-12549436D02*
X6851270Y-12520864D01*
X6851270Y-12520864D02*
X6841746Y-12501817D01*
X6841746Y-12501817D02*
X6832223Y-12473245D01*
X6832223Y-12473245D02*
X6822699Y-12425626D01*
X6822699Y-12425626D02*
X6822699Y-12387531D01*
X6822699Y-12387531D02*
X6832223Y-12339912D01*
X6832223Y-12339912D02*
X6841746Y-12311340D01*
X6841746Y-12311340D02*
X6851270Y-12292293D01*
X6851270Y-12292293D02*
X6870318Y-12263721D01*
X6870318Y-12263721D02*
X6879842Y-12254198D01*
X6936984Y-12282769D02*
X7070318Y-12282769D01*
X7070318Y-12282769D02*
X6984603Y-12482769D01*
X7298889Y-12482769D02*
X7298889Y-12282769D01*
X7384604Y-12482769D02*
X7384604Y-12378007D01*
X7384604Y-12378007D02*
X7375080Y-12358959D01*
X7375080Y-12358959D02*
X7356032Y-12349436D01*
X7356032Y-12349436D02*
X7327461Y-12349436D01*
X7327461Y-12349436D02*
X7308413Y-12358959D01*
X7308413Y-12358959D02*
X7298889Y-12368483D01*
X7508413Y-12482769D02*
X7489365Y-12473245D01*
X7489365Y-12473245D02*
X7479842Y-12463721D01*
X7479842Y-12463721D02*
X7470318Y-12444674D01*
X7470318Y-12444674D02*
X7470318Y-12387531D01*
X7470318Y-12387531D02*
X7479842Y-12368483D01*
X7479842Y-12368483D02*
X7489365Y-12358959D01*
X7489365Y-12358959D02*
X7508413Y-12349436D01*
X7508413Y-12349436D02*
X7536985Y-12349436D01*
X7536985Y-12349436D02*
X7556032Y-12358959D01*
X7556032Y-12358959D02*
X7565556Y-12368483D01*
X7565556Y-12368483D02*
X7575080Y-12387531D01*
X7575080Y-12387531D02*
X7575080Y-12444674D01*
X7575080Y-12444674D02*
X7565556Y-12463721D01*
X7565556Y-12463721D02*
X7556032Y-12473245D01*
X7556032Y-12473245D02*
X7536985Y-12482769D01*
X7536985Y-12482769D02*
X7508413Y-12482769D01*
X7689365Y-12482769D02*
X7670318Y-12473245D01*
X7670318Y-12473245D02*
X7660794Y-12454198D01*
X7660794Y-12454198D02*
X7660794Y-12282769D01*
X7841746Y-12473245D02*
X7822699Y-12482769D01*
X7822699Y-12482769D02*
X7784604Y-12482769D01*
X7784604Y-12482769D02*
X7765556Y-12473245D01*
X7765556Y-12473245D02*
X7756032Y-12454198D01*
X7756032Y-12454198D02*
X7756032Y-12378007D01*
X7756032Y-12378007D02*
X7765556Y-12358959D01*
X7765556Y-12358959D02*
X7784604Y-12349436D01*
X7784604Y-12349436D02*
X7822699Y-12349436D01*
X7822699Y-12349436D02*
X7841746Y-12358959D01*
X7841746Y-12358959D02*
X7851270Y-12378007D01*
X7851270Y-12378007D02*
X7851270Y-12397055D01*
X7851270Y-12397055D02*
X7756032Y-12416102D01*
X7927461Y-12473245D02*
X7946508Y-12482769D01*
X7946508Y-12482769D02*
X7984604Y-12482769D01*
X7984604Y-12482769D02*
X8003651Y-12473245D01*
X8003651Y-12473245D02*
X8013175Y-12454198D01*
X8013175Y-12454198D02*
X8013175Y-12444674D01*
X8013175Y-12444674D02*
X8003651Y-12425626D01*
X8003651Y-12425626D02*
X7984604Y-12416102D01*
X7984604Y-12416102D02*
X7956032Y-12416102D01*
X7956032Y-12416102D02*
X7936985Y-12406579D01*
X7936985Y-12406579D02*
X7927461Y-12387531D01*
X7927461Y-12387531D02*
X7927461Y-12378007D01*
X7927461Y-12378007D02*
X7936985Y-12358959D01*
X7936985Y-12358959D02*
X7956032Y-12349436D01*
X7956032Y-12349436D02*
X7984604Y-12349436D01*
X7984604Y-12349436D02*
X8003651Y-12358959D01*
X8079842Y-12558959D02*
X8089366Y-12549436D01*
X8089366Y-12549436D02*
X8108413Y-12520864D01*
X8108413Y-12520864D02*
X8117937Y-12501817D01*
X8117937Y-12501817D02*
X8127461Y-12473245D01*
X8127461Y-12473245D02*
X8136985Y-12425626D01*
X8136985Y-12425626D02*
X8136985Y-12387531D01*
X8136985Y-12387531D02*
X8127461Y-12339912D01*
X8127461Y-12339912D02*
X8117937Y-12311340D01*
X8117937Y-12311340D02*
X8108413Y-12292293D01*
X8108413Y-12292293D02*
X8089366Y-12263721D01*
X8089366Y-12263721D02*
X8079842Y-12254198D01*
D15*
X3301942Y-12692861D02*
X3301942Y-12615630D01*
X3224711Y-12615630D01*
X3224711Y-12692861D01*
X3301942Y-12692861D01*
D11*
X3670317Y-12746769D02*
X3556032Y-12746769D01*
X3613175Y-12746769D02*
X3613175Y-12546769D01*
X3613175Y-12546769D02*
X3594127Y-12575340D01*
X3594127Y-12575340D02*
X3575079Y-12594388D01*
X3575079Y-12594388D02*
X3556032Y-12603912D01*
X3756032Y-12727721D02*
X3765556Y-12737245D01*
X3765556Y-12737245D02*
X3756032Y-12746769D01*
X3756032Y-12746769D02*
X3746508Y-12737245D01*
X3746508Y-12737245D02*
X3756032Y-12727721D01*
X3756032Y-12727721D02*
X3756032Y-12746769D01*
X3889365Y-12546769D02*
X3908413Y-12546769D01*
X3908413Y-12546769D02*
X3927460Y-12556293D01*
X3927460Y-12556293D02*
X3936984Y-12565817D01*
X3936984Y-12565817D02*
X3946508Y-12584864D01*
X3946508Y-12584864D02*
X3956032Y-12622959D01*
X3956032Y-12622959D02*
X3956032Y-12670579D01*
X3956032Y-12670579D02*
X3946508Y-12708674D01*
X3946508Y-12708674D02*
X3936984Y-12727721D01*
X3936984Y-12727721D02*
X3927460Y-12737245D01*
X3927460Y-12737245D02*
X3908413Y-12746769D01*
X3908413Y-12746769D02*
X3889365Y-12746769D01*
X3889365Y-12746769D02*
X3870317Y-12737245D01*
X3870317Y-12737245D02*
X3860794Y-12727721D01*
X3860794Y-12727721D02*
X3851270Y-12708674D01*
X3851270Y-12708674D02*
X3841746Y-12670579D01*
X3841746Y-12670579D02*
X3841746Y-12622959D01*
X3841746Y-12622959D02*
X3851270Y-12584864D01*
X3851270Y-12584864D02*
X3860794Y-12565817D01*
X3860794Y-12565817D02*
X3870317Y-12556293D01*
X3870317Y-12556293D02*
X3889365Y-12546769D01*
X4051270Y-12746769D02*
X4089365Y-12746769D01*
X4089365Y-12746769D02*
X4108413Y-12737245D01*
X4108413Y-12737245D02*
X4117937Y-12727721D01*
X4117937Y-12727721D02*
X4136984Y-12699150D01*
X4136984Y-12699150D02*
X4146508Y-12661055D01*
X4146508Y-12661055D02*
X4146508Y-12584864D01*
X4146508Y-12584864D02*
X4136984Y-12565817D01*
X4136984Y-12565817D02*
X4127460Y-12556293D01*
X4127460Y-12556293D02*
X4108413Y-12546769D01*
X4108413Y-12546769D02*
X4070317Y-12546769D01*
X4070317Y-12546769D02*
X4051270Y-12556293D01*
X4051270Y-12556293D02*
X4041746Y-12565817D01*
X4041746Y-12565817D02*
X4032222Y-12584864D01*
X4032222Y-12584864D02*
X4032222Y-12632483D01*
X4032222Y-12632483D02*
X4041746Y-12651531D01*
X4041746Y-12651531D02*
X4051270Y-12661055D01*
X4051270Y-12661055D02*
X4070317Y-12670579D01*
X4070317Y-12670579D02*
X4108413Y-12670579D01*
X4108413Y-12670579D02*
X4127460Y-12661055D01*
X4127460Y-12661055D02*
X4136984Y-12651531D01*
X4136984Y-12651531D02*
X4146508Y-12632483D01*
X4222699Y-12565817D02*
X4232222Y-12556293D01*
X4232222Y-12556293D02*
X4251270Y-12546769D01*
X4251270Y-12546769D02*
X4298889Y-12546769D01*
X4298889Y-12546769D02*
X4317937Y-12556293D01*
X4317937Y-12556293D02*
X4327460Y-12565817D01*
X4327460Y-12565817D02*
X4336984Y-12584864D01*
X4336984Y-12584864D02*
X4336984Y-12603912D01*
X4336984Y-12603912D02*
X4327460Y-12632483D01*
X4327460Y-12632483D02*
X4213175Y-12746769D01*
X4213175Y-12746769D02*
X4336984Y-12746769D01*
X4422699Y-12746769D02*
X4422699Y-12613436D01*
X4422699Y-12632483D02*
X4432222Y-12622959D01*
X4432222Y-12622959D02*
X4451270Y-12613436D01*
X4451270Y-12613436D02*
X4479841Y-12613436D01*
X4479841Y-12613436D02*
X4498889Y-12622959D01*
X4498889Y-12622959D02*
X4508413Y-12642007D01*
X4508413Y-12642007D02*
X4508413Y-12746769D01*
X4508413Y-12642007D02*
X4517937Y-12622959D01*
X4517937Y-12622959D02*
X4536984Y-12613436D01*
X4536984Y-12613436D02*
X4565556Y-12613436D01*
X4565556Y-12613436D02*
X4584603Y-12622959D01*
X4584603Y-12622959D02*
X4594127Y-12642007D01*
X4594127Y-12642007D02*
X4594127Y-12746769D01*
X4689365Y-12746769D02*
X4689365Y-12613436D01*
X4689365Y-12632483D02*
X4698889Y-12622959D01*
X4698889Y-12622959D02*
X4717937Y-12613436D01*
X4717937Y-12613436D02*
X4746508Y-12613436D01*
X4746508Y-12613436D02*
X4765556Y-12622959D01*
X4765556Y-12622959D02*
X4775080Y-12642007D01*
X4775080Y-12642007D02*
X4775080Y-12746769D01*
X4775080Y-12642007D02*
X4784603Y-12622959D01*
X4784603Y-12622959D02*
X4803651Y-12613436D01*
X4803651Y-12613436D02*
X4832222Y-12613436D01*
X4832222Y-12613436D02*
X4851270Y-12622959D01*
X4851270Y-12622959D02*
X4860794Y-12642007D01*
X4860794Y-12642007D02*
X4860794Y-12746769D01*
X5251270Y-12537245D02*
X5079842Y-12794388D01*
X5508413Y-12546769D02*
X5527461Y-12546769D01*
X5527461Y-12546769D02*
X5546508Y-12556293D01*
X5546508Y-12556293D02*
X5556032Y-12565817D01*
X5556032Y-12565817D02*
X5565556Y-12584864D01*
X5565556Y-12584864D02*
X5575080Y-12622959D01*
X5575080Y-12622959D02*
X5575080Y-12670579D01*
X5575080Y-12670579D02*
X5565556Y-12708674D01*
X5565556Y-12708674D02*
X5556032Y-12727721D01*
X5556032Y-12727721D02*
X5546508Y-12737245D01*
X5546508Y-12737245D02*
X5527461Y-12746769D01*
X5527461Y-12746769D02*
X5508413Y-12746769D01*
X5508413Y-12746769D02*
X5489365Y-12737245D01*
X5489365Y-12737245D02*
X5479842Y-12727721D01*
X5479842Y-12727721D02*
X5470318Y-12708674D01*
X5470318Y-12708674D02*
X5460794Y-12670579D01*
X5460794Y-12670579D02*
X5460794Y-12622959D01*
X5460794Y-12622959D02*
X5470318Y-12584864D01*
X5470318Y-12584864D02*
X5479842Y-12565817D01*
X5479842Y-12565817D02*
X5489365Y-12556293D01*
X5489365Y-12556293D02*
X5508413Y-12546769D01*
X5660794Y-12727721D02*
X5670318Y-12737245D01*
X5670318Y-12737245D02*
X5660794Y-12746769D01*
X5660794Y-12746769D02*
X5651270Y-12737245D01*
X5651270Y-12737245D02*
X5660794Y-12727721D01*
X5660794Y-12727721D02*
X5660794Y-12746769D01*
X5794127Y-12546769D02*
X5813175Y-12546769D01*
X5813175Y-12546769D02*
X5832222Y-12556293D01*
X5832222Y-12556293D02*
X5841746Y-12565817D01*
X5841746Y-12565817D02*
X5851270Y-12584864D01*
X5851270Y-12584864D02*
X5860794Y-12622959D01*
X5860794Y-12622959D02*
X5860794Y-12670579D01*
X5860794Y-12670579D02*
X5851270Y-12708674D01*
X5851270Y-12708674D02*
X5841746Y-12727721D01*
X5841746Y-12727721D02*
X5832222Y-12737245D01*
X5832222Y-12737245D02*
X5813175Y-12746769D01*
X5813175Y-12746769D02*
X5794127Y-12746769D01*
X5794127Y-12746769D02*
X5775080Y-12737245D01*
X5775080Y-12737245D02*
X5765556Y-12727721D01*
X5765556Y-12727721D02*
X5756032Y-12708674D01*
X5756032Y-12708674D02*
X5746508Y-12670579D01*
X5746508Y-12670579D02*
X5746508Y-12622959D01*
X5746508Y-12622959D02*
X5756032Y-12584864D01*
X5756032Y-12584864D02*
X5765556Y-12565817D01*
X5765556Y-12565817D02*
X5775080Y-12556293D01*
X5775080Y-12556293D02*
X5794127Y-12546769D01*
X6032222Y-12613436D02*
X6032222Y-12746769D01*
X5984603Y-12537245D02*
X5936984Y-12680102D01*
X5936984Y-12680102D02*
X6060794Y-12680102D01*
X6117937Y-12546769D02*
X6241746Y-12546769D01*
X6241746Y-12546769D02*
X6175080Y-12622959D01*
X6175080Y-12622959D02*
X6203651Y-12622959D01*
X6203651Y-12622959D02*
X6222699Y-12632483D01*
X6222699Y-12632483D02*
X6232222Y-12642007D01*
X6232222Y-12642007D02*
X6241746Y-12661055D01*
X6241746Y-12661055D02*
X6241746Y-12708674D01*
X6241746Y-12708674D02*
X6232222Y-12727721D01*
X6232222Y-12727721D02*
X6222699Y-12737245D01*
X6222699Y-12737245D02*
X6203651Y-12746769D01*
X6203651Y-12746769D02*
X6146508Y-12746769D01*
X6146508Y-12746769D02*
X6127461Y-12737245D01*
X6127461Y-12737245D02*
X6117937Y-12727721D01*
X6365556Y-12546769D02*
X6384603Y-12546769D01*
X6384603Y-12546769D02*
X6403651Y-12556293D01*
X6403651Y-12556293D02*
X6413175Y-12565817D01*
X6413175Y-12565817D02*
X6422699Y-12584864D01*
X6422699Y-12584864D02*
X6432222Y-12622959D01*
X6432222Y-12622959D02*
X6432222Y-12670579D01*
X6432222Y-12670579D02*
X6422699Y-12708674D01*
X6422699Y-12708674D02*
X6413175Y-12727721D01*
X6413175Y-12727721D02*
X6403651Y-12737245D01*
X6403651Y-12737245D02*
X6384603Y-12746769D01*
X6384603Y-12746769D02*
X6365556Y-12746769D01*
X6365556Y-12746769D02*
X6346508Y-12737245D01*
X6346508Y-12737245D02*
X6336984Y-12727721D01*
X6336984Y-12727721D02*
X6327461Y-12708674D01*
X6327461Y-12708674D02*
X6317937Y-12670579D01*
X6317937Y-12670579D02*
X6317937Y-12622959D01*
X6317937Y-12622959D02*
X6327461Y-12584864D01*
X6327461Y-12584864D02*
X6336984Y-12565817D01*
X6336984Y-12565817D02*
X6346508Y-12556293D01*
X6346508Y-12556293D02*
X6365556Y-12546769D01*
X6508413Y-12546769D02*
X6508413Y-12584864D01*
X6584603Y-12546769D02*
X6584603Y-12584864D01*
X6879842Y-12822959D02*
X6870318Y-12813436D01*
X6870318Y-12813436D02*
X6851270Y-12784864D01*
X6851270Y-12784864D02*
X6841746Y-12765817D01*
X6841746Y-12765817D02*
X6832223Y-12737245D01*
X6832223Y-12737245D02*
X6822699Y-12689626D01*
X6822699Y-12689626D02*
X6822699Y-12651531D01*
X6822699Y-12651531D02*
X6832223Y-12603912D01*
X6832223Y-12603912D02*
X6841746Y-12575340D01*
X6841746Y-12575340D02*
X6851270Y-12556293D01*
X6851270Y-12556293D02*
X6870318Y-12527721D01*
X6870318Y-12527721D02*
X6879842Y-12518198D01*
X6946508Y-12565817D02*
X6956032Y-12556293D01*
X6956032Y-12556293D02*
X6975080Y-12546769D01*
X6975080Y-12546769D02*
X7022699Y-12546769D01*
X7022699Y-12546769D02*
X7041746Y-12556293D01*
X7041746Y-12556293D02*
X7051270Y-12565817D01*
X7051270Y-12565817D02*
X7060794Y-12584864D01*
X7060794Y-12584864D02*
X7060794Y-12603912D01*
X7060794Y-12603912D02*
X7051270Y-12632483D01*
X7051270Y-12632483D02*
X6936984Y-12746769D01*
X6936984Y-12746769D02*
X7060794Y-12746769D01*
X7232223Y-12613436D02*
X7232223Y-12746769D01*
X7184603Y-12537245D02*
X7136984Y-12680102D01*
X7136984Y-12680102D02*
X7260794Y-12680102D01*
X7489365Y-12746769D02*
X7489365Y-12546769D01*
X7575080Y-12746769D02*
X7575080Y-12642007D01*
X7575080Y-12642007D02*
X7565556Y-12622959D01*
X7565556Y-12622959D02*
X7546508Y-12613436D01*
X7546508Y-12613436D02*
X7517937Y-12613436D01*
X7517937Y-12613436D02*
X7498889Y-12622959D01*
X7498889Y-12622959D02*
X7489365Y-12632483D01*
X7698889Y-12746769D02*
X7679842Y-12737245D01*
X7679842Y-12737245D02*
X7670318Y-12727721D01*
X7670318Y-12727721D02*
X7660794Y-12708674D01*
X7660794Y-12708674D02*
X7660794Y-12651531D01*
X7660794Y-12651531D02*
X7670318Y-12632483D01*
X7670318Y-12632483D02*
X7679842Y-12622959D01*
X7679842Y-12622959D02*
X7698889Y-12613436D01*
X7698889Y-12613436D02*
X7727461Y-12613436D01*
X7727461Y-12613436D02*
X7746508Y-12622959D01*
X7746508Y-12622959D02*
X7756032Y-12632483D01*
X7756032Y-12632483D02*
X7765556Y-12651531D01*
X7765556Y-12651531D02*
X7765556Y-12708674D01*
X7765556Y-12708674D02*
X7756032Y-12727721D01*
X7756032Y-12727721D02*
X7746508Y-12737245D01*
X7746508Y-12737245D02*
X7727461Y-12746769D01*
X7727461Y-12746769D02*
X7698889Y-12746769D01*
X7879842Y-12746769D02*
X7860794Y-12737245D01*
X7860794Y-12737245D02*
X7851270Y-12718198D01*
X7851270Y-12718198D02*
X7851270Y-12546769D01*
X8032223Y-12737245D02*
X8013175Y-12746769D01*
X8013175Y-12746769D02*
X7975080Y-12746769D01*
X7975080Y-12746769D02*
X7956032Y-12737245D01*
X7956032Y-12737245D02*
X7946508Y-12718198D01*
X7946508Y-12718198D02*
X7946508Y-12642007D01*
X7946508Y-12642007D02*
X7956032Y-12622959D01*
X7956032Y-12622959D02*
X7975080Y-12613436D01*
X7975080Y-12613436D02*
X8013175Y-12613436D01*
X8013175Y-12613436D02*
X8032223Y-12622959D01*
X8032223Y-12622959D02*
X8041746Y-12642007D01*
X8041746Y-12642007D02*
X8041746Y-12661055D01*
X8041746Y-12661055D02*
X7946508Y-12680102D01*
X8117937Y-12737245D02*
X8136985Y-12746769D01*
X8136985Y-12746769D02*
X8175080Y-12746769D01*
X8175080Y-12746769D02*
X8194127Y-12737245D01*
X8194127Y-12737245D02*
X8203651Y-12718198D01*
X8203651Y-12718198D02*
X8203651Y-12708674D01*
X8203651Y-12708674D02*
X8194127Y-12689626D01*
X8194127Y-12689626D02*
X8175080Y-12680102D01*
X8175080Y-12680102D02*
X8146508Y-12680102D01*
X8146508Y-12680102D02*
X8127461Y-12670579D01*
X8127461Y-12670579D02*
X8117937Y-12651531D01*
X8117937Y-12651531D02*
X8117937Y-12642007D01*
X8117937Y-12642007D02*
X8127461Y-12622959D01*
X8127461Y-12622959D02*
X8146508Y-12613436D01*
X8146508Y-12613436D02*
X8175080Y-12613436D01*
X8175080Y-12613436D02*
X8194127Y-12622959D01*
X8270318Y-12822959D02*
X8279842Y-12813436D01*
X8279842Y-12813436D02*
X8298889Y-12784864D01*
X8298889Y-12784864D02*
X8308413Y-12765817D01*
X8308413Y-12765817D02*
X8317937Y-12737245D01*
X8317937Y-12737245D02*
X8327461Y-12689626D01*
X8327461Y-12689626D02*
X8327461Y-12651531D01*
X8327461Y-12651531D02*
X8317937Y-12603912D01*
X8317937Y-12603912D02*
X8308413Y-12575340D01*
X8308413Y-12575340D02*
X8298889Y-12556293D01*
X8298889Y-12556293D02*
X8279842Y-12527721D01*
X8279842Y-12527721D02*
X8270318Y-12518198D01*
D16*
X3257937Y-12978245D02*
X3317937Y-12918245D01*
X3257937Y-12858245D01*
X3197937Y-12918245D01*
X3257937Y-12978245D01*
D11*
X3670317Y-13010769D02*
X3556032Y-13010769D01*
X3613175Y-13010769D02*
X3613175Y-12810769D01*
X3613175Y-12810769D02*
X3594127Y-12839340D01*
X3594127Y-12839340D02*
X3575079Y-12858388D01*
X3575079Y-12858388D02*
X3556032Y-12867912D01*
X3756032Y-12991721D02*
X3765556Y-13001245D01*
X3765556Y-13001245D02*
X3756032Y-13010769D01*
X3756032Y-13010769D02*
X3746508Y-13001245D01*
X3746508Y-13001245D02*
X3756032Y-12991721D01*
X3756032Y-12991721D02*
X3756032Y-13010769D01*
X3841746Y-12829817D02*
X3851270Y-12820293D01*
X3851270Y-12820293D02*
X3870317Y-12810769D01*
X3870317Y-12810769D02*
X3917937Y-12810769D01*
X3917937Y-12810769D02*
X3936984Y-12820293D01*
X3936984Y-12820293D02*
X3946508Y-12829817D01*
X3946508Y-12829817D02*
X3956032Y-12848864D01*
X3956032Y-12848864D02*
X3956032Y-12867912D01*
X3956032Y-12867912D02*
X3946508Y-12896483D01*
X3946508Y-12896483D02*
X3832222Y-13010769D01*
X3832222Y-13010769D02*
X3956032Y-13010769D01*
X4079841Y-12810769D02*
X4098889Y-12810769D01*
X4098889Y-12810769D02*
X4117937Y-12820293D01*
X4117937Y-12820293D02*
X4127460Y-12829817D01*
X4127460Y-12829817D02*
X4136984Y-12848864D01*
X4136984Y-12848864D02*
X4146508Y-12886959D01*
X4146508Y-12886959D02*
X4146508Y-12934579D01*
X4146508Y-12934579D02*
X4136984Y-12972674D01*
X4136984Y-12972674D02*
X4127460Y-12991721D01*
X4127460Y-12991721D02*
X4117937Y-13001245D01*
X4117937Y-13001245D02*
X4098889Y-13010769D01*
X4098889Y-13010769D02*
X4079841Y-13010769D01*
X4079841Y-13010769D02*
X4060794Y-13001245D01*
X4060794Y-13001245D02*
X4051270Y-12991721D01*
X4051270Y-12991721D02*
X4041746Y-12972674D01*
X4041746Y-12972674D02*
X4032222Y-12934579D01*
X4032222Y-12934579D02*
X4032222Y-12886959D01*
X4032222Y-12886959D02*
X4041746Y-12848864D01*
X4041746Y-12848864D02*
X4051270Y-12829817D01*
X4051270Y-12829817D02*
X4060794Y-12820293D01*
X4060794Y-12820293D02*
X4079841Y-12810769D01*
X4270318Y-12810769D02*
X4289365Y-12810769D01*
X4289365Y-12810769D02*
X4308413Y-12820293D01*
X4308413Y-12820293D02*
X4317937Y-12829817D01*
X4317937Y-12829817D02*
X4327460Y-12848864D01*
X4327460Y-12848864D02*
X4336984Y-12886959D01*
X4336984Y-12886959D02*
X4336984Y-12934579D01*
X4336984Y-12934579D02*
X4327460Y-12972674D01*
X4327460Y-12972674D02*
X4317937Y-12991721D01*
X4317937Y-12991721D02*
X4308413Y-13001245D01*
X4308413Y-13001245D02*
X4289365Y-13010769D01*
X4289365Y-13010769D02*
X4270318Y-13010769D01*
X4270318Y-13010769D02*
X4251270Y-13001245D01*
X4251270Y-13001245D02*
X4241746Y-12991721D01*
X4241746Y-12991721D02*
X4232222Y-12972674D01*
X4232222Y-12972674D02*
X4222699Y-12934579D01*
X4222699Y-12934579D02*
X4222699Y-12886959D01*
X4222699Y-12886959D02*
X4232222Y-12848864D01*
X4232222Y-12848864D02*
X4241746Y-12829817D01*
X4241746Y-12829817D02*
X4251270Y-12820293D01*
X4251270Y-12820293D02*
X4270318Y-12810769D01*
X4422699Y-13010769D02*
X4422699Y-12877436D01*
X4422699Y-12896483D02*
X4432222Y-12886959D01*
X4432222Y-12886959D02*
X4451270Y-12877436D01*
X4451270Y-12877436D02*
X4479841Y-12877436D01*
X4479841Y-12877436D02*
X4498889Y-12886959D01*
X4498889Y-12886959D02*
X4508413Y-12906007D01*
X4508413Y-12906007D02*
X4508413Y-13010769D01*
X4508413Y-12906007D02*
X4517937Y-12886959D01*
X4517937Y-12886959D02*
X4536984Y-12877436D01*
X4536984Y-12877436D02*
X4565556Y-12877436D01*
X4565556Y-12877436D02*
X4584603Y-12886959D01*
X4584603Y-12886959D02*
X4594127Y-12906007D01*
X4594127Y-12906007D02*
X4594127Y-13010769D01*
X4689365Y-13010769D02*
X4689365Y-12877436D01*
X4689365Y-12896483D02*
X4698889Y-12886959D01*
X4698889Y-12886959D02*
X4717937Y-12877436D01*
X4717937Y-12877436D02*
X4746508Y-12877436D01*
X4746508Y-12877436D02*
X4765556Y-12886959D01*
X4765556Y-12886959D02*
X4775080Y-12906007D01*
X4775080Y-12906007D02*
X4775080Y-13010769D01*
X4775080Y-12906007D02*
X4784603Y-12886959D01*
X4784603Y-12886959D02*
X4803651Y-12877436D01*
X4803651Y-12877436D02*
X4832222Y-12877436D01*
X4832222Y-12877436D02*
X4851270Y-12886959D01*
X4851270Y-12886959D02*
X4860794Y-12906007D01*
X4860794Y-12906007D02*
X4860794Y-13010769D01*
X5251270Y-12801245D02*
X5079842Y-13058388D01*
X5508413Y-12810769D02*
X5527461Y-12810769D01*
X5527461Y-12810769D02*
X5546508Y-12820293D01*
X5546508Y-12820293D02*
X5556032Y-12829817D01*
X5556032Y-12829817D02*
X5565556Y-12848864D01*
X5565556Y-12848864D02*
X5575080Y-12886959D01*
X5575080Y-12886959D02*
X5575080Y-12934579D01*
X5575080Y-12934579D02*
X5565556Y-12972674D01*
X5565556Y-12972674D02*
X5556032Y-12991721D01*
X5556032Y-12991721D02*
X5546508Y-13001245D01*
X5546508Y-13001245D02*
X5527461Y-13010769D01*
X5527461Y-13010769D02*
X5508413Y-13010769D01*
X5508413Y-13010769D02*
X5489365Y-13001245D01*
X5489365Y-13001245D02*
X5479842Y-12991721D01*
X5479842Y-12991721D02*
X5470318Y-12972674D01*
X5470318Y-12972674D02*
X5460794Y-12934579D01*
X5460794Y-12934579D02*
X5460794Y-12886959D01*
X5460794Y-12886959D02*
X5470318Y-12848864D01*
X5470318Y-12848864D02*
X5479842Y-12829817D01*
X5479842Y-12829817D02*
X5489365Y-12820293D01*
X5489365Y-12820293D02*
X5508413Y-12810769D01*
X5660794Y-12991721D02*
X5670318Y-13001245D01*
X5670318Y-13001245D02*
X5660794Y-13010769D01*
X5660794Y-13010769D02*
X5651270Y-13001245D01*
X5651270Y-13001245D02*
X5660794Y-12991721D01*
X5660794Y-12991721D02*
X5660794Y-13010769D01*
X5794127Y-12810769D02*
X5813175Y-12810769D01*
X5813175Y-12810769D02*
X5832222Y-12820293D01*
X5832222Y-12820293D02*
X5841746Y-12829817D01*
X5841746Y-12829817D02*
X5851270Y-12848864D01*
X5851270Y-12848864D02*
X5860794Y-12886959D01*
X5860794Y-12886959D02*
X5860794Y-12934579D01*
X5860794Y-12934579D02*
X5851270Y-12972674D01*
X5851270Y-12972674D02*
X5841746Y-12991721D01*
X5841746Y-12991721D02*
X5832222Y-13001245D01*
X5832222Y-13001245D02*
X5813175Y-13010769D01*
X5813175Y-13010769D02*
X5794127Y-13010769D01*
X5794127Y-13010769D02*
X5775080Y-13001245D01*
X5775080Y-13001245D02*
X5765556Y-12991721D01*
X5765556Y-12991721D02*
X5756032Y-12972674D01*
X5756032Y-12972674D02*
X5746508Y-12934579D01*
X5746508Y-12934579D02*
X5746508Y-12886959D01*
X5746508Y-12886959D02*
X5756032Y-12848864D01*
X5756032Y-12848864D02*
X5765556Y-12829817D01*
X5765556Y-12829817D02*
X5775080Y-12820293D01*
X5775080Y-12820293D02*
X5794127Y-12810769D01*
X6032222Y-12877436D02*
X6032222Y-13010769D01*
X5984603Y-12801245D02*
X5936984Y-12944102D01*
X5936984Y-12944102D02*
X6060794Y-12944102D01*
X6117937Y-12810769D02*
X6251270Y-12810769D01*
X6251270Y-12810769D02*
X6165556Y-13010769D01*
X6317937Y-12829817D02*
X6327461Y-12820293D01*
X6327461Y-12820293D02*
X6346508Y-12810769D01*
X6346508Y-12810769D02*
X6394127Y-12810769D01*
X6394127Y-12810769D02*
X6413175Y-12820293D01*
X6413175Y-12820293D02*
X6422699Y-12829817D01*
X6422699Y-12829817D02*
X6432222Y-12848864D01*
X6432222Y-12848864D02*
X6432222Y-12867912D01*
X6432222Y-12867912D02*
X6422699Y-12896483D01*
X6422699Y-12896483D02*
X6308413Y-13010769D01*
X6308413Y-13010769D02*
X6432222Y-13010769D01*
X6508413Y-12810769D02*
X6508413Y-12848864D01*
X6584603Y-12810769D02*
X6584603Y-12848864D01*
X6879842Y-13086959D02*
X6870318Y-13077436D01*
X6870318Y-13077436D02*
X6851270Y-13048864D01*
X6851270Y-13048864D02*
X6841746Y-13029817D01*
X6841746Y-13029817D02*
X6832223Y-13001245D01*
X6832223Y-13001245D02*
X6822699Y-12953626D01*
X6822699Y-12953626D02*
X6822699Y-12915531D01*
X6822699Y-12915531D02*
X6832223Y-12867912D01*
X6832223Y-12867912D02*
X6841746Y-12839340D01*
X6841746Y-12839340D02*
X6851270Y-12820293D01*
X6851270Y-12820293D02*
X6870318Y-12791721D01*
X6870318Y-12791721D02*
X6879842Y-12782198D01*
X7060794Y-13010769D02*
X6946508Y-13010769D01*
X7003651Y-13010769D02*
X7003651Y-12810769D01*
X7003651Y-12810769D02*
X6984603Y-12839340D01*
X6984603Y-12839340D02*
X6965556Y-12858388D01*
X6965556Y-12858388D02*
X6946508Y-12867912D01*
X7136984Y-12829817D02*
X7146508Y-12820293D01*
X7146508Y-12820293D02*
X7165556Y-12810769D01*
X7165556Y-12810769D02*
X7213175Y-12810769D01*
X7213175Y-12810769D02*
X7232223Y-12820293D01*
X7232223Y-12820293D02*
X7241746Y-12829817D01*
X7241746Y-12829817D02*
X7251270Y-12848864D01*
X7251270Y-12848864D02*
X7251270Y-12867912D01*
X7251270Y-12867912D02*
X7241746Y-12896483D01*
X7241746Y-12896483D02*
X7127461Y-13010769D01*
X7127461Y-13010769D02*
X7251270Y-13010769D01*
X7375080Y-12810769D02*
X7394127Y-12810769D01*
X7394127Y-12810769D02*
X7413175Y-12820293D01*
X7413175Y-12820293D02*
X7422699Y-12829817D01*
X7422699Y-12829817D02*
X7432223Y-12848864D01*
X7432223Y-12848864D02*
X7441746Y-12886959D01*
X7441746Y-12886959D02*
X7441746Y-12934579D01*
X7441746Y-12934579D02*
X7432223Y-12972674D01*
X7432223Y-12972674D02*
X7422699Y-12991721D01*
X7422699Y-12991721D02*
X7413175Y-13001245D01*
X7413175Y-13001245D02*
X7394127Y-13010769D01*
X7394127Y-13010769D02*
X7375080Y-13010769D01*
X7375080Y-13010769D02*
X7356032Y-13001245D01*
X7356032Y-13001245D02*
X7346508Y-12991721D01*
X7346508Y-12991721D02*
X7336984Y-12972674D01*
X7336984Y-12972674D02*
X7327461Y-12934579D01*
X7327461Y-12934579D02*
X7327461Y-12886959D01*
X7327461Y-12886959D02*
X7336984Y-12848864D01*
X7336984Y-12848864D02*
X7346508Y-12829817D01*
X7346508Y-12829817D02*
X7356032Y-12820293D01*
X7356032Y-12820293D02*
X7375080Y-12810769D01*
X7679842Y-13010769D02*
X7679842Y-12810769D01*
X7765556Y-13010769D02*
X7765556Y-12906007D01*
X7765556Y-12906007D02*
X7756032Y-12886959D01*
X7756032Y-12886959D02*
X7736985Y-12877436D01*
X7736985Y-12877436D02*
X7708413Y-12877436D01*
X7708413Y-12877436D02*
X7689365Y-12886959D01*
X7689365Y-12886959D02*
X7679842Y-12896483D01*
X7889365Y-13010769D02*
X7870318Y-13001245D01*
X7870318Y-13001245D02*
X7860794Y-12991721D01*
X7860794Y-12991721D02*
X7851270Y-12972674D01*
X7851270Y-12972674D02*
X7851270Y-12915531D01*
X7851270Y-12915531D02*
X7860794Y-12896483D01*
X7860794Y-12896483D02*
X7870318Y-12886959D01*
X7870318Y-12886959D02*
X7889365Y-12877436D01*
X7889365Y-12877436D02*
X7917937Y-12877436D01*
X7917937Y-12877436D02*
X7936985Y-12886959D01*
X7936985Y-12886959D02*
X7946508Y-12896483D01*
X7946508Y-12896483D02*
X7956032Y-12915531D01*
X7956032Y-12915531D02*
X7956032Y-12972674D01*
X7956032Y-12972674D02*
X7946508Y-12991721D01*
X7946508Y-12991721D02*
X7936985Y-13001245D01*
X7936985Y-13001245D02*
X7917937Y-13010769D01*
X7917937Y-13010769D02*
X7889365Y-13010769D01*
X8070318Y-13010769D02*
X8051270Y-13001245D01*
X8051270Y-13001245D02*
X8041746Y-12982198D01*
X8041746Y-12982198D02*
X8041746Y-12810769D01*
X8222699Y-13001245D02*
X8203651Y-13010769D01*
X8203651Y-13010769D02*
X8165556Y-13010769D01*
X8165556Y-13010769D02*
X8146508Y-13001245D01*
X8146508Y-13001245D02*
X8136985Y-12982198D01*
X8136985Y-12982198D02*
X8136985Y-12906007D01*
X8136985Y-12906007D02*
X8146508Y-12886959D01*
X8146508Y-12886959D02*
X8165556Y-12877436D01*
X8165556Y-12877436D02*
X8203651Y-12877436D01*
X8203651Y-12877436D02*
X8222699Y-12886959D01*
X8222699Y-12886959D02*
X8232223Y-12906007D01*
X8232223Y-12906007D02*
X8232223Y-12925055D01*
X8232223Y-12925055D02*
X8136985Y-12944102D01*
X8308413Y-13001245D02*
X8327461Y-13010769D01*
X8327461Y-13010769D02*
X8365556Y-13010769D01*
X8365556Y-13010769D02*
X8384604Y-13001245D01*
X8384604Y-13001245D02*
X8394128Y-12982198D01*
X8394128Y-12982198D02*
X8394128Y-12972674D01*
X8394128Y-12972674D02*
X8384604Y-12953626D01*
X8384604Y-12953626D02*
X8365556Y-12944102D01*
X8365556Y-12944102D02*
X8336985Y-12944102D01*
X8336985Y-12944102D02*
X8317937Y-12934579D01*
X8317937Y-12934579D02*
X8308413Y-12915531D01*
X8308413Y-12915531D02*
X8308413Y-12906007D01*
X8308413Y-12906007D02*
X8317937Y-12886959D01*
X8317937Y-12886959D02*
X8336985Y-12877436D01*
X8336985Y-12877436D02*
X8365556Y-12877436D01*
X8365556Y-12877436D02*
X8384604Y-12886959D01*
X8460794Y-13086959D02*
X8470318Y-13077436D01*
X8470318Y-13077436D02*
X8489366Y-13048864D01*
X8489366Y-13048864D02*
X8498889Y-13029817D01*
X8498889Y-13029817D02*
X8508413Y-13001245D01*
X8508413Y-13001245D02*
X8517937Y-12953626D01*
X8517937Y-12953626D02*
X8517937Y-12915531D01*
X8517937Y-12915531D02*
X8508413Y-12867912D01*
X8508413Y-12867912D02*
X8498889Y-12839340D01*
X8498889Y-12839340D02*
X8489366Y-12820293D01*
X8489366Y-12820293D02*
X8470318Y-12791721D01*
X8470318Y-12791721D02*
X8460794Y-12782198D01*
X3117937Y-13082245D02*
X3317937Y-13282245D01*
X3317937Y-13082245D02*
X3117937Y-13282245D01*
X3317937Y-13182245D02*
G75*
G03*
X3317937Y-13182245I-100000J0D01*
G01*
X3556032Y-13093817D02*
X3565556Y-13084293D01*
X3565556Y-13084293D02*
X3584603Y-13074769D01*
X3584603Y-13074769D02*
X3632222Y-13074769D01*
X3632222Y-13074769D02*
X3651270Y-13084293D01*
X3651270Y-13084293D02*
X3660794Y-13093817D01*
X3660794Y-13093817D02*
X3670317Y-13112864D01*
X3670317Y-13112864D02*
X3670317Y-13131912D01*
X3670317Y-13131912D02*
X3660794Y-13160483D01*
X3660794Y-13160483D02*
X3546508Y-13274769D01*
X3546508Y-13274769D02*
X3670317Y-13274769D01*
X3756032Y-13255721D02*
X3765556Y-13265245D01*
X3765556Y-13265245D02*
X3756032Y-13274769D01*
X3756032Y-13274769D02*
X3746508Y-13265245D01*
X3746508Y-13265245D02*
X3756032Y-13255721D01*
X3756032Y-13255721D02*
X3756032Y-13274769D01*
X3841746Y-13093817D02*
X3851270Y-13084293D01*
X3851270Y-13084293D02*
X3870317Y-13074769D01*
X3870317Y-13074769D02*
X3917937Y-13074769D01*
X3917937Y-13074769D02*
X3936984Y-13084293D01*
X3936984Y-13084293D02*
X3946508Y-13093817D01*
X3946508Y-13093817D02*
X3956032Y-13112864D01*
X3956032Y-13112864D02*
X3956032Y-13131912D01*
X3956032Y-13131912D02*
X3946508Y-13160483D01*
X3946508Y-13160483D02*
X3832222Y-13274769D01*
X3832222Y-13274769D02*
X3956032Y-13274769D01*
X4079841Y-13074769D02*
X4098889Y-13074769D01*
X4098889Y-13074769D02*
X4117937Y-13084293D01*
X4117937Y-13084293D02*
X4127460Y-13093817D01*
X4127460Y-13093817D02*
X4136984Y-13112864D01*
X4136984Y-13112864D02*
X4146508Y-13150959D01*
X4146508Y-13150959D02*
X4146508Y-13198579D01*
X4146508Y-13198579D02*
X4136984Y-13236674D01*
X4136984Y-13236674D02*
X4127460Y-13255721D01*
X4127460Y-13255721D02*
X4117937Y-13265245D01*
X4117937Y-13265245D02*
X4098889Y-13274769D01*
X4098889Y-13274769D02*
X4079841Y-13274769D01*
X4079841Y-13274769D02*
X4060794Y-13265245D01*
X4060794Y-13265245D02*
X4051270Y-13255721D01*
X4051270Y-13255721D02*
X4041746Y-13236674D01*
X4041746Y-13236674D02*
X4032222Y-13198579D01*
X4032222Y-13198579D02*
X4032222Y-13150959D01*
X4032222Y-13150959D02*
X4041746Y-13112864D01*
X4041746Y-13112864D02*
X4051270Y-13093817D01*
X4051270Y-13093817D02*
X4060794Y-13084293D01*
X4060794Y-13084293D02*
X4079841Y-13074769D01*
X4270318Y-13074769D02*
X4289365Y-13074769D01*
X4289365Y-13074769D02*
X4308413Y-13084293D01*
X4308413Y-13084293D02*
X4317937Y-13093817D01*
X4317937Y-13093817D02*
X4327460Y-13112864D01*
X4327460Y-13112864D02*
X4336984Y-13150959D01*
X4336984Y-13150959D02*
X4336984Y-13198579D01*
X4336984Y-13198579D02*
X4327460Y-13236674D01*
X4327460Y-13236674D02*
X4317937Y-13255721D01*
X4317937Y-13255721D02*
X4308413Y-13265245D01*
X4308413Y-13265245D02*
X4289365Y-13274769D01*
X4289365Y-13274769D02*
X4270318Y-13274769D01*
X4270318Y-13274769D02*
X4251270Y-13265245D01*
X4251270Y-13265245D02*
X4241746Y-13255721D01*
X4241746Y-13255721D02*
X4232222Y-13236674D01*
X4232222Y-13236674D02*
X4222699Y-13198579D01*
X4222699Y-13198579D02*
X4222699Y-13150959D01*
X4222699Y-13150959D02*
X4232222Y-13112864D01*
X4232222Y-13112864D02*
X4241746Y-13093817D01*
X4241746Y-13093817D02*
X4251270Y-13084293D01*
X4251270Y-13084293D02*
X4270318Y-13074769D01*
X4422699Y-13274769D02*
X4422699Y-13141436D01*
X4422699Y-13160483D02*
X4432222Y-13150959D01*
X4432222Y-13150959D02*
X4451270Y-13141436D01*
X4451270Y-13141436D02*
X4479841Y-13141436D01*
X4479841Y-13141436D02*
X4498889Y-13150959D01*
X4498889Y-13150959D02*
X4508413Y-13170007D01*
X4508413Y-13170007D02*
X4508413Y-13274769D01*
X4508413Y-13170007D02*
X4517937Y-13150959D01*
X4517937Y-13150959D02*
X4536984Y-13141436D01*
X4536984Y-13141436D02*
X4565556Y-13141436D01*
X4565556Y-13141436D02*
X4584603Y-13150959D01*
X4584603Y-13150959D02*
X4594127Y-13170007D01*
X4594127Y-13170007D02*
X4594127Y-13274769D01*
X4689365Y-13274769D02*
X4689365Y-13141436D01*
X4689365Y-13160483D02*
X4698889Y-13150959D01*
X4698889Y-13150959D02*
X4717937Y-13141436D01*
X4717937Y-13141436D02*
X4746508Y-13141436D01*
X4746508Y-13141436D02*
X4765556Y-13150959D01*
X4765556Y-13150959D02*
X4775080Y-13170007D01*
X4775080Y-13170007D02*
X4775080Y-13274769D01*
X4775080Y-13170007D02*
X4784603Y-13150959D01*
X4784603Y-13150959D02*
X4803651Y-13141436D01*
X4803651Y-13141436D02*
X4832222Y-13141436D01*
X4832222Y-13141436D02*
X4851270Y-13150959D01*
X4851270Y-13150959D02*
X4860794Y-13170007D01*
X4860794Y-13170007D02*
X4860794Y-13274769D01*
X5251270Y-13065245D02*
X5079842Y-13322388D01*
X5508413Y-13074769D02*
X5527461Y-13074769D01*
X5527461Y-13074769D02*
X5546508Y-13084293D01*
X5546508Y-13084293D02*
X5556032Y-13093817D01*
X5556032Y-13093817D02*
X5565556Y-13112864D01*
X5565556Y-13112864D02*
X5575080Y-13150959D01*
X5575080Y-13150959D02*
X5575080Y-13198579D01*
X5575080Y-13198579D02*
X5565556Y-13236674D01*
X5565556Y-13236674D02*
X5556032Y-13255721D01*
X5556032Y-13255721D02*
X5546508Y-13265245D01*
X5546508Y-13265245D02*
X5527461Y-13274769D01*
X5527461Y-13274769D02*
X5508413Y-13274769D01*
X5508413Y-13274769D02*
X5489365Y-13265245D01*
X5489365Y-13265245D02*
X5479842Y-13255721D01*
X5479842Y-13255721D02*
X5470318Y-13236674D01*
X5470318Y-13236674D02*
X5460794Y-13198579D01*
X5460794Y-13198579D02*
X5460794Y-13150959D01*
X5460794Y-13150959D02*
X5470318Y-13112864D01*
X5470318Y-13112864D02*
X5479842Y-13093817D01*
X5479842Y-13093817D02*
X5489365Y-13084293D01*
X5489365Y-13084293D02*
X5508413Y-13074769D01*
X5660794Y-13255721D02*
X5670318Y-13265245D01*
X5670318Y-13265245D02*
X5660794Y-13274769D01*
X5660794Y-13274769D02*
X5651270Y-13265245D01*
X5651270Y-13265245D02*
X5660794Y-13255721D01*
X5660794Y-13255721D02*
X5660794Y-13274769D01*
X5794127Y-13074769D02*
X5813175Y-13074769D01*
X5813175Y-13074769D02*
X5832222Y-13084293D01*
X5832222Y-13084293D02*
X5841746Y-13093817D01*
X5841746Y-13093817D02*
X5851270Y-13112864D01*
X5851270Y-13112864D02*
X5860794Y-13150959D01*
X5860794Y-13150959D02*
X5860794Y-13198579D01*
X5860794Y-13198579D02*
X5851270Y-13236674D01*
X5851270Y-13236674D02*
X5841746Y-13255721D01*
X5841746Y-13255721D02*
X5832222Y-13265245D01*
X5832222Y-13265245D02*
X5813175Y-13274769D01*
X5813175Y-13274769D02*
X5794127Y-13274769D01*
X5794127Y-13274769D02*
X5775080Y-13265245D01*
X5775080Y-13265245D02*
X5765556Y-13255721D01*
X5765556Y-13255721D02*
X5756032Y-13236674D01*
X5756032Y-13236674D02*
X5746508Y-13198579D01*
X5746508Y-13198579D02*
X5746508Y-13150959D01*
X5746508Y-13150959D02*
X5756032Y-13112864D01*
X5756032Y-13112864D02*
X5765556Y-13093817D01*
X5765556Y-13093817D02*
X5775080Y-13084293D01*
X5775080Y-13084293D02*
X5794127Y-13074769D01*
X5975080Y-13160483D02*
X5956032Y-13150959D01*
X5956032Y-13150959D02*
X5946508Y-13141436D01*
X5946508Y-13141436D02*
X5936984Y-13122388D01*
X5936984Y-13122388D02*
X5936984Y-13112864D01*
X5936984Y-13112864D02*
X5946508Y-13093817D01*
X5946508Y-13093817D02*
X5956032Y-13084293D01*
X5956032Y-13084293D02*
X5975080Y-13074769D01*
X5975080Y-13074769D02*
X6013175Y-13074769D01*
X6013175Y-13074769D02*
X6032222Y-13084293D01*
X6032222Y-13084293D02*
X6041746Y-13093817D01*
X6041746Y-13093817D02*
X6051270Y-13112864D01*
X6051270Y-13112864D02*
X6051270Y-13122388D01*
X6051270Y-13122388D02*
X6041746Y-13141436D01*
X6041746Y-13141436D02*
X6032222Y-13150959D01*
X6032222Y-13150959D02*
X6013175Y-13160483D01*
X6013175Y-13160483D02*
X5975080Y-13160483D01*
X5975080Y-13160483D02*
X5956032Y-13170007D01*
X5956032Y-13170007D02*
X5946508Y-13179531D01*
X5946508Y-13179531D02*
X5936984Y-13198579D01*
X5936984Y-13198579D02*
X5936984Y-13236674D01*
X5936984Y-13236674D02*
X5946508Y-13255721D01*
X5946508Y-13255721D02*
X5956032Y-13265245D01*
X5956032Y-13265245D02*
X5975080Y-13274769D01*
X5975080Y-13274769D02*
X6013175Y-13274769D01*
X6013175Y-13274769D02*
X6032222Y-13265245D01*
X6032222Y-13265245D02*
X6041746Y-13255721D01*
X6041746Y-13255721D02*
X6051270Y-13236674D01*
X6051270Y-13236674D02*
X6051270Y-13198579D01*
X6051270Y-13198579D02*
X6041746Y-13179531D01*
X6041746Y-13179531D02*
X6032222Y-13170007D01*
X6032222Y-13170007D02*
X6013175Y-13160483D01*
X6222699Y-13074769D02*
X6184603Y-13074769D01*
X6184603Y-13074769D02*
X6165556Y-13084293D01*
X6165556Y-13084293D02*
X6156032Y-13093817D01*
X6156032Y-13093817D02*
X6136984Y-13122388D01*
X6136984Y-13122388D02*
X6127461Y-13160483D01*
X6127461Y-13160483D02*
X6127461Y-13236674D01*
X6127461Y-13236674D02*
X6136984Y-13255721D01*
X6136984Y-13255721D02*
X6146508Y-13265245D01*
X6146508Y-13265245D02*
X6165556Y-13274769D01*
X6165556Y-13274769D02*
X6203651Y-13274769D01*
X6203651Y-13274769D02*
X6222699Y-13265245D01*
X6222699Y-13265245D02*
X6232222Y-13255721D01*
X6232222Y-13255721D02*
X6241746Y-13236674D01*
X6241746Y-13236674D02*
X6241746Y-13189055D01*
X6241746Y-13189055D02*
X6232222Y-13170007D01*
X6232222Y-13170007D02*
X6222699Y-13160483D01*
X6222699Y-13160483D02*
X6203651Y-13150959D01*
X6203651Y-13150959D02*
X6165556Y-13150959D01*
X6165556Y-13150959D02*
X6146508Y-13160483D01*
X6146508Y-13160483D02*
X6136984Y-13170007D01*
X6136984Y-13170007D02*
X6127461Y-13189055D01*
X6413175Y-13074769D02*
X6375080Y-13074769D01*
X6375080Y-13074769D02*
X6356032Y-13084293D01*
X6356032Y-13084293D02*
X6346508Y-13093817D01*
X6346508Y-13093817D02*
X6327461Y-13122388D01*
X6327461Y-13122388D02*
X6317937Y-13160483D01*
X6317937Y-13160483D02*
X6317937Y-13236674D01*
X6317937Y-13236674D02*
X6327461Y-13255721D01*
X6327461Y-13255721D02*
X6336984Y-13265245D01*
X6336984Y-13265245D02*
X6356032Y-13274769D01*
X6356032Y-13274769D02*
X6394127Y-13274769D01*
X6394127Y-13274769D02*
X6413175Y-13265245D01*
X6413175Y-13265245D02*
X6422699Y-13255721D01*
X6422699Y-13255721D02*
X6432222Y-13236674D01*
X6432222Y-13236674D02*
X6432222Y-13189055D01*
X6432222Y-13189055D02*
X6422699Y-13170007D01*
X6422699Y-13170007D02*
X6413175Y-13160483D01*
X6413175Y-13160483D02*
X6394127Y-13150959D01*
X6394127Y-13150959D02*
X6356032Y-13150959D01*
X6356032Y-13150959D02*
X6336984Y-13160483D01*
X6336984Y-13160483D02*
X6327461Y-13170007D01*
X6327461Y-13170007D02*
X6317937Y-13189055D01*
X6508413Y-13074769D02*
X6508413Y-13112864D01*
X6584603Y-13074769D02*
X6584603Y-13112864D01*
X6879842Y-13350959D02*
X6870318Y-13341436D01*
X6870318Y-13341436D02*
X6851270Y-13312864D01*
X6851270Y-13312864D02*
X6841746Y-13293817D01*
X6841746Y-13293817D02*
X6832223Y-13265245D01*
X6832223Y-13265245D02*
X6822699Y-13217626D01*
X6822699Y-13217626D02*
X6822699Y-13179531D01*
X6822699Y-13179531D02*
X6832223Y-13131912D01*
X6832223Y-13131912D02*
X6841746Y-13103340D01*
X6841746Y-13103340D02*
X6851270Y-13084293D01*
X6851270Y-13084293D02*
X6870318Y-13055721D01*
X6870318Y-13055721D02*
X6879842Y-13046198D01*
X7041746Y-13074769D02*
X7003651Y-13074769D01*
X7003651Y-13074769D02*
X6984603Y-13084293D01*
X6984603Y-13084293D02*
X6975080Y-13093817D01*
X6975080Y-13093817D02*
X6956032Y-13122388D01*
X6956032Y-13122388D02*
X6946508Y-13160483D01*
X6946508Y-13160483D02*
X6946508Y-13236674D01*
X6946508Y-13236674D02*
X6956032Y-13255721D01*
X6956032Y-13255721D02*
X6965556Y-13265245D01*
X6965556Y-13265245D02*
X6984603Y-13274769D01*
X6984603Y-13274769D02*
X7022699Y-13274769D01*
X7022699Y-13274769D02*
X7041746Y-13265245D01*
X7041746Y-13265245D02*
X7051270Y-13255721D01*
X7051270Y-13255721D02*
X7060794Y-13236674D01*
X7060794Y-13236674D02*
X7060794Y-13189055D01*
X7060794Y-13189055D02*
X7051270Y-13170007D01*
X7051270Y-13170007D02*
X7041746Y-13160483D01*
X7041746Y-13160483D02*
X7022699Y-13150959D01*
X7022699Y-13150959D02*
X6984603Y-13150959D01*
X6984603Y-13150959D02*
X6965556Y-13160483D01*
X6965556Y-13160483D02*
X6956032Y-13170007D01*
X6956032Y-13170007D02*
X6946508Y-13189055D01*
X7298889Y-13274769D02*
X7298889Y-13074769D01*
X7384604Y-13274769D02*
X7384604Y-13170007D01*
X7384604Y-13170007D02*
X7375080Y-13150959D01*
X7375080Y-13150959D02*
X7356032Y-13141436D01*
X7356032Y-13141436D02*
X7327461Y-13141436D01*
X7327461Y-13141436D02*
X7308413Y-13150959D01*
X7308413Y-13150959D02*
X7298889Y-13160483D01*
X7508413Y-13274769D02*
X7489365Y-13265245D01*
X7489365Y-13265245D02*
X7479842Y-13255721D01*
X7479842Y-13255721D02*
X7470318Y-13236674D01*
X7470318Y-13236674D02*
X7470318Y-13179531D01*
X7470318Y-13179531D02*
X7479842Y-13160483D01*
X7479842Y-13160483D02*
X7489365Y-13150959D01*
X7489365Y-13150959D02*
X7508413Y-13141436D01*
X7508413Y-13141436D02*
X7536985Y-13141436D01*
X7536985Y-13141436D02*
X7556032Y-13150959D01*
X7556032Y-13150959D02*
X7565556Y-13160483D01*
X7565556Y-13160483D02*
X7575080Y-13179531D01*
X7575080Y-13179531D02*
X7575080Y-13236674D01*
X7575080Y-13236674D02*
X7565556Y-13255721D01*
X7565556Y-13255721D02*
X7556032Y-13265245D01*
X7556032Y-13265245D02*
X7536985Y-13274769D01*
X7536985Y-13274769D02*
X7508413Y-13274769D01*
X7689365Y-13274769D02*
X7670318Y-13265245D01*
X7670318Y-13265245D02*
X7660794Y-13246198D01*
X7660794Y-13246198D02*
X7660794Y-13074769D01*
X7841746Y-13265245D02*
X7822699Y-13274769D01*
X7822699Y-13274769D02*
X7784604Y-13274769D01*
X7784604Y-13274769D02*
X7765556Y-13265245D01*
X7765556Y-13265245D02*
X7756032Y-13246198D01*
X7756032Y-13246198D02*
X7756032Y-13170007D01*
X7756032Y-13170007D02*
X7765556Y-13150959D01*
X7765556Y-13150959D02*
X7784604Y-13141436D01*
X7784604Y-13141436D02*
X7822699Y-13141436D01*
X7822699Y-13141436D02*
X7841746Y-13150959D01*
X7841746Y-13150959D02*
X7851270Y-13170007D01*
X7851270Y-13170007D02*
X7851270Y-13189055D01*
X7851270Y-13189055D02*
X7756032Y-13208102D01*
X7927461Y-13265245D02*
X7946508Y-13274769D01*
X7946508Y-13274769D02*
X7984604Y-13274769D01*
X7984604Y-13274769D02*
X8003651Y-13265245D01*
X8003651Y-13265245D02*
X8013175Y-13246198D01*
X8013175Y-13246198D02*
X8013175Y-13236674D01*
X8013175Y-13236674D02*
X8003651Y-13217626D01*
X8003651Y-13217626D02*
X7984604Y-13208102D01*
X7984604Y-13208102D02*
X7956032Y-13208102D01*
X7956032Y-13208102D02*
X7936985Y-13198579D01*
X7936985Y-13198579D02*
X7927461Y-13179531D01*
X7927461Y-13179531D02*
X7927461Y-13170007D01*
X7927461Y-13170007D02*
X7936985Y-13150959D01*
X7936985Y-13150959D02*
X7956032Y-13141436D01*
X7956032Y-13141436D02*
X7984604Y-13141436D01*
X7984604Y-13141436D02*
X8003651Y-13150959D01*
X8079842Y-13350959D02*
X8089366Y-13341436D01*
X8089366Y-13341436D02*
X8108413Y-13312864D01*
X8108413Y-13312864D02*
X8117937Y-13293817D01*
X8117937Y-13293817D02*
X8127461Y-13265245D01*
X8127461Y-13265245D02*
X8136985Y-13217626D01*
X8136985Y-13217626D02*
X8136985Y-13179531D01*
X8136985Y-13179531D02*
X8127461Y-13131912D01*
X8127461Y-13131912D02*
X8117937Y-13103340D01*
X8117937Y-13103340D02*
X8108413Y-13084293D01*
X8108413Y-13084293D02*
X8089366Y-13055721D01*
X8089366Y-13055721D02*
X8079842Y-13046198D01*
M02*
