G04 #@! TF.GenerationSoftware,KiCad,Pcbnew,7.0.1*
G04 #@! TF.CreationDate,2023-04-06T14:22:37+02:00*
G04 #@! TF.ProjectId,velociraptor,76656c6f-6369-4726-9170-746f722e6b69,rev?*
G04 #@! TF.SameCoordinates,Original*
G04 #@! TF.FileFunction,Legend,Bot*
G04 #@! TF.FilePolarity,Positive*
%FSLAX46Y46*%
G04 Gerber Fmt 4.6, Leading zero omitted, Abs format (unit mm)*
G04 Created by KiCad (PCBNEW 7.0.1) date 2023-04-06 14:22:37*
%MOMM*%
%LPD*%
G01*
G04 APERTURE LIST*
%ADD10C,0.150000*%
%ADD11C,0.381000*%
%ADD12R,1.752600X1.752600*%
%ADD13C,1.752600*%
%ADD14R,1.600000X1.600000*%
%ADD15O,1.600000X1.600000*%
%ADD16C,1.700000*%
%ADD17C,3.400000*%
%ADD18C,2.000000*%
%ADD19R,1.700000X1.700000*%
%ADD20O,1.700000X1.700000*%
G04 APERTURE END LIST*
D10*
X85112054Y-43186845D02*
X85112054Y-42386845D01*
X85112054Y-42386845D02*
X84921578Y-42386845D01*
X84921578Y-42386845D02*
X84807292Y-42424940D01*
X84807292Y-42424940D02*
X84731102Y-42501130D01*
X84731102Y-42501130D02*
X84693007Y-42577321D01*
X84693007Y-42577321D02*
X84654911Y-42729702D01*
X84654911Y-42729702D02*
X84654911Y-42843988D01*
X84654911Y-42843988D02*
X84693007Y-42996369D01*
X84693007Y-42996369D02*
X84731102Y-43072559D01*
X84731102Y-43072559D02*
X84807292Y-43148750D01*
X84807292Y-43148750D02*
X84921578Y-43186845D01*
X84921578Y-43186845D02*
X85112054Y-43186845D01*
X84159673Y-42386845D02*
X84083483Y-42386845D01*
X84083483Y-42386845D02*
X84007292Y-42424940D01*
X84007292Y-42424940D02*
X83969197Y-42463035D01*
X83969197Y-42463035D02*
X83931102Y-42539226D01*
X83931102Y-42539226D02*
X83893007Y-42691607D01*
X83893007Y-42691607D02*
X83893007Y-42882083D01*
X83893007Y-42882083D02*
X83931102Y-43034464D01*
X83931102Y-43034464D02*
X83969197Y-43110654D01*
X83969197Y-43110654D02*
X84007292Y-43148750D01*
X84007292Y-43148750D02*
X84083483Y-43186845D01*
X84083483Y-43186845D02*
X84159673Y-43186845D01*
X84159673Y-43186845D02*
X84235864Y-43148750D01*
X84235864Y-43148750D02*
X84273959Y-43110654D01*
X84273959Y-43110654D02*
X84312054Y-43034464D01*
X84312054Y-43034464D02*
X84350150Y-42882083D01*
X84350150Y-42882083D02*
X84350150Y-42691607D01*
X84350150Y-42691607D02*
X84312054Y-42539226D01*
X84312054Y-42539226D02*
X84273959Y-42463035D01*
X84273959Y-42463035D02*
X84235864Y-42424940D01*
X84235864Y-42424940D02*
X84159673Y-42386845D01*
X74704345Y-38520495D02*
X74437678Y-39320495D01*
X74437678Y-39320495D02*
X74171012Y-38520495D01*
X73447202Y-39244304D02*
X73485298Y-39282400D01*
X73485298Y-39282400D02*
X73599583Y-39320495D01*
X73599583Y-39320495D02*
X73675774Y-39320495D01*
X73675774Y-39320495D02*
X73790060Y-39282400D01*
X73790060Y-39282400D02*
X73866250Y-39206209D01*
X73866250Y-39206209D02*
X73904345Y-39130019D01*
X73904345Y-39130019D02*
X73942441Y-38977638D01*
X73942441Y-38977638D02*
X73942441Y-38863352D01*
X73942441Y-38863352D02*
X73904345Y-38710971D01*
X73904345Y-38710971D02*
X73866250Y-38634780D01*
X73866250Y-38634780D02*
X73790060Y-38558590D01*
X73790060Y-38558590D02*
X73675774Y-38520495D01*
X73675774Y-38520495D02*
X73599583Y-38520495D01*
X73599583Y-38520495D02*
X73485298Y-38558590D01*
X73485298Y-38558590D02*
X73447202Y-38596685D01*
X72647202Y-39244304D02*
X72685298Y-39282400D01*
X72685298Y-39282400D02*
X72799583Y-39320495D01*
X72799583Y-39320495D02*
X72875774Y-39320495D01*
X72875774Y-39320495D02*
X72990060Y-39282400D01*
X72990060Y-39282400D02*
X73066250Y-39206209D01*
X73066250Y-39206209D02*
X73104345Y-39130019D01*
X73104345Y-39130019D02*
X73142441Y-38977638D01*
X73142441Y-38977638D02*
X73142441Y-38863352D01*
X73142441Y-38863352D02*
X73104345Y-38710971D01*
X73104345Y-38710971D02*
X73066250Y-38634780D01*
X73066250Y-38634780D02*
X72990060Y-38558590D01*
X72990060Y-38558590D02*
X72875774Y-38520495D01*
X72875774Y-38520495D02*
X72799583Y-38520495D01*
X72799583Y-38520495D02*
X72685298Y-38558590D01*
X72685298Y-38558590D02*
X72647202Y-38596685D01*
X73923388Y-58007797D02*
X73809102Y-58045892D01*
X73809102Y-58045892D02*
X73771007Y-58083988D01*
X73771007Y-58083988D02*
X73732911Y-58160178D01*
X73732911Y-58160178D02*
X73732911Y-58274464D01*
X73732911Y-58274464D02*
X73771007Y-58350654D01*
X73771007Y-58350654D02*
X73809102Y-58388750D01*
X73809102Y-58388750D02*
X73885292Y-58426845D01*
X73885292Y-58426845D02*
X74190054Y-58426845D01*
X74190054Y-58426845D02*
X74190054Y-57626845D01*
X74190054Y-57626845D02*
X73923388Y-57626845D01*
X73923388Y-57626845D02*
X73847197Y-57664940D01*
X73847197Y-57664940D02*
X73809102Y-57703035D01*
X73809102Y-57703035D02*
X73771007Y-57779226D01*
X73771007Y-57779226D02*
X73771007Y-57855416D01*
X73771007Y-57855416D02*
X73809102Y-57931607D01*
X73809102Y-57931607D02*
X73847197Y-57969702D01*
X73847197Y-57969702D02*
X73923388Y-58007797D01*
X73923388Y-58007797D02*
X74190054Y-58007797D01*
X73047197Y-57626845D02*
X73199578Y-57626845D01*
X73199578Y-57626845D02*
X73275769Y-57664940D01*
X73275769Y-57664940D02*
X73313864Y-57703035D01*
X73313864Y-57703035D02*
X73390054Y-57817321D01*
X73390054Y-57817321D02*
X73428150Y-57969702D01*
X73428150Y-57969702D02*
X73428150Y-58274464D01*
X73428150Y-58274464D02*
X73390054Y-58350654D01*
X73390054Y-58350654D02*
X73351959Y-58388750D01*
X73351959Y-58388750D02*
X73275769Y-58426845D01*
X73275769Y-58426845D02*
X73123388Y-58426845D01*
X73123388Y-58426845D02*
X73047197Y-58388750D01*
X73047197Y-58388750D02*
X73009102Y-58350654D01*
X73009102Y-58350654D02*
X72971007Y-58274464D01*
X72971007Y-58274464D02*
X72971007Y-58083988D01*
X72971007Y-58083988D02*
X73009102Y-58007797D01*
X73009102Y-58007797D02*
X73047197Y-57969702D01*
X73047197Y-57969702D02*
X73123388Y-57931607D01*
X73123388Y-57931607D02*
X73275769Y-57931607D01*
X73275769Y-57931607D02*
X73351959Y-57969702D01*
X73351959Y-57969702D02*
X73390054Y-58007797D01*
X73390054Y-58007797D02*
X73428150Y-58083988D01*
X84883488Y-54903447D02*
X84769202Y-54941542D01*
X84769202Y-54941542D02*
X84731107Y-54979638D01*
X84731107Y-54979638D02*
X84693011Y-55055828D01*
X84693011Y-55055828D02*
X84693011Y-55170114D01*
X84693011Y-55170114D02*
X84731107Y-55246304D01*
X84731107Y-55246304D02*
X84769202Y-55284400D01*
X84769202Y-55284400D02*
X84845392Y-55322495D01*
X84845392Y-55322495D02*
X85150154Y-55322495D01*
X85150154Y-55322495D02*
X85150154Y-54522495D01*
X85150154Y-54522495D02*
X84883488Y-54522495D01*
X84883488Y-54522495D02*
X84807297Y-54560590D01*
X84807297Y-54560590D02*
X84769202Y-54598685D01*
X84769202Y-54598685D02*
X84731107Y-54674876D01*
X84731107Y-54674876D02*
X84731107Y-54751066D01*
X84731107Y-54751066D02*
X84769202Y-54827257D01*
X84769202Y-54827257D02*
X84807297Y-54865352D01*
X84807297Y-54865352D02*
X84883488Y-54903447D01*
X84883488Y-54903447D02*
X85150154Y-54903447D01*
X84007297Y-54789161D02*
X84007297Y-55322495D01*
X84197773Y-54484400D02*
X84388250Y-55055828D01*
X84388250Y-55055828D02*
X83893011Y-55055828D01*
X73860792Y-35498750D02*
X73746506Y-35536845D01*
X73746506Y-35536845D02*
X73556030Y-35536845D01*
X73556030Y-35536845D02*
X73479839Y-35498750D01*
X73479839Y-35498750D02*
X73441744Y-35460654D01*
X73441744Y-35460654D02*
X73403649Y-35384464D01*
X73403649Y-35384464D02*
X73403649Y-35308273D01*
X73403649Y-35308273D02*
X73441744Y-35232083D01*
X73441744Y-35232083D02*
X73479839Y-35193988D01*
X73479839Y-35193988D02*
X73556030Y-35155892D01*
X73556030Y-35155892D02*
X73708411Y-35117797D01*
X73708411Y-35117797D02*
X73784601Y-35079702D01*
X73784601Y-35079702D02*
X73822696Y-35041607D01*
X73822696Y-35041607D02*
X73860792Y-34965416D01*
X73860792Y-34965416D02*
X73860792Y-34889226D01*
X73860792Y-34889226D02*
X73822696Y-34813035D01*
X73822696Y-34813035D02*
X73784601Y-34774940D01*
X73784601Y-34774940D02*
X73708411Y-34736845D01*
X73708411Y-34736845D02*
X73517934Y-34736845D01*
X73517934Y-34736845D02*
X73403649Y-34774940D01*
X73175077Y-34736845D02*
X72717934Y-34736845D01*
X72946506Y-35536845D02*
X72946506Y-34736845D01*
X73866245Y-40227797D02*
X74132911Y-40227797D01*
X74132911Y-40646845D02*
X74132911Y-39846845D01*
X74132911Y-39846845D02*
X73751959Y-39846845D01*
X73104340Y-40113511D02*
X73104340Y-40646845D01*
X73294816Y-39808750D02*
X73485293Y-40380178D01*
X73485293Y-40380178D02*
X72990054Y-40380178D01*
X84845388Y-58007797D02*
X84731102Y-58045892D01*
X84731102Y-58045892D02*
X84693007Y-58083988D01*
X84693007Y-58083988D02*
X84654911Y-58160178D01*
X84654911Y-58160178D02*
X84654911Y-58274464D01*
X84654911Y-58274464D02*
X84693007Y-58350654D01*
X84693007Y-58350654D02*
X84731102Y-58388750D01*
X84731102Y-58388750D02*
X84807292Y-58426845D01*
X84807292Y-58426845D02*
X85112054Y-58426845D01*
X85112054Y-58426845D02*
X85112054Y-57626845D01*
X85112054Y-57626845D02*
X84845388Y-57626845D01*
X84845388Y-57626845D02*
X84769197Y-57664940D01*
X84769197Y-57664940D02*
X84731102Y-57703035D01*
X84731102Y-57703035D02*
X84693007Y-57779226D01*
X84693007Y-57779226D02*
X84693007Y-57855416D01*
X84693007Y-57855416D02*
X84731102Y-57931607D01*
X84731102Y-57931607D02*
X84769197Y-57969702D01*
X84769197Y-57969702D02*
X84845388Y-58007797D01*
X84845388Y-58007797D02*
X85112054Y-58007797D01*
X83931102Y-57626845D02*
X84312054Y-57626845D01*
X84312054Y-57626845D02*
X84350150Y-58007797D01*
X84350150Y-58007797D02*
X84312054Y-57969702D01*
X84312054Y-57969702D02*
X84235864Y-57931607D01*
X84235864Y-57931607D02*
X84045388Y-57931607D01*
X84045388Y-57931607D02*
X83969197Y-57969702D01*
X83969197Y-57969702D02*
X83931102Y-58007797D01*
X83931102Y-58007797D02*
X83893007Y-58083988D01*
X83893007Y-58083988D02*
X83893007Y-58274464D01*
X83893007Y-58274464D02*
X83931102Y-58350654D01*
X83931102Y-58350654D02*
X83969197Y-58388750D01*
X83969197Y-58388750D02*
X84045388Y-58426845D01*
X84045388Y-58426845D02*
X84235864Y-58426845D01*
X84235864Y-58426845D02*
X84312054Y-58388750D01*
X84312054Y-58388750D02*
X84350150Y-58350654D01*
X85131102Y-34804940D02*
X85207292Y-34766845D01*
X85207292Y-34766845D02*
X85321578Y-34766845D01*
X85321578Y-34766845D02*
X85435864Y-34804940D01*
X85435864Y-34804940D02*
X85512054Y-34881130D01*
X85512054Y-34881130D02*
X85550149Y-34957321D01*
X85550149Y-34957321D02*
X85588245Y-35109702D01*
X85588245Y-35109702D02*
X85588245Y-35223988D01*
X85588245Y-35223988D02*
X85550149Y-35376369D01*
X85550149Y-35376369D02*
X85512054Y-35452559D01*
X85512054Y-35452559D02*
X85435864Y-35528750D01*
X85435864Y-35528750D02*
X85321578Y-35566845D01*
X85321578Y-35566845D02*
X85245387Y-35566845D01*
X85245387Y-35566845D02*
X85131102Y-35528750D01*
X85131102Y-35528750D02*
X85093006Y-35490654D01*
X85093006Y-35490654D02*
X85093006Y-35223988D01*
X85093006Y-35223988D02*
X85245387Y-35223988D01*
X84750149Y-35566845D02*
X84750149Y-34766845D01*
X84750149Y-34766845D02*
X84293006Y-35566845D01*
X84293006Y-35566845D02*
X84293006Y-34766845D01*
X83912054Y-35566845D02*
X83912054Y-34766845D01*
X83912054Y-34766845D02*
X83721578Y-34766845D01*
X83721578Y-34766845D02*
X83607292Y-34804940D01*
X83607292Y-34804940D02*
X83531102Y-34881130D01*
X83531102Y-34881130D02*
X83493007Y-34957321D01*
X83493007Y-34957321D02*
X83454911Y-35109702D01*
X83454911Y-35109702D02*
X83454911Y-35223988D01*
X83454911Y-35223988D02*
X83493007Y-35376369D01*
X83493007Y-35376369D02*
X83531102Y-35452559D01*
X83531102Y-35452559D02*
X83607292Y-35528750D01*
X83607292Y-35528750D02*
X83721578Y-35566845D01*
X83721578Y-35566845D02*
X83912054Y-35566845D01*
X85250102Y-38644940D02*
X85326292Y-38606845D01*
X85326292Y-38606845D02*
X85440578Y-38606845D01*
X85440578Y-38606845D02*
X85554864Y-38644940D01*
X85554864Y-38644940D02*
X85631054Y-38721130D01*
X85631054Y-38721130D02*
X85669149Y-38797321D01*
X85669149Y-38797321D02*
X85707245Y-38949702D01*
X85707245Y-38949702D02*
X85707245Y-39063988D01*
X85707245Y-39063988D02*
X85669149Y-39216369D01*
X85669149Y-39216369D02*
X85631054Y-39292559D01*
X85631054Y-39292559D02*
X85554864Y-39368750D01*
X85554864Y-39368750D02*
X85440578Y-39406845D01*
X85440578Y-39406845D02*
X85364387Y-39406845D01*
X85364387Y-39406845D02*
X85250102Y-39368750D01*
X85250102Y-39368750D02*
X85212006Y-39330654D01*
X85212006Y-39330654D02*
X85212006Y-39063988D01*
X85212006Y-39063988D02*
X85364387Y-39063988D01*
X84869149Y-39406845D02*
X84869149Y-38606845D01*
X84869149Y-38606845D02*
X84412006Y-39406845D01*
X84412006Y-39406845D02*
X84412006Y-38606845D01*
X84031054Y-39406845D02*
X84031054Y-38606845D01*
X84031054Y-38606845D02*
X83840578Y-38606845D01*
X83840578Y-38606845D02*
X83726292Y-38644940D01*
X83726292Y-38644940D02*
X83650102Y-38721130D01*
X83650102Y-38721130D02*
X83612007Y-38797321D01*
X83612007Y-38797321D02*
X83573911Y-38949702D01*
X83573911Y-38949702D02*
X83573911Y-39063988D01*
X83573911Y-39063988D02*
X83612007Y-39216369D01*
X83612007Y-39216369D02*
X83650102Y-39292559D01*
X83650102Y-39292559D02*
X83726292Y-39368750D01*
X83726292Y-39368750D02*
X83840578Y-39406845D01*
X83840578Y-39406845D02*
X84031054Y-39406845D01*
X73866245Y-45307797D02*
X74132911Y-45307797D01*
X74132911Y-45726845D02*
X74132911Y-44926845D01*
X74132911Y-44926845D02*
X73751959Y-44926845D01*
X73104340Y-44926845D02*
X73256721Y-44926845D01*
X73256721Y-44926845D02*
X73332912Y-44964940D01*
X73332912Y-44964940D02*
X73371007Y-45003035D01*
X73371007Y-45003035D02*
X73447197Y-45117321D01*
X73447197Y-45117321D02*
X73485293Y-45269702D01*
X73485293Y-45269702D02*
X73485293Y-45574464D01*
X73485293Y-45574464D02*
X73447197Y-45650654D01*
X73447197Y-45650654D02*
X73409102Y-45688750D01*
X73409102Y-45688750D02*
X73332912Y-45726845D01*
X73332912Y-45726845D02*
X73180531Y-45726845D01*
X73180531Y-45726845D02*
X73104340Y-45688750D01*
X73104340Y-45688750D02*
X73066245Y-45650654D01*
X73066245Y-45650654D02*
X73028150Y-45574464D01*
X73028150Y-45574464D02*
X73028150Y-45383988D01*
X73028150Y-45383988D02*
X73066245Y-45307797D01*
X73066245Y-45307797D02*
X73104340Y-45269702D01*
X73104340Y-45269702D02*
X73180531Y-45231607D01*
X73180531Y-45231607D02*
X73332912Y-45231607D01*
X73332912Y-45231607D02*
X73409102Y-45269702D01*
X73409102Y-45269702D02*
X73447197Y-45307797D01*
X73447197Y-45307797D02*
X73485293Y-45383988D01*
X73656688Y-54903447D02*
X73542402Y-54941542D01*
X73542402Y-54941542D02*
X73504307Y-54979638D01*
X73504307Y-54979638D02*
X73466211Y-55055828D01*
X73466211Y-55055828D02*
X73466211Y-55170114D01*
X73466211Y-55170114D02*
X73504307Y-55246304D01*
X73504307Y-55246304D02*
X73542402Y-55284400D01*
X73542402Y-55284400D02*
X73618592Y-55322495D01*
X73618592Y-55322495D02*
X73923354Y-55322495D01*
X73923354Y-55322495D02*
X73923354Y-54522495D01*
X73923354Y-54522495D02*
X73656688Y-54522495D01*
X73656688Y-54522495D02*
X73580497Y-54560590D01*
X73580497Y-54560590D02*
X73542402Y-54598685D01*
X73542402Y-54598685D02*
X73504307Y-54674876D01*
X73504307Y-54674876D02*
X73504307Y-54751066D01*
X73504307Y-54751066D02*
X73542402Y-54827257D01*
X73542402Y-54827257D02*
X73580497Y-54865352D01*
X73580497Y-54865352D02*
X73656688Y-54903447D01*
X73656688Y-54903447D02*
X73923354Y-54903447D01*
X73161450Y-54598685D02*
X73123354Y-54560590D01*
X73123354Y-54560590D02*
X73047164Y-54522495D01*
X73047164Y-54522495D02*
X72856688Y-54522495D01*
X72856688Y-54522495D02*
X72780497Y-54560590D01*
X72780497Y-54560590D02*
X72742402Y-54598685D01*
X72742402Y-54598685D02*
X72704307Y-54674876D01*
X72704307Y-54674876D02*
X72704307Y-54751066D01*
X72704307Y-54751066D02*
X72742402Y-54865352D01*
X72742402Y-54865352D02*
X73199545Y-55322495D01*
X73199545Y-55322495D02*
X72704307Y-55322495D01*
X85112054Y-33026845D02*
X85112054Y-32226845D01*
X85112054Y-32226845D02*
X84921578Y-32226845D01*
X84921578Y-32226845D02*
X84807292Y-32264940D01*
X84807292Y-32264940D02*
X84731102Y-32341130D01*
X84731102Y-32341130D02*
X84693007Y-32417321D01*
X84693007Y-32417321D02*
X84654911Y-32569702D01*
X84654911Y-32569702D02*
X84654911Y-32683988D01*
X84654911Y-32683988D02*
X84693007Y-32836369D01*
X84693007Y-32836369D02*
X84731102Y-32912559D01*
X84731102Y-32912559D02*
X84807292Y-32988750D01*
X84807292Y-32988750D02*
X84921578Y-33026845D01*
X84921578Y-33026845D02*
X85112054Y-33026845D01*
X84350150Y-32303035D02*
X84312054Y-32264940D01*
X84312054Y-32264940D02*
X84235864Y-32226845D01*
X84235864Y-32226845D02*
X84045388Y-32226845D01*
X84045388Y-32226845D02*
X83969197Y-32264940D01*
X83969197Y-32264940D02*
X83931102Y-32303035D01*
X83931102Y-32303035D02*
X83893007Y-32379226D01*
X83893007Y-32379226D02*
X83893007Y-32455416D01*
X83893007Y-32455416D02*
X83931102Y-32569702D01*
X83931102Y-32569702D02*
X84388245Y-33026845D01*
X84388245Y-33026845D02*
X83893007Y-33026845D01*
X74151959Y-30486845D02*
X74418626Y-30105892D01*
X74609102Y-30486845D02*
X74609102Y-29686845D01*
X74609102Y-29686845D02*
X74304340Y-29686845D01*
X74304340Y-29686845D02*
X74228150Y-29724940D01*
X74228150Y-29724940D02*
X74190055Y-29763035D01*
X74190055Y-29763035D02*
X74151959Y-29839226D01*
X74151959Y-29839226D02*
X74151959Y-29953511D01*
X74151959Y-29953511D02*
X74190055Y-30029702D01*
X74190055Y-30029702D02*
X74228150Y-30067797D01*
X74228150Y-30067797D02*
X74304340Y-30105892D01*
X74304340Y-30105892D02*
X74609102Y-30105892D01*
X73847198Y-30258273D02*
X73466245Y-30258273D01*
X73923388Y-30486845D02*
X73656721Y-29686845D01*
X73656721Y-29686845D02*
X73390055Y-30486845D01*
X73199579Y-29686845D02*
X73009103Y-30486845D01*
X73009103Y-30486845D02*
X72856722Y-29915416D01*
X72856722Y-29915416D02*
X72704341Y-30486845D01*
X72704341Y-30486845D02*
X72513865Y-29686845D01*
X73707488Y-52820647D02*
X73593202Y-52858742D01*
X73593202Y-52858742D02*
X73555107Y-52896838D01*
X73555107Y-52896838D02*
X73517011Y-52973028D01*
X73517011Y-52973028D02*
X73517011Y-53087314D01*
X73517011Y-53087314D02*
X73555107Y-53163504D01*
X73555107Y-53163504D02*
X73593202Y-53201600D01*
X73593202Y-53201600D02*
X73669392Y-53239695D01*
X73669392Y-53239695D02*
X73974154Y-53239695D01*
X73974154Y-53239695D02*
X73974154Y-52439695D01*
X73974154Y-52439695D02*
X73707488Y-52439695D01*
X73707488Y-52439695D02*
X73631297Y-52477790D01*
X73631297Y-52477790D02*
X73593202Y-52515885D01*
X73593202Y-52515885D02*
X73555107Y-52592076D01*
X73555107Y-52592076D02*
X73555107Y-52668266D01*
X73555107Y-52668266D02*
X73593202Y-52744457D01*
X73593202Y-52744457D02*
X73631297Y-52782552D01*
X73631297Y-52782552D02*
X73707488Y-52820647D01*
X73707488Y-52820647D02*
X73974154Y-52820647D01*
X73250345Y-52439695D02*
X72755107Y-52439695D01*
X72755107Y-52439695D02*
X73021773Y-52744457D01*
X73021773Y-52744457D02*
X72907488Y-52744457D01*
X72907488Y-52744457D02*
X72831297Y-52782552D01*
X72831297Y-52782552D02*
X72793202Y-52820647D01*
X72793202Y-52820647D02*
X72755107Y-52896838D01*
X72755107Y-52896838D02*
X72755107Y-53087314D01*
X72755107Y-53087314D02*
X72793202Y-53163504D01*
X72793202Y-53163504D02*
X72831297Y-53201600D01*
X72831297Y-53201600D02*
X72907488Y-53239695D01*
X72907488Y-53239695D02*
X73136059Y-53239695D01*
X73136059Y-53239695D02*
X73212250Y-53201600D01*
X73212250Y-53201600D02*
X73250345Y-53163504D01*
X85073959Y-52927797D02*
X84807293Y-52927797D01*
X84693007Y-53346845D02*
X85073959Y-53346845D01*
X85073959Y-53346845D02*
X85073959Y-52546845D01*
X85073959Y-52546845D02*
X84693007Y-52546845D01*
X84007292Y-52546845D02*
X84159673Y-52546845D01*
X84159673Y-52546845D02*
X84235864Y-52584940D01*
X84235864Y-52584940D02*
X84273959Y-52623035D01*
X84273959Y-52623035D02*
X84350149Y-52737321D01*
X84350149Y-52737321D02*
X84388245Y-52889702D01*
X84388245Y-52889702D02*
X84388245Y-53194464D01*
X84388245Y-53194464D02*
X84350149Y-53270654D01*
X84350149Y-53270654D02*
X84312054Y-53308750D01*
X84312054Y-53308750D02*
X84235864Y-53346845D01*
X84235864Y-53346845D02*
X84083483Y-53346845D01*
X84083483Y-53346845D02*
X84007292Y-53308750D01*
X84007292Y-53308750D02*
X83969197Y-53270654D01*
X83969197Y-53270654D02*
X83931102Y-53194464D01*
X83931102Y-53194464D02*
X83931102Y-53003988D01*
X83931102Y-53003988D02*
X83969197Y-52927797D01*
X83969197Y-52927797D02*
X84007292Y-52889702D01*
X84007292Y-52889702D02*
X84083483Y-52851607D01*
X84083483Y-52851607D02*
X84235864Y-52851607D01*
X84235864Y-52851607D02*
X84312054Y-52889702D01*
X84312054Y-52889702D02*
X84350149Y-52927797D01*
X84350149Y-52927797D02*
X84388245Y-53003988D01*
X85112054Y-50806845D02*
X85112054Y-50006845D01*
X85112054Y-50006845D02*
X84921578Y-50006845D01*
X84921578Y-50006845D02*
X84807292Y-50044940D01*
X84807292Y-50044940D02*
X84731102Y-50121130D01*
X84731102Y-50121130D02*
X84693007Y-50197321D01*
X84693007Y-50197321D02*
X84654911Y-50349702D01*
X84654911Y-50349702D02*
X84654911Y-50463988D01*
X84654911Y-50463988D02*
X84693007Y-50616369D01*
X84693007Y-50616369D02*
X84731102Y-50692559D01*
X84731102Y-50692559D02*
X84807292Y-50768750D01*
X84807292Y-50768750D02*
X84921578Y-50806845D01*
X84921578Y-50806845D02*
X85112054Y-50806845D01*
X84388245Y-50006845D02*
X83854911Y-50006845D01*
X83854911Y-50006845D02*
X84197769Y-50806845D01*
X84654911Y-48190654D02*
X84693007Y-48228750D01*
X84693007Y-48228750D02*
X84807292Y-48266845D01*
X84807292Y-48266845D02*
X84883483Y-48266845D01*
X84883483Y-48266845D02*
X84997769Y-48228750D01*
X84997769Y-48228750D02*
X85073959Y-48152559D01*
X85073959Y-48152559D02*
X85112054Y-48076369D01*
X85112054Y-48076369D02*
X85150150Y-47923988D01*
X85150150Y-47923988D02*
X85150150Y-47809702D01*
X85150150Y-47809702D02*
X85112054Y-47657321D01*
X85112054Y-47657321D02*
X85073959Y-47581130D01*
X85073959Y-47581130D02*
X84997769Y-47504940D01*
X84997769Y-47504940D02*
X84883483Y-47466845D01*
X84883483Y-47466845D02*
X84807292Y-47466845D01*
X84807292Y-47466845D02*
X84693007Y-47504940D01*
X84693007Y-47504940D02*
X84654911Y-47543035D01*
X83969197Y-47466845D02*
X84121578Y-47466845D01*
X84121578Y-47466845D02*
X84197769Y-47504940D01*
X84197769Y-47504940D02*
X84235864Y-47543035D01*
X84235864Y-47543035D02*
X84312054Y-47657321D01*
X84312054Y-47657321D02*
X84350150Y-47809702D01*
X84350150Y-47809702D02*
X84350150Y-48114464D01*
X84350150Y-48114464D02*
X84312054Y-48190654D01*
X84312054Y-48190654D02*
X84273959Y-48228750D01*
X84273959Y-48228750D02*
X84197769Y-48266845D01*
X84197769Y-48266845D02*
X84045388Y-48266845D01*
X84045388Y-48266845D02*
X83969197Y-48228750D01*
X83969197Y-48228750D02*
X83931102Y-48190654D01*
X83931102Y-48190654D02*
X83893007Y-48114464D01*
X83893007Y-48114464D02*
X83893007Y-47923988D01*
X83893007Y-47923988D02*
X83931102Y-47847797D01*
X83931102Y-47847797D02*
X83969197Y-47809702D01*
X83969197Y-47809702D02*
X84045388Y-47771607D01*
X84045388Y-47771607D02*
X84197769Y-47771607D01*
X84197769Y-47771607D02*
X84273959Y-47809702D01*
X84273959Y-47809702D02*
X84312054Y-47847797D01*
X84312054Y-47847797D02*
X84350150Y-47923988D01*
X84822927Y-29686845D02*
X84365784Y-29686845D01*
X84594356Y-30486845D02*
X84594356Y-29686845D01*
X84175308Y-29686845D02*
X83641974Y-30486845D01*
X83641974Y-29686845D02*
X84175308Y-30486845D01*
X83184831Y-29686845D02*
X83108641Y-29686845D01*
X83108641Y-29686845D02*
X83032450Y-29724940D01*
X83032450Y-29724940D02*
X82994355Y-29763035D01*
X82994355Y-29763035D02*
X82956260Y-29839226D01*
X82956260Y-29839226D02*
X82918165Y-29991607D01*
X82918165Y-29991607D02*
X82918165Y-30182083D01*
X82918165Y-30182083D02*
X82956260Y-30334464D01*
X82956260Y-30334464D02*
X82994355Y-30410654D01*
X82994355Y-30410654D02*
X83032450Y-30448750D01*
X83032450Y-30448750D02*
X83108641Y-30486845D01*
X83108641Y-30486845D02*
X83184831Y-30486845D01*
X83184831Y-30486845D02*
X83261022Y-30448750D01*
X83261022Y-30448750D02*
X83299117Y-30410654D01*
X83299117Y-30410654D02*
X83337212Y-30334464D01*
X83337212Y-30334464D02*
X83375308Y-30182083D01*
X83375308Y-30182083D02*
X83375308Y-29991607D01*
X83375308Y-29991607D02*
X83337212Y-29839226D01*
X83337212Y-29839226D02*
X83299117Y-29763035D01*
X83299117Y-29763035D02*
X83261022Y-29724940D01*
X83261022Y-29724940D02*
X83184831Y-29686845D01*
X82003879Y-29648750D02*
X82689593Y-30677321D01*
X81737212Y-30486845D02*
X81737212Y-29686845D01*
X81737212Y-29686845D02*
X81546736Y-29686845D01*
X81546736Y-29686845D02*
X81432450Y-29724940D01*
X81432450Y-29724940D02*
X81356260Y-29801130D01*
X81356260Y-29801130D02*
X81318165Y-29877321D01*
X81318165Y-29877321D02*
X81280069Y-30029702D01*
X81280069Y-30029702D02*
X81280069Y-30143988D01*
X81280069Y-30143988D02*
X81318165Y-30296369D01*
X81318165Y-30296369D02*
X81356260Y-30372559D01*
X81356260Y-30372559D02*
X81432450Y-30448750D01*
X81432450Y-30448750D02*
X81546736Y-30486845D01*
X81546736Y-30486845D02*
X81737212Y-30486845D01*
X81013403Y-29686845D02*
X80518165Y-29686845D01*
X80518165Y-29686845D02*
X80784831Y-29991607D01*
X80784831Y-29991607D02*
X80670546Y-29991607D01*
X80670546Y-29991607D02*
X80594355Y-30029702D01*
X80594355Y-30029702D02*
X80556260Y-30067797D01*
X80556260Y-30067797D02*
X80518165Y-30143988D01*
X80518165Y-30143988D02*
X80518165Y-30334464D01*
X80518165Y-30334464D02*
X80556260Y-30410654D01*
X80556260Y-30410654D02*
X80594355Y-30448750D01*
X80594355Y-30448750D02*
X80670546Y-30486845D01*
X80670546Y-30486845D02*
X80899117Y-30486845D01*
X80899117Y-30486845D02*
X80975308Y-30448750D01*
X80975308Y-30448750D02*
X81013403Y-30410654D01*
X73866245Y-42767797D02*
X74132911Y-42767797D01*
X74132911Y-43186845D02*
X74132911Y-42386845D01*
X74132911Y-42386845D02*
X73751959Y-42386845D01*
X73066245Y-42386845D02*
X73447197Y-42386845D01*
X73447197Y-42386845D02*
X73485293Y-42767797D01*
X73485293Y-42767797D02*
X73447197Y-42729702D01*
X73447197Y-42729702D02*
X73371007Y-42691607D01*
X73371007Y-42691607D02*
X73180531Y-42691607D01*
X73180531Y-42691607D02*
X73104340Y-42729702D01*
X73104340Y-42729702D02*
X73066245Y-42767797D01*
X73066245Y-42767797D02*
X73028150Y-42843988D01*
X73028150Y-42843988D02*
X73028150Y-43034464D01*
X73028150Y-43034464D02*
X73066245Y-43110654D01*
X73066245Y-43110654D02*
X73104340Y-43148750D01*
X73104340Y-43148750D02*
X73180531Y-43186845D01*
X73180531Y-43186845D02*
X73371007Y-43186845D01*
X73371007Y-43186845D02*
X73447197Y-43148750D01*
X73447197Y-43148750D02*
X73485293Y-43110654D01*
X85112054Y-40646845D02*
X85112054Y-39846845D01*
X85112054Y-39846845D02*
X84921578Y-39846845D01*
X84921578Y-39846845D02*
X84807292Y-39884940D01*
X84807292Y-39884940D02*
X84731102Y-39961130D01*
X84731102Y-39961130D02*
X84693007Y-40037321D01*
X84693007Y-40037321D02*
X84654911Y-40189702D01*
X84654911Y-40189702D02*
X84654911Y-40303988D01*
X84654911Y-40303988D02*
X84693007Y-40456369D01*
X84693007Y-40456369D02*
X84731102Y-40532559D01*
X84731102Y-40532559D02*
X84807292Y-40608750D01*
X84807292Y-40608750D02*
X84921578Y-40646845D01*
X84921578Y-40646845D02*
X85112054Y-40646845D01*
X83893007Y-40646845D02*
X84350150Y-40646845D01*
X84121578Y-40646845D02*
X84121578Y-39846845D01*
X84121578Y-39846845D02*
X84197769Y-39961130D01*
X84197769Y-39961130D02*
X84273959Y-40037321D01*
X84273959Y-40037321D02*
X84350150Y-40075416D01*
X85112054Y-45726845D02*
X85112054Y-44926845D01*
X85112054Y-44926845D02*
X84921578Y-44926845D01*
X84921578Y-44926845D02*
X84807292Y-44964940D01*
X84807292Y-44964940D02*
X84731102Y-45041130D01*
X84731102Y-45041130D02*
X84693007Y-45117321D01*
X84693007Y-45117321D02*
X84654911Y-45269702D01*
X84654911Y-45269702D02*
X84654911Y-45383988D01*
X84654911Y-45383988D02*
X84693007Y-45536369D01*
X84693007Y-45536369D02*
X84731102Y-45612559D01*
X84731102Y-45612559D02*
X84807292Y-45688750D01*
X84807292Y-45688750D02*
X84921578Y-45726845D01*
X84921578Y-45726845D02*
X85112054Y-45726845D01*
X83969197Y-45193511D02*
X83969197Y-45726845D01*
X84159673Y-44888750D02*
X84350150Y-45460178D01*
X84350150Y-45460178D02*
X83854911Y-45460178D01*
X73866245Y-47847797D02*
X74132911Y-47847797D01*
X74132911Y-48266845D02*
X74132911Y-47466845D01*
X74132911Y-47466845D02*
X73751959Y-47466845D01*
X73523388Y-47466845D02*
X72990054Y-47466845D01*
X72990054Y-47466845D02*
X73332912Y-48266845D01*
X74209102Y-32264940D02*
X74285292Y-32226845D01*
X74285292Y-32226845D02*
X74399578Y-32226845D01*
X74399578Y-32226845D02*
X74513864Y-32264940D01*
X74513864Y-32264940D02*
X74590054Y-32341130D01*
X74590054Y-32341130D02*
X74628149Y-32417321D01*
X74628149Y-32417321D02*
X74666245Y-32569702D01*
X74666245Y-32569702D02*
X74666245Y-32683988D01*
X74666245Y-32683988D02*
X74628149Y-32836369D01*
X74628149Y-32836369D02*
X74590054Y-32912559D01*
X74590054Y-32912559D02*
X74513864Y-32988750D01*
X74513864Y-32988750D02*
X74399578Y-33026845D01*
X74399578Y-33026845D02*
X74323387Y-33026845D01*
X74323387Y-33026845D02*
X74209102Y-32988750D01*
X74209102Y-32988750D02*
X74171006Y-32950654D01*
X74171006Y-32950654D02*
X74171006Y-32683988D01*
X74171006Y-32683988D02*
X74323387Y-32683988D01*
X73828149Y-33026845D02*
X73828149Y-32226845D01*
X73828149Y-32226845D02*
X73371006Y-33026845D01*
X73371006Y-33026845D02*
X73371006Y-32226845D01*
X72990054Y-33026845D02*
X72990054Y-32226845D01*
X72990054Y-32226845D02*
X72799578Y-32226845D01*
X72799578Y-32226845D02*
X72685292Y-32264940D01*
X72685292Y-32264940D02*
X72609102Y-32341130D01*
X72609102Y-32341130D02*
X72571007Y-32417321D01*
X72571007Y-32417321D02*
X72532911Y-32569702D01*
X72532911Y-32569702D02*
X72532911Y-32683988D01*
X72532911Y-32683988D02*
X72571007Y-32836369D01*
X72571007Y-32836369D02*
X72609102Y-32912559D01*
X72609102Y-32912559D02*
X72685292Y-32988750D01*
X72685292Y-32988750D02*
X72799578Y-33026845D01*
X72799578Y-33026845D02*
X72990054Y-33026845D01*
X73923388Y-50387797D02*
X73809102Y-50425892D01*
X73809102Y-50425892D02*
X73771007Y-50463988D01*
X73771007Y-50463988D02*
X73732911Y-50540178D01*
X73732911Y-50540178D02*
X73732911Y-50654464D01*
X73732911Y-50654464D02*
X73771007Y-50730654D01*
X73771007Y-50730654D02*
X73809102Y-50768750D01*
X73809102Y-50768750D02*
X73885292Y-50806845D01*
X73885292Y-50806845D02*
X74190054Y-50806845D01*
X74190054Y-50806845D02*
X74190054Y-50006845D01*
X74190054Y-50006845D02*
X73923388Y-50006845D01*
X73923388Y-50006845D02*
X73847197Y-50044940D01*
X73847197Y-50044940D02*
X73809102Y-50083035D01*
X73809102Y-50083035D02*
X73771007Y-50159226D01*
X73771007Y-50159226D02*
X73771007Y-50235416D01*
X73771007Y-50235416D02*
X73809102Y-50311607D01*
X73809102Y-50311607D02*
X73847197Y-50349702D01*
X73847197Y-50349702D02*
X73923388Y-50387797D01*
X73923388Y-50387797D02*
X74190054Y-50387797D01*
X72971007Y-50806845D02*
X73428150Y-50806845D01*
X73199578Y-50806845D02*
X73199578Y-50006845D01*
X73199578Y-50006845D02*
X73275769Y-50121130D01*
X73275769Y-50121130D02*
X73351959Y-50197321D01*
X73351959Y-50197321D02*
X73428150Y-50235416D01*
G36*
X209005026Y-103939435D02*
G01*
X208921080Y-104486930D01*
X208796458Y-105263331D01*
X208665965Y-106046342D01*
X208534850Y-106806443D01*
X208408362Y-107514116D01*
X208291748Y-108139843D01*
X208190257Y-108654103D01*
X208109138Y-109027379D01*
X208053638Y-109230151D01*
X208004301Y-109323768D01*
X207743430Y-109566433D01*
X207320570Y-109785393D01*
X206764923Y-109973486D01*
X206105691Y-110123548D01*
X205372077Y-110228416D01*
X204593281Y-110280927D01*
X203798506Y-110273918D01*
X203292568Y-110256332D01*
X202818758Y-110272122D01*
X202471463Y-110344055D01*
X202209846Y-110487928D01*
X201993068Y-110719542D01*
X201780293Y-111054694D01*
X201610230Y-111328216D01*
X201423098Y-111580487D01*
X201286156Y-111711704D01*
X201234408Y-111731673D01*
X200993545Y-111789538D01*
X200631909Y-111853765D01*
X200206076Y-111913770D01*
X200033425Y-111935333D01*
X199606808Y-111990150D01*
X199255509Y-112037362D01*
X199042331Y-112068614D01*
X198879527Y-112081910D01*
X198526890Y-112087927D01*
X198054047Y-112083123D01*
X197506789Y-112069022D01*
X196930907Y-112047153D01*
X196372191Y-112019041D01*
X195876432Y-111986211D01*
X195489421Y-111950192D01*
X195353410Y-111932423D01*
X194877126Y-111826274D01*
X194586740Y-111674656D01*
X194488546Y-111480522D01*
X194488646Y-111474153D01*
X194574134Y-111239650D01*
X194793035Y-110937034D01*
X195106654Y-110601336D01*
X195476297Y-110267586D01*
X195863271Y-109970815D01*
X196228882Y-109746054D01*
X196534435Y-109628332D01*
X196645879Y-109593887D01*
X196936036Y-109400969D01*
X197207103Y-109094047D01*
X197439043Y-108716594D01*
X197611823Y-108312081D01*
X197705406Y-107923978D01*
X197699759Y-107595757D01*
X197574846Y-107370888D01*
X197406441Y-107294220D01*
X197072759Y-107267119D01*
X196676494Y-107317733D01*
X196284155Y-107436107D01*
X195962248Y-107612283D01*
X195916300Y-107647082D01*
X195708353Y-107787887D01*
X195597608Y-107809573D01*
X195536864Y-107724604D01*
X195535738Y-107480651D01*
X195677642Y-107158532D01*
X195938417Y-106803013D01*
X196290759Y-106451066D01*
X196707365Y-106139662D01*
X196944828Y-106004549D01*
X197317569Y-105877034D01*
X197700996Y-105874876D01*
X198142168Y-106000885D01*
X198688147Y-106257868D01*
X199164409Y-106492737D01*
X199527606Y-106623927D01*
X199790156Y-106642702D01*
X199985053Y-106551183D01*
X200145289Y-106351490D01*
X200170629Y-106307381D01*
X200331052Y-105905318D01*
X200461230Y-105369425D01*
X200549458Y-104758893D01*
X200584031Y-104132910D01*
X200578817Y-103887350D01*
X200545824Y-103589101D01*
X200472291Y-103293222D01*
X200346380Y-102980598D01*
X200156252Y-102632111D01*
X199890068Y-102228644D01*
X199535988Y-101751082D01*
X199082174Y-101180307D01*
X198516787Y-100497203D01*
X197842279Y-99699553D01*
X202803734Y-99699553D01*
X202816968Y-99929593D01*
X202848507Y-100066774D01*
X202941167Y-100315480D01*
X203099674Y-100637876D01*
X203336575Y-101056995D01*
X203664415Y-101595873D01*
X204095740Y-102277545D01*
X204180595Y-102411075D01*
X204445954Y-102861565D01*
X204608135Y-103236541D01*
X204671083Y-103587983D01*
X204638743Y-103967870D01*
X204515062Y-104428183D01*
X204303986Y-105020901D01*
X204145577Y-105467011D01*
X204021430Y-105864026D01*
X203947604Y-106158880D01*
X203936359Y-106308630D01*
X203971085Y-106360328D01*
X204155261Y-106436534D01*
X204508296Y-106460259D01*
X204548806Y-106459936D01*
X204924025Y-106413029D01*
X205214029Y-106271729D01*
X205431576Y-106014665D01*
X205589429Y-105620463D01*
X205700347Y-105067752D01*
X205777091Y-104335159D01*
X205795870Y-103939435D01*
X205759488Y-103119236D01*
X205625031Y-102378999D01*
X205400197Y-101771109D01*
X205159582Y-101389452D01*
X204739382Y-100891571D01*
X204226066Y-100404955D01*
X203669753Y-99981436D01*
X203329596Y-99763975D01*
X203040609Y-99615563D01*
X202871802Y-99594483D01*
X202803734Y-99699553D01*
X197842279Y-99699553D01*
X197827988Y-99682653D01*
X197465124Y-99254510D01*
X196711454Y-98350053D01*
X196081338Y-97566569D01*
X195563397Y-96886285D01*
X195146249Y-96291429D01*
X194818516Y-95764229D01*
X194568816Y-95286913D01*
X194385768Y-94841708D01*
X194257993Y-94410842D01*
X194174110Y-93976543D01*
X194170380Y-93951811D01*
X194047605Y-93402093D01*
X193862697Y-93021333D01*
X193595488Y-92781410D01*
X193225813Y-92654202D01*
X193047907Y-92634400D01*
X192820132Y-92658971D01*
X192547898Y-92752198D01*
X192190110Y-92928945D01*
X191705677Y-93204077D01*
X191605777Y-93257805D01*
X191219667Y-93423571D01*
X190743629Y-93587266D01*
X190258249Y-93720157D01*
X190012929Y-93780881D01*
X189343188Y-93998328D01*
X188869615Y-94246860D01*
X188589058Y-94528002D01*
X188535067Y-94687140D01*
X188556825Y-95017741D01*
X188694089Y-95395549D01*
X188930513Y-95761515D01*
X189119326Y-95952933D01*
X189469437Y-96131765D01*
X189838163Y-96109420D01*
X190219892Y-95885358D01*
X190431819Y-95722450D01*
X190614852Y-95650566D01*
X190716232Y-95744896D01*
X190763513Y-96011852D01*
X190768469Y-96069054D01*
X190809121Y-96288195D01*
X190915666Y-96375938D01*
X191149103Y-96392502D01*
X191238043Y-96394173D01*
X191549621Y-96445206D01*
X191710529Y-96587005D01*
X191756275Y-96846097D01*
X191740363Y-97070994D01*
X191578799Y-97545778D01*
X191256975Y-97921675D01*
X190792166Y-98187223D01*
X190201647Y-98330960D01*
X189502693Y-98341422D01*
X189241556Y-98311811D01*
X188472083Y-98109437D01*
X187813561Y-97751425D01*
X187282773Y-97248906D01*
X186896503Y-96613010D01*
X186808698Y-96433332D01*
X186655348Y-96188807D01*
X186530655Y-96068348D01*
X186405729Y-96086472D01*
X186189502Y-96218540D01*
X185951535Y-96425778D01*
X185745513Y-96660388D01*
X185625122Y-96874573D01*
X185623660Y-97044002D01*
X185722287Y-97364677D01*
X185912071Y-97762352D01*
X186169568Y-98194545D01*
X186471335Y-98618774D01*
X186793928Y-98992555D01*
X186904470Y-99105362D01*
X187170291Y-99358771D01*
X187371189Y-99501645D01*
X187559309Y-99564782D01*
X187786798Y-99578984D01*
X187937342Y-99577915D01*
X188121519Y-99553930D01*
X188175707Y-99466726D01*
X188148665Y-99275398D01*
X188134422Y-99195057D01*
X188140756Y-99019947D01*
X188245046Y-98971812D01*
X188357349Y-99009767D01*
X188558302Y-99181926D01*
X188750201Y-99437271D01*
X188880010Y-99713823D01*
X188998480Y-99983432D01*
X189186448Y-100197283D01*
X189386567Y-100274937D01*
X189560292Y-100203815D01*
X189669079Y-99971337D01*
X189701994Y-99832840D01*
X189769033Y-99726735D01*
X189874797Y-99773601D01*
X189973715Y-99882126D01*
X190147108Y-100172542D01*
X190283972Y-100508105D01*
X190339542Y-100790834D01*
X190337763Y-100815378D01*
X190239384Y-101038945D01*
X190017572Y-101334074D01*
X189710056Y-101663099D01*
X189354567Y-101988353D01*
X188988837Y-102272171D01*
X188650595Y-102476886D01*
X188606094Y-102498472D01*
X188249285Y-102646371D01*
X187947806Y-102701441D01*
X187600803Y-102683535D01*
X187083930Y-102556691D01*
X186500025Y-102297651D01*
X185943757Y-101947927D01*
X185487703Y-101546570D01*
X185365794Y-101409111D01*
X185201420Y-101200373D01*
X185041256Y-100960228D01*
X184876155Y-100668817D01*
X184696967Y-100306282D01*
X184494544Y-99852766D01*
X184259738Y-99288409D01*
X183983399Y-98593354D01*
X183656379Y-97747742D01*
X183269530Y-96731715D01*
X183256058Y-96691466D01*
X183245529Y-96601481D01*
X183271914Y-96492334D01*
X183348957Y-96344985D01*
X183490400Y-96140392D01*
X183709989Y-95859513D01*
X184021465Y-95483307D01*
X184438573Y-94992734D01*
X184975057Y-94368750D01*
X185392085Y-93884329D01*
X185836693Y-93364227D01*
X186173585Y-92961900D01*
X186416953Y-92657385D01*
X186580986Y-92430719D01*
X186679876Y-92261939D01*
X186727814Y-92131079D01*
X186738989Y-92018178D01*
X186727594Y-91903271D01*
X186562927Y-90834566D01*
X186393316Y-89861438D01*
X186233273Y-89082245D01*
X186083360Y-88499702D01*
X185944139Y-88116522D01*
X185814323Y-87885810D01*
X185533231Y-87505531D01*
X185121561Y-87040357D01*
X184563803Y-86471809D01*
X184174037Y-86086654D01*
X183482622Y-85392693D01*
X182910258Y-84796138D01*
X182437050Y-84270272D01*
X182043102Y-83788379D01*
X181708517Y-83323742D01*
X181413399Y-82849646D01*
X181137853Y-82339373D01*
X180861982Y-81766207D01*
X180565891Y-81103433D01*
X180211158Y-80320991D01*
X179772283Y-79444567D01*
X179366613Y-78743256D01*
X178998467Y-78224374D01*
X178672162Y-77895234D01*
X178495301Y-77766915D01*
X177767832Y-77340078D01*
X176868565Y-76947853D01*
X175790225Y-76587719D01*
X174525536Y-76257157D01*
X173067225Y-75953645D01*
X172494889Y-75844387D01*
X171860573Y-75718052D01*
X171286695Y-75598480D01*
X170819512Y-75495338D01*
X170505279Y-75418292D01*
X169847510Y-75238488D01*
X169847510Y-73013716D01*
X169847510Y-70788944D01*
X170404084Y-70608492D01*
X170445457Y-70595355D01*
X170886314Y-70474343D01*
X171478200Y-70335402D01*
X172177034Y-70187189D01*
X172938737Y-70038356D01*
X173719228Y-69897559D01*
X174474429Y-69773452D01*
X175160259Y-69674689D01*
X175428815Y-69642116D01*
X176232127Y-69566625D01*
X177131269Y-69507665D01*
X178076788Y-69466571D01*
X179019228Y-69444684D01*
X179909136Y-69443341D01*
X180697058Y-69463880D01*
X181333540Y-69507640D01*
X181483177Y-69523198D01*
X182229514Y-69611767D01*
X182815717Y-69710682D01*
X183277632Y-69835141D01*
X183651106Y-70000346D01*
X183971987Y-70221495D01*
X184276122Y-70513791D01*
X184599358Y-70892432D01*
X184892595Y-71275786D01*
X185188111Y-71730507D01*
X185428901Y-72205698D01*
X185624165Y-72731679D01*
X185783104Y-73338769D01*
X185914918Y-74057290D01*
X186028806Y-74917560D01*
X186133968Y-75949900D01*
X186146023Y-76080318D01*
X186233605Y-76985611D01*
X186313471Y-77718464D01*
X186389882Y-78305066D01*
X186467100Y-78771607D01*
X186549385Y-79144278D01*
X186641000Y-79449269D01*
X186746205Y-79712770D01*
X186798095Y-79824812D01*
X186954812Y-80098196D01*
X187127361Y-80254991D01*
X187373760Y-80354524D01*
X187656870Y-80405329D01*
X188206231Y-80385380D01*
X188839707Y-80248421D01*
X189513165Y-80001730D01*
X189704832Y-79919870D01*
X190117595Y-79767826D01*
X190535471Y-79656968D01*
X191007767Y-79578098D01*
X191583790Y-79522020D01*
X192312848Y-79479537D01*
X192928666Y-79461049D01*
X194362732Y-79484261D01*
X195905398Y-79587719D01*
X197507217Y-79764433D01*
X199118743Y-80007409D01*
X200690526Y-80309654D01*
X202173120Y-80664177D01*
X203517077Y-81063984D01*
X203726136Y-81132734D01*
X204303919Y-81312941D01*
X204851574Y-81470945D01*
X205315521Y-81591713D01*
X205642177Y-81660213D01*
X205771281Y-81679420D01*
X206266566Y-81740708D01*
X206874944Y-81798885D01*
X207609169Y-81854693D01*
X208481996Y-81908874D01*
X209506182Y-81962170D01*
X210694481Y-82015324D01*
X212059650Y-82069078D01*
X213614442Y-82124175D01*
X215855931Y-82206100D01*
X217972648Y-82297250D01*
X219928857Y-82397728D01*
X221745716Y-82509557D01*
X223444382Y-82634762D01*
X225046013Y-82775367D01*
X226571766Y-82933396D01*
X228042800Y-83110873D01*
X229480271Y-83309824D01*
X230905338Y-83532271D01*
X232339158Y-83780241D01*
X233802888Y-84055755D01*
X233816694Y-84058451D01*
X236217044Y-84573525D01*
X238722384Y-85197588D01*
X241278853Y-85914717D01*
X243832591Y-86708986D01*
X246329738Y-87564472D01*
X248716434Y-88465248D01*
X248775860Y-88488852D01*
X249482075Y-88773687D01*
X250036588Y-89007579D01*
X250435327Y-89190749D01*
X250674223Y-89323414D01*
X250749203Y-89405794D01*
X250656197Y-89438108D01*
X250391133Y-89420574D01*
X249949940Y-89353410D01*
X249328547Y-89236837D01*
X248522882Y-89071073D01*
X247528876Y-88856336D01*
X246342456Y-88592845D01*
X243807764Y-88053743D01*
X240920724Y-87513671D01*
X238133473Y-87073438D01*
X235457954Y-86734330D01*
X232906109Y-86497633D01*
X230489881Y-86364633D01*
X228221214Y-86336615D01*
X226112052Y-86414864D01*
X224863482Y-86515858D01*
X223319993Y-86689257D01*
X221739436Y-86914939D01*
X220143565Y-87187390D01*
X218554132Y-87501095D01*
X216992890Y-87850539D01*
X215481593Y-88230207D01*
X214041995Y-88634584D01*
X212695847Y-89058156D01*
X211464903Y-89495406D01*
X210370917Y-89940821D01*
X209435642Y-90388886D01*
X208680830Y-90834085D01*
X208534019Y-90929556D01*
X207993845Y-91246606D01*
X207400335Y-91556274D01*
X206857618Y-91803210D01*
X205971464Y-92183806D01*
X205175662Y-92573613D01*
X204567355Y-92934330D01*
X204140423Y-93269625D01*
X203888747Y-93583167D01*
X203836134Y-93704388D01*
X203826080Y-93837774D01*
X203879347Y-93997436D01*
X204011216Y-94207401D01*
X204236972Y-94491696D01*
X204571896Y-94874347D01*
X205031272Y-95379382D01*
X205331481Y-95712667D01*
X205832231Y-96299585D01*
X206248001Y-96829004D01*
X206563685Y-97280106D01*
X206764175Y-97632070D01*
X206834362Y-97864078D01*
X206886872Y-98087605D01*
X207058586Y-98459651D01*
X207336510Y-98940559D01*
X207707058Y-99506991D01*
X208156646Y-100135612D01*
X208448600Y-100540500D01*
X208735249Y-100962322D01*
X208963108Y-101323333D01*
X209099640Y-101573907D01*
X209153032Y-101696425D01*
X209206279Y-101849948D01*
X209233202Y-102015181D01*
X209233120Y-102229822D01*
X209205356Y-102531567D01*
X209149227Y-102958114D01*
X209064055Y-103547160D01*
X209034584Y-103746659D01*
X209005026Y-103939435D01*
G37*
X48979009Y-63293750D02*
X54979009Y-63293750D01*
X54979009Y-63293750D02*
X54979009Y-57293750D01*
X48979009Y-57293750D02*
X48979009Y-63293750D01*
X54979009Y-57293750D02*
X48979009Y-57293750D01*
X53775060Y-60293750D02*
G75*
G03*
X53775060Y-60293750I-1796051J0D01*
G01*
D11*
X83632579Y-26306750D02*
X87950579Y-26306750D01*
X74488579Y-26307750D02*
X70170579Y-26307750D01*
X87950579Y-30624750D02*
X87950579Y-26306750D01*
X70170579Y-30625750D02*
X70170579Y-26307750D01*
X87950579Y-55008750D02*
X87950579Y-59326750D01*
X70170579Y-55008750D02*
X70170579Y-59326750D01*
X83632579Y-59326750D02*
X87950579Y-59326750D01*
X74488579Y-59326750D02*
X70170579Y-59326750D01*
D10*
X74629011Y-35526110D02*
X74529011Y-35526110D01*
X74529011Y-34726110D01*
X74629011Y-34726110D01*
X74629011Y-35526110D01*
G36*
X74629011Y-35526110D02*
G01*
X74529011Y-35526110D01*
X74529011Y-34726110D01*
X74629011Y-34726110D01*
X74629011Y-35526110D01*
G37*
X74629011Y-34826110D02*
X74129011Y-34826110D01*
X74129011Y-34726110D01*
X74629011Y-34726110D01*
X74629011Y-34826110D01*
G36*
X74629011Y-34826110D02*
G01*
X74129011Y-34826110D01*
X74129011Y-34726110D01*
X74629011Y-34726110D01*
X74629011Y-34826110D01*
G37*
X74229011Y-35026110D02*
X74129011Y-35026110D01*
X74129011Y-34726110D01*
X74229011Y-34726110D01*
X74229011Y-35026110D01*
G36*
X74229011Y-35026110D02*
G01*
X74129011Y-35026110D01*
X74129011Y-34726110D01*
X74229011Y-34726110D01*
X74229011Y-35026110D01*
G37*
X74429011Y-35226110D02*
X74329011Y-35226110D01*
X74329011Y-35126110D01*
X74429011Y-35126110D01*
X74429011Y-35226110D01*
G36*
X74429011Y-35226110D02*
G01*
X74329011Y-35226110D01*
X74329011Y-35126110D01*
X74429011Y-35126110D01*
X74429011Y-35226110D01*
G37*
X74229011Y-35526110D02*
X74129011Y-35526110D01*
X74129011Y-35326110D01*
X74229011Y-35326110D01*
X74229011Y-35526110D01*
G36*
X74229011Y-35526110D02*
G01*
X74129011Y-35526110D01*
X74129011Y-35326110D01*
X74229011Y-35326110D01*
X74229011Y-35526110D01*
G37*
D12*
X86680579Y-30116750D03*
D13*
X86680579Y-32656750D03*
X86680579Y-35196750D03*
X86680579Y-37736750D03*
X86680579Y-40276750D03*
X86680579Y-42816750D03*
X86680579Y-45356750D03*
X86680579Y-47896750D03*
X86680579Y-50436750D03*
X86680579Y-52976750D03*
X86680579Y-55516750D03*
X86680579Y-58056750D03*
X71440579Y-58056750D03*
X71440579Y-55516750D03*
X71440579Y-52976750D03*
X71440579Y-50436750D03*
X71440579Y-47896750D03*
X71440579Y-45356750D03*
X71440579Y-42816750D03*
X71440579Y-40276750D03*
X71440579Y-37736750D03*
X71440579Y-35196750D03*
X71440579Y-32656750D03*
X71440579Y-30116750D03*
%LPC*%
D14*
X64816199Y-43230000D03*
D15*
X57196199Y-43230000D03*
D16*
X210941239Y-85887500D03*
D17*
X205441239Y-85887500D03*
D16*
X199941239Y-85887500D03*
D18*
X205441239Y-79987500D03*
X210441239Y-82087500D03*
D14*
X232525000Y-38510000D03*
D15*
X232525000Y-30890000D03*
D16*
X66506199Y-85887500D03*
D17*
X61006199Y-85887500D03*
D16*
X55506199Y-85887500D03*
D18*
X61006199Y-79987500D03*
X66006199Y-82087500D03*
D19*
X45476819Y-43250000D03*
D20*
X42936819Y-43250000D03*
X40396819Y-43250000D03*
D14*
X232549999Y-72635000D03*
D15*
X232549999Y-65015000D03*
D16*
X156778099Y-34700000D03*
D17*
X151278099Y-34700000D03*
D16*
X145778099Y-34700000D03*
D18*
X151278099Y-28800000D03*
X156278099Y-30900000D03*
D14*
X196400000Y-72635000D03*
D15*
X196400000Y-65015000D03*
D14*
X232549999Y-106760000D03*
D15*
X232549999Y-99140000D03*
D16*
X247049999Y-85887500D03*
D17*
X241549999Y-85887500D03*
D16*
X236049999Y-85887500D03*
D18*
X241549999Y-79987500D03*
X246549999Y-82087500D03*
D14*
X106169339Y-55572500D03*
D15*
X106169339Y-47952500D03*
D16*
X156778099Y-51762500D03*
D17*
X151278099Y-51762500D03*
D16*
X145778099Y-51762500D03*
D18*
X151278099Y-45862500D03*
X156278099Y-47962500D03*
D14*
X160300000Y-89697500D03*
D15*
X160300000Y-82077500D03*
D14*
X142250000Y-89697500D03*
D15*
X142250000Y-82077500D03*
D16*
X102614959Y-51762500D03*
D17*
X97114959Y-51762500D03*
D16*
X91614959Y-51762500D03*
D18*
X97114959Y-45862500D03*
X102114959Y-47962500D03*
D16*
X138723719Y-102950000D03*
D17*
X133223719Y-102950000D03*
D16*
X127723719Y-102950000D03*
D18*
X133223719Y-97050000D03*
X138223719Y-99150000D03*
D16*
X138723719Y-85887500D03*
D17*
X133223719Y-85887500D03*
D16*
X127723719Y-85887500D03*
D18*
X133223719Y-79987500D03*
X138223719Y-82087500D03*
D14*
X106125000Y-38510000D03*
D15*
X106125000Y-30890000D03*
D16*
X156778099Y-85887500D03*
D17*
X151278099Y-85887500D03*
D16*
X145778099Y-85887500D03*
D18*
X151278099Y-79987500D03*
X156278099Y-82087500D03*
D16*
X174832479Y-51762500D03*
D17*
X169332479Y-51762500D03*
D16*
X163832479Y-51762500D03*
D18*
X169332479Y-45862500D03*
X174332479Y-47962500D03*
D16*
X120669339Y-51762500D03*
D17*
X115169339Y-51762500D03*
D16*
X109669339Y-51762500D03*
D18*
X115169339Y-45862500D03*
X120169339Y-47962500D03*
D14*
X124200000Y-89697500D03*
D15*
X124200000Y-82077500D03*
D16*
X174832479Y-85887500D03*
D17*
X169332479Y-85887500D03*
D16*
X163832479Y-85887500D03*
D18*
X169332479Y-79987500D03*
X174332479Y-82087500D03*
D14*
X124200000Y-106760000D03*
D15*
X124200000Y-99140000D03*
D14*
X178350000Y-106760000D03*
D15*
X178350000Y-99140000D03*
D16*
X66506199Y-68825000D03*
D17*
X61006199Y-68825000D03*
D16*
X55506199Y-68825000D03*
D18*
X61006199Y-62925000D03*
X66006199Y-65025000D03*
D16*
X192886859Y-51762500D03*
D17*
X187386859Y-51762500D03*
D16*
X181886859Y-51762500D03*
D18*
X187386859Y-45862500D03*
X192386859Y-47962500D03*
D14*
X214425000Y-38510000D03*
D15*
X214425000Y-30890000D03*
D14*
X237739999Y-94425000D03*
D15*
X245359999Y-94425000D03*
D14*
X70060579Y-106760000D03*
D15*
X70060579Y-99140000D03*
D16*
X174832479Y-34700000D03*
D17*
X169332479Y-34700000D03*
D16*
X163832479Y-34700000D03*
D18*
X169332479Y-28800000D03*
X174332479Y-30900000D03*
D14*
X196400000Y-89697500D03*
D15*
X196400000Y-82077500D03*
D16*
X120669339Y-34700000D03*
D17*
X115169339Y-34700000D03*
D16*
X109669339Y-34700000D03*
D18*
X115169339Y-28800000D03*
X120169339Y-30900000D03*
D16*
X192886859Y-85887500D03*
D17*
X187386859Y-85887500D03*
D16*
X181886859Y-85887500D03*
D18*
X187386859Y-79987500D03*
X192386859Y-82087500D03*
D14*
X70060579Y-89697500D03*
D15*
X70060579Y-82077500D03*
D14*
X178350000Y-72635000D03*
D15*
X178350000Y-65015000D03*
D14*
X142225000Y-38510000D03*
D15*
X142225000Y-30890000D03*
D14*
X196375000Y-38510000D03*
D15*
X196375000Y-30890000D03*
D14*
X57196199Y-60300000D03*
D15*
X64816199Y-60300000D03*
D16*
X84560579Y-68825000D03*
D17*
X79060579Y-68825000D03*
D16*
X73560579Y-68825000D03*
D18*
X79060579Y-62925000D03*
X84060579Y-65025000D03*
D16*
X228995619Y-68825000D03*
D17*
X223495619Y-68825000D03*
D16*
X217995619Y-68825000D03*
D18*
X223495619Y-62925000D03*
X228495619Y-65025000D03*
D14*
X219685619Y-94475000D03*
D15*
X227305619Y-94475000D03*
D16*
X156778099Y-102950000D03*
D17*
X151278099Y-102950000D03*
D16*
X145778099Y-102950000D03*
D18*
X151278099Y-97050000D03*
X156278099Y-99150000D03*
D14*
X52050000Y-72635000D03*
D15*
X52050000Y-65015000D03*
D14*
X214500000Y-89697500D03*
D15*
X214500000Y-82077500D03*
D16*
X228995619Y-102950000D03*
D17*
X223495619Y-102950000D03*
D16*
X217995619Y-102950000D03*
D18*
X223495619Y-97050000D03*
X228495619Y-99150000D03*
D14*
X237739999Y-60325000D03*
D15*
X245359999Y-60325000D03*
D16*
X138723719Y-34700000D03*
D17*
X133223719Y-34700000D03*
D16*
X127723719Y-34700000D03*
D18*
X133223719Y-28800000D03*
X138223719Y-30900000D03*
D16*
X228995619Y-34700000D03*
D17*
X223495619Y-34700000D03*
D16*
X217995619Y-34700000D03*
D18*
X223495619Y-28800000D03*
X228495619Y-30900000D03*
D16*
X210941239Y-34700000D03*
D17*
X205441239Y-34700000D03*
D16*
X199941239Y-34700000D03*
D18*
X205441239Y-28800000D03*
X210441239Y-30900000D03*
D16*
X66506199Y-34700000D03*
D17*
X61006199Y-34700000D03*
D16*
X55506199Y-34700000D03*
D18*
X61006199Y-28800000D03*
X66006199Y-30900000D03*
D16*
X84560579Y-102950000D03*
D17*
X79060579Y-102950000D03*
D16*
X73560579Y-102950000D03*
D18*
X79060579Y-97050000D03*
X84060579Y-99150000D03*
D14*
X124194339Y-38510000D03*
D15*
X124194339Y-30890000D03*
D14*
X106169339Y-106760000D03*
D15*
X106169339Y-99140000D03*
D16*
X84560579Y-85887500D03*
D17*
X79060579Y-85887500D03*
D16*
X73560579Y-85887500D03*
D18*
X79060579Y-79987500D03*
X84060579Y-82087500D03*
D16*
X120669339Y-68825000D03*
D17*
X115169339Y-68825000D03*
D16*
X109669339Y-68825000D03*
D18*
X115169339Y-62925000D03*
X120169339Y-65025000D03*
D16*
X66506199Y-51762500D03*
D17*
X61006199Y-51762500D03*
D16*
X55506199Y-51762500D03*
D18*
X61006199Y-45862500D03*
X66006199Y-47962500D03*
D16*
X210941239Y-102950000D03*
D17*
X205441239Y-102950000D03*
D16*
X199941239Y-102950000D03*
D18*
X205441239Y-97050000D03*
X210441239Y-99150000D03*
D16*
X48451819Y-85887500D03*
D17*
X42951819Y-85887500D03*
D16*
X37451819Y-85887500D03*
D18*
X42951819Y-79987500D03*
X47951819Y-82087500D03*
D14*
X214500000Y-55572500D03*
D15*
X214500000Y-47952500D03*
D14*
X52050000Y-55572500D03*
D15*
X52050000Y-47952500D03*
D16*
X247049999Y-34700000D03*
D17*
X241549999Y-34700000D03*
D16*
X236049999Y-34700000D03*
D18*
X241549999Y-28800000D03*
X246549999Y-30900000D03*
D16*
X48451819Y-34700000D03*
D17*
X42951819Y-34700000D03*
D16*
X37451819Y-34700000D03*
D18*
X42951819Y-28800000D03*
X47951819Y-30900000D03*
D14*
X52050000Y-106760000D03*
D15*
X52050000Y-99140000D03*
D14*
X178350000Y-55572500D03*
D15*
X178350000Y-47952500D03*
D16*
X120669339Y-85887500D03*
D17*
X115169339Y-85887500D03*
D16*
X109669339Y-85887500D03*
D18*
X115169339Y-79987500D03*
X120169339Y-82087500D03*
D14*
X160300000Y-72635000D03*
D15*
X160300000Y-65015000D03*
D14*
X93304959Y-60300000D03*
D15*
X100924959Y-60300000D03*
D16*
X228995619Y-85887500D03*
D17*
X223495619Y-85887500D03*
D16*
X217995619Y-85887500D03*
D18*
X223495619Y-79987500D03*
X228495619Y-82087500D03*
D16*
X210941239Y-68825000D03*
D17*
X205441239Y-68825000D03*
D16*
X199941239Y-68825000D03*
D18*
X205441239Y-62925000D03*
X210441239Y-65025000D03*
D14*
X142250000Y-72635000D03*
D15*
X142250000Y-65015000D03*
D14*
X70060579Y-72635000D03*
D15*
X70060579Y-65015000D03*
D14*
X88100000Y-106760000D03*
D15*
X88100000Y-99140000D03*
D14*
X196400000Y-55572500D03*
D15*
X196400000Y-47952500D03*
D14*
X142250000Y-106760000D03*
D15*
X142250000Y-99140000D03*
D14*
X75250579Y-60300000D03*
D15*
X82870579Y-60300000D03*
D16*
X247049999Y-68825000D03*
D17*
X241549999Y-68825000D03*
D16*
X236049999Y-68825000D03*
D18*
X241549999Y-62925000D03*
X246549999Y-65025000D03*
D16*
X192886859Y-34700000D03*
D17*
X187386859Y-34700000D03*
D16*
X181886859Y-34700000D03*
D18*
X187386859Y-28800000D03*
X192386859Y-30900000D03*
D14*
X52050000Y-89697500D03*
D15*
X52050000Y-82077500D03*
D14*
X178325000Y-38510000D03*
D15*
X178325000Y-30890000D03*
D16*
X247049999Y-51762500D03*
D17*
X241549999Y-51762500D03*
D16*
X236049999Y-51762500D03*
D18*
X241549999Y-45862500D03*
X246549999Y-47962500D03*
D16*
X48451819Y-68825000D03*
D17*
X42951819Y-68825000D03*
D16*
X37451819Y-68825000D03*
D18*
X42951819Y-62925000D03*
X47951819Y-65025000D03*
D16*
X102614959Y-34700000D03*
D17*
X97114959Y-34700000D03*
D16*
X91614959Y-34700000D03*
D18*
X97114959Y-28800000D03*
X102114959Y-30900000D03*
D16*
X156778099Y-68825000D03*
D17*
X151278099Y-68825000D03*
D16*
X145778099Y-68825000D03*
D18*
X151278099Y-62925000D03*
X156278099Y-65025000D03*
D16*
X66506199Y-102950000D03*
D17*
X61006199Y-102950000D03*
D16*
X55506199Y-102950000D03*
D18*
X61006199Y-97050000D03*
X66006199Y-99150000D03*
D16*
X48451819Y-102950000D03*
D17*
X42951819Y-102950000D03*
D16*
X37451819Y-102950000D03*
D18*
X42951819Y-97050000D03*
X47951819Y-99150000D03*
D16*
X138723719Y-68825000D03*
D17*
X133223719Y-68825000D03*
D16*
X127723719Y-68825000D03*
D18*
X133223719Y-62925000D03*
X138223719Y-65025000D03*
D14*
X124200000Y-72635000D03*
D15*
X124200000Y-65015000D03*
D16*
X192886859Y-68825000D03*
D17*
X187386859Y-68825000D03*
D16*
X181886859Y-68825000D03*
D18*
X187386859Y-62925000D03*
X192386859Y-65025000D03*
D16*
X138723719Y-51762500D03*
D17*
X133223719Y-51762500D03*
D16*
X127723719Y-51762500D03*
D18*
X133223719Y-45862500D03*
X138223719Y-47962500D03*
D14*
X124200000Y-55572500D03*
D15*
X124200000Y-47952500D03*
D16*
X247049999Y-102950000D03*
D17*
X241549999Y-102950000D03*
D16*
X236049999Y-102950000D03*
D18*
X241549999Y-97050000D03*
X246549999Y-99150000D03*
D14*
X160300000Y-55572500D03*
D15*
X160300000Y-47952500D03*
D14*
X214500000Y-106760000D03*
D15*
X214500000Y-99140000D03*
D14*
X214500000Y-72635000D03*
D15*
X214500000Y-65015000D03*
D14*
X106169339Y-89697500D03*
D15*
X106169339Y-82077500D03*
D14*
X88100000Y-72635000D03*
D15*
X88100000Y-65015000D03*
D16*
X102614959Y-85887500D03*
D17*
X97114959Y-85887500D03*
D16*
X91614959Y-85887500D03*
D18*
X97114959Y-79987500D03*
X102114959Y-82087500D03*
D14*
X237739999Y-77387500D03*
D15*
X245359999Y-77387500D03*
D16*
X120669339Y-102950000D03*
D17*
X115169339Y-102950000D03*
D16*
X109669339Y-102950000D03*
D18*
X115169339Y-97050000D03*
X120169339Y-99150000D03*
D14*
X160275000Y-38510000D03*
D15*
X160275000Y-30890000D03*
D14*
X160300000Y-106760000D03*
D15*
X160300000Y-99140000D03*
D14*
X52050000Y-38510000D03*
D15*
X52050000Y-30890000D03*
D14*
X196400000Y-106760000D03*
D15*
X196400000Y-99140000D03*
D14*
X237739999Y-43225000D03*
D15*
X245359999Y-43225000D03*
D14*
X106169339Y-72635000D03*
D15*
X106169339Y-65015000D03*
D14*
X88100000Y-89697500D03*
D15*
X88100000Y-82077500D03*
D14*
X142250000Y-55572500D03*
D15*
X142250000Y-47952500D03*
D16*
X102614959Y-68825000D03*
D17*
X97114959Y-68825000D03*
D16*
X91614959Y-68825000D03*
D18*
X97114959Y-62925000D03*
X102114959Y-65025000D03*
D16*
X174832479Y-102950000D03*
D17*
X169332479Y-102950000D03*
D16*
X163832479Y-102950000D03*
D18*
X169332479Y-97050000D03*
X174332479Y-99150000D03*
D14*
X232549999Y-55572500D03*
D15*
X232549999Y-47952500D03*
D14*
X178350000Y-89697500D03*
D15*
X178350000Y-82077500D03*
D16*
X228995619Y-51762500D03*
D17*
X223495619Y-51762500D03*
D16*
X217995619Y-51762500D03*
D18*
X223495619Y-45862500D03*
X228495619Y-47962500D03*
D14*
X232549999Y-89697500D03*
D15*
X232549999Y-82077500D03*
D16*
X48451819Y-51762500D03*
D17*
X42951819Y-51762500D03*
D16*
X37451819Y-51762500D03*
D18*
X42951819Y-45862500D03*
X47951819Y-47962500D03*
D16*
X192886859Y-102950000D03*
D17*
X187386859Y-102950000D03*
D16*
X181886859Y-102950000D03*
D18*
X187386859Y-97050000D03*
X192386859Y-99150000D03*
D16*
X84560579Y-51762500D03*
D17*
X79060579Y-51762500D03*
D16*
X73560579Y-51762500D03*
D18*
X79060579Y-45862500D03*
X84060579Y-47962500D03*
D16*
X102614959Y-102950000D03*
D17*
X97114959Y-102950000D03*
D16*
X91614959Y-102950000D03*
D18*
X97114959Y-97050000D03*
X102114959Y-99150000D03*
D16*
X84560579Y-34700000D03*
D17*
X79060579Y-34700000D03*
D16*
X73560579Y-34700000D03*
D18*
X79060579Y-28800000D03*
X84060579Y-30900000D03*
D16*
X210941239Y-51762500D03*
D17*
X205441239Y-51762500D03*
D16*
X199941239Y-51762500D03*
D18*
X205441239Y-45862500D03*
X210441239Y-47962500D03*
D16*
X174832479Y-68825000D03*
D17*
X169332479Y-68825000D03*
D16*
X163832479Y-68825000D03*
D18*
X169332479Y-62925000D03*
X174332479Y-65025000D03*
D12*
X86680579Y-30116750D03*
D13*
X86680579Y-32656750D03*
X86680579Y-35196750D03*
X86680579Y-37736750D03*
X86680579Y-40276750D03*
X86680579Y-42816750D03*
X86680579Y-45356750D03*
X86680579Y-47896750D03*
X86680579Y-50436750D03*
X86680579Y-52976750D03*
X86680579Y-55516750D03*
X86680579Y-58056750D03*
X71440579Y-58056750D03*
X71440579Y-55516750D03*
X71440579Y-52976750D03*
X71440579Y-50436750D03*
X71440579Y-47896750D03*
X71440579Y-45356750D03*
X71440579Y-42816750D03*
X71440579Y-40276750D03*
X71440579Y-37736750D03*
X71440579Y-35196750D03*
X71440579Y-32656750D03*
X71440579Y-30116750D03*
M02*
