G04 #@! TF.GenerationSoftware,KiCad,Pcbnew,7.0.1*
G04 #@! TF.CreationDate,2023-04-09T21:37:26+02:00*
G04 #@! TF.ProjectId,velociraptor,76656c6f-6369-4726-9170-746f722e6b69,rev?*
G04 #@! TF.SameCoordinates,Original*
G04 #@! TF.FileFunction,Legend,Bot*
G04 #@! TF.FilePolarity,Positive*
%FSLAX46Y46*%
G04 Gerber Fmt 4.6, Leading zero omitted, Abs format (unit mm)*
G04 Created by KiCad (PCBNEW 7.0.1) date 2023-04-09 21:37:26*
%MOMM*%
%LPD*%
G01*
G04 APERTURE LIST*
%ADD10C,0.300000*%
%ADD11C,0.150000*%
%ADD12C,0.381000*%
%ADD13C,1.752600*%
%ADD14R,1.752600X1.752600*%
%ADD15C,4.400000*%
%ADD16C,3.400000*%
%ADD17C,2.000000*%
%ADD18C,1.700000*%
%ADD19O,1.600000X1.600000*%
%ADD20R,1.600000X1.600000*%
%ADD21O,1.700000X1.700000*%
%ADD22R,1.700000X1.700000*%
G04 APERTURE END LIST*
D10*
X249782142Y-109491428D02*
X249282142Y-110991428D01*
X249282142Y-110991428D02*
X248782142Y-109491428D01*
X247710714Y-110920000D02*
X247853571Y-110991428D01*
X247853571Y-110991428D02*
X248139286Y-110991428D01*
X248139286Y-110991428D02*
X248282143Y-110920000D01*
X248282143Y-110920000D02*
X248353571Y-110777142D01*
X248353571Y-110777142D02*
X248353571Y-110205714D01*
X248353571Y-110205714D02*
X248282143Y-110062857D01*
X248282143Y-110062857D02*
X248139286Y-109991428D01*
X248139286Y-109991428D02*
X247853571Y-109991428D01*
X247853571Y-109991428D02*
X247710714Y-110062857D01*
X247710714Y-110062857D02*
X247639286Y-110205714D01*
X247639286Y-110205714D02*
X247639286Y-110348571D01*
X247639286Y-110348571D02*
X248353571Y-110491428D01*
X246782143Y-110991428D02*
X246925000Y-110920000D01*
X246925000Y-110920000D02*
X246996429Y-110777142D01*
X246996429Y-110777142D02*
X246996429Y-109491428D01*
X245996429Y-110991428D02*
X246139286Y-110920000D01*
X246139286Y-110920000D02*
X246210715Y-110848571D01*
X246210715Y-110848571D02*
X246282143Y-110705714D01*
X246282143Y-110705714D02*
X246282143Y-110277142D01*
X246282143Y-110277142D02*
X246210715Y-110134285D01*
X246210715Y-110134285D02*
X246139286Y-110062857D01*
X246139286Y-110062857D02*
X245996429Y-109991428D01*
X245996429Y-109991428D02*
X245782143Y-109991428D01*
X245782143Y-109991428D02*
X245639286Y-110062857D01*
X245639286Y-110062857D02*
X245567858Y-110134285D01*
X245567858Y-110134285D02*
X245496429Y-110277142D01*
X245496429Y-110277142D02*
X245496429Y-110705714D01*
X245496429Y-110705714D02*
X245567858Y-110848571D01*
X245567858Y-110848571D02*
X245639286Y-110920000D01*
X245639286Y-110920000D02*
X245782143Y-110991428D01*
X245782143Y-110991428D02*
X245996429Y-110991428D01*
X244210715Y-110920000D02*
X244353572Y-110991428D01*
X244353572Y-110991428D02*
X244639286Y-110991428D01*
X244639286Y-110991428D02*
X244782143Y-110920000D01*
X244782143Y-110920000D02*
X244853572Y-110848571D01*
X244853572Y-110848571D02*
X244925000Y-110705714D01*
X244925000Y-110705714D02*
X244925000Y-110277142D01*
X244925000Y-110277142D02*
X244853572Y-110134285D01*
X244853572Y-110134285D02*
X244782143Y-110062857D01*
X244782143Y-110062857D02*
X244639286Y-109991428D01*
X244639286Y-109991428D02*
X244353572Y-109991428D01*
X244353572Y-109991428D02*
X244210715Y-110062857D01*
X243567858Y-110991428D02*
X243567858Y-109991428D01*
X243567858Y-109491428D02*
X243639286Y-109562857D01*
X243639286Y-109562857D02*
X243567858Y-109634285D01*
X243567858Y-109634285D02*
X243496429Y-109562857D01*
X243496429Y-109562857D02*
X243567858Y-109491428D01*
X243567858Y-109491428D02*
X243567858Y-109634285D01*
X242853572Y-110991428D02*
X242853572Y-109991428D01*
X242853572Y-110277142D02*
X242782143Y-110134285D01*
X242782143Y-110134285D02*
X242710715Y-110062857D01*
X242710715Y-110062857D02*
X242567857Y-109991428D01*
X242567857Y-109991428D02*
X242425000Y-109991428D01*
X241282144Y-110991428D02*
X241282144Y-110205714D01*
X241282144Y-110205714D02*
X241353572Y-110062857D01*
X241353572Y-110062857D02*
X241496429Y-109991428D01*
X241496429Y-109991428D02*
X241782144Y-109991428D01*
X241782144Y-109991428D02*
X241925001Y-110062857D01*
X241282144Y-110920000D02*
X241425001Y-110991428D01*
X241425001Y-110991428D02*
X241782144Y-110991428D01*
X241782144Y-110991428D02*
X241925001Y-110920000D01*
X241925001Y-110920000D02*
X241996429Y-110777142D01*
X241996429Y-110777142D02*
X241996429Y-110634285D01*
X241996429Y-110634285D02*
X241925001Y-110491428D01*
X241925001Y-110491428D02*
X241782144Y-110420000D01*
X241782144Y-110420000D02*
X241425001Y-110420000D01*
X241425001Y-110420000D02*
X241282144Y-110348571D01*
X240567858Y-109991428D02*
X240567858Y-111491428D01*
X240567858Y-110062857D02*
X240425001Y-109991428D01*
X240425001Y-109991428D02*
X240139286Y-109991428D01*
X240139286Y-109991428D02*
X239996429Y-110062857D01*
X239996429Y-110062857D02*
X239925001Y-110134285D01*
X239925001Y-110134285D02*
X239853572Y-110277142D01*
X239853572Y-110277142D02*
X239853572Y-110705714D01*
X239853572Y-110705714D02*
X239925001Y-110848571D01*
X239925001Y-110848571D02*
X239996429Y-110920000D01*
X239996429Y-110920000D02*
X240139286Y-110991428D01*
X240139286Y-110991428D02*
X240425001Y-110991428D01*
X240425001Y-110991428D02*
X240567858Y-110920000D01*
X239425000Y-109991428D02*
X238853572Y-109991428D01*
X239210715Y-109491428D02*
X239210715Y-110777142D01*
X239210715Y-110777142D02*
X239139286Y-110920000D01*
X239139286Y-110920000D02*
X238996429Y-110991428D01*
X238996429Y-110991428D02*
X238853572Y-110991428D01*
X238139286Y-110991428D02*
X238282143Y-110920000D01*
X238282143Y-110920000D02*
X238353572Y-110848571D01*
X238353572Y-110848571D02*
X238425000Y-110705714D01*
X238425000Y-110705714D02*
X238425000Y-110277142D01*
X238425000Y-110277142D02*
X238353572Y-110134285D01*
X238353572Y-110134285D02*
X238282143Y-110062857D01*
X238282143Y-110062857D02*
X238139286Y-109991428D01*
X238139286Y-109991428D02*
X237925000Y-109991428D01*
X237925000Y-109991428D02*
X237782143Y-110062857D01*
X237782143Y-110062857D02*
X237710715Y-110134285D01*
X237710715Y-110134285D02*
X237639286Y-110277142D01*
X237639286Y-110277142D02*
X237639286Y-110705714D01*
X237639286Y-110705714D02*
X237710715Y-110848571D01*
X237710715Y-110848571D02*
X237782143Y-110920000D01*
X237782143Y-110920000D02*
X237925000Y-110991428D01*
X237925000Y-110991428D02*
X238139286Y-110991428D01*
X236996429Y-110991428D02*
X236996429Y-109991428D01*
X236996429Y-110277142D02*
X236925000Y-110134285D01*
X236925000Y-110134285D02*
X236853572Y-110062857D01*
X236853572Y-110062857D02*
X236710714Y-109991428D01*
X236710714Y-109991428D02*
X236567857Y-109991428D01*
X234925001Y-110991428D02*
X234925001Y-109491428D01*
X234925001Y-109491428D02*
X234353572Y-109491428D01*
X234353572Y-109491428D02*
X234210715Y-109562857D01*
X234210715Y-109562857D02*
X234139286Y-109634285D01*
X234139286Y-109634285D02*
X234067858Y-109777142D01*
X234067858Y-109777142D02*
X234067858Y-109991428D01*
X234067858Y-109991428D02*
X234139286Y-110134285D01*
X234139286Y-110134285D02*
X234210715Y-110205714D01*
X234210715Y-110205714D02*
X234353572Y-110277142D01*
X234353572Y-110277142D02*
X234925001Y-110277142D01*
X232567858Y-110848571D02*
X232639286Y-110920000D01*
X232639286Y-110920000D02*
X232853572Y-110991428D01*
X232853572Y-110991428D02*
X232996429Y-110991428D01*
X232996429Y-110991428D02*
X233210715Y-110920000D01*
X233210715Y-110920000D02*
X233353572Y-110777142D01*
X233353572Y-110777142D02*
X233425001Y-110634285D01*
X233425001Y-110634285D02*
X233496429Y-110348571D01*
X233496429Y-110348571D02*
X233496429Y-110134285D01*
X233496429Y-110134285D02*
X233425001Y-109848571D01*
X233425001Y-109848571D02*
X233353572Y-109705714D01*
X233353572Y-109705714D02*
X233210715Y-109562857D01*
X233210715Y-109562857D02*
X232996429Y-109491428D01*
X232996429Y-109491428D02*
X232853572Y-109491428D01*
X232853572Y-109491428D02*
X232639286Y-109562857D01*
X232639286Y-109562857D02*
X232567858Y-109634285D01*
X231425001Y-110205714D02*
X231210715Y-110277142D01*
X231210715Y-110277142D02*
X231139286Y-110348571D01*
X231139286Y-110348571D02*
X231067858Y-110491428D01*
X231067858Y-110491428D02*
X231067858Y-110705714D01*
X231067858Y-110705714D02*
X231139286Y-110848571D01*
X231139286Y-110848571D02*
X231210715Y-110920000D01*
X231210715Y-110920000D02*
X231353572Y-110991428D01*
X231353572Y-110991428D02*
X231925001Y-110991428D01*
X231925001Y-110991428D02*
X231925001Y-109491428D01*
X231925001Y-109491428D02*
X231425001Y-109491428D01*
X231425001Y-109491428D02*
X231282144Y-109562857D01*
X231282144Y-109562857D02*
X231210715Y-109634285D01*
X231210715Y-109634285D02*
X231139286Y-109777142D01*
X231139286Y-109777142D02*
X231139286Y-109920000D01*
X231139286Y-109920000D02*
X231210715Y-110062857D01*
X231210715Y-110062857D02*
X231282144Y-110134285D01*
X231282144Y-110134285D02*
X231425001Y-110205714D01*
X231425001Y-110205714D02*
X231925001Y-110205714D01*
X229282144Y-110991428D02*
X229282144Y-109491428D01*
X229282144Y-110062857D02*
X229139287Y-109991428D01*
X229139287Y-109991428D02*
X228853572Y-109991428D01*
X228853572Y-109991428D02*
X228710715Y-110062857D01*
X228710715Y-110062857D02*
X228639287Y-110134285D01*
X228639287Y-110134285D02*
X228567858Y-110277142D01*
X228567858Y-110277142D02*
X228567858Y-110705714D01*
X228567858Y-110705714D02*
X228639287Y-110848571D01*
X228639287Y-110848571D02*
X228710715Y-110920000D01*
X228710715Y-110920000D02*
X228853572Y-110991428D01*
X228853572Y-110991428D02*
X229139287Y-110991428D01*
X229139287Y-110991428D02*
X229282144Y-110920000D01*
X228067858Y-109991428D02*
X227710715Y-110991428D01*
X227353572Y-109991428D02*
X227710715Y-110991428D01*
X227710715Y-110991428D02*
X227853572Y-111348571D01*
X227853572Y-111348571D02*
X227925001Y-111420000D01*
X227925001Y-111420000D02*
X228067858Y-111491428D01*
X225710715Y-110920000D02*
X225496430Y-110991428D01*
X225496430Y-110991428D02*
X225139287Y-110991428D01*
X225139287Y-110991428D02*
X224996430Y-110920000D01*
X224996430Y-110920000D02*
X224925001Y-110848571D01*
X224925001Y-110848571D02*
X224853572Y-110705714D01*
X224853572Y-110705714D02*
X224853572Y-110562857D01*
X224853572Y-110562857D02*
X224925001Y-110420000D01*
X224925001Y-110420000D02*
X224996430Y-110348571D01*
X224996430Y-110348571D02*
X225139287Y-110277142D01*
X225139287Y-110277142D02*
X225425001Y-110205714D01*
X225425001Y-110205714D02*
X225567858Y-110134285D01*
X225567858Y-110134285D02*
X225639287Y-110062857D01*
X225639287Y-110062857D02*
X225710715Y-109920000D01*
X225710715Y-109920000D02*
X225710715Y-109777142D01*
X225710715Y-109777142D02*
X225639287Y-109634285D01*
X225639287Y-109634285D02*
X225567858Y-109562857D01*
X225567858Y-109562857D02*
X225425001Y-109491428D01*
X225425001Y-109491428D02*
X225067858Y-109491428D01*
X225067858Y-109491428D02*
X224853572Y-109562857D01*
X224353573Y-109991428D02*
X223996430Y-110991428D01*
X223639287Y-109991428D02*
X223996430Y-110991428D01*
X223996430Y-110991428D02*
X224139287Y-111348571D01*
X224139287Y-111348571D02*
X224210716Y-111420000D01*
X224210716Y-111420000D02*
X224353573Y-111491428D01*
X222853573Y-110991428D02*
X222996430Y-110920000D01*
X222996430Y-110920000D02*
X223067859Y-110777142D01*
X223067859Y-110777142D02*
X223067859Y-109491428D01*
X222282145Y-110991428D02*
X222282145Y-109991428D01*
X222282145Y-109491428D02*
X222353573Y-109562857D01*
X222353573Y-109562857D02*
X222282145Y-109634285D01*
X222282145Y-109634285D02*
X222210716Y-109562857D01*
X222210716Y-109562857D02*
X222282145Y-109491428D01*
X222282145Y-109491428D02*
X222282145Y-109634285D01*
X221710716Y-109991428D02*
X221353573Y-110991428D01*
X221353573Y-110991428D02*
X220996430Y-109991428D01*
X219782145Y-110991428D02*
X219782145Y-110205714D01*
X219782145Y-110205714D02*
X219853573Y-110062857D01*
X219853573Y-110062857D02*
X219996430Y-109991428D01*
X219996430Y-109991428D02*
X220282145Y-109991428D01*
X220282145Y-109991428D02*
X220425002Y-110062857D01*
X219782145Y-110920000D02*
X219925002Y-110991428D01*
X219925002Y-110991428D02*
X220282145Y-110991428D01*
X220282145Y-110991428D02*
X220425002Y-110920000D01*
X220425002Y-110920000D02*
X220496430Y-110777142D01*
X220496430Y-110777142D02*
X220496430Y-110634285D01*
X220496430Y-110634285D02*
X220425002Y-110491428D01*
X220425002Y-110491428D02*
X220282145Y-110420000D01*
X220282145Y-110420000D02*
X219925002Y-110420000D01*
X219925002Y-110420000D02*
X219782145Y-110348571D01*
X219067859Y-109991428D02*
X219067859Y-110991428D01*
X219067859Y-110134285D02*
X218996430Y-110062857D01*
X218996430Y-110062857D02*
X218853573Y-109991428D01*
X218853573Y-109991428D02*
X218639287Y-109991428D01*
X218639287Y-109991428D02*
X218496430Y-110062857D01*
X218496430Y-110062857D02*
X218425002Y-110205714D01*
X218425002Y-110205714D02*
X218425002Y-110991428D01*
X217710716Y-110991428D02*
X217710716Y-109491428D01*
X216853573Y-110991428D02*
X217496430Y-110134285D01*
X216853573Y-109491428D02*
X217710716Y-110348571D01*
X215639287Y-110920000D02*
X215782144Y-110991428D01*
X215782144Y-110991428D02*
X216067859Y-110991428D01*
X216067859Y-110991428D02*
X216210716Y-110920000D01*
X216210716Y-110920000D02*
X216282144Y-110777142D01*
X216282144Y-110777142D02*
X216282144Y-110205714D01*
X216282144Y-110205714D02*
X216210716Y-110062857D01*
X216210716Y-110062857D02*
X216067859Y-109991428D01*
X216067859Y-109991428D02*
X215782144Y-109991428D01*
X215782144Y-109991428D02*
X215639287Y-110062857D01*
X215639287Y-110062857D02*
X215567859Y-110205714D01*
X215567859Y-110205714D02*
X215567859Y-110348571D01*
X215567859Y-110348571D02*
X216282144Y-110491428D01*
X214925002Y-109991428D02*
X214925002Y-110991428D01*
X214925002Y-110134285D02*
X214853573Y-110062857D01*
X214853573Y-110062857D02*
X214710716Y-109991428D01*
X214710716Y-109991428D02*
X214496430Y-109991428D01*
X214496430Y-109991428D02*
X214353573Y-110062857D01*
X214353573Y-110062857D02*
X214282145Y-110205714D01*
X214282145Y-110205714D02*
X214282145Y-110991428D01*
X213353573Y-110991428D02*
X213496430Y-110920000D01*
X213496430Y-110920000D02*
X213567859Y-110848571D01*
X213567859Y-110848571D02*
X213639287Y-110705714D01*
X213639287Y-110705714D02*
X213639287Y-110277142D01*
X213639287Y-110277142D02*
X213567859Y-110134285D01*
X213567859Y-110134285D02*
X213496430Y-110062857D01*
X213496430Y-110062857D02*
X213353573Y-109991428D01*
X213353573Y-109991428D02*
X213139287Y-109991428D01*
X213139287Y-109991428D02*
X212996430Y-110062857D01*
X212996430Y-110062857D02*
X212925002Y-110134285D01*
X212925002Y-110134285D02*
X212853573Y-110277142D01*
X212853573Y-110277142D02*
X212853573Y-110705714D01*
X212853573Y-110705714D02*
X212925002Y-110848571D01*
X212925002Y-110848571D02*
X212996430Y-110920000D01*
X212996430Y-110920000D02*
X213139287Y-110991428D01*
X213139287Y-110991428D02*
X213353573Y-110991428D01*
X212210716Y-110991428D02*
X212210716Y-109491428D01*
X212210716Y-110062857D02*
X212067859Y-109991428D01*
X212067859Y-109991428D02*
X211782144Y-109991428D01*
X211782144Y-109991428D02*
X211639287Y-110062857D01*
X211639287Y-110062857D02*
X211567859Y-110134285D01*
X211567859Y-110134285D02*
X211496430Y-110277142D01*
X211496430Y-110277142D02*
X211496430Y-110705714D01*
X211496430Y-110705714D02*
X211567859Y-110848571D01*
X211567859Y-110848571D02*
X211639287Y-110920000D01*
X211639287Y-110920000D02*
X211782144Y-110991428D01*
X211782144Y-110991428D02*
X212067859Y-110991428D01*
X212067859Y-110991428D02*
X212210716Y-110920000D01*
X210853573Y-110991428D02*
X210853573Y-109991428D01*
X210853573Y-109491428D02*
X210925001Y-109562857D01*
X210925001Y-109562857D02*
X210853573Y-109634285D01*
X210853573Y-109634285D02*
X210782144Y-109562857D01*
X210782144Y-109562857D02*
X210853573Y-109491428D01*
X210853573Y-109491428D02*
X210853573Y-109634285D01*
D11*
X73923388Y-50387797D02*
X73809102Y-50425892D01*
X73809102Y-50425892D02*
X73771007Y-50463988D01*
X73771007Y-50463988D02*
X73732911Y-50540178D01*
X73732911Y-50540178D02*
X73732911Y-50654464D01*
X73732911Y-50654464D02*
X73771007Y-50730654D01*
X73771007Y-50730654D02*
X73809102Y-50768750D01*
X73809102Y-50768750D02*
X73885292Y-50806845D01*
X73885292Y-50806845D02*
X74190054Y-50806845D01*
X74190054Y-50806845D02*
X74190054Y-50006845D01*
X74190054Y-50006845D02*
X73923388Y-50006845D01*
X73923388Y-50006845D02*
X73847197Y-50044940D01*
X73847197Y-50044940D02*
X73809102Y-50083035D01*
X73809102Y-50083035D02*
X73771007Y-50159226D01*
X73771007Y-50159226D02*
X73771007Y-50235416D01*
X73771007Y-50235416D02*
X73809102Y-50311607D01*
X73809102Y-50311607D02*
X73847197Y-50349702D01*
X73847197Y-50349702D02*
X73923388Y-50387797D01*
X73923388Y-50387797D02*
X74190054Y-50387797D01*
X72971007Y-50806845D02*
X73428150Y-50806845D01*
X73199578Y-50806845D02*
X73199578Y-50006845D01*
X73199578Y-50006845D02*
X73275769Y-50121130D01*
X73275769Y-50121130D02*
X73351959Y-50197321D01*
X73351959Y-50197321D02*
X73428150Y-50235416D01*
X74209102Y-32264940D02*
X74285292Y-32226845D01*
X74285292Y-32226845D02*
X74399578Y-32226845D01*
X74399578Y-32226845D02*
X74513864Y-32264940D01*
X74513864Y-32264940D02*
X74590054Y-32341130D01*
X74590054Y-32341130D02*
X74628149Y-32417321D01*
X74628149Y-32417321D02*
X74666245Y-32569702D01*
X74666245Y-32569702D02*
X74666245Y-32683988D01*
X74666245Y-32683988D02*
X74628149Y-32836369D01*
X74628149Y-32836369D02*
X74590054Y-32912559D01*
X74590054Y-32912559D02*
X74513864Y-32988750D01*
X74513864Y-32988750D02*
X74399578Y-33026845D01*
X74399578Y-33026845D02*
X74323387Y-33026845D01*
X74323387Y-33026845D02*
X74209102Y-32988750D01*
X74209102Y-32988750D02*
X74171006Y-32950654D01*
X74171006Y-32950654D02*
X74171006Y-32683988D01*
X74171006Y-32683988D02*
X74323387Y-32683988D01*
X73828149Y-33026845D02*
X73828149Y-32226845D01*
X73828149Y-32226845D02*
X73371006Y-33026845D01*
X73371006Y-33026845D02*
X73371006Y-32226845D01*
X72990054Y-33026845D02*
X72990054Y-32226845D01*
X72990054Y-32226845D02*
X72799578Y-32226845D01*
X72799578Y-32226845D02*
X72685292Y-32264940D01*
X72685292Y-32264940D02*
X72609102Y-32341130D01*
X72609102Y-32341130D02*
X72571007Y-32417321D01*
X72571007Y-32417321D02*
X72532911Y-32569702D01*
X72532911Y-32569702D02*
X72532911Y-32683988D01*
X72532911Y-32683988D02*
X72571007Y-32836369D01*
X72571007Y-32836369D02*
X72609102Y-32912559D01*
X72609102Y-32912559D02*
X72685292Y-32988750D01*
X72685292Y-32988750D02*
X72799578Y-33026845D01*
X72799578Y-33026845D02*
X72990054Y-33026845D01*
X73866245Y-47847797D02*
X74132911Y-47847797D01*
X74132911Y-48266845D02*
X74132911Y-47466845D01*
X74132911Y-47466845D02*
X73751959Y-47466845D01*
X73523388Y-47466845D02*
X72990054Y-47466845D01*
X72990054Y-47466845D02*
X73332912Y-48266845D01*
X85112054Y-45726845D02*
X85112054Y-44926845D01*
X85112054Y-44926845D02*
X84921578Y-44926845D01*
X84921578Y-44926845D02*
X84807292Y-44964940D01*
X84807292Y-44964940D02*
X84731102Y-45041130D01*
X84731102Y-45041130D02*
X84693007Y-45117321D01*
X84693007Y-45117321D02*
X84654911Y-45269702D01*
X84654911Y-45269702D02*
X84654911Y-45383988D01*
X84654911Y-45383988D02*
X84693007Y-45536369D01*
X84693007Y-45536369D02*
X84731102Y-45612559D01*
X84731102Y-45612559D02*
X84807292Y-45688750D01*
X84807292Y-45688750D02*
X84921578Y-45726845D01*
X84921578Y-45726845D02*
X85112054Y-45726845D01*
X83969197Y-45193511D02*
X83969197Y-45726845D01*
X84159673Y-44888750D02*
X84350150Y-45460178D01*
X84350150Y-45460178D02*
X83854911Y-45460178D01*
X85112054Y-40646845D02*
X85112054Y-39846845D01*
X85112054Y-39846845D02*
X84921578Y-39846845D01*
X84921578Y-39846845D02*
X84807292Y-39884940D01*
X84807292Y-39884940D02*
X84731102Y-39961130D01*
X84731102Y-39961130D02*
X84693007Y-40037321D01*
X84693007Y-40037321D02*
X84654911Y-40189702D01*
X84654911Y-40189702D02*
X84654911Y-40303988D01*
X84654911Y-40303988D02*
X84693007Y-40456369D01*
X84693007Y-40456369D02*
X84731102Y-40532559D01*
X84731102Y-40532559D02*
X84807292Y-40608750D01*
X84807292Y-40608750D02*
X84921578Y-40646845D01*
X84921578Y-40646845D02*
X85112054Y-40646845D01*
X83893007Y-40646845D02*
X84350150Y-40646845D01*
X84121578Y-40646845D02*
X84121578Y-39846845D01*
X84121578Y-39846845D02*
X84197769Y-39961130D01*
X84197769Y-39961130D02*
X84273959Y-40037321D01*
X84273959Y-40037321D02*
X84350150Y-40075416D01*
X73866245Y-42767797D02*
X74132911Y-42767797D01*
X74132911Y-43186845D02*
X74132911Y-42386845D01*
X74132911Y-42386845D02*
X73751959Y-42386845D01*
X73066245Y-42386845D02*
X73447197Y-42386845D01*
X73447197Y-42386845D02*
X73485293Y-42767797D01*
X73485293Y-42767797D02*
X73447197Y-42729702D01*
X73447197Y-42729702D02*
X73371007Y-42691607D01*
X73371007Y-42691607D02*
X73180531Y-42691607D01*
X73180531Y-42691607D02*
X73104340Y-42729702D01*
X73104340Y-42729702D02*
X73066245Y-42767797D01*
X73066245Y-42767797D02*
X73028150Y-42843988D01*
X73028150Y-42843988D02*
X73028150Y-43034464D01*
X73028150Y-43034464D02*
X73066245Y-43110654D01*
X73066245Y-43110654D02*
X73104340Y-43148750D01*
X73104340Y-43148750D02*
X73180531Y-43186845D01*
X73180531Y-43186845D02*
X73371007Y-43186845D01*
X73371007Y-43186845D02*
X73447197Y-43148750D01*
X73447197Y-43148750D02*
X73485293Y-43110654D01*
X84822927Y-29686845D02*
X84365784Y-29686845D01*
X84594356Y-30486845D02*
X84594356Y-29686845D01*
X84175308Y-29686845D02*
X83641974Y-30486845D01*
X83641974Y-29686845D02*
X84175308Y-30486845D01*
X83184831Y-29686845D02*
X83108641Y-29686845D01*
X83108641Y-29686845D02*
X83032450Y-29724940D01*
X83032450Y-29724940D02*
X82994355Y-29763035D01*
X82994355Y-29763035D02*
X82956260Y-29839226D01*
X82956260Y-29839226D02*
X82918165Y-29991607D01*
X82918165Y-29991607D02*
X82918165Y-30182083D01*
X82918165Y-30182083D02*
X82956260Y-30334464D01*
X82956260Y-30334464D02*
X82994355Y-30410654D01*
X82994355Y-30410654D02*
X83032450Y-30448750D01*
X83032450Y-30448750D02*
X83108641Y-30486845D01*
X83108641Y-30486845D02*
X83184831Y-30486845D01*
X83184831Y-30486845D02*
X83261022Y-30448750D01*
X83261022Y-30448750D02*
X83299117Y-30410654D01*
X83299117Y-30410654D02*
X83337212Y-30334464D01*
X83337212Y-30334464D02*
X83375308Y-30182083D01*
X83375308Y-30182083D02*
X83375308Y-29991607D01*
X83375308Y-29991607D02*
X83337212Y-29839226D01*
X83337212Y-29839226D02*
X83299117Y-29763035D01*
X83299117Y-29763035D02*
X83261022Y-29724940D01*
X83261022Y-29724940D02*
X83184831Y-29686845D01*
X82003879Y-29648750D02*
X82689593Y-30677321D01*
X81737212Y-30486845D02*
X81737212Y-29686845D01*
X81737212Y-29686845D02*
X81546736Y-29686845D01*
X81546736Y-29686845D02*
X81432450Y-29724940D01*
X81432450Y-29724940D02*
X81356260Y-29801130D01*
X81356260Y-29801130D02*
X81318165Y-29877321D01*
X81318165Y-29877321D02*
X81280069Y-30029702D01*
X81280069Y-30029702D02*
X81280069Y-30143988D01*
X81280069Y-30143988D02*
X81318165Y-30296369D01*
X81318165Y-30296369D02*
X81356260Y-30372559D01*
X81356260Y-30372559D02*
X81432450Y-30448750D01*
X81432450Y-30448750D02*
X81546736Y-30486845D01*
X81546736Y-30486845D02*
X81737212Y-30486845D01*
X81013403Y-29686845D02*
X80518165Y-29686845D01*
X80518165Y-29686845D02*
X80784831Y-29991607D01*
X80784831Y-29991607D02*
X80670546Y-29991607D01*
X80670546Y-29991607D02*
X80594355Y-30029702D01*
X80594355Y-30029702D02*
X80556260Y-30067797D01*
X80556260Y-30067797D02*
X80518165Y-30143988D01*
X80518165Y-30143988D02*
X80518165Y-30334464D01*
X80518165Y-30334464D02*
X80556260Y-30410654D01*
X80556260Y-30410654D02*
X80594355Y-30448750D01*
X80594355Y-30448750D02*
X80670546Y-30486845D01*
X80670546Y-30486845D02*
X80899117Y-30486845D01*
X80899117Y-30486845D02*
X80975308Y-30448750D01*
X80975308Y-30448750D02*
X81013403Y-30410654D01*
X84654911Y-48190654D02*
X84693007Y-48228750D01*
X84693007Y-48228750D02*
X84807292Y-48266845D01*
X84807292Y-48266845D02*
X84883483Y-48266845D01*
X84883483Y-48266845D02*
X84997769Y-48228750D01*
X84997769Y-48228750D02*
X85073959Y-48152559D01*
X85073959Y-48152559D02*
X85112054Y-48076369D01*
X85112054Y-48076369D02*
X85150150Y-47923988D01*
X85150150Y-47923988D02*
X85150150Y-47809702D01*
X85150150Y-47809702D02*
X85112054Y-47657321D01*
X85112054Y-47657321D02*
X85073959Y-47581130D01*
X85073959Y-47581130D02*
X84997769Y-47504940D01*
X84997769Y-47504940D02*
X84883483Y-47466845D01*
X84883483Y-47466845D02*
X84807292Y-47466845D01*
X84807292Y-47466845D02*
X84693007Y-47504940D01*
X84693007Y-47504940D02*
X84654911Y-47543035D01*
X83969197Y-47466845D02*
X84121578Y-47466845D01*
X84121578Y-47466845D02*
X84197769Y-47504940D01*
X84197769Y-47504940D02*
X84235864Y-47543035D01*
X84235864Y-47543035D02*
X84312054Y-47657321D01*
X84312054Y-47657321D02*
X84350150Y-47809702D01*
X84350150Y-47809702D02*
X84350150Y-48114464D01*
X84350150Y-48114464D02*
X84312054Y-48190654D01*
X84312054Y-48190654D02*
X84273959Y-48228750D01*
X84273959Y-48228750D02*
X84197769Y-48266845D01*
X84197769Y-48266845D02*
X84045388Y-48266845D01*
X84045388Y-48266845D02*
X83969197Y-48228750D01*
X83969197Y-48228750D02*
X83931102Y-48190654D01*
X83931102Y-48190654D02*
X83893007Y-48114464D01*
X83893007Y-48114464D02*
X83893007Y-47923988D01*
X83893007Y-47923988D02*
X83931102Y-47847797D01*
X83931102Y-47847797D02*
X83969197Y-47809702D01*
X83969197Y-47809702D02*
X84045388Y-47771607D01*
X84045388Y-47771607D02*
X84197769Y-47771607D01*
X84197769Y-47771607D02*
X84273959Y-47809702D01*
X84273959Y-47809702D02*
X84312054Y-47847797D01*
X84312054Y-47847797D02*
X84350150Y-47923988D01*
X85112054Y-50806845D02*
X85112054Y-50006845D01*
X85112054Y-50006845D02*
X84921578Y-50006845D01*
X84921578Y-50006845D02*
X84807292Y-50044940D01*
X84807292Y-50044940D02*
X84731102Y-50121130D01*
X84731102Y-50121130D02*
X84693007Y-50197321D01*
X84693007Y-50197321D02*
X84654911Y-50349702D01*
X84654911Y-50349702D02*
X84654911Y-50463988D01*
X84654911Y-50463988D02*
X84693007Y-50616369D01*
X84693007Y-50616369D02*
X84731102Y-50692559D01*
X84731102Y-50692559D02*
X84807292Y-50768750D01*
X84807292Y-50768750D02*
X84921578Y-50806845D01*
X84921578Y-50806845D02*
X85112054Y-50806845D01*
X84388245Y-50006845D02*
X83854911Y-50006845D01*
X83854911Y-50006845D02*
X84197769Y-50806845D01*
X85073959Y-52927797D02*
X84807293Y-52927797D01*
X84693007Y-53346845D02*
X85073959Y-53346845D01*
X85073959Y-53346845D02*
X85073959Y-52546845D01*
X85073959Y-52546845D02*
X84693007Y-52546845D01*
X84007292Y-52546845D02*
X84159673Y-52546845D01*
X84159673Y-52546845D02*
X84235864Y-52584940D01*
X84235864Y-52584940D02*
X84273959Y-52623035D01*
X84273959Y-52623035D02*
X84350149Y-52737321D01*
X84350149Y-52737321D02*
X84388245Y-52889702D01*
X84388245Y-52889702D02*
X84388245Y-53194464D01*
X84388245Y-53194464D02*
X84350149Y-53270654D01*
X84350149Y-53270654D02*
X84312054Y-53308750D01*
X84312054Y-53308750D02*
X84235864Y-53346845D01*
X84235864Y-53346845D02*
X84083483Y-53346845D01*
X84083483Y-53346845D02*
X84007292Y-53308750D01*
X84007292Y-53308750D02*
X83969197Y-53270654D01*
X83969197Y-53270654D02*
X83931102Y-53194464D01*
X83931102Y-53194464D02*
X83931102Y-53003988D01*
X83931102Y-53003988D02*
X83969197Y-52927797D01*
X83969197Y-52927797D02*
X84007292Y-52889702D01*
X84007292Y-52889702D02*
X84083483Y-52851607D01*
X84083483Y-52851607D02*
X84235864Y-52851607D01*
X84235864Y-52851607D02*
X84312054Y-52889702D01*
X84312054Y-52889702D02*
X84350149Y-52927797D01*
X84350149Y-52927797D02*
X84388245Y-53003988D01*
X73707488Y-52820647D02*
X73593202Y-52858742D01*
X73593202Y-52858742D02*
X73555107Y-52896838D01*
X73555107Y-52896838D02*
X73517011Y-52973028D01*
X73517011Y-52973028D02*
X73517011Y-53087314D01*
X73517011Y-53087314D02*
X73555107Y-53163504D01*
X73555107Y-53163504D02*
X73593202Y-53201600D01*
X73593202Y-53201600D02*
X73669392Y-53239695D01*
X73669392Y-53239695D02*
X73974154Y-53239695D01*
X73974154Y-53239695D02*
X73974154Y-52439695D01*
X73974154Y-52439695D02*
X73707488Y-52439695D01*
X73707488Y-52439695D02*
X73631297Y-52477790D01*
X73631297Y-52477790D02*
X73593202Y-52515885D01*
X73593202Y-52515885D02*
X73555107Y-52592076D01*
X73555107Y-52592076D02*
X73555107Y-52668266D01*
X73555107Y-52668266D02*
X73593202Y-52744457D01*
X73593202Y-52744457D02*
X73631297Y-52782552D01*
X73631297Y-52782552D02*
X73707488Y-52820647D01*
X73707488Y-52820647D02*
X73974154Y-52820647D01*
X73250345Y-52439695D02*
X72755107Y-52439695D01*
X72755107Y-52439695D02*
X73021773Y-52744457D01*
X73021773Y-52744457D02*
X72907488Y-52744457D01*
X72907488Y-52744457D02*
X72831297Y-52782552D01*
X72831297Y-52782552D02*
X72793202Y-52820647D01*
X72793202Y-52820647D02*
X72755107Y-52896838D01*
X72755107Y-52896838D02*
X72755107Y-53087314D01*
X72755107Y-53087314D02*
X72793202Y-53163504D01*
X72793202Y-53163504D02*
X72831297Y-53201600D01*
X72831297Y-53201600D02*
X72907488Y-53239695D01*
X72907488Y-53239695D02*
X73136059Y-53239695D01*
X73136059Y-53239695D02*
X73212250Y-53201600D01*
X73212250Y-53201600D02*
X73250345Y-53163504D01*
X74151959Y-30486845D02*
X74418626Y-30105892D01*
X74609102Y-30486845D02*
X74609102Y-29686845D01*
X74609102Y-29686845D02*
X74304340Y-29686845D01*
X74304340Y-29686845D02*
X74228150Y-29724940D01*
X74228150Y-29724940D02*
X74190055Y-29763035D01*
X74190055Y-29763035D02*
X74151959Y-29839226D01*
X74151959Y-29839226D02*
X74151959Y-29953511D01*
X74151959Y-29953511D02*
X74190055Y-30029702D01*
X74190055Y-30029702D02*
X74228150Y-30067797D01*
X74228150Y-30067797D02*
X74304340Y-30105892D01*
X74304340Y-30105892D02*
X74609102Y-30105892D01*
X73847198Y-30258273D02*
X73466245Y-30258273D01*
X73923388Y-30486845D02*
X73656721Y-29686845D01*
X73656721Y-29686845D02*
X73390055Y-30486845D01*
X73199579Y-29686845D02*
X73009103Y-30486845D01*
X73009103Y-30486845D02*
X72856722Y-29915416D01*
X72856722Y-29915416D02*
X72704341Y-30486845D01*
X72704341Y-30486845D02*
X72513865Y-29686845D01*
X85112054Y-33026845D02*
X85112054Y-32226845D01*
X85112054Y-32226845D02*
X84921578Y-32226845D01*
X84921578Y-32226845D02*
X84807292Y-32264940D01*
X84807292Y-32264940D02*
X84731102Y-32341130D01*
X84731102Y-32341130D02*
X84693007Y-32417321D01*
X84693007Y-32417321D02*
X84654911Y-32569702D01*
X84654911Y-32569702D02*
X84654911Y-32683988D01*
X84654911Y-32683988D02*
X84693007Y-32836369D01*
X84693007Y-32836369D02*
X84731102Y-32912559D01*
X84731102Y-32912559D02*
X84807292Y-32988750D01*
X84807292Y-32988750D02*
X84921578Y-33026845D01*
X84921578Y-33026845D02*
X85112054Y-33026845D01*
X84350150Y-32303035D02*
X84312054Y-32264940D01*
X84312054Y-32264940D02*
X84235864Y-32226845D01*
X84235864Y-32226845D02*
X84045388Y-32226845D01*
X84045388Y-32226845D02*
X83969197Y-32264940D01*
X83969197Y-32264940D02*
X83931102Y-32303035D01*
X83931102Y-32303035D02*
X83893007Y-32379226D01*
X83893007Y-32379226D02*
X83893007Y-32455416D01*
X83893007Y-32455416D02*
X83931102Y-32569702D01*
X83931102Y-32569702D02*
X84388245Y-33026845D01*
X84388245Y-33026845D02*
X83893007Y-33026845D01*
X73656688Y-54903447D02*
X73542402Y-54941542D01*
X73542402Y-54941542D02*
X73504307Y-54979638D01*
X73504307Y-54979638D02*
X73466211Y-55055828D01*
X73466211Y-55055828D02*
X73466211Y-55170114D01*
X73466211Y-55170114D02*
X73504307Y-55246304D01*
X73504307Y-55246304D02*
X73542402Y-55284400D01*
X73542402Y-55284400D02*
X73618592Y-55322495D01*
X73618592Y-55322495D02*
X73923354Y-55322495D01*
X73923354Y-55322495D02*
X73923354Y-54522495D01*
X73923354Y-54522495D02*
X73656688Y-54522495D01*
X73656688Y-54522495D02*
X73580497Y-54560590D01*
X73580497Y-54560590D02*
X73542402Y-54598685D01*
X73542402Y-54598685D02*
X73504307Y-54674876D01*
X73504307Y-54674876D02*
X73504307Y-54751066D01*
X73504307Y-54751066D02*
X73542402Y-54827257D01*
X73542402Y-54827257D02*
X73580497Y-54865352D01*
X73580497Y-54865352D02*
X73656688Y-54903447D01*
X73656688Y-54903447D02*
X73923354Y-54903447D01*
X73161450Y-54598685D02*
X73123354Y-54560590D01*
X73123354Y-54560590D02*
X73047164Y-54522495D01*
X73047164Y-54522495D02*
X72856688Y-54522495D01*
X72856688Y-54522495D02*
X72780497Y-54560590D01*
X72780497Y-54560590D02*
X72742402Y-54598685D01*
X72742402Y-54598685D02*
X72704307Y-54674876D01*
X72704307Y-54674876D02*
X72704307Y-54751066D01*
X72704307Y-54751066D02*
X72742402Y-54865352D01*
X72742402Y-54865352D02*
X73199545Y-55322495D01*
X73199545Y-55322495D02*
X72704307Y-55322495D01*
X73866245Y-45307797D02*
X74132911Y-45307797D01*
X74132911Y-45726845D02*
X74132911Y-44926845D01*
X74132911Y-44926845D02*
X73751959Y-44926845D01*
X73104340Y-44926845D02*
X73256721Y-44926845D01*
X73256721Y-44926845D02*
X73332912Y-44964940D01*
X73332912Y-44964940D02*
X73371007Y-45003035D01*
X73371007Y-45003035D02*
X73447197Y-45117321D01*
X73447197Y-45117321D02*
X73485293Y-45269702D01*
X73485293Y-45269702D02*
X73485293Y-45574464D01*
X73485293Y-45574464D02*
X73447197Y-45650654D01*
X73447197Y-45650654D02*
X73409102Y-45688750D01*
X73409102Y-45688750D02*
X73332912Y-45726845D01*
X73332912Y-45726845D02*
X73180531Y-45726845D01*
X73180531Y-45726845D02*
X73104340Y-45688750D01*
X73104340Y-45688750D02*
X73066245Y-45650654D01*
X73066245Y-45650654D02*
X73028150Y-45574464D01*
X73028150Y-45574464D02*
X73028150Y-45383988D01*
X73028150Y-45383988D02*
X73066245Y-45307797D01*
X73066245Y-45307797D02*
X73104340Y-45269702D01*
X73104340Y-45269702D02*
X73180531Y-45231607D01*
X73180531Y-45231607D02*
X73332912Y-45231607D01*
X73332912Y-45231607D02*
X73409102Y-45269702D01*
X73409102Y-45269702D02*
X73447197Y-45307797D01*
X73447197Y-45307797D02*
X73485293Y-45383988D01*
X85250102Y-38644940D02*
X85326292Y-38606845D01*
X85326292Y-38606845D02*
X85440578Y-38606845D01*
X85440578Y-38606845D02*
X85554864Y-38644940D01*
X85554864Y-38644940D02*
X85631054Y-38721130D01*
X85631054Y-38721130D02*
X85669149Y-38797321D01*
X85669149Y-38797321D02*
X85707245Y-38949702D01*
X85707245Y-38949702D02*
X85707245Y-39063988D01*
X85707245Y-39063988D02*
X85669149Y-39216369D01*
X85669149Y-39216369D02*
X85631054Y-39292559D01*
X85631054Y-39292559D02*
X85554864Y-39368750D01*
X85554864Y-39368750D02*
X85440578Y-39406845D01*
X85440578Y-39406845D02*
X85364387Y-39406845D01*
X85364387Y-39406845D02*
X85250102Y-39368750D01*
X85250102Y-39368750D02*
X85212006Y-39330654D01*
X85212006Y-39330654D02*
X85212006Y-39063988D01*
X85212006Y-39063988D02*
X85364387Y-39063988D01*
X84869149Y-39406845D02*
X84869149Y-38606845D01*
X84869149Y-38606845D02*
X84412006Y-39406845D01*
X84412006Y-39406845D02*
X84412006Y-38606845D01*
X84031054Y-39406845D02*
X84031054Y-38606845D01*
X84031054Y-38606845D02*
X83840578Y-38606845D01*
X83840578Y-38606845D02*
X83726292Y-38644940D01*
X83726292Y-38644940D02*
X83650102Y-38721130D01*
X83650102Y-38721130D02*
X83612007Y-38797321D01*
X83612007Y-38797321D02*
X83573911Y-38949702D01*
X83573911Y-38949702D02*
X83573911Y-39063988D01*
X83573911Y-39063988D02*
X83612007Y-39216369D01*
X83612007Y-39216369D02*
X83650102Y-39292559D01*
X83650102Y-39292559D02*
X83726292Y-39368750D01*
X83726292Y-39368750D02*
X83840578Y-39406845D01*
X83840578Y-39406845D02*
X84031054Y-39406845D01*
X85131102Y-34804940D02*
X85207292Y-34766845D01*
X85207292Y-34766845D02*
X85321578Y-34766845D01*
X85321578Y-34766845D02*
X85435864Y-34804940D01*
X85435864Y-34804940D02*
X85512054Y-34881130D01*
X85512054Y-34881130D02*
X85550149Y-34957321D01*
X85550149Y-34957321D02*
X85588245Y-35109702D01*
X85588245Y-35109702D02*
X85588245Y-35223988D01*
X85588245Y-35223988D02*
X85550149Y-35376369D01*
X85550149Y-35376369D02*
X85512054Y-35452559D01*
X85512054Y-35452559D02*
X85435864Y-35528750D01*
X85435864Y-35528750D02*
X85321578Y-35566845D01*
X85321578Y-35566845D02*
X85245387Y-35566845D01*
X85245387Y-35566845D02*
X85131102Y-35528750D01*
X85131102Y-35528750D02*
X85093006Y-35490654D01*
X85093006Y-35490654D02*
X85093006Y-35223988D01*
X85093006Y-35223988D02*
X85245387Y-35223988D01*
X84750149Y-35566845D02*
X84750149Y-34766845D01*
X84750149Y-34766845D02*
X84293006Y-35566845D01*
X84293006Y-35566845D02*
X84293006Y-34766845D01*
X83912054Y-35566845D02*
X83912054Y-34766845D01*
X83912054Y-34766845D02*
X83721578Y-34766845D01*
X83721578Y-34766845D02*
X83607292Y-34804940D01*
X83607292Y-34804940D02*
X83531102Y-34881130D01*
X83531102Y-34881130D02*
X83493007Y-34957321D01*
X83493007Y-34957321D02*
X83454911Y-35109702D01*
X83454911Y-35109702D02*
X83454911Y-35223988D01*
X83454911Y-35223988D02*
X83493007Y-35376369D01*
X83493007Y-35376369D02*
X83531102Y-35452559D01*
X83531102Y-35452559D02*
X83607292Y-35528750D01*
X83607292Y-35528750D02*
X83721578Y-35566845D01*
X83721578Y-35566845D02*
X83912054Y-35566845D01*
X84845388Y-58007797D02*
X84731102Y-58045892D01*
X84731102Y-58045892D02*
X84693007Y-58083988D01*
X84693007Y-58083988D02*
X84654911Y-58160178D01*
X84654911Y-58160178D02*
X84654911Y-58274464D01*
X84654911Y-58274464D02*
X84693007Y-58350654D01*
X84693007Y-58350654D02*
X84731102Y-58388750D01*
X84731102Y-58388750D02*
X84807292Y-58426845D01*
X84807292Y-58426845D02*
X85112054Y-58426845D01*
X85112054Y-58426845D02*
X85112054Y-57626845D01*
X85112054Y-57626845D02*
X84845388Y-57626845D01*
X84845388Y-57626845D02*
X84769197Y-57664940D01*
X84769197Y-57664940D02*
X84731102Y-57703035D01*
X84731102Y-57703035D02*
X84693007Y-57779226D01*
X84693007Y-57779226D02*
X84693007Y-57855416D01*
X84693007Y-57855416D02*
X84731102Y-57931607D01*
X84731102Y-57931607D02*
X84769197Y-57969702D01*
X84769197Y-57969702D02*
X84845388Y-58007797D01*
X84845388Y-58007797D02*
X85112054Y-58007797D01*
X83931102Y-57626845D02*
X84312054Y-57626845D01*
X84312054Y-57626845D02*
X84350150Y-58007797D01*
X84350150Y-58007797D02*
X84312054Y-57969702D01*
X84312054Y-57969702D02*
X84235864Y-57931607D01*
X84235864Y-57931607D02*
X84045388Y-57931607D01*
X84045388Y-57931607D02*
X83969197Y-57969702D01*
X83969197Y-57969702D02*
X83931102Y-58007797D01*
X83931102Y-58007797D02*
X83893007Y-58083988D01*
X83893007Y-58083988D02*
X83893007Y-58274464D01*
X83893007Y-58274464D02*
X83931102Y-58350654D01*
X83931102Y-58350654D02*
X83969197Y-58388750D01*
X83969197Y-58388750D02*
X84045388Y-58426845D01*
X84045388Y-58426845D02*
X84235864Y-58426845D01*
X84235864Y-58426845D02*
X84312054Y-58388750D01*
X84312054Y-58388750D02*
X84350150Y-58350654D01*
X73866245Y-40227797D02*
X74132911Y-40227797D01*
X74132911Y-40646845D02*
X74132911Y-39846845D01*
X74132911Y-39846845D02*
X73751959Y-39846845D01*
X73104340Y-40113511D02*
X73104340Y-40646845D01*
X73294816Y-39808750D02*
X73485293Y-40380178D01*
X73485293Y-40380178D02*
X72990054Y-40380178D01*
X73860792Y-35498750D02*
X73746506Y-35536845D01*
X73746506Y-35536845D02*
X73556030Y-35536845D01*
X73556030Y-35536845D02*
X73479839Y-35498750D01*
X73479839Y-35498750D02*
X73441744Y-35460654D01*
X73441744Y-35460654D02*
X73403649Y-35384464D01*
X73403649Y-35384464D02*
X73403649Y-35308273D01*
X73403649Y-35308273D02*
X73441744Y-35232083D01*
X73441744Y-35232083D02*
X73479839Y-35193988D01*
X73479839Y-35193988D02*
X73556030Y-35155892D01*
X73556030Y-35155892D02*
X73708411Y-35117797D01*
X73708411Y-35117797D02*
X73784601Y-35079702D01*
X73784601Y-35079702D02*
X73822696Y-35041607D01*
X73822696Y-35041607D02*
X73860792Y-34965416D01*
X73860792Y-34965416D02*
X73860792Y-34889226D01*
X73860792Y-34889226D02*
X73822696Y-34813035D01*
X73822696Y-34813035D02*
X73784601Y-34774940D01*
X73784601Y-34774940D02*
X73708411Y-34736845D01*
X73708411Y-34736845D02*
X73517934Y-34736845D01*
X73517934Y-34736845D02*
X73403649Y-34774940D01*
X73175077Y-34736845D02*
X72717934Y-34736845D01*
X72946506Y-35536845D02*
X72946506Y-34736845D01*
X84883488Y-54903447D02*
X84769202Y-54941542D01*
X84769202Y-54941542D02*
X84731107Y-54979638D01*
X84731107Y-54979638D02*
X84693011Y-55055828D01*
X84693011Y-55055828D02*
X84693011Y-55170114D01*
X84693011Y-55170114D02*
X84731107Y-55246304D01*
X84731107Y-55246304D02*
X84769202Y-55284400D01*
X84769202Y-55284400D02*
X84845392Y-55322495D01*
X84845392Y-55322495D02*
X85150154Y-55322495D01*
X85150154Y-55322495D02*
X85150154Y-54522495D01*
X85150154Y-54522495D02*
X84883488Y-54522495D01*
X84883488Y-54522495D02*
X84807297Y-54560590D01*
X84807297Y-54560590D02*
X84769202Y-54598685D01*
X84769202Y-54598685D02*
X84731107Y-54674876D01*
X84731107Y-54674876D02*
X84731107Y-54751066D01*
X84731107Y-54751066D02*
X84769202Y-54827257D01*
X84769202Y-54827257D02*
X84807297Y-54865352D01*
X84807297Y-54865352D02*
X84883488Y-54903447D01*
X84883488Y-54903447D02*
X85150154Y-54903447D01*
X84007297Y-54789161D02*
X84007297Y-55322495D01*
X84197773Y-54484400D02*
X84388250Y-55055828D01*
X84388250Y-55055828D02*
X83893011Y-55055828D01*
X73923388Y-58007797D02*
X73809102Y-58045892D01*
X73809102Y-58045892D02*
X73771007Y-58083988D01*
X73771007Y-58083988D02*
X73732911Y-58160178D01*
X73732911Y-58160178D02*
X73732911Y-58274464D01*
X73732911Y-58274464D02*
X73771007Y-58350654D01*
X73771007Y-58350654D02*
X73809102Y-58388750D01*
X73809102Y-58388750D02*
X73885292Y-58426845D01*
X73885292Y-58426845D02*
X74190054Y-58426845D01*
X74190054Y-58426845D02*
X74190054Y-57626845D01*
X74190054Y-57626845D02*
X73923388Y-57626845D01*
X73923388Y-57626845D02*
X73847197Y-57664940D01*
X73847197Y-57664940D02*
X73809102Y-57703035D01*
X73809102Y-57703035D02*
X73771007Y-57779226D01*
X73771007Y-57779226D02*
X73771007Y-57855416D01*
X73771007Y-57855416D02*
X73809102Y-57931607D01*
X73809102Y-57931607D02*
X73847197Y-57969702D01*
X73847197Y-57969702D02*
X73923388Y-58007797D01*
X73923388Y-58007797D02*
X74190054Y-58007797D01*
X73047197Y-57626845D02*
X73199578Y-57626845D01*
X73199578Y-57626845D02*
X73275769Y-57664940D01*
X73275769Y-57664940D02*
X73313864Y-57703035D01*
X73313864Y-57703035D02*
X73390054Y-57817321D01*
X73390054Y-57817321D02*
X73428150Y-57969702D01*
X73428150Y-57969702D02*
X73428150Y-58274464D01*
X73428150Y-58274464D02*
X73390054Y-58350654D01*
X73390054Y-58350654D02*
X73351959Y-58388750D01*
X73351959Y-58388750D02*
X73275769Y-58426845D01*
X73275769Y-58426845D02*
X73123388Y-58426845D01*
X73123388Y-58426845D02*
X73047197Y-58388750D01*
X73047197Y-58388750D02*
X73009102Y-58350654D01*
X73009102Y-58350654D02*
X72971007Y-58274464D01*
X72971007Y-58274464D02*
X72971007Y-58083988D01*
X72971007Y-58083988D02*
X73009102Y-58007797D01*
X73009102Y-58007797D02*
X73047197Y-57969702D01*
X73047197Y-57969702D02*
X73123388Y-57931607D01*
X73123388Y-57931607D02*
X73275769Y-57931607D01*
X73275769Y-57931607D02*
X73351959Y-57969702D01*
X73351959Y-57969702D02*
X73390054Y-58007797D01*
X73390054Y-58007797D02*
X73428150Y-58083988D01*
X74704345Y-38520495D02*
X74437678Y-39320495D01*
X74437678Y-39320495D02*
X74171012Y-38520495D01*
X73447202Y-39244304D02*
X73485298Y-39282400D01*
X73485298Y-39282400D02*
X73599583Y-39320495D01*
X73599583Y-39320495D02*
X73675774Y-39320495D01*
X73675774Y-39320495D02*
X73790060Y-39282400D01*
X73790060Y-39282400D02*
X73866250Y-39206209D01*
X73866250Y-39206209D02*
X73904345Y-39130019D01*
X73904345Y-39130019D02*
X73942441Y-38977638D01*
X73942441Y-38977638D02*
X73942441Y-38863352D01*
X73942441Y-38863352D02*
X73904345Y-38710971D01*
X73904345Y-38710971D02*
X73866250Y-38634780D01*
X73866250Y-38634780D02*
X73790060Y-38558590D01*
X73790060Y-38558590D02*
X73675774Y-38520495D01*
X73675774Y-38520495D02*
X73599583Y-38520495D01*
X73599583Y-38520495D02*
X73485298Y-38558590D01*
X73485298Y-38558590D02*
X73447202Y-38596685D01*
X72647202Y-39244304D02*
X72685298Y-39282400D01*
X72685298Y-39282400D02*
X72799583Y-39320495D01*
X72799583Y-39320495D02*
X72875774Y-39320495D01*
X72875774Y-39320495D02*
X72990060Y-39282400D01*
X72990060Y-39282400D02*
X73066250Y-39206209D01*
X73066250Y-39206209D02*
X73104345Y-39130019D01*
X73104345Y-39130019D02*
X73142441Y-38977638D01*
X73142441Y-38977638D02*
X73142441Y-38863352D01*
X73142441Y-38863352D02*
X73104345Y-38710971D01*
X73104345Y-38710971D02*
X73066250Y-38634780D01*
X73066250Y-38634780D02*
X72990060Y-38558590D01*
X72990060Y-38558590D02*
X72875774Y-38520495D01*
X72875774Y-38520495D02*
X72799583Y-38520495D01*
X72799583Y-38520495D02*
X72685298Y-38558590D01*
X72685298Y-38558590D02*
X72647202Y-38596685D01*
X85112054Y-43186845D02*
X85112054Y-42386845D01*
X85112054Y-42386845D02*
X84921578Y-42386845D01*
X84921578Y-42386845D02*
X84807292Y-42424940D01*
X84807292Y-42424940D02*
X84731102Y-42501130D01*
X84731102Y-42501130D02*
X84693007Y-42577321D01*
X84693007Y-42577321D02*
X84654911Y-42729702D01*
X84654911Y-42729702D02*
X84654911Y-42843988D01*
X84654911Y-42843988D02*
X84693007Y-42996369D01*
X84693007Y-42996369D02*
X84731102Y-43072559D01*
X84731102Y-43072559D02*
X84807292Y-43148750D01*
X84807292Y-43148750D02*
X84921578Y-43186845D01*
X84921578Y-43186845D02*
X85112054Y-43186845D01*
X84159673Y-42386845D02*
X84083483Y-42386845D01*
X84083483Y-42386845D02*
X84007292Y-42424940D01*
X84007292Y-42424940D02*
X83969197Y-42463035D01*
X83969197Y-42463035D02*
X83931102Y-42539226D01*
X83931102Y-42539226D02*
X83893007Y-42691607D01*
X83893007Y-42691607D02*
X83893007Y-42882083D01*
X83893007Y-42882083D02*
X83931102Y-43034464D01*
X83931102Y-43034464D02*
X83969197Y-43110654D01*
X83969197Y-43110654D02*
X84007292Y-43148750D01*
X84007292Y-43148750D02*
X84083483Y-43186845D01*
X84083483Y-43186845D02*
X84159673Y-43186845D01*
X84159673Y-43186845D02*
X84235864Y-43148750D01*
X84235864Y-43148750D02*
X84273959Y-43110654D01*
X84273959Y-43110654D02*
X84312054Y-43034464D01*
X84312054Y-43034464D02*
X84350150Y-42882083D01*
X84350150Y-42882083D02*
X84350150Y-42691607D01*
X84350150Y-42691607D02*
X84312054Y-42539226D01*
X84312054Y-42539226D02*
X84273959Y-42463035D01*
X84273959Y-42463035D02*
X84235864Y-42424940D01*
X84235864Y-42424940D02*
X84159673Y-42386845D01*
X53775060Y-60293750D02*
G75*
G03*
X53775060Y-60293750I-1796051J0D01*
G01*
X48979009Y-63293750D02*
X54979009Y-63293750D01*
X48979009Y-57293750D02*
X48979009Y-63293750D01*
X54979009Y-57293750D02*
X48979009Y-57293750D01*
X54979009Y-63293750D02*
X54979009Y-57293750D01*
G36*
X209230026Y-103814435D02*
G01*
X209146080Y-104361930D01*
X209021458Y-105138331D01*
X208890965Y-105921342D01*
X208759850Y-106681443D01*
X208633362Y-107389116D01*
X208516748Y-108014843D01*
X208415257Y-108529103D01*
X208334138Y-108902379D01*
X208278638Y-109105151D01*
X208229301Y-109198768D01*
X207968430Y-109441433D01*
X207545570Y-109660393D01*
X206989923Y-109848486D01*
X206330691Y-109998548D01*
X205597077Y-110103416D01*
X204818281Y-110155927D01*
X204023506Y-110148918D01*
X203517568Y-110131332D01*
X203043758Y-110147122D01*
X202696463Y-110219055D01*
X202434846Y-110362928D01*
X202218068Y-110594542D01*
X202005293Y-110929694D01*
X201835230Y-111203216D01*
X201648098Y-111455487D01*
X201511156Y-111586704D01*
X201459408Y-111606673D01*
X201218545Y-111664538D01*
X200856909Y-111728765D01*
X200431076Y-111788770D01*
X200258425Y-111810333D01*
X199831808Y-111865150D01*
X199480509Y-111912362D01*
X199267331Y-111943614D01*
X199104527Y-111956910D01*
X198751890Y-111962927D01*
X198279047Y-111958123D01*
X197731789Y-111944022D01*
X197155907Y-111922153D01*
X196597191Y-111894041D01*
X196101432Y-111861211D01*
X195714421Y-111825192D01*
X195578410Y-111807423D01*
X195102126Y-111701274D01*
X194811740Y-111549656D01*
X194713546Y-111355522D01*
X194713646Y-111349153D01*
X194799134Y-111114650D01*
X195018035Y-110812034D01*
X195331654Y-110476336D01*
X195701297Y-110142586D01*
X196088271Y-109845815D01*
X196453882Y-109621054D01*
X196759435Y-109503332D01*
X196870879Y-109468887D01*
X197161036Y-109275969D01*
X197432103Y-108969047D01*
X197664043Y-108591594D01*
X197836823Y-108187081D01*
X197930406Y-107798978D01*
X197924759Y-107470757D01*
X197799846Y-107245888D01*
X197631441Y-107169220D01*
X197297759Y-107142119D01*
X196901494Y-107192733D01*
X196509155Y-107311107D01*
X196187248Y-107487283D01*
X196141300Y-107522082D01*
X195933353Y-107662887D01*
X195822608Y-107684573D01*
X195761864Y-107599604D01*
X195760738Y-107355651D01*
X195902642Y-107033532D01*
X196163417Y-106678013D01*
X196515759Y-106326066D01*
X196932365Y-106014662D01*
X197169828Y-105879549D01*
X197542569Y-105752034D01*
X197925996Y-105749876D01*
X198367168Y-105875885D01*
X198913147Y-106132868D01*
X199389409Y-106367737D01*
X199752606Y-106498927D01*
X200015156Y-106517702D01*
X200210053Y-106426183D01*
X200370289Y-106226490D01*
X200395629Y-106182381D01*
X200556052Y-105780318D01*
X200686230Y-105244425D01*
X200774458Y-104633893D01*
X200809031Y-104007910D01*
X200803817Y-103762350D01*
X200770824Y-103464101D01*
X200697291Y-103168222D01*
X200571380Y-102855598D01*
X200381252Y-102507111D01*
X200115068Y-102103644D01*
X199760988Y-101626082D01*
X199307174Y-101055307D01*
X198741787Y-100372203D01*
X198067279Y-99574553D01*
X203028734Y-99574553D01*
X203041968Y-99804593D01*
X203073507Y-99941774D01*
X203166167Y-100190480D01*
X203324674Y-100512876D01*
X203561575Y-100931995D01*
X203889415Y-101470873D01*
X204320740Y-102152545D01*
X204405595Y-102286075D01*
X204670954Y-102736565D01*
X204833135Y-103111541D01*
X204896083Y-103462983D01*
X204863743Y-103842870D01*
X204740062Y-104303183D01*
X204528986Y-104895901D01*
X204370577Y-105342011D01*
X204246430Y-105739026D01*
X204172604Y-106033880D01*
X204161359Y-106183630D01*
X204196085Y-106235328D01*
X204380261Y-106311534D01*
X204733296Y-106335259D01*
X204773806Y-106334936D01*
X205149025Y-106288029D01*
X205439029Y-106146729D01*
X205656576Y-105889665D01*
X205814429Y-105495463D01*
X205925347Y-104942752D01*
X206002091Y-104210159D01*
X206020870Y-103814435D01*
X205984488Y-102994236D01*
X205850031Y-102253999D01*
X205625197Y-101646109D01*
X205384582Y-101264452D01*
X204964382Y-100766571D01*
X204451066Y-100279955D01*
X203894753Y-99856436D01*
X203554596Y-99638975D01*
X203265609Y-99490563D01*
X203096802Y-99469483D01*
X203028734Y-99574553D01*
X198067279Y-99574553D01*
X198052988Y-99557653D01*
X197690124Y-99129510D01*
X196936454Y-98225053D01*
X196306338Y-97441569D01*
X195788397Y-96761285D01*
X195371249Y-96166429D01*
X195043516Y-95639229D01*
X194793816Y-95161913D01*
X194610768Y-94716708D01*
X194482993Y-94285842D01*
X194399110Y-93851543D01*
X194395380Y-93826811D01*
X194272605Y-93277093D01*
X194087697Y-92896333D01*
X193820488Y-92656410D01*
X193450813Y-92529202D01*
X193272907Y-92509400D01*
X193045132Y-92533971D01*
X192772898Y-92627198D01*
X192415110Y-92803945D01*
X191930677Y-93079077D01*
X191830777Y-93132805D01*
X191444667Y-93298571D01*
X190968629Y-93462266D01*
X190483249Y-93595157D01*
X190237929Y-93655881D01*
X189568188Y-93873328D01*
X189094615Y-94121860D01*
X188814058Y-94403002D01*
X188760067Y-94562140D01*
X188781825Y-94892741D01*
X188919089Y-95270549D01*
X189155513Y-95636515D01*
X189344326Y-95827933D01*
X189694437Y-96006765D01*
X190063163Y-95984420D01*
X190444892Y-95760358D01*
X190656819Y-95597450D01*
X190839852Y-95525566D01*
X190941232Y-95619896D01*
X190988513Y-95886852D01*
X190993469Y-95944054D01*
X191034121Y-96163195D01*
X191140666Y-96250938D01*
X191374103Y-96267502D01*
X191463043Y-96269173D01*
X191774621Y-96320206D01*
X191935529Y-96462005D01*
X191981275Y-96721097D01*
X191965363Y-96945994D01*
X191803799Y-97420778D01*
X191481975Y-97796675D01*
X191017166Y-98062223D01*
X190426647Y-98205960D01*
X189727693Y-98216422D01*
X189466556Y-98186811D01*
X188697083Y-97984437D01*
X188038561Y-97626425D01*
X187507773Y-97123906D01*
X187121503Y-96488010D01*
X187033698Y-96308332D01*
X186880348Y-96063807D01*
X186755655Y-95943348D01*
X186630729Y-95961472D01*
X186414502Y-96093540D01*
X186176535Y-96300778D01*
X185970513Y-96535388D01*
X185850122Y-96749573D01*
X185848660Y-96919002D01*
X185947287Y-97239677D01*
X186137071Y-97637352D01*
X186394568Y-98069545D01*
X186696335Y-98493774D01*
X187018928Y-98867555D01*
X187129470Y-98980362D01*
X187395291Y-99233771D01*
X187596189Y-99376645D01*
X187784309Y-99439782D01*
X188011798Y-99453984D01*
X188162342Y-99452915D01*
X188346519Y-99428930D01*
X188400707Y-99341726D01*
X188373665Y-99150398D01*
X188359422Y-99070057D01*
X188365756Y-98894947D01*
X188470046Y-98846812D01*
X188582349Y-98884767D01*
X188783302Y-99056926D01*
X188975201Y-99312271D01*
X189105010Y-99588823D01*
X189223480Y-99858432D01*
X189411448Y-100072283D01*
X189611567Y-100149937D01*
X189785292Y-100078815D01*
X189894079Y-99846337D01*
X189926994Y-99707840D01*
X189994033Y-99601735D01*
X190099797Y-99648601D01*
X190198715Y-99757126D01*
X190372108Y-100047542D01*
X190508972Y-100383105D01*
X190564542Y-100665834D01*
X190562763Y-100690378D01*
X190464384Y-100913945D01*
X190242572Y-101209074D01*
X189935056Y-101538099D01*
X189579567Y-101863353D01*
X189213837Y-102147171D01*
X188875595Y-102351886D01*
X188831094Y-102373472D01*
X188474285Y-102521371D01*
X188172806Y-102576441D01*
X187825803Y-102558535D01*
X187308930Y-102431691D01*
X186725025Y-102172651D01*
X186168757Y-101822927D01*
X185712703Y-101421570D01*
X185590794Y-101284111D01*
X185426420Y-101075373D01*
X185266256Y-100835228D01*
X185101155Y-100543817D01*
X184921967Y-100181282D01*
X184719544Y-99727766D01*
X184484738Y-99163409D01*
X184208399Y-98468354D01*
X183881379Y-97622742D01*
X183494530Y-96606715D01*
X183481058Y-96566466D01*
X183470529Y-96476481D01*
X183496914Y-96367334D01*
X183573957Y-96219985D01*
X183715400Y-96015392D01*
X183934989Y-95734513D01*
X184246465Y-95358307D01*
X184663573Y-94867734D01*
X185200057Y-94243750D01*
X185617085Y-93759329D01*
X186061693Y-93239227D01*
X186398585Y-92836900D01*
X186641953Y-92532385D01*
X186805986Y-92305719D01*
X186904876Y-92136939D01*
X186952814Y-92006079D01*
X186963989Y-91893178D01*
X186952594Y-91778271D01*
X186787927Y-90709566D01*
X186618316Y-89736438D01*
X186458273Y-88957245D01*
X186308360Y-88374702D01*
X186169139Y-87991522D01*
X186039323Y-87760810D01*
X185758231Y-87380531D01*
X185346561Y-86915357D01*
X184788803Y-86346809D01*
X184399037Y-85961654D01*
X183707622Y-85267693D01*
X183135258Y-84671138D01*
X182662050Y-84145272D01*
X182268102Y-83663379D01*
X181933517Y-83198742D01*
X181638399Y-82724646D01*
X181362853Y-82214373D01*
X181086982Y-81641207D01*
X180790891Y-80978433D01*
X180436158Y-80195991D01*
X179997283Y-79319567D01*
X179591613Y-78618256D01*
X179223467Y-78099374D01*
X178897162Y-77770234D01*
X178720301Y-77641915D01*
X177992832Y-77215078D01*
X177093565Y-76822853D01*
X176015225Y-76462719D01*
X174750536Y-76132157D01*
X173292225Y-75828645D01*
X172719889Y-75719387D01*
X172085573Y-75593052D01*
X171511695Y-75473480D01*
X171044512Y-75370338D01*
X170730279Y-75293292D01*
X170072510Y-75113488D01*
X170072510Y-72888716D01*
X170072510Y-70663944D01*
X170629084Y-70483492D01*
X170670457Y-70470355D01*
X171111314Y-70349343D01*
X171703200Y-70210402D01*
X172402034Y-70062189D01*
X173163737Y-69913356D01*
X173944228Y-69772559D01*
X174699429Y-69648452D01*
X175385259Y-69549689D01*
X175653815Y-69517116D01*
X176457127Y-69441625D01*
X177356269Y-69382665D01*
X178301788Y-69341571D01*
X179244228Y-69319684D01*
X180134136Y-69318341D01*
X180922058Y-69338880D01*
X181558540Y-69382640D01*
X181708177Y-69398198D01*
X182454514Y-69486767D01*
X183040717Y-69585682D01*
X183502632Y-69710141D01*
X183876106Y-69875346D01*
X184196987Y-70096495D01*
X184501122Y-70388791D01*
X184824358Y-70767432D01*
X185117595Y-71150786D01*
X185413111Y-71605507D01*
X185653901Y-72080698D01*
X185849165Y-72606679D01*
X186008104Y-73213769D01*
X186139918Y-73932290D01*
X186253806Y-74792560D01*
X186358968Y-75824900D01*
X186371023Y-75955318D01*
X186458605Y-76860611D01*
X186538471Y-77593464D01*
X186614882Y-78180066D01*
X186692100Y-78646607D01*
X186774385Y-79019278D01*
X186866000Y-79324269D01*
X186971205Y-79587770D01*
X187023095Y-79699812D01*
X187179812Y-79973196D01*
X187352361Y-80129991D01*
X187598760Y-80229524D01*
X187881870Y-80280329D01*
X188431231Y-80260380D01*
X189064707Y-80123421D01*
X189738165Y-79876730D01*
X189929832Y-79794870D01*
X190342595Y-79642826D01*
X190760471Y-79531968D01*
X191232767Y-79453098D01*
X191808790Y-79397020D01*
X192537848Y-79354537D01*
X193153666Y-79336049D01*
X194587732Y-79359261D01*
X196130398Y-79462719D01*
X197732217Y-79639433D01*
X199343743Y-79882409D01*
X200915526Y-80184654D01*
X202398120Y-80539177D01*
X203742077Y-80938984D01*
X203951136Y-81007734D01*
X204528919Y-81187941D01*
X205076574Y-81345945D01*
X205540521Y-81466713D01*
X205867177Y-81535213D01*
X205996281Y-81554420D01*
X206491566Y-81615708D01*
X207099944Y-81673885D01*
X207834169Y-81729693D01*
X208706996Y-81783874D01*
X209731182Y-81837170D01*
X210919481Y-81890324D01*
X212284650Y-81944078D01*
X213839442Y-81999175D01*
X216080931Y-82081100D01*
X218197648Y-82172250D01*
X220153857Y-82272728D01*
X221970716Y-82384557D01*
X223669382Y-82509762D01*
X225271013Y-82650367D01*
X226796766Y-82808396D01*
X228267800Y-82985873D01*
X229705271Y-83184824D01*
X231130338Y-83407271D01*
X232564158Y-83655241D01*
X234027888Y-83930755D01*
X234041694Y-83933451D01*
X236442044Y-84448525D01*
X238947384Y-85072588D01*
X241503853Y-85789717D01*
X244057591Y-86583986D01*
X246554738Y-87439472D01*
X248941434Y-88340248D01*
X249000860Y-88363852D01*
X249707075Y-88648687D01*
X250261588Y-88882579D01*
X250660327Y-89065749D01*
X250899223Y-89198414D01*
X250974203Y-89280794D01*
X250881197Y-89313108D01*
X250616133Y-89295574D01*
X250174940Y-89228410D01*
X249553547Y-89111837D01*
X248747882Y-88946073D01*
X247753876Y-88731336D01*
X246567456Y-88467845D01*
X244032764Y-87928743D01*
X241145724Y-87388671D01*
X238358473Y-86948438D01*
X235682954Y-86609330D01*
X233131109Y-86372633D01*
X230714881Y-86239633D01*
X228446214Y-86211615D01*
X226337052Y-86289864D01*
X225088482Y-86390858D01*
X223544993Y-86564257D01*
X221964436Y-86789939D01*
X220368565Y-87062390D01*
X218779132Y-87376095D01*
X217217890Y-87725539D01*
X215706593Y-88105207D01*
X214266995Y-88509584D01*
X212920847Y-88933156D01*
X211689903Y-89370406D01*
X210595917Y-89815821D01*
X209660642Y-90263886D01*
X208905830Y-90709085D01*
X208759019Y-90804556D01*
X208218845Y-91121606D01*
X207625335Y-91431274D01*
X207082618Y-91678210D01*
X206196464Y-92058806D01*
X205400662Y-92448613D01*
X204792355Y-92809330D01*
X204365423Y-93144625D01*
X204113747Y-93458167D01*
X204061134Y-93579388D01*
X204051080Y-93712774D01*
X204104347Y-93872436D01*
X204236216Y-94082401D01*
X204461972Y-94366696D01*
X204796896Y-94749347D01*
X205256272Y-95254382D01*
X205556481Y-95587667D01*
X206057231Y-96174585D01*
X206473001Y-96704004D01*
X206788685Y-97155106D01*
X206989175Y-97507070D01*
X207059362Y-97739078D01*
X207111872Y-97962605D01*
X207283586Y-98334651D01*
X207561510Y-98815559D01*
X207932058Y-99381991D01*
X208381646Y-100010612D01*
X208673600Y-100415500D01*
X208960249Y-100837322D01*
X209188108Y-101198333D01*
X209324640Y-101448907D01*
X209378032Y-101571425D01*
X209431279Y-101724948D01*
X209458202Y-101890181D01*
X209458120Y-102104822D01*
X209430356Y-102406567D01*
X209374227Y-102833114D01*
X209289055Y-103422160D01*
X209259584Y-103621659D01*
X209230026Y-103814435D01*
G37*
X74229011Y-35526110D02*
X74129011Y-35526110D01*
X74129011Y-35326110D01*
X74229011Y-35326110D01*
X74229011Y-35526110D01*
G36*
X74229011Y-35526110D02*
G01*
X74129011Y-35526110D01*
X74129011Y-35326110D01*
X74229011Y-35326110D01*
X74229011Y-35526110D01*
G37*
X74429011Y-35226110D02*
X74329011Y-35226110D01*
X74329011Y-35126110D01*
X74429011Y-35126110D01*
X74429011Y-35226110D01*
G36*
X74429011Y-35226110D02*
G01*
X74329011Y-35226110D01*
X74329011Y-35126110D01*
X74429011Y-35126110D01*
X74429011Y-35226110D01*
G37*
X74229011Y-35026110D02*
X74129011Y-35026110D01*
X74129011Y-34726110D01*
X74229011Y-34726110D01*
X74229011Y-35026110D01*
G36*
X74229011Y-35026110D02*
G01*
X74129011Y-35026110D01*
X74129011Y-34726110D01*
X74229011Y-34726110D01*
X74229011Y-35026110D01*
G37*
X74629011Y-34826110D02*
X74129011Y-34826110D01*
X74129011Y-34726110D01*
X74629011Y-34726110D01*
X74629011Y-34826110D01*
G36*
X74629011Y-34826110D02*
G01*
X74129011Y-34826110D01*
X74129011Y-34726110D01*
X74629011Y-34726110D01*
X74629011Y-34826110D01*
G37*
X74629011Y-35526110D02*
X74529011Y-35526110D01*
X74529011Y-34726110D01*
X74629011Y-34726110D01*
X74629011Y-35526110D01*
G36*
X74629011Y-35526110D02*
G01*
X74529011Y-35526110D01*
X74529011Y-34726110D01*
X74629011Y-34726110D01*
X74629011Y-35526110D01*
G37*
D12*
X74488579Y-59326750D02*
X70170579Y-59326750D01*
X83632579Y-59326750D02*
X87950579Y-59326750D01*
X70170579Y-55008750D02*
X70170579Y-59326750D01*
X87950579Y-55008750D02*
X87950579Y-59326750D01*
X70170579Y-30625750D02*
X70170579Y-26307750D01*
X87950579Y-30624750D02*
X87950579Y-26306750D01*
X74488579Y-26307750D02*
X70170579Y-26307750D01*
X83632579Y-26306750D02*
X87950579Y-26306750D01*
D13*
X71440579Y-30116750D03*
X71440579Y-32656750D03*
X71440579Y-35196750D03*
X71440579Y-37736750D03*
X71440579Y-40276750D03*
X71440579Y-42816750D03*
X71440579Y-45356750D03*
X71440579Y-47896750D03*
X71440579Y-50436750D03*
X71440579Y-52976750D03*
X71440579Y-55516750D03*
X71440579Y-58056750D03*
X86680579Y-58056750D03*
X86680579Y-55516750D03*
X86680579Y-52976750D03*
X86680579Y-50436750D03*
X86680579Y-47896750D03*
X86680579Y-45356750D03*
X86680579Y-42816750D03*
X86680579Y-40276750D03*
X86680579Y-37736750D03*
X86680579Y-35196750D03*
X86680579Y-32656750D03*
D14*
X86680579Y-30116750D03*
%LPC*%
D15*
X232525000Y-94400000D03*
X232525000Y-43225000D03*
X142275000Y-60300000D03*
X142275000Y-94400000D03*
X51925000Y-94400000D03*
X51925000Y-43225000D03*
D16*
X42951819Y-34700000D03*
D17*
X42951819Y-28800000D03*
X47951819Y-30900000D03*
D18*
X48451819Y-34700000D03*
X37451819Y-34700000D03*
D16*
X169332479Y-68825000D03*
D17*
X169332479Y-62925000D03*
X174332479Y-65025000D03*
D18*
X174832479Y-68825000D03*
X163832479Y-68825000D03*
D16*
X205441239Y-51762500D03*
D17*
X205441239Y-45862500D03*
X210441239Y-47962500D03*
D18*
X210941239Y-51762500D03*
X199941239Y-51762500D03*
D16*
X79060579Y-34700000D03*
D17*
X79060579Y-28800000D03*
X84060579Y-30900000D03*
D18*
X84560579Y-34700000D03*
X73560579Y-34700000D03*
D16*
X97114959Y-102950000D03*
D17*
X97114959Y-97050000D03*
X102114959Y-99150000D03*
D18*
X102614959Y-102950000D03*
X91614959Y-102950000D03*
D16*
X79060579Y-51762500D03*
D17*
X79060579Y-45862500D03*
X84060579Y-47962500D03*
D18*
X84560579Y-51762500D03*
X73560579Y-51762500D03*
D16*
X187386859Y-102950000D03*
D17*
X187386859Y-97050000D03*
X192386859Y-99150000D03*
D18*
X192886859Y-102950000D03*
X181886859Y-102950000D03*
D16*
X42951819Y-51762500D03*
D17*
X42951819Y-45862500D03*
X47951819Y-47962500D03*
D18*
X48451819Y-51762500D03*
X37451819Y-51762500D03*
D16*
X223495619Y-51762500D03*
D17*
X223495619Y-45862500D03*
X228495619Y-47962500D03*
D18*
X228995619Y-51762500D03*
X217995619Y-51762500D03*
D16*
X169332479Y-102950000D03*
D17*
X169332479Y-97050000D03*
X174332479Y-99150000D03*
D18*
X174832479Y-102950000D03*
X163832479Y-102950000D03*
D16*
X97114959Y-68825000D03*
D17*
X97114959Y-62925000D03*
X102114959Y-65025000D03*
D18*
X102614959Y-68825000D03*
X91614959Y-68825000D03*
D16*
X115169339Y-102950000D03*
D17*
X115169339Y-97050000D03*
X120169339Y-99150000D03*
D18*
X120669339Y-102950000D03*
X109669339Y-102950000D03*
D16*
X97114959Y-85887500D03*
D17*
X97114959Y-79987500D03*
X102114959Y-82087500D03*
D18*
X102614959Y-85887500D03*
X91614959Y-85887500D03*
D16*
X241549999Y-102950000D03*
D17*
X241549999Y-97050000D03*
X246549999Y-99150000D03*
D18*
X247049999Y-102950000D03*
X236049999Y-102950000D03*
D16*
X133223719Y-51762500D03*
D17*
X133223719Y-45862500D03*
X138223719Y-47962500D03*
D18*
X138723719Y-51762500D03*
X127723719Y-51762500D03*
D16*
X187386859Y-68825000D03*
D17*
X187386859Y-62925000D03*
X192386859Y-65025000D03*
D18*
X192886859Y-68825000D03*
X181886859Y-68825000D03*
D16*
X133223719Y-68825000D03*
D17*
X133223719Y-62925000D03*
X138223719Y-65025000D03*
D18*
X138723719Y-68825000D03*
X127723719Y-68825000D03*
D16*
X42951819Y-102950000D03*
D17*
X42951819Y-97050000D03*
X47951819Y-99150000D03*
D18*
X48451819Y-102950000D03*
X37451819Y-102950000D03*
D16*
X61006199Y-102950000D03*
D17*
X61006199Y-97050000D03*
X66006199Y-99150000D03*
D18*
X66506199Y-102950000D03*
X55506199Y-102950000D03*
D16*
X151278099Y-68825000D03*
D17*
X151278099Y-62925000D03*
X156278099Y-65025000D03*
D18*
X156778099Y-68825000D03*
X145778099Y-68825000D03*
D16*
X97114959Y-34700000D03*
D17*
X97114959Y-28800000D03*
X102114959Y-30900000D03*
D18*
X102614959Y-34700000D03*
X91614959Y-34700000D03*
D16*
X42951819Y-68825000D03*
D17*
X42951819Y-62925000D03*
X47951819Y-65025000D03*
D18*
X48451819Y-68825000D03*
X37451819Y-68825000D03*
D16*
X241549999Y-51762500D03*
D17*
X241549999Y-45862500D03*
X246549999Y-47962500D03*
D18*
X247049999Y-51762500D03*
X236049999Y-51762500D03*
D16*
X187386859Y-34700000D03*
D17*
X187386859Y-28800000D03*
X192386859Y-30900000D03*
D18*
X192886859Y-34700000D03*
X181886859Y-34700000D03*
D16*
X241549999Y-68825000D03*
D17*
X241549999Y-62925000D03*
X246549999Y-65025000D03*
D18*
X247049999Y-68825000D03*
X236049999Y-68825000D03*
D16*
X205441239Y-68825000D03*
D17*
X205441239Y-62925000D03*
X210441239Y-65025000D03*
D18*
X210941239Y-68825000D03*
X199941239Y-68825000D03*
D16*
X223495619Y-85887500D03*
D17*
X223495619Y-79987500D03*
X228495619Y-82087500D03*
D18*
X228995619Y-85887500D03*
X217995619Y-85887500D03*
D16*
X115169339Y-85887500D03*
D17*
X115169339Y-79987500D03*
X120169339Y-82087500D03*
D18*
X120669339Y-85887500D03*
X109669339Y-85887500D03*
D16*
X241549999Y-34700000D03*
D17*
X241549999Y-28800000D03*
X246549999Y-30900000D03*
D18*
X247049999Y-34700000D03*
X236049999Y-34700000D03*
D16*
X42951819Y-85887500D03*
D17*
X42951819Y-79987500D03*
X47951819Y-82087500D03*
D18*
X48451819Y-85887500D03*
X37451819Y-85887500D03*
D16*
X205441239Y-102950000D03*
D17*
X205441239Y-97050000D03*
X210441239Y-99150000D03*
D18*
X210941239Y-102950000D03*
X199941239Y-102950000D03*
D16*
X61006199Y-51762500D03*
D17*
X61006199Y-45862500D03*
X66006199Y-47962500D03*
D18*
X66506199Y-51762500D03*
X55506199Y-51762500D03*
D16*
X115169339Y-68825000D03*
D17*
X115169339Y-62925000D03*
X120169339Y-65025000D03*
D18*
X120669339Y-68825000D03*
X109669339Y-68825000D03*
D16*
X79060579Y-85887500D03*
D17*
X79060579Y-79987500D03*
X84060579Y-82087500D03*
D18*
X84560579Y-85887500D03*
X73560579Y-85887500D03*
D16*
X79060579Y-102950000D03*
D17*
X79060579Y-97050000D03*
X84060579Y-99150000D03*
D18*
X84560579Y-102950000D03*
X73560579Y-102950000D03*
D16*
X61006199Y-34700000D03*
D17*
X61006199Y-28800000D03*
X66006199Y-30900000D03*
D18*
X66506199Y-34700000D03*
X55506199Y-34700000D03*
D16*
X205441239Y-34700000D03*
D17*
X205441239Y-28800000D03*
X210441239Y-30900000D03*
D18*
X210941239Y-34700000D03*
X199941239Y-34700000D03*
D16*
X223495619Y-34700000D03*
D17*
X223495619Y-28800000D03*
X228495619Y-30900000D03*
D18*
X228995619Y-34700000D03*
X217995619Y-34700000D03*
D16*
X133223719Y-34700000D03*
D17*
X133223719Y-28800000D03*
X138223719Y-30900000D03*
D18*
X138723719Y-34700000D03*
X127723719Y-34700000D03*
D16*
X223495619Y-102950000D03*
D17*
X223495619Y-97050000D03*
X228495619Y-99150000D03*
D18*
X228995619Y-102950000D03*
X217995619Y-102950000D03*
D16*
X151278099Y-102950000D03*
D17*
X151278099Y-97050000D03*
X156278099Y-99150000D03*
D18*
X156778099Y-102950000D03*
X145778099Y-102950000D03*
D16*
X223495619Y-68825000D03*
D17*
X223495619Y-62925000D03*
X228495619Y-65025000D03*
D18*
X228995619Y-68825000D03*
X217995619Y-68825000D03*
D16*
X79060579Y-68825000D03*
D17*
X79060579Y-62925000D03*
X84060579Y-65025000D03*
D18*
X84560579Y-68825000D03*
X73560579Y-68825000D03*
D16*
X187386859Y-85887500D03*
D17*
X187386859Y-79987500D03*
X192386859Y-82087500D03*
D18*
X192886859Y-85887500D03*
X181886859Y-85887500D03*
D16*
X115169339Y-34700000D03*
D17*
X115169339Y-28800000D03*
X120169339Y-30900000D03*
D18*
X120669339Y-34700000D03*
X109669339Y-34700000D03*
D16*
X169332479Y-34700000D03*
D17*
X169332479Y-28800000D03*
X174332479Y-30900000D03*
D18*
X174832479Y-34700000D03*
X163832479Y-34700000D03*
D16*
X187386859Y-51762500D03*
D17*
X187386859Y-45862500D03*
X192386859Y-47962500D03*
D18*
X192886859Y-51762500D03*
X181886859Y-51762500D03*
D16*
X61006199Y-68825000D03*
D17*
X61006199Y-62925000D03*
X66006199Y-65025000D03*
D18*
X66506199Y-68825000D03*
X55506199Y-68825000D03*
D16*
X169332479Y-85887500D03*
D17*
X169332479Y-79987500D03*
X174332479Y-82087500D03*
D18*
X174832479Y-85887500D03*
X163832479Y-85887500D03*
D16*
X115169339Y-51762500D03*
D17*
X115169339Y-45862500D03*
X120169339Y-47962500D03*
D18*
X120669339Y-51762500D03*
X109669339Y-51762500D03*
D16*
X169332479Y-51762500D03*
D17*
X169332479Y-45862500D03*
X174332479Y-47962500D03*
D18*
X174832479Y-51762500D03*
X163832479Y-51762500D03*
D16*
X151278099Y-85887500D03*
D17*
X151278099Y-79987500D03*
X156278099Y-82087500D03*
D18*
X156778099Y-85887500D03*
X145778099Y-85887500D03*
D16*
X133223719Y-85887500D03*
D17*
X133223719Y-79987500D03*
X138223719Y-82087500D03*
D18*
X138723719Y-85887500D03*
X127723719Y-85887500D03*
D16*
X133223719Y-102950000D03*
D17*
X133223719Y-97050000D03*
X138223719Y-99150000D03*
D18*
X138723719Y-102950000D03*
X127723719Y-102950000D03*
D16*
X97114959Y-51762500D03*
D17*
X97114959Y-45862500D03*
X102114959Y-47962500D03*
D18*
X102614959Y-51762500D03*
X91614959Y-51762500D03*
D16*
X151278099Y-51762500D03*
D17*
X151278099Y-45862500D03*
X156278099Y-47962500D03*
D18*
X156778099Y-51762500D03*
X145778099Y-51762500D03*
D16*
X241549999Y-85887500D03*
D17*
X241549999Y-79987500D03*
X246549999Y-82087500D03*
D18*
X247049999Y-85887500D03*
X236049999Y-85887500D03*
D16*
X151278099Y-34700000D03*
D17*
X151278099Y-28800000D03*
X156278099Y-30900000D03*
D18*
X156778099Y-34700000D03*
X145778099Y-34700000D03*
D16*
X61006199Y-85887500D03*
D17*
X61006199Y-79987500D03*
X66006199Y-82087500D03*
D18*
X66506199Y-85887500D03*
X55506199Y-85887500D03*
D16*
X205441239Y-85887500D03*
D17*
X205441239Y-79987500D03*
X210441239Y-82087500D03*
D18*
X210941239Y-85887500D03*
X199941239Y-85887500D03*
D19*
X57196199Y-43230000D03*
D20*
X64816199Y-43230000D03*
D19*
X232525000Y-30890000D03*
D20*
X232525000Y-38510000D03*
D21*
X40396819Y-43250000D03*
X42936819Y-43250000D03*
D22*
X45476819Y-43250000D03*
D19*
X232549999Y-65015000D03*
D20*
X232549999Y-72635000D03*
D19*
X196400000Y-65015000D03*
D20*
X196400000Y-72635000D03*
D19*
X232549999Y-99140000D03*
D20*
X232549999Y-106760000D03*
D19*
X106169339Y-47952500D03*
D20*
X106169339Y-55572500D03*
D19*
X160300000Y-82077500D03*
D20*
X160300000Y-89697500D03*
D19*
X142250000Y-82077500D03*
D20*
X142250000Y-89697500D03*
D19*
X106125000Y-30890000D03*
D20*
X106125000Y-38510000D03*
D19*
X124200000Y-82077500D03*
D20*
X124200000Y-89697500D03*
D19*
X124200000Y-99140000D03*
D20*
X124200000Y-106760000D03*
D19*
X178350000Y-99140000D03*
D20*
X178350000Y-106760000D03*
D19*
X214425000Y-30890000D03*
D20*
X214425000Y-38510000D03*
D19*
X245359999Y-94425000D03*
D20*
X237739999Y-94425000D03*
D19*
X70060579Y-99140000D03*
D20*
X70060579Y-106760000D03*
D19*
X196400000Y-82077500D03*
D20*
X196400000Y-89697500D03*
D19*
X70060579Y-82077500D03*
D20*
X70060579Y-89697500D03*
D19*
X178350000Y-65015000D03*
D20*
X178350000Y-72635000D03*
D19*
X142225000Y-30890000D03*
D20*
X142225000Y-38510000D03*
D19*
X196375000Y-30890000D03*
D20*
X196375000Y-38510000D03*
D19*
X64816199Y-60300000D03*
D20*
X57196199Y-60300000D03*
D19*
X227305619Y-94475000D03*
D20*
X219685619Y-94475000D03*
D19*
X52050000Y-65015000D03*
D20*
X52050000Y-72635000D03*
D19*
X214500000Y-82077500D03*
D20*
X214500000Y-89697500D03*
D19*
X245359999Y-60325000D03*
D20*
X237739999Y-60325000D03*
D19*
X124194339Y-30890000D03*
D20*
X124194339Y-38510000D03*
D19*
X106169339Y-99140000D03*
D20*
X106169339Y-106760000D03*
D19*
X214500000Y-47952500D03*
D20*
X214500000Y-55572500D03*
D19*
X52050000Y-47952500D03*
D20*
X52050000Y-55572500D03*
D19*
X52050000Y-99140000D03*
D20*
X52050000Y-106760000D03*
D19*
X178350000Y-47952500D03*
D20*
X178350000Y-55572500D03*
D19*
X160300000Y-65015000D03*
D20*
X160300000Y-72635000D03*
D19*
X100924959Y-60300000D03*
D20*
X93304959Y-60300000D03*
D19*
X142250000Y-65015000D03*
D20*
X142250000Y-72635000D03*
D19*
X70060579Y-65015000D03*
D20*
X70060579Y-72635000D03*
D19*
X88100000Y-99140000D03*
D20*
X88100000Y-106760000D03*
D19*
X196400000Y-47952500D03*
D20*
X196400000Y-55572500D03*
D19*
X142250000Y-99140000D03*
D20*
X142250000Y-106760000D03*
D19*
X82870579Y-60300000D03*
D20*
X75250579Y-60300000D03*
D19*
X52050000Y-82077500D03*
D20*
X52050000Y-89697500D03*
D19*
X178325000Y-30890000D03*
D20*
X178325000Y-38510000D03*
D19*
X124200000Y-65015000D03*
D20*
X124200000Y-72635000D03*
D19*
X124200000Y-47952500D03*
D20*
X124200000Y-55572500D03*
D19*
X160300000Y-47952500D03*
D20*
X160300000Y-55572500D03*
D19*
X214500000Y-99140000D03*
D20*
X214500000Y-106760000D03*
D19*
X214500000Y-65015000D03*
D20*
X214500000Y-72635000D03*
D19*
X106169339Y-82077500D03*
D20*
X106169339Y-89697500D03*
D19*
X88100000Y-65015000D03*
D20*
X88100000Y-72635000D03*
D19*
X245359999Y-77387500D03*
D20*
X237739999Y-77387500D03*
D19*
X160275000Y-30890000D03*
D20*
X160275000Y-38510000D03*
D19*
X160300000Y-99140000D03*
D20*
X160300000Y-106760000D03*
D19*
X52050000Y-30890000D03*
D20*
X52050000Y-38510000D03*
D19*
X196400000Y-99140000D03*
D20*
X196400000Y-106760000D03*
D19*
X245359999Y-43225000D03*
D20*
X237739999Y-43225000D03*
D19*
X106169339Y-65015000D03*
D20*
X106169339Y-72635000D03*
D19*
X88100000Y-82077500D03*
D20*
X88100000Y-89697500D03*
D19*
X142250000Y-47952500D03*
D20*
X142250000Y-55572500D03*
D19*
X232549999Y-47952500D03*
D20*
X232549999Y-55572500D03*
D19*
X178350000Y-82077500D03*
D20*
X178350000Y-89697500D03*
D19*
X232549999Y-82077500D03*
D20*
X232549999Y-89697500D03*
D13*
X71440579Y-30116750D03*
X71440579Y-32656750D03*
X71440579Y-35196750D03*
X71440579Y-37736750D03*
X71440579Y-40276750D03*
X71440579Y-42816750D03*
X71440579Y-45356750D03*
X71440579Y-47896750D03*
X71440579Y-50436750D03*
X71440579Y-52976750D03*
X71440579Y-55516750D03*
X71440579Y-58056750D03*
X86680579Y-58056750D03*
X86680579Y-55516750D03*
X86680579Y-52976750D03*
X86680579Y-50436750D03*
X86680579Y-47896750D03*
X86680579Y-45356750D03*
X86680579Y-42816750D03*
X86680579Y-40276750D03*
X86680579Y-37736750D03*
X86680579Y-35196750D03*
X86680579Y-32656750D03*
D14*
X86680579Y-30116750D03*
M02*
