G04 #@! TF.GenerationSoftware,KiCad,Pcbnew,7.0.1*
G04 #@! TF.CreationDate,2023-04-09T21:37:26+02:00*
G04 #@! TF.ProjectId,velociraptor,76656c6f-6369-4726-9170-746f722e6b69,rev?*
G04 #@! TF.SameCoordinates,Original*
G04 #@! TF.FileFunction,Soldermask,Top*
G04 #@! TF.FilePolarity,Negative*
%FSLAX46Y46*%
G04 Gerber Fmt 4.6, Leading zero omitted, Abs format (unit mm)*
G04 Created by KiCad (PCBNEW 7.0.1) date 2023-04-09 21:37:26*
%MOMM*%
%LPD*%
G01*
G04 APERTURE LIST*
%ADD10C,4.400000*%
%ADD11C,3.400000*%
%ADD12C,2.000000*%
%ADD13C,1.700000*%
%ADD14C,1.800000*%
%ADD15O,1.600000X1.600000*%
%ADD16R,1.600000X1.600000*%
%ADD17O,1.700000X1.700000*%
%ADD18R,1.700000X1.700000*%
%ADD19C,1.752600*%
%ADD20R,1.752600X1.752600*%
G04 APERTURE END LIST*
D10*
X232525000Y-94400000D03*
X232525000Y-43225000D03*
X142275000Y-60300000D03*
X142275000Y-94400000D03*
X51925000Y-94400000D03*
X51925000Y-43225000D03*
D11*
X42951819Y-34700000D03*
D12*
X42951819Y-28800000D03*
X47951819Y-30900000D03*
D13*
X48451819Y-34700000D03*
X37451819Y-34700000D03*
D14*
X54229009Y-57043750D03*
X49729009Y-63543750D03*
X49729009Y-57043750D03*
X54229009Y-63543750D03*
D11*
X169332479Y-68825000D03*
D12*
X169332479Y-62925000D03*
X174332479Y-65025000D03*
D13*
X174832479Y-68825000D03*
X163832479Y-68825000D03*
D11*
X205441239Y-51762500D03*
D12*
X205441239Y-45862500D03*
X210441239Y-47962500D03*
D13*
X210941239Y-51762500D03*
X199941239Y-51762500D03*
D11*
X79060579Y-34700000D03*
D12*
X79060579Y-28800000D03*
X84060579Y-30900000D03*
D13*
X84560579Y-34700000D03*
X73560579Y-34700000D03*
D11*
X97114959Y-102950000D03*
D12*
X97114959Y-97050000D03*
X102114959Y-99150000D03*
D13*
X102614959Y-102950000D03*
X91614959Y-102950000D03*
D11*
X79060579Y-51762500D03*
D12*
X79060579Y-45862500D03*
X84060579Y-47962500D03*
D13*
X84560579Y-51762500D03*
X73560579Y-51762500D03*
D11*
X187386859Y-102950000D03*
D12*
X187386859Y-97050000D03*
X192386859Y-99150000D03*
D13*
X192886859Y-102950000D03*
X181886859Y-102950000D03*
D11*
X42951819Y-51762500D03*
D12*
X42951819Y-45862500D03*
X47951819Y-47962500D03*
D13*
X48451819Y-51762500D03*
X37451819Y-51762500D03*
D11*
X223495619Y-51762500D03*
D12*
X223495619Y-45862500D03*
X228495619Y-47962500D03*
D13*
X228995619Y-51762500D03*
X217995619Y-51762500D03*
D11*
X169332479Y-102950000D03*
D12*
X169332479Y-97050000D03*
X174332479Y-99150000D03*
D13*
X174832479Y-102950000D03*
X163832479Y-102950000D03*
D11*
X97114959Y-68825000D03*
D12*
X97114959Y-62925000D03*
X102114959Y-65025000D03*
D13*
X102614959Y-68825000D03*
X91614959Y-68825000D03*
D11*
X115169339Y-102950000D03*
D12*
X115169339Y-97050000D03*
X120169339Y-99150000D03*
D13*
X120669339Y-102950000D03*
X109669339Y-102950000D03*
D11*
X97114959Y-85887500D03*
D12*
X97114959Y-79987500D03*
X102114959Y-82087500D03*
D13*
X102614959Y-85887500D03*
X91614959Y-85887500D03*
D11*
X241549999Y-102950000D03*
D12*
X241549999Y-97050000D03*
X246549999Y-99150000D03*
D13*
X247049999Y-102950000D03*
X236049999Y-102950000D03*
D11*
X133223719Y-51762500D03*
D12*
X133223719Y-45862500D03*
X138223719Y-47962500D03*
D13*
X138723719Y-51762500D03*
X127723719Y-51762500D03*
D11*
X187386859Y-68825000D03*
D12*
X187386859Y-62925000D03*
X192386859Y-65025000D03*
D13*
X192886859Y-68825000D03*
X181886859Y-68825000D03*
D11*
X133223719Y-68825000D03*
D12*
X133223719Y-62925000D03*
X138223719Y-65025000D03*
D13*
X138723719Y-68825000D03*
X127723719Y-68825000D03*
D11*
X42951819Y-102950000D03*
D12*
X42951819Y-97050000D03*
X47951819Y-99150000D03*
D13*
X48451819Y-102950000D03*
X37451819Y-102950000D03*
D11*
X61006199Y-102950000D03*
D12*
X61006199Y-97050000D03*
X66006199Y-99150000D03*
D13*
X66506199Y-102950000D03*
X55506199Y-102950000D03*
D11*
X151278099Y-68825000D03*
D12*
X151278099Y-62925000D03*
X156278099Y-65025000D03*
D13*
X156778099Y-68825000D03*
X145778099Y-68825000D03*
D11*
X97114959Y-34700000D03*
D12*
X97114959Y-28800000D03*
X102114959Y-30900000D03*
D13*
X102614959Y-34700000D03*
X91614959Y-34700000D03*
D11*
X42951819Y-68825000D03*
D12*
X42951819Y-62925000D03*
X47951819Y-65025000D03*
D13*
X48451819Y-68825000D03*
X37451819Y-68825000D03*
D11*
X241549999Y-51762500D03*
D12*
X241549999Y-45862500D03*
X246549999Y-47962500D03*
D13*
X247049999Y-51762500D03*
X236049999Y-51762500D03*
D11*
X187386859Y-34700000D03*
D12*
X187386859Y-28800000D03*
X192386859Y-30900000D03*
D13*
X192886859Y-34700000D03*
X181886859Y-34700000D03*
D11*
X241549999Y-68825000D03*
D12*
X241549999Y-62925000D03*
X246549999Y-65025000D03*
D13*
X247049999Y-68825000D03*
X236049999Y-68825000D03*
D11*
X205441239Y-68825000D03*
D12*
X205441239Y-62925000D03*
X210441239Y-65025000D03*
D13*
X210941239Y-68825000D03*
X199941239Y-68825000D03*
D11*
X223495619Y-85887500D03*
D12*
X223495619Y-79987500D03*
X228495619Y-82087500D03*
D13*
X228995619Y-85887500D03*
X217995619Y-85887500D03*
D11*
X115169339Y-85887500D03*
D12*
X115169339Y-79987500D03*
X120169339Y-82087500D03*
D13*
X120669339Y-85887500D03*
X109669339Y-85887500D03*
D11*
X241549999Y-34700000D03*
D12*
X241549999Y-28800000D03*
X246549999Y-30900000D03*
D13*
X247049999Y-34700000D03*
X236049999Y-34700000D03*
D11*
X42951819Y-85887500D03*
D12*
X42951819Y-79987500D03*
X47951819Y-82087500D03*
D13*
X48451819Y-85887500D03*
X37451819Y-85887500D03*
D11*
X205441239Y-102950000D03*
D12*
X205441239Y-97050000D03*
X210441239Y-99150000D03*
D13*
X210941239Y-102950000D03*
X199941239Y-102950000D03*
D11*
X61006199Y-51762500D03*
D12*
X61006199Y-45862500D03*
X66006199Y-47962500D03*
D13*
X66506199Y-51762500D03*
X55506199Y-51762500D03*
D11*
X115169339Y-68825000D03*
D12*
X115169339Y-62925000D03*
X120169339Y-65025000D03*
D13*
X120669339Y-68825000D03*
X109669339Y-68825000D03*
D11*
X79060579Y-85887500D03*
D12*
X79060579Y-79987500D03*
X84060579Y-82087500D03*
D13*
X84560579Y-85887500D03*
X73560579Y-85887500D03*
D11*
X79060579Y-102950000D03*
D12*
X79060579Y-97050000D03*
X84060579Y-99150000D03*
D13*
X84560579Y-102950000D03*
X73560579Y-102950000D03*
D11*
X61006199Y-34700000D03*
D12*
X61006199Y-28800000D03*
X66006199Y-30900000D03*
D13*
X66506199Y-34700000D03*
X55506199Y-34700000D03*
D11*
X205441239Y-34700000D03*
D12*
X205441239Y-28800000D03*
X210441239Y-30900000D03*
D13*
X210941239Y-34700000D03*
X199941239Y-34700000D03*
D11*
X223495619Y-34700000D03*
D12*
X223495619Y-28800000D03*
X228495619Y-30900000D03*
D13*
X228995619Y-34700000D03*
X217995619Y-34700000D03*
D11*
X133223719Y-34700000D03*
D12*
X133223719Y-28800000D03*
X138223719Y-30900000D03*
D13*
X138723719Y-34700000D03*
X127723719Y-34700000D03*
D11*
X223495619Y-102950000D03*
D12*
X223495619Y-97050000D03*
X228495619Y-99150000D03*
D13*
X228995619Y-102950000D03*
X217995619Y-102950000D03*
D11*
X151278099Y-102950000D03*
D12*
X151278099Y-97050000D03*
X156278099Y-99150000D03*
D13*
X156778099Y-102950000D03*
X145778099Y-102950000D03*
D11*
X223495619Y-68825000D03*
D12*
X223495619Y-62925000D03*
X228495619Y-65025000D03*
D13*
X228995619Y-68825000D03*
X217995619Y-68825000D03*
D11*
X79060579Y-68825000D03*
D12*
X79060579Y-62925000D03*
X84060579Y-65025000D03*
D13*
X84560579Y-68825000D03*
X73560579Y-68825000D03*
D11*
X187386859Y-85887500D03*
D12*
X187386859Y-79987500D03*
X192386859Y-82087500D03*
D13*
X192886859Y-85887500D03*
X181886859Y-85887500D03*
D11*
X115169339Y-34700000D03*
D12*
X115169339Y-28800000D03*
X120169339Y-30900000D03*
D13*
X120669339Y-34700000D03*
X109669339Y-34700000D03*
D11*
X169332479Y-34700000D03*
D12*
X169332479Y-28800000D03*
X174332479Y-30900000D03*
D13*
X174832479Y-34700000D03*
X163832479Y-34700000D03*
D11*
X187386859Y-51762500D03*
D12*
X187386859Y-45862500D03*
X192386859Y-47962500D03*
D13*
X192886859Y-51762500D03*
X181886859Y-51762500D03*
D11*
X61006199Y-68825000D03*
D12*
X61006199Y-62925000D03*
X66006199Y-65025000D03*
D13*
X66506199Y-68825000D03*
X55506199Y-68825000D03*
D11*
X169332479Y-85887500D03*
D12*
X169332479Y-79987500D03*
X174332479Y-82087500D03*
D13*
X174832479Y-85887500D03*
X163832479Y-85887500D03*
D11*
X115169339Y-51762500D03*
D12*
X115169339Y-45862500D03*
X120169339Y-47962500D03*
D13*
X120669339Y-51762500D03*
X109669339Y-51762500D03*
D11*
X169332479Y-51762500D03*
D12*
X169332479Y-45862500D03*
X174332479Y-47962500D03*
D13*
X174832479Y-51762500D03*
X163832479Y-51762500D03*
D11*
X151278099Y-85887500D03*
D12*
X151278099Y-79987500D03*
X156278099Y-82087500D03*
D13*
X156778099Y-85887500D03*
X145778099Y-85887500D03*
D11*
X133223719Y-85887500D03*
D12*
X133223719Y-79987500D03*
X138223719Y-82087500D03*
D13*
X138723719Y-85887500D03*
X127723719Y-85887500D03*
D11*
X133223719Y-102950000D03*
D12*
X133223719Y-97050000D03*
X138223719Y-99150000D03*
D13*
X138723719Y-102950000D03*
X127723719Y-102950000D03*
D11*
X97114959Y-51762500D03*
D12*
X97114959Y-45862500D03*
X102114959Y-47962500D03*
D13*
X102614959Y-51762500D03*
X91614959Y-51762500D03*
D11*
X151278099Y-51762500D03*
D12*
X151278099Y-45862500D03*
X156278099Y-47962500D03*
D13*
X156778099Y-51762500D03*
X145778099Y-51762500D03*
D11*
X241549999Y-85887500D03*
D12*
X241549999Y-79987500D03*
X246549999Y-82087500D03*
D13*
X247049999Y-85887500D03*
X236049999Y-85887500D03*
D11*
X151278099Y-34700000D03*
D12*
X151278099Y-28800000D03*
X156278099Y-30900000D03*
D13*
X156778099Y-34700000D03*
X145778099Y-34700000D03*
D11*
X61006199Y-85887500D03*
D12*
X61006199Y-79987500D03*
X66006199Y-82087500D03*
D13*
X66506199Y-85887500D03*
X55506199Y-85887500D03*
D11*
X205441239Y-85887500D03*
D12*
X205441239Y-79987500D03*
X210441239Y-82087500D03*
D13*
X210941239Y-85887500D03*
X199941239Y-85887500D03*
D15*
X57196199Y-43230000D03*
D16*
X64816199Y-43230000D03*
D15*
X232525000Y-30890000D03*
D16*
X232525000Y-38510000D03*
D17*
X40396819Y-43250000D03*
X42936819Y-43250000D03*
D18*
X45476819Y-43250000D03*
D15*
X232549999Y-65015000D03*
D16*
X232549999Y-72635000D03*
D15*
X196400000Y-65015000D03*
D16*
X196400000Y-72635000D03*
D15*
X232549999Y-99140000D03*
D16*
X232549999Y-106760000D03*
D15*
X106169339Y-47952500D03*
D16*
X106169339Y-55572500D03*
D15*
X160300000Y-82077500D03*
D16*
X160300000Y-89697500D03*
D15*
X142250000Y-82077500D03*
D16*
X142250000Y-89697500D03*
D15*
X106125000Y-30890000D03*
D16*
X106125000Y-38510000D03*
D15*
X124200000Y-82077500D03*
D16*
X124200000Y-89697500D03*
D15*
X124200000Y-99140000D03*
D16*
X124200000Y-106760000D03*
D15*
X178350000Y-99140000D03*
D16*
X178350000Y-106760000D03*
D15*
X214425000Y-30890000D03*
D16*
X214425000Y-38510000D03*
D15*
X245359999Y-94425000D03*
D16*
X237739999Y-94425000D03*
D15*
X70060579Y-99140000D03*
D16*
X70060579Y-106760000D03*
D15*
X196400000Y-82077500D03*
D16*
X196400000Y-89697500D03*
D15*
X70060579Y-82077500D03*
D16*
X70060579Y-89697500D03*
D15*
X178350000Y-65015000D03*
D16*
X178350000Y-72635000D03*
D15*
X142225000Y-30890000D03*
D16*
X142225000Y-38510000D03*
D15*
X196375000Y-30890000D03*
D16*
X196375000Y-38510000D03*
D15*
X64816199Y-60300000D03*
D16*
X57196199Y-60300000D03*
D15*
X227305619Y-94475000D03*
D16*
X219685619Y-94475000D03*
D15*
X52050000Y-65015000D03*
D16*
X52050000Y-72635000D03*
D15*
X214500000Y-82077500D03*
D16*
X214500000Y-89697500D03*
D15*
X245359999Y-60325000D03*
D16*
X237739999Y-60325000D03*
D15*
X124194339Y-30890000D03*
D16*
X124194339Y-38510000D03*
D15*
X106169339Y-99140000D03*
D16*
X106169339Y-106760000D03*
D15*
X214500000Y-47952500D03*
D16*
X214500000Y-55572500D03*
D15*
X52050000Y-47952500D03*
D16*
X52050000Y-55572500D03*
D15*
X52050000Y-99140000D03*
D16*
X52050000Y-106760000D03*
D15*
X178350000Y-47952500D03*
D16*
X178350000Y-55572500D03*
D15*
X160300000Y-65015000D03*
D16*
X160300000Y-72635000D03*
D15*
X100924959Y-60300000D03*
D16*
X93304959Y-60300000D03*
D15*
X142250000Y-65015000D03*
D16*
X142250000Y-72635000D03*
D15*
X70060579Y-65015000D03*
D16*
X70060579Y-72635000D03*
D15*
X88100000Y-99140000D03*
D16*
X88100000Y-106760000D03*
D15*
X196400000Y-47952500D03*
D16*
X196400000Y-55572500D03*
D15*
X142250000Y-99140000D03*
D16*
X142250000Y-106760000D03*
D15*
X82870579Y-60300000D03*
D16*
X75250579Y-60300000D03*
D15*
X52050000Y-82077500D03*
D16*
X52050000Y-89697500D03*
D15*
X178325000Y-30890000D03*
D16*
X178325000Y-38510000D03*
D15*
X124200000Y-65015000D03*
D16*
X124200000Y-72635000D03*
D15*
X124200000Y-47952500D03*
D16*
X124200000Y-55572500D03*
D15*
X160300000Y-47952500D03*
D16*
X160300000Y-55572500D03*
D15*
X214500000Y-99140000D03*
D16*
X214500000Y-106760000D03*
D15*
X214500000Y-65015000D03*
D16*
X214500000Y-72635000D03*
D15*
X106169339Y-82077500D03*
D16*
X106169339Y-89697500D03*
D15*
X88100000Y-65015000D03*
D16*
X88100000Y-72635000D03*
D15*
X245359999Y-77387500D03*
D16*
X237739999Y-77387500D03*
D15*
X160275000Y-30890000D03*
D16*
X160275000Y-38510000D03*
D15*
X160300000Y-99140000D03*
D16*
X160300000Y-106760000D03*
D15*
X52050000Y-30890000D03*
D16*
X52050000Y-38510000D03*
D15*
X196400000Y-99140000D03*
D16*
X196400000Y-106760000D03*
D15*
X245359999Y-43225000D03*
D16*
X237739999Y-43225000D03*
D15*
X106169339Y-65015000D03*
D16*
X106169339Y-72635000D03*
D15*
X88100000Y-82077500D03*
D16*
X88100000Y-89697500D03*
D15*
X142250000Y-47952500D03*
D16*
X142250000Y-55572500D03*
D15*
X232549999Y-47952500D03*
D16*
X232549999Y-55572500D03*
D15*
X178350000Y-82077500D03*
D16*
X178350000Y-89697500D03*
D15*
X232549999Y-82077500D03*
D16*
X232549999Y-89697500D03*
D19*
X71440579Y-30116750D03*
X71440579Y-32656750D03*
X71440579Y-35196750D03*
X71440579Y-37736750D03*
X71440579Y-40276750D03*
X71440579Y-42816750D03*
X71440579Y-45356750D03*
X71440579Y-47896750D03*
X71440579Y-50436750D03*
X71440579Y-52976750D03*
X71440579Y-55516750D03*
X71440579Y-58056750D03*
X86680579Y-58056750D03*
X86680579Y-55516750D03*
X86680579Y-52976750D03*
X86680579Y-50436750D03*
X86680579Y-47896750D03*
X86680579Y-45356750D03*
X86680579Y-42816750D03*
X86680579Y-40276750D03*
X86680579Y-37736750D03*
X86680579Y-35196750D03*
X86680579Y-32656750D03*
D20*
X86680579Y-30116750D03*
M02*
