M48
; DRILL file {KiCad 7.0.1} date Thu 06 Apr 2023 14:22:42 CEST
; FORMAT={-:-/ absolute / metric / decimal}
; #@! TF.CreationDate,2023-04-06T14:22:42+02:00
; #@! TF.GenerationSoftware,Kicad,Pcbnew,7.0.1
; #@! TF.FileFunction,Plated,1,2,PTH
FMAT,2
METRIC
; #@! TA.AperFunction,Plated,PTH,ViaDrill
T1C0.400
; #@! TA.AperFunction,Plated,PTH,ComponentDrill
T2C0.800
; #@! TA.AperFunction,Plated,PTH,ComponentDrill
T3C1.000
; #@! TA.AperFunction,Plated,PTH,ComponentDrill
T4C1.092
; #@! TA.AperFunction,Plated,PTH,ComponentDrill
T5C1.200
%
G90
G05
T1
X68.725Y-46.081
X75.95Y-33.825
X88.325Y-54.25
T2
X52.05Y-30.89
X52.05Y-38.51
X52.05Y-47.953
X52.05Y-55.572
X52.05Y-65.015
X52.05Y-72.635
X52.05Y-82.078
X52.05Y-89.697
X52.05Y-99.14
X52.05Y-106.76
X57.196Y-43.23
X57.196Y-60.3
X64.816Y-43.23
X64.816Y-60.3
X70.061Y-65.015
X70.061Y-72.635
X70.061Y-82.078
X70.061Y-89.697
X70.061Y-99.14
X70.061Y-106.76
X75.251Y-60.3
X82.871Y-60.3
X88.1Y-65.015
X88.1Y-72.635
X88.1Y-82.078
X88.1Y-89.697
X88.1Y-99.14
X88.1Y-106.76
X93.305Y-60.3
X100.925Y-60.3
X106.125Y-30.89
X106.125Y-38.51
X106.169Y-47.953
X106.169Y-55.572
X106.169Y-65.015
X106.169Y-72.635
X106.169Y-82.078
X106.169Y-89.697
X106.169Y-99.14
X106.169Y-106.76
X124.194Y-30.89
X124.194Y-38.51
X124.2Y-47.953
X124.2Y-55.572
X124.2Y-65.015
X124.2Y-72.635
X124.2Y-82.078
X124.2Y-89.697
X124.2Y-99.14
X124.2Y-106.76
X142.225Y-30.89
X142.225Y-38.51
X142.25Y-47.953
X142.25Y-55.572
X142.25Y-65.015
X142.25Y-72.635
X142.25Y-82.078
X142.25Y-89.697
X142.25Y-99.14
X142.25Y-106.76
X160.275Y-30.89
X160.275Y-38.51
X160.3Y-47.953
X160.3Y-55.572
X160.3Y-65.015
X160.3Y-72.635
X160.3Y-82.078
X160.3Y-89.697
X160.3Y-99.14
X160.3Y-106.76
X178.325Y-30.89
X178.325Y-38.51
X178.35Y-47.953
X178.35Y-55.572
X178.35Y-65.015
X178.35Y-72.635
X178.35Y-82.078
X178.35Y-89.697
X178.35Y-99.14
X178.35Y-106.76
X196.375Y-30.89
X196.375Y-38.51
X196.4Y-47.953
X196.4Y-55.572
X196.4Y-65.015
X196.4Y-72.635
X196.4Y-82.078
X196.4Y-89.697
X196.4Y-99.14
X196.4Y-106.76
X214.425Y-30.89
X214.425Y-38.51
X214.5Y-47.953
X214.5Y-55.572
X214.5Y-65.015
X214.5Y-72.635
X214.5Y-82.078
X214.5Y-89.697
X214.5Y-99.14
X214.5Y-106.76
X219.686Y-94.475
X227.306Y-94.475
X232.525Y-30.89
X232.525Y-38.51
X232.55Y-47.953
X232.55Y-55.572
X232.55Y-65.015
X232.55Y-72.635
X232.55Y-82.078
X232.55Y-89.697
X232.55Y-99.14
X232.55Y-106.76
X237.74Y-43.225
X237.74Y-60.325
X237.74Y-77.388
X237.74Y-94.425
X245.36Y-43.225
X245.36Y-60.325
X245.36Y-77.388
X245.36Y-94.425
T3
X40.397Y-43.25
X42.937Y-43.25
X45.477Y-43.25
X49.729Y-57.044
X49.729Y-63.544
X54.229Y-57.044
X54.229Y-63.544
T4
X71.441Y-30.117
X71.441Y-32.657
X71.441Y-35.197
X71.441Y-37.737
X71.441Y-40.277
X71.441Y-42.817
X71.441Y-45.357
X71.441Y-47.897
X71.441Y-50.437
X71.441Y-52.977
X71.441Y-55.517
X71.441Y-58.057
X86.681Y-30.117
X86.681Y-32.657
X86.681Y-35.197
X86.681Y-37.737
X86.681Y-40.277
X86.681Y-42.817
X86.681Y-45.357
X86.681Y-47.897
X86.681Y-50.437
X86.681Y-52.977
X86.681Y-55.517
X86.681Y-58.057
T5
X42.952Y-28.8
X42.952Y-45.862
X42.952Y-62.925
X42.952Y-79.987
X42.952Y-97.05
X47.952Y-30.9
X47.952Y-47.962
X47.952Y-65.025
X47.952Y-82.087
X47.952Y-99.15
X61.006Y-28.8
X61.006Y-45.862
X61.006Y-62.925
X61.006Y-79.987
X61.006Y-97.05
X66.006Y-30.9
X66.006Y-47.962
X66.006Y-65.025
X66.006Y-82.087
X66.006Y-99.15
X79.061Y-28.8
X79.061Y-45.862
X79.061Y-62.925
X79.061Y-79.987
X79.061Y-97.05
X84.061Y-30.9
X84.061Y-47.962
X84.061Y-65.025
X84.061Y-82.087
X84.061Y-99.15
X97.115Y-28.8
X97.115Y-45.862
X97.115Y-62.925
X97.115Y-79.987
X97.115Y-97.05
X102.115Y-30.9
X102.115Y-47.962
X102.115Y-65.025
X102.115Y-82.087
X102.115Y-99.15
X115.169Y-28.8
X115.169Y-45.862
X115.169Y-62.925
X115.169Y-79.987
X115.169Y-97.05
X120.169Y-30.9
X120.169Y-47.962
X120.169Y-65.025
X120.169Y-82.087
X120.169Y-99.15
X133.224Y-28.8
X133.224Y-45.862
X133.224Y-62.925
X133.224Y-79.987
X133.224Y-97.05
X138.224Y-30.9
X138.224Y-47.962
X138.224Y-65.025
X138.224Y-82.087
X138.224Y-99.15
X151.278Y-28.8
X151.278Y-45.862
X151.278Y-62.925
X151.278Y-79.987
X151.278Y-97.05
X156.278Y-30.9
X156.278Y-47.962
X156.278Y-65.025
X156.278Y-82.087
X156.278Y-99.15
X169.332Y-28.8
X169.332Y-45.862
X169.332Y-62.925
X169.332Y-79.987
X169.332Y-97.05
X174.332Y-30.9
X174.332Y-47.962
X174.332Y-65.025
X174.332Y-82.087
X174.332Y-99.15
X187.387Y-28.8
X187.387Y-45.862
X187.387Y-62.925
X187.387Y-79.987
X187.387Y-97.05
X192.387Y-30.9
X192.387Y-47.962
X192.387Y-65.025
X192.387Y-82.087
X192.387Y-99.15
X205.441Y-28.8
X205.441Y-45.862
X205.441Y-62.925
X205.441Y-79.987
X205.441Y-97.05
X210.441Y-30.9
X210.441Y-47.962
X210.441Y-65.025
X210.441Y-82.087
X210.441Y-99.15
X223.496Y-28.8
X223.496Y-45.862
X223.496Y-62.925
X223.496Y-79.987
X223.496Y-97.05
X228.496Y-30.9
X228.496Y-47.962
X228.496Y-65.025
X228.496Y-82.087
X228.496Y-99.15
X241.55Y-28.8
X241.55Y-45.862
X241.55Y-62.925
X241.55Y-79.987
X241.55Y-97.05
X246.55Y-30.9
X246.55Y-47.962
X246.55Y-65.025
X246.55Y-82.087
X246.55Y-99.15
T0
M30
